<svg width="37" height="36" viewBox="0 0 37 36" fill="none" xmlns="http://www.w3.org/2000/svg">
<rect width="36.7738" height="36" rx="4" fill="#D6DBD7"/>
<path d="M13.162 8.13168C12.8374 8.27202 12.662 8.55272 12.7234 8.84219C12.741 8.95623 12.7234 9.0264 12.6883 9.00009C12.6445 8.97377 12.6094 10.772 12.6094 12.9913C12.6094 16.8947 12.6181 17.0351 12.776 17.1228C12.9953 17.2368 13.0743 17.2368 13.0041 17.1228C12.9778 17.0702 13.0129 17.0614 13.0918 17.0965C13.2059 17.1403 13.2146 17.1579 13.1181 17.2193C13.0217 17.2807 13.0304 17.2982 13.1269 17.2982C13.1971 17.2982 13.2322 17.3245 13.2059 17.3509C13.1708 17.3772 13.0304 17.3333 12.8813 17.2544C12.7322 17.1842 12.6094 17.1579 12.6094 17.2017C12.6094 17.2719 13.0655 17.4737 13.2322 17.4737C13.276 17.4737 13.3111 15.5877 13.3111 13.2807C13.3111 10.0439 13.2848 9.06149 13.2059 8.97377C13.1094 8.88605 13.1269 8.87728 13.2497 8.92991C13.3638 8.97377 13.4076 8.94745 13.3988 8.86851C13.3638 8.64044 13.3988 8.52641 13.4953 8.52641C13.5655 8.52641 13.5567 8.57904 13.4778 8.67553C13.4076 8.75447 13.3988 8.79833 13.4427 8.77202C13.4953 8.7457 14.8725 8.69307 16.5128 8.65798C18.1532 8.63167 19.5128 8.58781 19.5391 8.57027C19.5654 8.55272 19.5742 9.15798 19.5567 9.91236C19.5391 10.6667 19.5567 11.2632 19.5917 11.2281C19.6181 11.193 19.7321 11.2632 19.8286 11.386C19.9602 11.5615 19.9777 11.6316 19.8988 11.7106C19.8198 11.7895 19.8023 11.7808 19.8549 11.6492C19.9075 11.5176 19.89 11.5001 19.8023 11.5527C19.7321 11.5965 19.7058 11.5878 19.7496 11.5264C19.776 11.4737 19.7672 11.4123 19.7146 11.3772C19.6005 11.3071 19.6005 11.4737 19.7233 11.693C19.776 11.8071 19.8724 11.8509 19.9514 11.8246C20.0391 11.7895 20.0654 11.8071 20.0391 11.8948C19.9514 12.1141 20.4777 12.2106 21.7847 12.2106C22.7408 12.2106 23.0478 12.1843 23.0478 12.0965C23.0478 12.0176 23.0654 12.0176 23.1268 12.1053C23.1619 12.1667 23.2671 12.2281 23.3636 12.2281C23.5215 12.2457 23.5303 12.3422 23.504 14.8684L23.4777 17.4912L23.8373 17.2895L24.197 17.0877L24.1706 14.3421L24.1443 11.5965L22.3461 11.579L20.5479 11.5615L20.3988 11.3334C20.2672 11.1492 20.2409 10.8948 20.2409 9.55271V8.0001H16.8462C14.1532 8.00887 13.3813 8.03518 13.162 8.13168ZM20.1531 8.17553C20.1531 8.21939 20.0917 8.26325 20.0216 8.26325C19.9514 8.26325 19.89 8.21939 19.89 8.17553C19.89 8.1229 19.9514 8.08782 20.0216 8.08782C20.0917 8.08782 20.1531 8.1229 20.1531 8.17553ZM13.1795 8.26325C13.1532 8.30711 13.1971 8.35974 13.2848 8.35974C13.4339 8.36851 13.4339 8.37729 13.2936 8.41237C13.2059 8.42992 13.1357 8.49132 13.1357 8.53518C13.1357 8.58781 13.1795 8.59658 13.2409 8.56149C13.3023 8.51764 13.3111 8.53518 13.2673 8.61413C13.2146 8.70184 13.1708 8.69307 13.0655 8.56149C12.9515 8.4036 12.9427 8.42115 12.9953 8.70184C13.0392 9.00009 13.0392 9.00886 12.9252 8.78956C12.8111 8.58781 12.8199 8.55272 12.9778 8.36851C13.1708 8.16676 13.276 8.11413 13.1795 8.26325ZM18.2058 8.23694C17.39 8.25448 16.0742 8.25448 15.2672 8.23694C14.4515 8.22817 15.1181 8.21062 16.7321 8.21062C18.3461 8.21062 19.0128 8.22817 18.2058 8.23694ZM19.8637 10.1229C19.8461 10.3334 19.8286 10.1843 19.8286 9.79832C19.8286 9.41236 19.8461 9.2457 19.8637 9.42113C19.8812 9.60534 19.8812 9.92113 19.8637 10.1229ZM20.1268 9.90358C20.1093 10.0439 20.0917 9.9299 20.0917 9.66674C20.0917 9.40359 20.1093 9.28956 20.1268 9.42113C20.1444 9.56148 20.1444 9.77201 20.1268 9.90358ZM19.6882 10.7808C19.6707 10.9211 19.6532 10.8246 19.6532 10.5878C19.6532 10.3422 19.6707 10.2369 19.6882 10.3422C19.7058 10.4562 19.7058 10.6492 19.6882 10.7808ZM20.1356 10.8509C20.1356 10.9913 20.1181 10.9825 20.0654 10.8071C20.0303 10.6843 19.9953 10.5088 19.9953 10.4123C19.9953 10.272 20.0128 10.2808 20.0654 10.4562C20.1005 10.579 20.1356 10.7545 20.1356 10.8509ZM21.1005 11.7457C21.0128 11.7632 20.8549 11.7632 20.7496 11.7457C20.6356 11.7281 20.7058 11.7106 20.8987 11.7106C21.0917 11.7018 21.1794 11.7194 21.1005 11.7457ZM24.0741 15.9123C24.0654 16.5088 24.0478 16.0263 24.0478 14.8421C24.0478 13.6579 24.0654 13.1755 24.0741 13.7632C24.0917 14.3597 24.0917 15.3246 24.0741 15.9123ZM23.8198 17.114C23.9163 17.1667 23.9075 17.2017 23.7847 17.2456C23.7057 17.2719 23.618 17.2807 23.5917 17.2544C23.5654 17.2281 23.6005 17.2105 23.6706 17.2105C23.7671 17.2105 23.7671 17.193 23.6619 17.1228C23.5917 17.0789 23.5742 17.0351 23.618 17.0351C23.6706 17.0351 23.7584 17.0702 23.8198 17.114Z" fill="url(#paint0_linear_805_1930)"/>
<path d="M20.8545 9.30692C20.8545 10.5788 20.9159 10.8946 21.179 10.8946C21.3019 10.8946 21.3019 10.8771 21.1527 10.763C20.9948 10.6402 20.9948 10.6402 21.1878 10.6929C21.2931 10.7192 21.3808 10.7806 21.3808 10.842C21.3808 10.9122 21.7843 10.9385 22.7317 10.9385C23.8018 10.9385 24.065 10.9122 23.9948 10.8332C23.9422 10.7718 23.872 10.7367 23.8369 10.763C23.8018 10.7894 23.7404 10.7455 23.7141 10.6665C23.679 10.5876 23.6001 10.5437 23.5211 10.5788C23.4422 10.6051 23.4159 10.5964 23.451 10.535C23.5211 10.4209 23.1352 10.0087 23.0211 10.0788C22.9685 10.1052 22.9597 10.0876 22.9948 10.035C23.0825 9.88586 22.7492 9.73674 22.6089 9.86831C22.5036 9.95603 22.5036 9.94726 22.6001 9.81568C22.7053 9.67533 22.6703 9.6227 22.4948 9.65779C22.451 9.66656 22.4422 9.63147 22.4685 9.58762C22.5036 9.54376 22.4159 9.42095 22.2843 9.32446C22.0387 9.14025 21.9071 9.02622 21.2317 8.39465L20.8545 8.05255V9.30692ZM21.2755 8.79815C21.2229 8.83324 21.2492 8.89464 21.3457 8.95604C21.4948 9.05253 21.4861 9.05253 21.2931 8.9999C21.0212 8.92973 20.951 8.86833 21.1001 8.81569C21.1527 8.78938 21.2054 8.71043 21.2054 8.63149C21.2054 8.49991 21.2229 8.49991 21.2931 8.61394C21.3457 8.69289 21.3369 8.76306 21.2755 8.79815Z" fill="url(#paint1_linear_805_1930)"/>
<path d="M14.4858 10.2194C14.4683 10.2808 14.4595 10.9212 14.4683 11.6404L14.4946 12.9562L16.3279 12.9825C17.5998 13.0001 18.1963 12.9738 18.2753 12.9036C18.3717 12.8246 18.3981 12.5176 18.3981 11.5966C18.3981 10.9299 18.3717 10.3247 18.3454 10.2457C18.3016 10.1229 18.0472 10.1054 16.4156 10.1054C14.9595 10.1054 14.5209 10.1317 14.4858 10.2194ZM15.0209 10.2808C15.056 10.3334 14.9595 10.3685 14.7841 10.3598C14.5121 10.351 14.5034 10.351 14.7139 10.2808C14.8367 10.2457 14.942 10.2106 14.9507 10.2019C14.9595 10.1931 14.9946 10.2282 15.0209 10.2808ZM18.284 10.3159C18.3103 10.3334 17.6349 10.3598 16.7928 10.3685C15.942 10.3685 15.2314 10.3422 15.2139 10.3071C15.17 10.2369 18.2139 10.2457 18.284 10.3159Z" fill="url(#paint2_linear_805_1930)"/>
<path d="M14.4953 14.2366C14.4602 14.2892 14.469 14.3682 14.5128 14.412C14.5567 14.4559 16.1707 14.4822 18.4514 14.4734C21.8022 14.4471 22.3022 14.4296 22.3022 14.3155C22.3022 14.2015 21.8022 14.1839 18.4251 14.1576C15.6883 14.1489 14.5304 14.1664 14.4953 14.2366Z" fill="url(#paint3_linear_805_1930)"/>
<path d="M14.4861 15.9386C14.3721 16.2281 14.5387 16.2456 16.8984 16.2456H19.2492L19.2053 16.0263L19.1703 15.807H16.8545C14.9072 15.807 14.5212 15.8246 14.4861 15.9386ZM14.9335 15.9912C15.0387 16.1579 14.9072 16.1842 14.6966 16.0351L14.5037 15.8947H14.6879C14.7931 15.8947 14.9072 15.9386 14.9335 15.9912ZM18.7931 15.9474C19.1615 16.0965 18.5913 16.1579 16.9334 16.1579C15.4072 16.1579 15.1528 16.1403 15.1528 16.0263C15.1528 15.9123 15.4072 15.8947 16.8984 15.8947C17.8633 15.8947 18.7141 15.921 18.7931 15.9474Z" fill="url(#paint4_linear_805_1930)"/>
<path d="M16.1005 16.044C16.5917 16.0615 17.3987 16.0615 17.8987 16.044C18.3899 16.0352 17.9864 16.0177 16.9952 16.0177C16.004 16.0177 15.6005 16.0352 16.1005 16.044Z" fill="url(#paint5_linear_805_1930)"/>
<path d="M19.9856 15.9296C19.9154 16.0085 19.8891 16.3594 19.9066 16.9559L19.9329 17.8682H21.1171H22.3013V16.8594V15.8506L21.1961 15.8243C20.3277 15.8068 20.0645 15.8243 19.9856 15.9296ZM21.275 15.9559C21.0382 15.9734 20.6698 15.9734 20.4417 15.9559C20.2049 15.9384 20.3979 15.9296 20.854 15.9296C21.3101 15.9296 21.5031 15.9384 21.275 15.9559Z" fill="url(#paint6_linear_805_1930)"/>
<path d="M9.73176 17.1665C9.67036 17.2367 9.66159 17.2981 9.70545 17.2981C9.74931 17.2981 9.81948 17.2543 9.8458 17.2104C9.87211 17.1578 9.95106 17.1227 10.0037 17.1227C10.0651 17.1227 10.03 17.1753 9.93352 17.2279C9.76685 17.3244 9.76685 17.3244 9.93352 17.3858C10.0914 17.4385 10.0826 17.4472 9.9072 17.4911C9.80194 17.5262 9.73176 17.5086 9.76685 17.4648C9.79317 17.4209 9.74931 17.3858 9.67036 17.3858C9.57387 17.3858 9.53878 17.4297 9.57387 17.5262C9.60019 17.5964 9.59141 17.6402 9.55633 17.6139C9.47738 17.57 8.47739 19.8858 8.45108 20.1665C8.45108 20.263 8.41599 20.3332 8.38967 20.3156C8.35459 20.2981 8.24055 20.4911 8.13529 20.7367C7.84582 21.4033 7.93354 21.5086 9.27563 22.0788C9.88088 22.3331 10.3897 22.5261 10.416 22.4998C10.4335 22.4823 10.416 22.4384 10.3721 22.4033C10.2493 22.3156 10.2054 21.9998 10.3195 22.0788C10.3721 22.1051 10.416 22.2016 10.416 22.2805C10.4247 22.3858 10.4598 22.3682 10.5475 22.2103C10.6265 22.0788 10.6703 22.0437 10.6791 22.1226C10.6791 22.2367 10.6879 22.2367 10.7668 22.1226C10.8107 22.0524 10.8546 22.0261 10.8546 22.0788C10.8546 22.1226 10.8107 22.2279 10.7668 22.2981C10.6879 22.4121 10.6791 22.4121 10.6791 22.2981C10.6791 22.184 10.6703 22.184 10.5914 22.2981C10.4686 22.4823 10.4861 22.6489 10.6177 22.6489C10.7756 22.6489 11.2142 21.6314 11.144 21.4472C11.1089 21.3595 11.1265 21.3244 11.1791 21.3595C11.3019 21.4384 11.837 20.1577 11.7668 19.956C11.7317 19.8507 11.7405 19.8332 11.7931 19.9033C11.8896 20.0349 12.5563 18.5613 12.4598 18.4209C12.4335 18.3683 12.451 18.3507 12.4949 18.377C12.5475 18.4121 12.6089 18.3595 12.6352 18.2718C12.6616 18.149 12.5914 18.07 12.3107 17.956C12.1177 17.8683 11.5651 17.6227 11.0914 17.4121C10.1879 17.0086 9.91597 16.9648 9.73176 17.1665ZM10.6879 17.3771C10.5914 17.4385 10.6002 17.4648 10.7318 17.4911C10.8809 17.5174 10.8809 17.5262 10.7142 17.5788C10.5388 17.6227 10.5125 17.5613 10.5826 17.3157C10.5914 17.3069 10.644 17.2981 10.7054 17.2981C10.7756 17.2981 10.7756 17.3244 10.6879 17.3771ZM12.5212 18.1928C12.5212 18.2279 12.4686 18.263 12.3984 18.263C12.3195 18.263 12.2931 18.3244 12.3107 18.4209C12.337 18.4999 12.2931 18.7104 12.223 18.877L12.0914 19.1841L12.1002 18.9034C12.1089 18.7455 12.144 18.6402 12.1879 18.6665C12.223 18.6928 12.258 18.6314 12.258 18.5349C12.258 18.4297 12.2054 18.3507 12.1528 18.342C12.0651 18.342 12.0651 18.3244 12.1528 18.2893C12.2054 18.2718 12.2405 18.2104 12.2142 18.1753C12.1879 18.1314 12.2493 18.1051 12.3458 18.1139C12.4423 18.1227 12.5212 18.1578 12.5212 18.1928ZM12.0212 19.4648C11.9949 19.5262 11.9335 19.5525 11.8809 19.5174C11.8107 19.4735 11.8107 19.4472 11.8809 19.4297C11.9423 19.4034 11.9598 19.3244 11.9335 19.2455C11.8984 19.1227 11.9072 19.1227 11.9774 19.2191C12.03 19.2893 12.0475 19.3946 12.0212 19.4648ZM10.109 19.9297C10.223 19.9735 10.2318 20.0086 10.1528 20.0086C10.0826 20.0086 9.94229 19.9735 9.8458 19.9297C9.73176 19.8858 9.72299 19.8507 9.80194 19.8507C9.87211 19.8507 10.0125 19.8858 10.109 19.9297ZM9.78439 20.07C9.89843 20.149 10.0563 20.184 10.1791 20.149C10.3107 20.1139 10.337 20.1226 10.2493 20.1753C10.1616 20.2367 10.1616 20.2718 10.2405 20.3244C10.2932 20.3595 10.3195 20.4384 10.2932 20.4998C10.2756 20.5612 10.3107 20.6928 10.3809 20.7981C10.4949 20.956 10.4949 20.9998 10.3721 21.184C10.3019 21.2981 10.2668 21.4209 10.3019 21.456C10.3458 21.491 10.3107 21.5086 10.2405 21.491C10.1528 21.4735 10.1177 21.5261 10.1353 21.6402C10.1528 21.7367 10.1265 21.7805 10.0914 21.7279C10.0125 21.6226 9.53878 21.6051 9.53878 21.7016C9.53878 21.7454 9.58264 21.7717 9.63527 21.7717C9.67913 21.7717 9.69668 21.8156 9.66159 21.877C9.60896 21.956 9.58264 21.956 9.5651 21.8858C9.53878 21.8244 9.46861 21.8068 9.39843 21.8331C9.2844 21.877 9.2844 21.8945 9.38089 21.956C9.44229 21.9998 9.45107 22.0349 9.39843 22.0349C9.3458 22.0349 9.23177 21.956 9.14405 21.8595C9.04756 21.7542 9.03002 21.684 9.09142 21.684C9.15282 21.684 9.17037 21.6489 9.14405 21.5963C9.11774 21.5437 9.15282 21.5349 9.23177 21.57C9.3458 21.6051 9.35458 21.6402 9.26686 21.6928C9.19668 21.7279 9.17037 21.7805 9.19668 21.8068C9.21423 21.8331 9.29317 21.8156 9.36335 21.7717C9.46861 21.7103 9.45984 21.6665 9.32826 21.5174C9.24054 21.4209 9.10019 21.3595 9.01247 21.377C8.85458 21.4121 8.81949 21.2279 8.96862 21.0963C9.0037 21.0612 9.01247 21.07 8.97739 21.1314C8.95107 21.184 8.96862 21.263 9.02125 21.2981C9.12651 21.3595 9.11774 21.263 8.96862 20.8507C8.92476 20.7104 8.92476 20.7016 9.0037 20.8068C9.06511 20.8946 9.10019 20.9033 9.10019 20.8244C9.10019 20.4735 9.86334 20.2104 10.144 20.4735C10.2405 20.57 10.2581 20.5612 10.223 20.456C10.1704 20.2893 9.53878 20.1753 9.38089 20.2981C9.31949 20.3507 9.24931 20.3683 9.21423 20.3419C9.18791 20.3068 9.27563 20.2367 9.40721 20.1753C9.61773 20.0788 9.6265 20.0612 9.47738 20.0086C9.36335 19.956 9.35458 19.9384 9.45107 19.9384C9.53001 19.9297 9.67913 19.9911 9.78439 20.07Z" fill="url(#paint7_linear_805_1930)"/>
<path d="M25.8981 17.1578C25.8016 17.2104 25.6438 17.3069 25.5473 17.3771C25.4069 17.4735 25.3981 17.4823 25.5297 17.4385C25.6262 17.4121 25.6701 17.4209 25.635 17.4823C25.5999 17.535 25.5122 17.5525 25.442 17.5262C25.2753 17.456 24.521 17.9034 24.5999 18.0262C24.635 18.0788 24.5999 18.0963 24.521 18.07C24.4508 18.0349 24.2403 18.0963 24.0736 18.2016L23.7578 18.3946L23.9771 18.7718C24.2315 19.1928 24.2754 19.2279 24.2227 18.9384C24.1876 18.763 24.1876 18.763 24.2666 18.9209C24.3017 19.0174 24.328 19.1227 24.3104 19.1577C24.249 19.2542 24.635 19.9297 24.7139 19.8858C24.7578 19.8595 24.8192 19.8858 24.8543 19.9384C24.8894 20.0086 24.8806 20.0174 24.8192 19.9823C24.7578 19.9472 24.7139 19.9472 24.7139 19.9823C24.7139 20.1226 25.5297 21.4121 25.5999 21.377C25.635 21.3507 25.6964 21.377 25.7315 21.4296C25.7666 21.4998 25.7578 21.5086 25.6964 21.4735C25.556 21.3858 25.5648 21.4647 25.7227 21.7805C25.8016 21.9296 25.9069 22.0174 25.9595 21.9823C26.0209 21.9472 26.0297 21.956 25.9946 22.0174C25.9245 22.1402 26.1701 22.6489 26.3016 22.6489C26.4683 22.6489 26.7402 22.4647 26.6876 22.377C26.6525 22.3331 26.5911 22.2981 26.5473 22.2981C26.4946 22.2981 26.4771 22.3331 26.5034 22.377C26.5297 22.4209 26.4946 22.4823 26.4244 22.5086C26.3104 22.5437 26.3016 22.5261 26.3806 22.3858C26.4858 22.1928 26.5385 22.1752 26.7227 22.2893C26.863 22.377 27.556 22.0349 27.7665 21.7893C27.8192 21.7103 27.8718 21.6753 27.8718 21.7103C27.8718 21.7454 27.9946 21.7103 28.135 21.6402C28.2841 21.5612 28.3806 21.4647 28.3542 21.4296C28.3279 21.3858 28.3718 21.3244 28.4507 21.2981C28.5385 21.263 28.5648 21.2805 28.5209 21.3507C28.4771 21.4121 28.4946 21.4209 28.5648 21.3858C28.942 21.1489 28.7665 20.2981 28.3718 20.4209C28.1788 20.4735 28.1788 20.4735 28.3542 20.3244C28.4507 20.2454 28.4771 20.2104 28.4157 20.2367C28.3367 20.2805 28.3104 20.2542 28.3279 20.1665C28.363 19.9911 27.863 19.1402 27.7227 19.1402C27.6613 19.1402 27.6086 19.0963 27.6086 19.0437C27.6086 18.9911 27.6613 18.9823 27.7227 19.0262C27.7841 19.0612 27.7753 19.0086 27.6876 18.877C27.6086 18.7542 27.3806 18.3595 27.1701 17.9999C26.9595 17.6402 26.7315 17.2718 26.6613 17.1929C26.5209 17.0262 26.1613 17.0086 25.8981 17.1578ZM26.2052 17.2104C26.2052 17.2543 26.135 17.3069 26.056 17.3069C25.9069 17.3157 25.9069 17.3244 26.056 17.3595C26.135 17.3771 26.2052 17.4385 26.2052 17.4823C26.2052 17.5876 26.1525 17.5788 25.942 17.456C25.7753 17.3507 25.7753 17.342 25.9683 17.2367C26.2052 17.1051 26.2052 17.1051 26.2052 17.2104ZM26.6174 17.3332C26.5736 17.456 26.2929 17.5174 26.2929 17.3946C26.2929 17.342 26.363 17.3332 26.4508 17.3595C26.5823 17.4121 26.5823 17.4034 26.4771 17.2718C26.3718 17.1402 26.3718 17.1227 26.5034 17.1753C26.5823 17.2104 26.635 17.2806 26.6174 17.3332ZM27.1525 18.1753C27.2139 18.2718 27.2402 18.3507 27.2051 18.3507C27.1437 18.3507 26.9069 18.1139 26.9069 18.0525C26.9069 17.9385 27.0472 18.0086 27.1525 18.1753ZM24.7578 18.1841C24.8017 18.2367 24.6525 18.263 24.3368 18.2718C24.2227 18.2718 24.1876 18.3156 24.2315 18.4209C24.2754 18.5437 24.2666 18.5525 24.1701 18.456C24.0736 18.3595 24.0824 18.3156 24.2052 18.2279C24.3543 18.1227 24.6613 18.0963 24.7578 18.1841ZM28.2402 19.9735C28.3279 20.1402 28.3192 20.1402 28.17 19.9998C28.0385 19.8683 28.0034 19.8683 27.9157 19.9823C27.8367 20.0963 27.8192 20.0963 27.8192 19.9384C27.8192 19.8419 27.8543 19.7893 27.8893 19.8069C27.9244 19.8332 27.9595 19.7805 27.9595 19.6928C27.9595 19.5612 27.9771 19.5525 28.0472 19.6665C28.0999 19.7367 28.1876 19.877 28.2402 19.9735ZM27.2578 19.9297C27.1876 19.9735 27.2402 20.0174 27.3893 20.0525C27.5209 20.0876 27.6086 20.1314 27.5823 20.1577C27.5648 20.184 27.3718 20.1314 27.1701 20.0525C26.8543 19.9297 26.8192 19.8858 26.9595 19.8419C27.1701 19.763 27.4069 19.8332 27.2578 19.9297ZM26.9069 20.0963C26.9069 20.1402 26.8192 20.1928 26.7139 20.2191C26.6087 20.2542 26.5385 20.2981 26.5648 20.3156C26.5911 20.3419 26.7402 20.3156 26.8894 20.263C27.1086 20.1753 27.2139 20.1753 27.3455 20.263C27.4332 20.3156 27.5736 20.3419 27.6437 20.3156C27.7139 20.2893 27.7929 20.3068 27.8279 20.3595C27.863 20.4209 27.8279 20.4297 27.7314 20.3946C27.6086 20.3507 27.5911 20.3683 27.6437 20.5086C27.7929 20.8682 27.8016 20.9911 27.6613 21.2016C27.5034 21.4384 27.5472 21.491 27.7402 21.2981C27.8104 21.2367 27.8367 21.1489 27.8016 21.1051C27.7665 21.0612 27.8104 21.0875 27.8893 21.1489C27.9683 21.2103 28.0736 21.2367 28.1086 21.2191C28.1525 21.1928 28.1964 21.2542 28.1964 21.3595C28.2051 21.4735 28.1876 21.5086 28.1525 21.4472C28.0823 21.3419 27.9069 21.3332 27.7402 21.4384C27.6964 21.4647 27.3981 21.4823 27.0823 21.4735L26.5122 21.4647L26.5034 20.8419C26.4858 20.2805 26.5122 20.2016 26.6788 20.1226C26.9157 19.9998 26.9069 20.0086 26.9069 20.0963ZM25.3894 20.6051C25.4508 20.7805 25.249 20.8156 25.1613 20.6402C25.0824 20.4998 25.0911 20.4735 25.2139 20.4911C25.2929 20.5086 25.3806 20.5612 25.3894 20.6051ZM25.6174 20.7367C25.5911 20.877 25.5999 20.9033 25.6525 20.8244C25.7139 20.7454 25.7402 20.7981 25.7402 20.9998C25.7402 21.1577 25.7227 21.2454 25.7052 21.184C25.6788 21.1226 25.6174 21.0875 25.5648 21.1051C25.5034 21.1139 25.4859 21.1139 25.5297 21.0963C25.6525 21.0261 25.5911 20.877 25.4595 20.9296C25.3455 20.9735 25.3455 20.9472 25.4683 20.763C25.6438 20.4911 25.6788 20.4911 25.6174 20.7367ZM26.7753 21.5963C26.749 21.6402 26.8367 21.6665 26.9946 21.6402C27.135 21.6226 27.2578 21.6489 27.2578 21.6928C27.2578 21.7454 27.1788 21.7542 27.0736 21.7279C26.9332 21.684 26.9069 21.6928 26.9508 21.7717C26.9858 21.8331 26.9683 21.9121 26.9069 21.9472C26.8367 21.991 26.8455 22.0261 26.942 22.0612C27.0209 22.0963 27.0823 22.0788 27.0823 22.0349C27.0823 21.9823 27.1525 21.9472 27.2315 21.9472C27.363 21.9472 27.363 21.9647 27.2139 22.07C27.1174 22.1402 26.9858 22.1665 26.9157 22.1402C26.828 22.1051 26.8104 22.1314 26.863 22.2103C26.9069 22.2893 26.8981 22.3068 26.828 22.263C26.7753 22.2279 26.7578 22.1577 26.7841 22.1051C26.828 22.0349 26.7929 22.0261 26.6788 22.0612C26.5122 22.1226 26.5122 22.1226 26.6788 21.991C26.8104 21.8945 26.8192 21.8419 26.749 21.7454C26.6876 21.6753 26.6701 21.5963 26.7051 21.57C26.7929 21.4823 26.8367 21.4998 26.7753 21.5963Z" fill="url(#paint8_linear_805_1930)"/>
<path d="M14.4953 17.649C14.355 17.877 14.6269 17.9121 16.855 17.9121C19.0918 17.9121 19.1707 17.9033 19.2146 17.7367C19.2584 17.5612 19.2146 17.5612 16.9076 17.5612C15.4252 17.5612 14.5304 17.5963 14.4953 17.649Z" fill="url(#paint9_linear_805_1930)"/>
<path d="M18.4248 18.7105C17.3458 18.8597 17.1967 18.9386 16.495 19.7982C16.1441 20.2193 15.8809 20.6052 15.9073 20.6491C15.9336 20.693 15.9073 20.7105 15.8546 20.7017C15.7055 20.6666 15.2055 21.3859 15.2669 21.5526C15.3546 21.7719 15.5827 21.807 15.7494 21.6228C15.8283 21.5351 15.8634 21.5087 15.8195 21.5701C15.7669 21.6491 15.7932 21.6842 15.9073 21.6842C16.1441 21.6754 16.8371 21.3508 16.7844 21.2631C16.7669 21.228 16.916 21.0087 17.1353 20.7807C17.3458 20.5526 17.5213 20.4035 17.5213 20.4386C17.5213 20.4824 17.3634 20.6842 17.1616 20.8772C16.9686 21.0789 16.8458 21.2456 16.8897 21.2456C16.995 21.2456 17.7055 20.4123 17.6529 20.3596C17.6178 20.3158 17.6704 20.307 18.3634 20.2281C18.7932 20.1842 18.8458 20.2017 19.5914 20.6579C20.144 21 20.4423 21.1316 20.6177 21.114C20.7493 21.0965 20.8546 21.1228 20.8546 21.1754C20.8546 21.2193 20.7668 21.2368 20.6616 21.2017C20.4598 21.1491 20.4598 21.1491 20.6704 21.3158C20.7932 21.4123 20.9423 21.4737 21.0037 21.4473C21.0739 21.421 21.1177 21.4386 21.1002 21.4912C21.0826 21.5351 21.3546 21.7631 21.6879 21.9912C22.03 22.228 22.6089 22.6491 22.9949 22.9298C23.5826 23.3684 23.6966 23.4298 23.8282 23.3333C23.951 23.2368 23.951 23.2368 23.8545 23.3596C23.758 23.4824 23.7844 23.5438 24.03 23.7456C24.1966 23.8859 24.3282 23.9473 24.3458 23.8859C24.3633 23.8333 24.4159 23.807 24.4598 23.8333C24.5738 23.9122 24.8896 23.7105 24.8896 23.5613C24.8896 23.4649 24.837 23.4385 24.6966 23.4824C24.5212 23.5263 24.5124 23.5263 24.6528 23.4385C24.8633 23.307 25.1703 23.2543 25.1089 23.3596C25.0738 23.4035 25.0124 23.4122 24.9598 23.3859C24.8984 23.3421 24.8896 23.3684 24.9247 23.4298C25.0212 23.5877 25.2931 23.3157 25.3545 23.0175C25.4159 22.7017 24.9159 21.6842 24.7843 21.8684C24.7229 21.9649 24.7054 21.9473 24.7405 21.807C24.7843 21.614 24.0124 20.1667 23.8896 20.193C23.8545 20.2017 23.7931 20.1754 23.7668 20.1403C23.7317 20.1053 23.758 20.1053 23.8194 20.1403C23.9773 20.2368 23.951 20.1491 23.644 19.6491C23.2931 19.0789 23.258 19.0526 22.9423 19.1579C22.6177 19.2719 21.9949 19.193 21.1791 18.9211C20.416 18.6754 19.3195 18.5877 18.4248 18.7105ZM20.0476 18.8509C19.9598 18.8684 19.8195 18.8684 19.7405 18.8509C19.6528 18.8246 19.723 18.807 19.8897 18.807C20.0563 18.807 20.1265 18.8246 20.0476 18.8509ZM17.3458 19.114C17.3458 19.1579 17.3108 19.2456 17.2581 19.3158C17.2143 19.3947 17.2143 19.4825 17.2757 19.5526C17.3283 19.614 17.3546 19.6667 17.3371 19.6754C17.0651 19.7281 16.9862 19.7281 16.9423 19.6579C16.916 19.614 16.9423 19.5877 17.0037 19.5965C17.0739 19.614 17.1265 19.5263 17.1353 19.3596C17.1441 19.2105 17.1529 19.0877 17.1616 19.0702C17.1879 19.0175 17.3458 19.0614 17.3458 19.114ZM22.5037 19.421C22.4861 19.4737 22.416 19.5351 22.3633 19.5439C22.2844 19.5614 22.2844 19.5526 22.3545 19.5175C22.4247 19.4825 22.416 19.4474 22.337 19.3947C22.2405 19.3333 22.2493 19.3158 22.3721 19.3158C22.4598 19.3158 22.5212 19.3596 22.5037 19.421ZM18.0651 19.9035C18.0125 19.921 17.9774 19.9824 18.0037 20.0263C18.0388 20.0702 17.9862 20.0789 17.9072 20.0438C17.802 20.0088 17.7757 20.0175 17.8195 20.0877C17.8897 20.2017 17.7669 20.2368 17.6616 20.1316C17.6002 20.0702 17.9423 19.8421 18.0914 19.8509C18.1441 19.8509 18.1265 19.8772 18.0651 19.9035ZM18.9686 19.921C18.9949 19.9649 18.9774 20.0263 18.9335 20.0526C18.8195 20.1228 18.5651 20.0175 18.6265 19.921C18.6879 19.8158 18.8985 19.8158 18.9686 19.921ZM16.5915 20.0965C16.5651 20.1228 16.5037 20.1579 16.4599 20.1579C16.2844 20.1842 16.2757 20.193 16.3634 20.307C16.4336 20.3947 16.416 20.421 16.2669 20.4298C16.1178 20.4474 16.1002 20.4298 16.2055 20.3684C16.2757 20.3245 16.302 20.2807 16.2581 20.2807C16.1266 20.2807 16.3722 20.0438 16.5125 20.0438C16.5827 20.0438 16.6178 20.0702 16.5915 20.0965ZM19.3809 20.193C19.4335 20.193 19.4511 20.2193 19.4248 20.2544C19.3897 20.2807 19.416 20.3684 19.4686 20.4474C19.53 20.5263 19.4598 20.4912 19.3195 20.3684C19.1704 20.2456 19.0388 20.1316 19.0125 20.114C18.9862 20.0965 19.0388 20.1053 19.1265 20.1316C19.2142 20.1667 19.337 20.193 19.3809 20.193ZM23.837 20.6228C23.7931 20.7193 23.7756 20.8684 23.8019 20.9561C23.8458 21.1052 23.8458 21.1052 23.7493 20.9649C23.6791 20.8509 23.6791 20.7631 23.7493 20.6316C23.8019 20.5351 23.8633 20.4561 23.8896 20.4561C23.9072 20.4561 23.8896 20.5351 23.837 20.6228ZM20.1265 20.6052C20.0914 20.6316 20.109 20.7105 20.1616 20.7807C20.2405 20.8596 20.2318 20.8947 20.1616 20.8947C20.109 20.8947 20.0651 20.8509 20.0651 20.7982C20.0651 20.7544 20.0125 20.7368 19.9598 20.7719C19.8809 20.8158 19.8809 20.7895 19.9686 20.693C20.03 20.614 20.109 20.5438 20.1353 20.5438C20.1616 20.5438 20.1528 20.5702 20.1265 20.6052ZM24.2405 20.8684C24.3633 21.0614 24.3633 21.0877 24.258 21C24.144 20.9123 24.1089 20.9123 24.0651 21C24.0387 21.0614 24.0387 21.0175 24.0651 20.9035C24.1001 20.7631 24.0914 20.7193 24.0212 20.7544C23.9686 20.7895 23.9247 20.7719 23.9247 20.728C23.9247 20.5526 24.0738 20.6316 24.2405 20.8684ZM15.916 21.0702C15.9073 21.1579 15.8722 21.2105 15.8371 21.193C15.802 21.1666 15.7669 21.2017 15.7669 21.2631C15.7669 21.3333 15.7231 21.3158 15.6704 21.2193C15.6002 21.1052 15.609 21.0263 15.6792 20.9386C15.8108 20.7807 15.9336 20.8421 15.916 21.0702ZM21.416 21.5C21.5739 21.6754 21.5739 21.6754 21.3809 21.6403C21.144 21.5965 21.0388 21.5087 21.2142 21.5087C21.2932 21.5087 21.2581 21.4386 21.1177 21.3245C20.9598 21.2017 20.9511 21.1666 21.0739 21.228C21.1704 21.2807 21.3282 21.3947 21.416 21.5ZM15.5301 21.307C15.4687 21.3245 15.416 21.3859 15.416 21.4298C15.416 21.4649 15.4687 21.4912 15.5301 21.4737C15.5827 21.4649 15.609 21.4649 15.5652 21.4824C15.5301 21.5087 15.5213 21.5614 15.5564 21.6052C15.5827 21.6491 15.5652 21.6842 15.5213 21.6842C15.416 21.6842 15.3108 21.4298 15.3809 21.3245C15.4073 21.2807 15.4774 21.2456 15.5301 21.2544C15.609 21.2544 15.609 21.2719 15.5301 21.307ZM16.5564 21.307C16.4862 21.3333 16.3459 21.3947 16.2494 21.4386C16.0739 21.5175 16.0739 21.5175 16.2406 21.3859C16.3371 21.307 16.4774 21.2456 16.5476 21.2544C16.6704 21.2544 16.6704 21.2631 16.5564 21.307ZM22.3019 22.1228C22.2493 22.2105 22.5738 22.3245 22.6879 22.2631C22.7317 22.2368 22.7493 22.2894 22.723 22.3859C22.6879 22.5263 22.6616 22.535 22.5563 22.4386C22.4949 22.3684 22.3195 22.2631 22.1703 22.1929C21.8984 22.0789 21.7932 21.9122 22.0563 22.0087C22.1616 22.0526 22.1791 22.0351 22.1265 21.9386C22.0563 21.8333 22.0739 21.8333 22.1967 21.9386C22.2756 22 22.3282 22.0877 22.3019 22.1228ZM23.3458 22.7456C23.4159 22.8157 23.3896 22.8157 23.2493 22.7456C23.1352 22.6929 23.0475 22.6754 23.0475 22.7105C23.0475 22.8333 23.3984 23.0087 23.5124 22.9473C23.5738 22.9122 23.5914 22.9122 23.5563 22.9561C23.5212 22.9912 23.5387 23.0877 23.6001 23.1666C23.6528 23.2368 23.5212 23.1666 23.2931 23.0087C23.0563 22.8596 22.8721 22.6929 22.8721 22.6491C22.8721 22.5438 23.2317 22.614 23.3458 22.7456ZM24.258 23.4561C24.1966 23.5701 24.1615 23.6929 24.1703 23.728C24.1791 23.7719 24.1528 23.7806 24.1001 23.7456C24.0124 23.6929 24.0387 23.5964 24.2142 23.3684C24.3458 23.1929 24.3808 23.2456 24.258 23.4561ZM24.6615 23.7192C24.6089 23.7982 24.2756 23.7719 24.2756 23.6929C24.2756 23.6578 24.3721 23.6403 24.4861 23.6491C24.6001 23.6491 24.6791 23.6842 24.6615 23.7192Z" fill="url(#paint10_linear_805_1930)"/>
<path d="M15.4242 19.0264C14.5295 19.2544 14.4944 19.2544 14.0909 19.1141C13.8628 19.0264 13.6084 18.9913 13.512 19.0176C13.3804 19.0615 13.3716 19.0527 13.4856 18.965C13.5909 18.886 13.5646 18.8773 13.3628 18.9211C13.0558 18.9825 12.8541 19.2106 12.9067 19.4299C12.9242 19.5088 12.9155 19.5615 12.8716 19.5351C12.8365 19.5088 12.7839 19.5527 12.7488 19.6229C12.6874 19.7808 12.7751 20.0351 12.8716 19.9737C12.9067 19.9474 12.9856 20.0439 13.0295 20.1843C13.1084 20.4211 13.1084 20.4299 12.8716 20.4211C12.7313 20.4123 12.5909 20.3772 12.5471 20.3334C12.5032 20.2895 12.5295 20.2808 12.5997 20.3246C12.6962 20.3772 12.7137 20.3597 12.6699 20.2457C12.6348 20.1579 12.6435 20.1141 12.6962 20.1492C12.7488 20.1755 12.7839 20.1667 12.7839 20.1141C12.7839 20.0702 12.7488 20.0088 12.7049 19.9825C12.6699 19.9562 12.5032 20.2369 12.3453 20.6141C12.1874 20.9825 12.0032 21.4211 11.933 21.579C11.8365 21.807 11.8365 21.8597 11.9243 21.807C11.9857 21.772 11.9506 21.8509 11.8365 21.9825C11.7313 22.1228 11.6436 22.307 11.6436 22.3948C11.6436 22.5263 12.3365 23.7983 12.4856 23.9561C12.5032 23.9825 12.6348 23.8947 12.7663 23.7632C13.2049 23.3421 13.6698 23.3597 14.1698 23.8158C14.319 23.9561 14.3628 23.9649 14.3628 23.8597C14.3628 23.7895 14.4944 23.579 14.6611 23.386C14.933 23.0702 14.9856 23.0439 15.4505 23.0351C15.7225 23.0263 15.9242 23.0439 15.9067 23.0702C15.8803 23.0965 15.9593 23.2281 16.0821 23.3772C16.2663 23.5965 16.3014 23.7193 16.2751 24.0175C16.2488 24.3684 16.2663 24.3947 16.5119 24.4386C16.6523 24.4737 16.8628 24.5789 16.9768 24.693L17.1961 24.886L17.0821 24.6754C16.9944 24.5 16.9944 24.4561 17.1084 24.386C17.1961 24.3421 17.2312 24.2544 17.1961 24.1667C17.161 24.0702 17.1698 24.0439 17.24 24.0877C17.3803 24.1754 17.3716 24.2807 17.2137 24.4298C17.0996 24.5439 17.0996 24.5702 17.2224 24.614C17.3189 24.6491 17.3365 24.7017 17.2838 24.7807C17.1786 24.9123 17.24 25.6316 17.3628 25.6316C17.4066 25.6316 17.4242 25.5965 17.3891 25.5526C17.3628 25.5088 17.4593 25.5263 17.6084 25.5965C17.7487 25.6754 17.9066 25.7105 17.9505 25.6842C17.9944 25.6491 18.0645 25.6754 18.0996 25.7281C18.1435 25.7982 18.1259 25.807 18.0382 25.7631C17.9768 25.7193 18.0031 25.7982 18.1172 25.9298C18.2838 26.1491 18.3101 26.2719 18.2926 26.8596C18.2751 27.3947 18.2487 27.5263 18.1522 27.4912C18.0645 27.4561 18.0558 27.4298 18.1347 27.3859C18.1961 27.3508 18.2224 27.2631 18.2049 27.2017C18.1786 27.1228 18.1084 27.1929 18.0119 27.3684C17.9242 27.535 17.8716 27.6754 17.8891 27.6929C17.9066 27.7105 18.1259 27.7807 18.3891 27.8596C19.0382 28.0526 19.6435 28.0438 19.8891 27.8421C20.1522 27.6315 20.0382 27.4473 19.3364 26.9912C19.0382 26.7982 18.7926 26.5789 18.7926 26.5087C18.7926 26.4386 18.7663 26.3596 18.74 26.3333C18.7049 26.307 18.74 26.228 18.8189 26.1579C18.9417 26.0438 18.9505 26.0526 18.8979 26.1842C18.8628 26.2719 18.8803 26.3333 18.9505 26.3333C19.0119 26.3333 19.3891 26.5526 19.7926 26.8158C20.6259 27.3684 21.0996 27.4473 21.4505 27.1228C21.6522 26.9386 21.7136 26.6842 21.5557 26.6842C21.5119 26.6842 21.4943 26.7544 21.5206 26.8333C21.5645 26.9824 21.5645 26.9824 21.468 26.8333C21.3715 26.6754 21.1522 26.614 21.2487 26.7719C21.275 26.8158 21.2575 26.8596 21.2048 26.8596C21.1434 26.8596 21.1171 26.7982 21.1522 26.728C21.2136 26.5614 21.082 26.5526 20.9505 26.7193C20.8715 26.8158 20.8715 26.8508 20.9592 26.8859C21.0382 26.921 21.047 26.9386 20.968 26.9386C20.9066 26.9473 20.8803 27.0087 20.9066 27.0789C20.9417 27.1491 20.9154 27.2105 20.854 27.2105C20.8013 27.2105 20.7838 27.1666 20.8101 27.1228C20.8364 27.0701 20.8013 27.0087 20.7312 26.9824C20.6171 26.9386 20.6259 26.8947 20.8101 26.7544C20.9417 26.6579 21.0031 26.5438 20.968 26.4824C20.8189 26.2368 20.8627 26.1403 21.0557 26.2719C21.161 26.3509 21.2399 26.4561 21.2224 26.5087C21.2048 26.5789 21.2487 26.5965 21.3364 26.5614C21.4329 26.5263 21.4592 26.5438 21.4154 26.614C21.3803 26.6754 21.3891 26.6842 21.4592 26.6491C21.5119 26.614 21.5382 26.5526 21.5119 26.5087C21.4505 26.4035 20.161 25.5438 20.0645 25.5438C20.0206 25.5438 19.9417 25.4737 19.8978 25.386C19.8189 25.2544 19.8101 25.2544 19.8014 25.386C19.8014 25.4649 19.9066 25.5702 20.047 25.614C20.2399 25.693 20.2487 25.7105 20.1084 25.7105C20.0031 25.7193 19.8803 25.6754 19.8189 25.614C19.6873 25.4824 19.6785 25.193 19.8014 25.193C19.8452 25.193 19.9505 25.0614 20.0206 24.9035C20.1435 24.6316 20.1435 24.6316 20.0908 24.8772C20.047 25.1053 20.0557 25.1228 20.2224 25.0877C20.3277 25.0526 20.3978 25.0789 20.3891 25.1228C20.3715 25.2105 21.3452 25.9386 21.8452 26.2105C22.0469 26.3158 22.1171 26.3245 22.2224 26.2368C22.3276 26.1491 22.354 26.1491 22.3276 26.2456C22.2838 26.4386 22.5382 26.4386 22.8539 26.2456C23.1522 26.0614 23.2048 25.8509 23.0294 25.614C22.889 25.4298 21.8627 24.7807 21.9504 24.9298C21.9943 25.0088 21.9855 25.0263 21.9154 24.9824C21.8627 24.9474 21.7575 24.9561 21.6873 25.0175C21.5908 25.0965 21.5733 25.0789 21.5996 24.9561C21.6083 24.8684 21.6698 24.807 21.7224 24.8158C21.8978 24.8596 21.8189 24.7719 21.5206 24.5965C21.2575 24.4386 21.2224 24.4386 21.2662 24.5614C21.3013 24.6754 21.2926 24.6842 21.2224 24.5877C21.1785 24.5263 21.0996 24.4912 21.047 24.5263C20.9943 24.5526 20.9241 24.5439 20.8978 24.4912C20.8627 24.4386 20.8803 24.4123 20.9241 24.4211C21.0382 24.4561 21.0557 24.3947 20.9855 24.2018C20.9505 24.1228 20.968 23.9912 21.0294 23.9211C21.1171 23.8158 21.161 23.8246 21.3189 23.9649C21.4154 24.0614 21.5557 24.1404 21.6171 24.1404C21.6785 24.1404 21.7312 24.1842 21.7312 24.2368C21.7312 24.2895 21.7926 24.307 21.8715 24.2807C21.9417 24.2544 21.9768 24.2632 21.9504 24.3158C21.8715 24.4386 22.0206 24.4211 22.1697 24.2895C22.275 24.2018 22.275 24.2105 22.1785 24.3333C22.0908 24.4561 22.0996 24.5 22.2925 24.6228C22.4154 24.7017 22.5557 24.7456 22.5996 24.7193C22.6434 24.6842 22.7136 24.7105 22.7487 24.7632C22.7838 24.8333 22.775 24.8421 22.7136 24.807C22.6522 24.7719 22.6083 24.7632 22.6083 24.7895C22.6083 24.8772 23.8101 25.5438 23.9767 25.5438C24.2487 25.5438 24.5381 25.2895 24.5381 25.0614C24.5381 24.9474 24.4504 24.7632 24.3452 24.6579C24.2311 24.5526 24.2048 24.5 24.275 24.5351C24.5732 24.693 23.9943 24.193 23.0469 23.4912C22.3452 22.9737 22.0206 22.7719 21.9768 22.8509C21.9417 22.9123 21.9066 22.9211 21.9066 22.886C21.9066 22.8509 21.8364 22.8597 21.7487 22.9035C21.6171 22.9737 21.5908 22.9562 21.5908 22.7807C21.5908 22.6491 21.6347 22.5965 21.7136 22.6228C21.8101 22.6667 21.8101 22.6842 21.7136 22.7456C21.6347 22.7983 21.6347 22.8246 21.7048 22.8246C21.7575 22.8246 21.8276 22.7895 21.854 22.7456C21.9154 22.6491 21.2224 22.1842 21.1171 22.2544C21.0733 22.2807 21.0119 22.2544 20.9768 22.2018C20.9329 22.1316 20.9505 22.1228 21.0382 22.1667C21.1434 22.2369 21.1434 22.2193 21.0382 22.0965C20.968 22.0088 20.8978 21.9649 20.8715 21.9825C20.8452 22.0088 20.7136 21.9299 20.5733 21.8158C20.3189 21.5965 20.0908 21.5176 20.1961 21.6755C20.2224 21.7193 20.2049 21.7807 20.161 21.8158C20.1084 21.8421 20.0908 21.7895 20.1084 21.6842C20.1522 21.4562 19.3101 20.8772 19.0908 20.9913C18.9329 21.0702 18.5558 21 18.6172 20.8948C18.6435 20.8597 18.5294 20.8334 18.3803 20.8421C18.2312 20.8509 18.0908 20.9036 18.0645 20.965C18.047 21.0264 18.0821 21.0527 18.1522 21.0439C18.2137 21.0264 18.24 21.0264 18.2049 21.0439C18.1698 21.0702 18.1172 21.079 18.0821 21.0702C18.047 21.0614 17.9856 21.1053 17.9505 21.1755C17.8891 21.2632 17.8716 21.2632 17.8716 21.1755C17.8716 21.0176 17.6698 21.0439 17.5119 21.2281C17.4417 21.3071 17.2663 21.4737 17.1259 21.579C16.9768 21.693 16.9242 21.7544 16.9944 21.7193C17.0645 21.6842 17.0996 21.693 17.0558 21.7281C17.0207 21.772 16.9242 21.8158 16.8365 21.8246C16.6084 21.8597 16.0295 22.0702 16.0295 22.1228C16.0295 22.1491 15.8365 22.1491 15.5996 22.1404C15.0821 22.1053 14.8716 21.9123 14.8628 21.4737C14.854 21.2369 14.933 21.0702 15.2312 20.7193C15.4418 20.4737 15.5733 20.2369 15.5382 20.1755C15.5032 20.1229 15.5119 20.1053 15.5733 20.1404C15.6523 20.1843 16.4242 19.3158 16.6786 18.8948C16.7751 18.7369 16.4681 18.772 15.4242 19.0264ZM16.161 19.0527C16.1874 19.0966 16.2751 19.1053 16.3628 19.079C16.4944 19.0264 16.4944 19.0352 16.3803 19.1755C16.3102 19.272 16.24 19.2983 16.2224 19.2369C16.2049 19.1843 16.1435 19.1667 16.0996 19.193C16.047 19.2281 16.0295 19.2106 16.0646 19.158C16.0909 19.1141 16.0646 19.0439 16.0119 19.0264C15.933 18.9913 15.9242 18.9737 16.0032 18.9737C16.0558 18.965 16.126 19.0001 16.161 19.0527ZM14.8102 19.4123C14.6874 19.4562 14.5646 19.465 14.5295 19.4299C14.4944 19.3948 14.5821 19.3509 14.74 19.3422C15.0032 19.3334 15.0119 19.3334 14.8102 19.4123ZM14.319 19.4913C14.5383 19.5878 14.3102 19.5878 14.0119 19.4913C13.8365 19.4387 13.8277 19.4211 13.9681 19.4211C14.0646 19.4211 14.2225 19.4474 14.319 19.4913ZM15.1786 20.5264C15.2049 20.5614 15.1523 20.6755 15.0646 20.7807C14.933 20.9474 14.8979 20.9562 14.854 20.8421C14.8277 20.772 14.8365 20.7369 14.8804 20.7632C14.9242 20.7895 14.9856 20.772 15.0207 20.7193C15.047 20.6755 15.0295 20.6316 14.9768 20.6316C14.9242 20.6316 14.9067 20.5878 14.933 20.5439C14.9944 20.4386 15.126 20.4299 15.1786 20.5264ZM14.7312 21.0351C14.7488 21.0965 14.7225 21.1579 14.6786 21.1667C14.6347 21.1842 14.5909 21.1141 14.5821 21C14.5646 20.8071 14.6698 20.8334 14.7312 21.0351ZM17.6435 21.4299C17.5645 21.5263 17.468 21.5702 17.4417 21.5439C17.4154 21.5088 17.4417 21.4649 17.5031 21.4474C17.5558 21.4211 17.6084 21.3509 17.6084 21.2807C17.6084 21.2018 17.6523 21.1755 17.7049 21.2018C17.7663 21.2457 17.74 21.3246 17.6435 21.4299ZM19.7049 21.5527C19.5821 21.6228 19.547 21.6755 19.6171 21.7106C19.6961 21.7456 19.6961 21.7544 19.6171 21.7369C19.5557 21.7281 19.5031 21.6579 19.4856 21.579C19.4768 21.4825 19.5119 21.4474 19.6084 21.4825C19.7399 21.5176 19.7399 21.5088 19.6084 21.3948C19.3715 21.2018 19.4242 21.1316 19.6785 21.2983L19.9066 21.4474L19.7049 21.5527ZM12.1962 21.8948C12.1699 21.9299 12.205 22 12.2664 22.0439C12.3278 22.079 12.3541 22.1404 12.319 22.1842C12.2313 22.272 12.0734 22.0263 12.126 21.886C12.1435 21.8246 12.126 21.7544 12.0821 21.7281C12.0295 21.693 11.9944 21.6316 11.9944 21.5702C11.9944 21.5176 12.0471 21.5527 12.1172 21.6404C12.1874 21.7369 12.2225 21.8509 12.1962 21.8948ZM17.9856 21.7807C17.933 21.8334 17.8189 21.8597 17.7312 21.8334C17.5909 21.7983 17.5996 21.7895 17.7663 21.7807C17.8716 21.7807 17.9593 21.7281 17.9593 21.6667C17.9593 21.6141 17.9856 21.5965 18.0207 21.6228C18.0558 21.6579 18.0382 21.7281 17.9856 21.7807ZM14.9944 22.2983C15.047 22.2983 15.047 22.2456 14.9768 22.1667C14.8979 22.079 14.8979 22.0351 14.9681 22.0351C15.0207 22.0351 15.0646 22.0702 15.0646 22.1053C15.0646 22.1491 15.1523 22.2193 15.2575 22.272C15.4242 22.3421 15.433 22.3597 15.2926 22.4123C15.1961 22.4562 15.1611 22.4386 15.2049 22.3684C15.2488 22.2983 15.2225 22.2895 15.1172 22.3246C14.9418 22.3948 14.626 22.2544 14.626 22.1141C14.626 22.0614 14.6874 22.0877 14.7663 22.1579C14.8365 22.2369 14.9418 22.2983 14.9944 22.2983ZM16.0996 22.4474C16.0119 22.4649 15.8716 22.4649 15.7926 22.4474C15.7049 22.4211 15.7751 22.4035 15.9417 22.4035C16.1084 22.4035 16.1786 22.4211 16.0996 22.4474ZM11.9857 22.579C11.9506 22.8421 12.0032 22.9562 12.0821 22.7807C12.1523 22.6141 12.1611 22.6141 12.1611 22.7983C12.1699 22.9123 12.1348 23 12.0909 23C11.9857 23 11.7313 22.5965 11.7927 22.5263C11.8892 22.4386 12.0032 22.4649 11.9857 22.579ZM12.3716 22.8246C12.3979 22.9211 12.3804 23.0263 12.3365 23.0526C12.2927 23.079 12.2576 23 12.2576 22.8772C12.2576 22.6053 12.3102 22.579 12.3716 22.8246ZM15.2751 22.7544C15.2312 22.8246 15.2663 22.8334 15.3804 22.7895C15.5119 22.7369 15.5295 22.7456 15.433 22.8334C15.3453 22.9298 15.3014 22.9211 15.1786 22.7983C15.0383 22.6579 15.0383 22.6491 15.1786 22.6491C15.2751 22.6491 15.3102 22.6842 15.2751 22.7544ZM22.3452 23.0877C22.4417 23.1404 22.4943 23.2369 22.468 23.2983C22.4417 23.3684 22.4592 23.4474 22.5118 23.4825C22.5645 23.5088 22.6083 23.4649 22.6083 23.3772C22.6083 23.2456 22.6259 23.2369 22.6961 23.3509C22.7487 23.4386 22.7487 23.4912 22.6961 23.5088C22.5382 23.5614 22.6083 23.7018 22.7925 23.7018C22.9066 23.7018 22.9504 23.6667 22.9066 23.5877C22.8715 23.5351 22.9241 23.5526 23.0294 23.6491C23.1346 23.7368 23.1873 23.8597 23.1522 23.9123C23.1171 23.9737 23.082 23.9561 23.0645 23.8597C23.0469 23.7807 22.9855 23.7281 22.9329 23.7456C22.8715 23.7632 22.7136 23.7983 22.5645 23.8246C22.3715 23.8684 22.3364 23.8597 22.4329 23.7983C22.5382 23.7281 22.5382 23.6842 22.4504 23.5965C22.3715 23.5176 22.3452 23.5176 22.3452 23.614C22.3452 23.6754 22.3276 23.7105 22.3013 23.6842C22.275 23.6579 22.2925 23.5263 22.3452 23.3947C22.4241 23.1842 22.4154 23.1579 22.275 23.193C22.1785 23.2193 22.1083 23.193 22.1083 23.1228C22.1083 22.9737 22.1347 22.9737 22.3452 23.0877ZM12.3541 23.3333C12.4681 23.4474 12.4856 23.5 12.3979 23.5C12.3365 23.5 12.24 23.4211 12.1786 23.3333C12.126 23.2456 12.0997 23.1755 12.126 23.1755C12.1523 23.1755 12.2576 23.2456 12.3541 23.3333ZM13.9593 23.3684C13.9155 23.4386 13.9418 23.4474 14.0383 23.4123C14.126 23.386 14.1874 23.3947 14.1874 23.4386C14.1874 23.579 14.0558 23.5965 13.8979 23.4825C13.7751 23.3947 13.7663 23.3597 13.8541 23.3246C14.0207 23.2544 14.0295 23.2544 13.9593 23.3684ZM14.3277 23.6228C14.2488 23.7368 14.1874 23.7807 14.1874 23.7281C14.1874 23.6667 14.2312 23.5965 14.2839 23.5702C14.3365 23.5351 14.354 23.4474 14.319 23.3597C14.2751 23.2544 14.2926 23.2456 14.3716 23.3246C14.4505 23.4035 14.4418 23.4737 14.3277 23.6228ZM21.354 23.5263C21.2312 23.6228 21.0908 23.7018 21.047 23.7018C20.9943 23.7018 20.9329 23.7544 20.9154 23.807C20.8803 23.8947 20.8627 23.8947 20.8627 23.807C20.854 23.7456 20.9241 23.6667 21.0119 23.6404C21.0908 23.6053 21.2136 23.5263 21.275 23.4649C21.3364 23.4035 21.4329 23.3509 21.4855 23.3509C21.5382 23.3509 21.4768 23.4298 21.354 23.5263ZM24.0294 24.5965C23.9329 24.693 23.9241 24.6754 23.9767 24.5439C24.0294 24.4123 24.0118 24.386 23.8978 24.4298C23.7925 24.4649 23.775 24.4474 23.8101 24.3421C23.8452 24.2544 23.8276 24.2193 23.775 24.2544C23.7311 24.2807 23.6873 24.2456 23.6873 24.1754C23.6873 24.079 23.7574 24.1053 23.9153 24.2632C24.0908 24.4474 24.1171 24.5088 24.0294 24.5965ZM16.9593 24.2632C17.1172 24.2193 17.1172 24.2193 16.9681 24.3158C16.7926 24.4298 16.5558 24.3772 16.5558 24.2193C16.5558 24.1404 16.5821 24.1404 16.6786 24.2193C16.74 24.2719 16.8716 24.2982 16.9593 24.2632ZM23.6259 25.2105C23.6434 25.3421 23.6171 25.3509 23.4767 25.2807C23.275 25.1667 23.2575 24.9912 23.4592 25.0351C23.5381 25.0526 23.6083 25.1316 23.6259 25.2105ZM22.6083 25.4123C22.7224 25.5351 22.7838 25.6316 22.7399 25.6316C22.7048 25.6316 22.6171 25.5614 22.5469 25.4737C22.4329 25.3333 22.4241 25.3421 22.4768 25.5175C22.5118 25.6403 22.4943 25.7193 22.4417 25.7193C22.389 25.7193 22.3452 25.614 22.3452 25.4912C22.3452 25.3158 22.3101 25.2719 22.2048 25.3158C22.1347 25.3421 22.0996 25.3333 22.1259 25.2807C22.2136 25.1316 22.389 25.1842 22.6083 25.4123ZM18.354 25.5088C18.2751 25.5877 18.1873 25.6228 18.1522 25.5965C18.1259 25.5614 18.1522 25.5 18.2224 25.4561C18.4329 25.3245 18.5119 25.3596 18.354 25.5088ZM21.5557 25.8245C21.5557 25.9123 21.2399 25.7631 21.161 25.6316C21.1259 25.5789 21.2048 25.5877 21.3276 25.6491C21.4505 25.7017 21.5557 25.7807 21.5557 25.8245ZM23.0118 25.8421C23.0206 25.9123 22.9592 25.9386 22.8189 25.9123C22.7048 25.8947 22.6083 25.8421 22.6083 25.807C22.6083 25.7631 22.6961 25.7544 22.8013 25.7895C22.9417 25.8245 22.968 25.807 22.9153 25.7105C22.8715 25.6403 22.8803 25.6228 22.9153 25.6579C22.9592 25.693 23.0031 25.7719 23.0118 25.8421ZM20.5908 25.9386C20.5908 25.9561 20.547 26 20.4856 26.0351C20.4242 26.0702 20.4154 26.0614 20.4505 26C20.5382 25.8596 20.3978 25.8684 20.2399 26C20.1347 26.0965 20.1347 26.0877 20.2224 25.9737C20.275 25.8947 20.2926 25.807 20.2575 25.7631C20.2224 25.7281 20.2838 25.7456 20.3978 25.7982C20.5031 25.8509 20.5908 25.921 20.5908 25.9386ZM22.9066 26.0614C22.9592 26.1491 22.6961 26.2807 22.6259 26.2017C22.5996 26.1754 22.6259 26.1579 22.6873 26.1579C22.7487 26.1579 22.7662 26.114 22.7399 26.0702C22.7136 26.0175 22.7224 25.9824 22.775 25.9824C22.8189 25.9824 22.8803 26.0175 22.9066 26.0614ZM19.3364 26.2017C19.2926 26.2982 19.3452 26.3158 19.5645 26.2894C19.8014 26.2544 19.8101 26.2544 19.6259 26.3158L19.4066 26.3859L19.5996 26.4561C19.7136 26.4912 19.8277 26.5 19.8628 26.4824C19.9066 26.4561 19.9329 26.5351 19.9329 26.6491C19.9329 26.8158 19.9154 26.8333 19.8452 26.7456C19.8014 26.6754 19.6347 26.5614 19.4768 26.4824C19.3277 26.4035 19.1698 26.2894 19.1347 26.2368C19.0996 26.1666 19.1084 26.1579 19.1698 26.193C19.2312 26.228 19.275 26.2105 19.275 26.1666C19.275 26.114 19.3014 26.0702 19.3277 26.0702C19.354 26.0702 19.3628 26.1316 19.3364 26.2017ZM19.1522 27.0965C19.1259 27.1228 19.0382 27.0789 18.9593 26.9912C18.8452 26.8772 18.7926 26.8684 18.74 26.9649C18.6873 27.0438 18.6698 27.0175 18.6873 26.8859L18.6961 26.7017L18.9505 26.8772C19.0821 26.9737 19.1786 27.0701 19.1522 27.0965ZM18.5996 27.3421C18.6786 27.5 18.6786 27.5087 18.547 27.3947C18.4593 27.3333 18.3979 27.1929 18.4066 27.0877C18.4066 26.9649 18.4242 26.9473 18.4593 27.0351C18.4856 27.1052 18.547 27.2456 18.5996 27.3421ZM19.7136 27.3859C19.8628 27.5263 19.9417 27.6491 19.8891 27.6491C19.8364 27.6491 19.8101 27.6842 19.8364 27.728C19.8628 27.7719 19.8277 27.8245 19.7575 27.8596C19.6873 27.8859 19.6084 27.8684 19.5821 27.8333C19.5557 27.7894 19.5996 27.728 19.6785 27.7017C19.8014 27.6579 19.7838 27.614 19.5821 27.421C19.3978 27.2456 19.3189 27.228 19.2224 27.307C19.1435 27.3684 19.0996 27.3772 19.0996 27.3158C19.0996 27.228 19.2312 27.1491 19.3803 27.1315C19.4154 27.1228 19.5645 27.2368 19.7136 27.3859Z" fill="url(#paint11_linear_805_1930)"/>
<path d="M18.0737 20.6755C17.7754 20.807 17.714 20.9298 17.8895 21.0351C17.9421 21.0702 17.9596 21.0614 17.9333 21.0088C17.793 20.7895 18.5386 20.6755 18.7754 20.8772C18.8894 20.9825 18.9508 20.9912 19.0298 20.9123C19.1087 20.8333 19.0561 20.7807 18.8105 20.6755C18.4333 20.5176 18.4333 20.5176 18.0737 20.6755Z" fill="url(#paint12_linear_805_1930)"/>
<path d="M15.0034 23.5437C14.8191 23.7717 14.6174 24.2367 14.67 24.3156C14.6963 24.3595 14.6613 24.4998 14.5823 24.6138C14.5034 24.7366 14.4595 24.8682 14.4858 24.9121C14.5121 24.9559 14.477 24.991 14.4069 24.991C14.3016 24.991 14.3104 24.9296 14.4507 24.684C14.556 24.5174 14.6174 24.3682 14.5911 24.3419C14.5297 24.2805 13.9157 25.4823 13.863 25.7717C13.8279 25.991 13.863 26.0787 14.0209 26.1928C14.4069 26.4647 14.7051 26.3507 14.977 25.8156C15.0297 25.7015 15.0472 25.6314 15.0034 25.6577C14.9595 25.684 14.9244 25.6401 14.9244 25.5524C14.9244 25.4647 14.977 25.3945 15.0384 25.3945C15.0998 25.3945 15.1174 25.4384 15.0911 25.491C15.056 25.5524 15.0648 25.5612 15.1262 25.4998C15.1788 25.4472 15.3893 25.0787 15.5998 24.6752C15.9507 23.9823 15.9595 23.9209 15.8455 23.7103C15.6963 23.4472 15.1612 23.3419 15.0034 23.5437ZM15.6876 23.6753C15.8016 23.8068 15.7928 23.8068 15.6086 23.6928C15.4332 23.5875 15.3981 23.5875 15.3279 23.7016C15.2841 23.7717 15.2402 23.7893 15.2402 23.7367C15.2402 23.4998 15.5121 23.456 15.6876 23.6753ZM15.1086 23.7893C15.0911 23.8858 15.1262 23.9647 15.1788 23.9647C15.2402 23.9647 15.2402 23.9998 15.1525 24.0437C15.0823 24.0963 14.9946 24.1051 14.942 24.0788C14.8893 24.0437 14.8893 24.0875 14.9244 24.1928C15.0472 24.4735 15.0297 24.6051 14.8718 24.6226C14.7402 24.6489 14.7314 24.6226 14.8104 24.4823C14.8542 24.3858 14.8806 24.2805 14.8542 24.2367C14.8104 24.1665 15.0384 23.6139 15.1086 23.6139C15.1262 23.6139 15.1262 23.6928 15.1086 23.7893ZM15.6788 24.263C15.6788 24.3244 15.6174 24.4472 15.5384 24.5437C15.4683 24.6314 15.4244 24.6577 15.4595 24.5963C15.4946 24.5349 15.4683 24.4296 15.4156 24.3595C15.3455 24.2805 15.3455 24.2279 15.3981 24.2279C15.4507 24.2279 15.5121 24.2805 15.5384 24.3331C15.5735 24.3945 15.5735 24.3595 15.556 24.2454C15.5384 24.1402 15.556 24.07 15.5998 24.1051C15.6437 24.1314 15.6788 24.2016 15.6788 24.263ZM14.6086 26.1314C14.556 26.1928 14.4507 26.2454 14.3718 26.2454C14.2139 26.2366 13.8367 25.9822 13.9858 25.9822C14.0472 25.9822 14.1174 26.0173 14.1437 26.07C14.2314 26.2191 14.363 26.1665 14.3104 25.9998C14.2665 25.8594 14.2665 25.8594 14.363 26.0086C14.4858 26.1928 14.6349 26.1226 14.5735 25.9121C14.5297 25.7893 14.5384 25.7893 14.6086 25.8945C14.6788 25.9822 14.6788 26.0524 14.6086 26.1314Z" fill="url(#paint13_linear_805_1930)"/>
<path d="M12.9157 24.2105C12.8017 24.3859 12.6789 24.6578 12.6438 24.8069C12.6 25.035 12.635 25.114 12.828 25.2718C12.9596 25.3683 13.1263 25.4561 13.1877 25.4561C13.3719 25.4561 13.7666 25.0087 13.714 24.8683C13.6877 24.7982 13.6964 24.7631 13.7403 24.7894C13.8368 24.8508 13.9245 24.6403 13.9245 24.3596C13.9245 24.0789 13.7052 23.8771 13.3894 23.8771C13.1964 23.8771 13.0912 23.9473 12.9157 24.2105ZM12.9421 24.5087C12.9245 24.5701 12.9684 24.614 13.0385 24.5964C13.135 24.5789 13.1438 24.5964 13.0649 24.6841C12.9947 24.7719 13.0122 24.8596 13.135 25.0175C13.3368 25.2806 13.3719 25.4736 13.1701 25.228C13.0473 25.0789 13.0385 25.0789 13.0824 25.2192C13.1175 25.3157 13.0999 25.3596 13.0385 25.3245C12.9947 25.2894 12.9771 25.1929 13.0035 25.1052C13.0298 25.0175 13.0122 24.921 12.9596 24.8859C12.9157 24.8596 12.8719 24.8947 12.8719 24.9648C12.8719 25.0438 12.8368 25.1052 12.8017 25.1052C12.7666 25.1052 12.7315 25.0262 12.7315 24.9385C12.7315 24.842 12.7666 24.7806 12.7929 24.8069C12.828 24.8245 12.8807 24.8069 12.907 24.7631C12.9421 24.7192 12.9245 24.6578 12.8719 24.6227C12.8193 24.5876 12.8017 24.5262 12.828 24.4824C12.907 24.3683 12.9596 24.3859 12.9421 24.5087Z" fill="url(#paint14_linear_805_1930)"/>
<path d="M15.9339 25.0259C15.7059 25.254 15.4339 25.8329 15.4866 25.9732C15.5129 26.0434 15.4866 26.0697 15.4339 26.0346C15.3024 25.9557 15.0831 26.4118 15.1006 26.7276C15.1181 27.0609 15.2146 27.2101 15.3988 27.2013C15.5392 27.1925 15.5392 27.1838 15.3988 27.1487C15.1532 27.0873 15.1532 26.8943 15.4076 26.8855C15.5831 26.8767 15.6006 26.8855 15.4778 26.9381C15.3287 26.9908 15.3374 27.0083 15.5392 27.1136C15.6971 27.2013 15.7936 27.2101 15.8725 27.1399C16.0216 27.0171 16.4339 26.289 16.3199 26.3592C16.1971 26.4381 16.2585 25.9031 16.3901 25.7539C16.4427 25.6838 16.5655 25.6311 16.6532 25.6311C16.7848 25.6311 16.8199 25.5697 16.8199 25.3329C16.8199 25.1662 16.776 24.9996 16.7146 24.9645C16.5129 24.8329 16.0918 24.868 15.9339 25.0259ZM16.1357 25.2715C16.0655 25.3066 16.0216 25.368 16.0216 25.4031C16.048 25.5785 16.0216 25.6311 15.9339 25.5785C15.8637 25.5434 15.855 25.5873 15.8988 25.7276C15.9602 25.9382 15.9602 25.9382 15.8199 25.7627C15.7234 25.6487 15.6971 25.6311 15.7234 25.7276C15.7585 25.8066 15.7234 25.868 15.6445 25.868C15.548 25.868 15.5392 25.8241 15.6094 25.6662C15.662 25.5522 15.7409 25.482 15.776 25.5083C15.8199 25.5346 15.855 25.4996 15.855 25.4206C15.855 25.2978 15.9778 25.2101 16.162 25.2013C16.2146 25.2013 16.1971 25.2276 16.1357 25.2715ZM16.1357 25.9382C16.1181 26.061 16.083 26.1574 16.0655 26.1574C16.048 26.1574 16.0304 26.061 16.0304 25.9382C16.0304 25.8153 16.0655 25.7189 16.1094 25.7189C16.1444 25.7189 16.162 25.8153 16.1357 25.9382Z" fill="url(#paint15_linear_805_1930)"/>
<path d="M16.4333 25.9121C16.3632 26.0174 16.3193 26.1314 16.3456 26.1753C16.3719 26.2191 16.407 26.2454 16.4158 26.2279C16.6614 25.8419 16.7228 25.7191 16.6526 25.7191C16.6 25.7191 16.5035 25.8069 16.4333 25.9121Z" fill="url(#paint16_linear_805_1930)"/>
<path d="M16.9683 26.2629C16.6437 26.6928 16.5472 26.9208 16.6086 27.0963C16.6525 27.2191 16.6437 27.2278 16.5736 27.1313C16.5034 27.0349 16.4683 27.0787 16.4244 27.3331C16.3718 27.5787 16.3981 27.6927 16.5122 27.8243C16.67 27.9998 17.17 28.0699 17.17 27.912C17.17 27.8682 17.0999 27.8506 17.0209 27.877C16.8718 27.9208 16.8718 27.9208 17.0209 27.8243C17.0999 27.7717 17.2051 27.7454 17.249 27.7717C17.2928 27.798 17.442 27.5963 17.5823 27.3156C17.8016 26.9033 17.8367 26.7717 17.7665 26.57C17.7227 26.4384 17.6437 26.3507 17.5999 26.3857C17.556 26.4121 17.5385 26.4647 17.5648 26.5085C17.5911 26.5436 17.5735 26.6752 17.5297 26.7892C17.4683 26.9296 17.442 26.9471 17.442 26.8419C17.4332 26.7629 17.4069 26.684 17.3718 26.6577C17.3279 26.6401 17.3543 26.6401 17.4157 26.6489C17.4683 26.6664 17.5209 26.6489 17.5209 26.6138C17.5209 26.57 17.4683 26.491 17.4157 26.4296C17.3192 26.3331 17.3279 26.3156 17.4157 26.3682C17.4771 26.4033 17.5472 26.377 17.5735 26.298C17.6174 26.1928 17.6525 26.184 17.7402 26.2717C17.8016 26.3331 17.8367 26.3945 17.8279 26.4208C17.8104 26.4471 17.8279 26.5261 17.8806 26.5963C17.942 26.7015 17.9595 26.6928 17.9595 26.5436C17.9595 26.298 17.6437 25.9822 17.3893 25.9822C17.2578 25.9822 17.0999 26.0875 16.9683 26.2629ZM17.1262 26.5085C16.9771 26.6752 16.7665 26.6664 16.8718 26.4998C16.8981 26.4559 16.9507 26.4384 16.9946 26.4647C17.0385 26.491 17.0911 26.4735 17.1262 26.4208C17.1525 26.377 17.2051 26.3331 17.2314 26.3331C17.2578 26.3331 17.2139 26.4121 17.1262 26.5085ZM16.7051 27.8068C16.7051 27.9033 16.67 27.8945 16.5823 27.7717C16.5209 27.684 16.4683 27.5787 16.4683 27.5436C16.4683 27.4998 16.5209 27.5173 16.5823 27.5787C16.6525 27.6401 16.7051 27.7454 16.7051 27.8068Z" fill="url(#paint17_linear_805_1930)"/>
<defs>
<linearGradient id="paint0_linear_805_1930" x1="11.4782" y1="14.4145" x2="23.1784" y2="14.4145" gradientUnits="userSpaceOnUse">
<stop stop-color="#6A9113"/>
<stop offset="1" stop-color="#141517"/>
</linearGradient>
<linearGradient id="paint1_linear_805_1930" x1="20.5469" y1="10.003" x2="23.7284" y2="10.003" gradientUnits="userSpaceOnUse">
<stop stop-color="#6A9113"/>
<stop offset="1" stop-color="#141517"/>
</linearGradient>
<linearGradient id="paint2_linear_805_1930" x1="14.0809" y1="12.0534" x2="18.0523" y2="12.0534" gradientUnits="userSpaceOnUse">
<stop stop-color="#6A9113"/>
<stop offset="1" stop-color="#141517"/>
</linearGradient>
<linearGradient id="paint3_linear_805_1930" x1="13.7094" y1="14.3715" x2="21.614" y2="14.3715" gradientUnits="userSpaceOnUse">
<stop stop-color="#6A9113"/>
<stop offset="1" stop-color="#141517"/>
</linearGradient>
<linearGradient id="paint4_linear_805_1930" x1="13.9924" y1="16.1034" x2="18.8282" y2="16.1034" gradientUnits="userSpaceOnUse">
<stop stop-color="#6A9113"/>
<stop offset="1" stop-color="#141517"/>
</linearGradient>
<linearGradient id="paint5_linear_805_1930" x1="15.6688" y1="16.0443" x2="17.9125" y2="16.0443" gradientUnits="userSpaceOnUse">
<stop stop-color="#6A9113"/>
<stop offset="1" stop-color="#141517"/>
</linearGradient>
<linearGradient id="paint6_linear_805_1930" x1="19.6671" y1="17.2037" x2="22.0904" y2="17.2037" gradientUnits="userSpaceOnUse">
<stop stop-color="#6A9113"/>
<stop offset="1" stop-color="#141517"/>
</linearGradient>
<linearGradient id="paint7_linear_805_1930" x1="7.54701" y1="20.8337" x2="12.2325" y2="20.8337" gradientUnits="userSpaceOnUse">
<stop stop-color="#6A9113"/>
<stop offset="1" stop-color="#141517"/>
</linearGradient>
<linearGradient id="paint8_linear_805_1930" x1="23.2682" y1="20.8359" x2="28.3328" y2="20.8359" gradientUnits="userSpaceOnUse">
<stop stop-color="#6A9113"/>
<stop offset="1" stop-color="#141517"/>
</linearGradient>
<linearGradient id="paint9_linear_805_1930" x1="14.0004" y1="17.7984" x2="18.8047" y2="17.7984" gradientUnits="userSpaceOnUse">
<stop stop-color="#6A9113"/>
<stop offset="1" stop-color="#141517"/>
</linearGradient>
<linearGradient id="paint10_linear_805_1930" x1="14.276" y1="22.2064" x2="24.4721" y2="22.2064" gradientUnits="userSpaceOnUse">
<stop stop-color="#6A9113"/>
<stop offset="1" stop-color="#141517"/>
</linearGradient>
<linearGradient id="paint11_linear_805_1930" x1="10.3848" y1="25.0169" x2="23.4047" y2="25.0169" gradientUnits="userSpaceOnUse">
<stop stop-color="#6A9113"/>
<stop offset="1" stop-color="#141517"/>
</linearGradient>
<linearGradient id="paint12_linear_805_1930" x1="17.6678" y1="20.8944" x2="18.952" y2="20.8944" gradientUnits="userSpaceOnUse">
<stop stop-color="#6A9113"/>
<stop offset="1" stop-color="#141517"/>
</linearGradient>
<linearGradient id="paint13_linear_805_1930" x1="13.6495" y1="25.3959" x2="15.7296" y2="25.3959" gradientUnits="userSpaceOnUse">
<stop stop-color="#6A9113"/>
<stop offset="1" stop-color="#141517"/>
</linearGradient>
<linearGradient id="paint14_linear_805_1930" x1="12.5003" y1="24.9442" x2="13.8104" y2="24.9442" gradientUnits="userSpaceOnUse">
<stop stop-color="#6A9113"/>
<stop offset="1" stop-color="#141517"/>
</linearGradient>
<linearGradient id="paint15_linear_805_1930" x1="14.9317" y1="26.4502" x2="16.6687" y2="26.4502" gradientUnits="userSpaceOnUse">
<stop stop-color="#6A9113"/>
<stop offset="1" stop-color="#141517"/>
</linearGradient>
<linearGradient id="paint16_linear_805_1930" x1="16.3045" y1="26.0667" x2="16.6497" y2="26.0667" gradientUnits="userSpaceOnUse">
<stop stop-color="#6A9113"/>
<stop offset="1" stop-color="#141517"/>
</linearGradient>
<linearGradient id="paint17_linear_805_1930" x1="16.246" y1="27.3459" x2="17.8223" y2="27.3459" gradientUnits="userSpaceOnUse">
<stop stop-color="#6A9113"/>
<stop offset="1" stop-color="#141517"/>
</linearGradient>
</defs>
</svg>
