<svg width="35" height="36" viewBox="0 0 35 36" fill="none" xmlns="http://www.w3.org/2000/svg">
<rect width="34.8957" height="36" rx="4" fill="#496115" fill-opacity="0.1"/>
<path d="M14.0256 8.19126C13.33 8.54778 13.2952 8.69561 13.2604 11.0434C13.2256 13.3391 13.2865 13.8521 13.6604 14.1913C13.9561 14.4695 14.2256 14.6086 14.4604 14.6086C14.643 14.6086 14.6517 14.6347 14.6256 15.4956C14.5909 16.2782 14.6082 16.3913 14.7387 16.4173C14.8343 16.4347 15.3039 16.0869 15.9561 15.5304L17.0256 14.6086H19.3735C21.5648 14.6086 21.7387 14.6 22.0082 14.4347C22.1648 14.3391 22.3648 14.1391 22.4604 13.9826C22.6256 13.713 22.6343 13.5391 22.6343 11.3478C22.6343 8.65213 22.6082 8.55648 21.9387 8.19995C21.5648 7.99995 21.5387 7.99995 17.9909 7.99995C14.4517 7.99995 14.4082 7.99995 14.0256 8.19126ZM21.9474 8.76517L22.1996 9.04343V11.3391V13.6347L21.93 13.9043L21.6604 14.1739H19.2604H16.8517L16.043 14.8695C15.5996 15.2434 15.1996 15.5826 15.1474 15.6173C15.0865 15.6521 15.0604 15.4521 15.0778 15.0173C15.0865 14.6608 15.0691 14.3304 15.0343 14.2695C14.9996 14.2173 14.8169 14.1739 14.6256 14.1739C14.1561 14.1739 13.7996 13.8347 13.7213 13.2956C13.6865 13.0869 13.6778 12.0521 13.6952 11C13.7126 9.48691 13.7474 9.04343 13.8517 8.87821C14.13 8.45213 14.2343 8.43474 18.0952 8.46082L21.6952 8.47821L21.9474 8.76517Z" fill="url(#paint0_linear_805_1957)"/>
<path d="M15.0953 10.2259C15.0692 10.2955 15.0866 10.3998 15.13 10.4433C15.1735 10.4868 16.3387 10.5129 18.0344 10.5042C20.7822 10.4781 20.8518 10.4781 20.8518 10.3042C20.8518 10.1303 20.7822 10.1303 17.9996 10.1042C15.4692 10.0868 15.1474 10.0955 15.0953 10.2259Z" fill="url(#paint1_linear_805_1957)"/>
<path d="M15.1825 11.7478C15.1304 11.8 15.1043 11.9043 15.1304 11.9652C15.1651 12.0608 15.6086 12.0869 17.5043 12.0869C19.8608 12.0869 20.0782 12.0608 19.8521 11.7826C19.7651 11.6782 19.3564 11.6521 17.513 11.6521C15.9738 11.6521 15.2434 11.6869 15.1825 11.7478Z" fill="url(#paint2_linear_805_1957)"/>
<path d="M23.3303 12.7566C23.3303 15.5044 23.4781 15.3914 19.8781 15.3914H17.3651L16.7216 16.0436L16.0781 16.6957H18.3912H20.7129L21.7999 17.6609C22.5303 18.3044 22.939 18.6088 23.0346 18.574C23.1477 18.5305 23.1564 18.3914 23.1042 17.6609L23.0433 16.8088L23.3564 16.7479C23.7216 16.6783 24.0694 16.4175 24.2433 16.087C24.4346 15.7218 24.4346 11.9305 24.2433 11.5653C24.0868 11.2609 23.7129 10.9566 23.4955 10.9566C23.339 10.9566 23.3303 11.0609 23.3303 12.7566Z" fill="url(#paint3_linear_805_1957)"/>
<path d="M12.6783 18C11.8 18.3478 11.313 19.0609 11.313 19.9913C11.313 20.3565 11.2522 20.6783 11.1391 20.9391C10.8087 21.687 11.0609 22.5739 11.8957 23.5652C12.2435 23.9826 12.287 24.0783 12.2522 24.3478C12.1478 25 11.6522 25.3826 10.6174 25.6C10.2261 25.687 9.70435 25.8087 9.47826 25.887C8.71304 26.1304 8.16522 26.7826 8.05217 27.6087L8 28H17.4522H26.8957V27.8C26.8957 27.5391 26.6087 27.087 26.3304 26.9043C26.2 26.8261 25.687 26.6435 25.1913 26.5043C23.6435 26.087 23.2435 25.8087 23.2435 25.1565V24.7565L24.4522 24.8087L25.6522 24.8609L25.313 24.1913C25.0522 23.6783 24.9304 23.287 24.8 22.5391C24.6 21.4 24.4261 20.887 24.0348 20.313C23.6261 19.7217 23.1913 19.4696 22.5043 19.4174C21.7217 19.3478 21.2087 19.513 20.7652 19.9478C20.2087 20.513 19.9304 21.2348 19.6 23.0261C19.487 23.6 19.2783 24.1304 18.9826 24.5826L18.8 24.8609L20.0174 24.8087L21.2435 24.7565V25.1652C21.2435 25.4957 21.2 25.6174 21.0174 25.7826C20.7217 26.0609 20.1565 26.313 19.4609 26.487L18.887 26.6348L18.5217 26.2783C18.1043 25.8696 17.9391 25.8 16.8957 25.5652C16.4696 25.4783 16.0087 25.3391 15.8609 25.2696C15.5391 25.0957 15.2435 24.6957 15.1826 24.3217C15.1478 24.0696 15.1913 23.9739 15.5826 23.513C15.8261 23.2348 16.113 22.8261 16.2174 22.6087C16.4696 22.0957 16.5304 21.3217 16.3391 20.9478C16.2609 20.7913 16.2 20.4696 16.2 20.2174C16.2 19.2348 15.8261 18.5478 15.0609 18.1304C14.4348 17.7913 13.3478 17.7304 12.6783 18Z" fill="url(#paint4_linear_805_1957)"/>
<defs>
<linearGradient id="paint0_linear_805_1957" x1="12.3361" y1="13.6891" x2="21.8096" y2="13.6891" gradientUnits="userSpaceOnUse">
<stop stop-color="#6A9113"/>
<stop offset="1" stop-color="#141517"/>
</linearGradient>
<linearGradient id="paint1_linear_805_1957" x1="14.5199" y1="10.3735" x2="20.3447" y2="10.3735" gradientUnits="userSpaceOnUse">
<stop stop-color="#6A9113"/>
<stop offset="1" stop-color="#141517"/>
</linearGradient>
<linearGradient id="paint2_linear_805_1957" x1="14.6514" y1="11.946" x2="19.4993" y2="11.946" gradientUnits="userSpaceOnUse">
<stop stop-color="#6A9113"/>
<stop offset="1" stop-color="#141517"/>
</linearGradient>
<linearGradient id="paint3_linear_805_1957" x1="15.267" y1="16.1065" x2="23.6565" y2="16.1065" gradientUnits="userSpaceOnUse">
<stop stop-color="#6A9113"/>
<stop offset="1" stop-color="#141517"/>
</linearGradient>
<linearGradient id="paint4_linear_805_1957" x1="6.15542" y1="24.7036" x2="25.2347" y2="24.7036" gradientUnits="userSpaceOnUse">
<stop stop-color="#6A9113"/>
<stop offset="1" stop-color="#141517"/>
</linearGradient>
</defs>
</svg>
