<svg width="156" height="47" viewBox="0 0 156 47" fill="none" xmlns="http://www.w3.org/2000/svg">
<path fill-rule="evenodd" clip-rule="evenodd" d="M0 3.50021L20.5261 15.3306L41.0523 3.50021V10.3149L23.4394 20.8959L23.5667 33.8152L20.3759 35.5237L17.4723 33.8526V20.5176L0 10.5074V3.50021Z" fill="black"/>
<path fill-rule="evenodd" clip-rule="evenodd" d="M0 16.2199L13.4671 23.8575V30.867L5.70284 26.6386V33.0962H0V16.2199Z" fill="#CC9933"/>
<path fill-rule="evenodd" clip-rule="evenodd" d="M41.0569 16.2199L27.5898 23.8575V30.867L35.3541 26.6386V33.0962H41.0569V16.2199Z" fill="#CC9933"/>
<path d="M23.5916 5.15125H21.0234V7.84491H23.5916V5.15125Z" fill="#CC9933"/>
<path d="M23.5916 8.74893H21.0234V11.4426H23.5916V8.74893Z" fill="#CC9933"/>
<path d="M20.0369 5.15125H17.4688V7.84491H20.0369V5.15125Z" fill="#CC9933"/>
<path d="M20.0369 8.74893H17.4688V11.4426H20.0369V8.74893Z" fill="#CC9933"/>
<path d="M49.1289 18.9601H53.8749L55.4085 8.39722H55.4568L59.6677 18.9601H61.5662L65.9714 8.39722H66.0203L67.3583 18.9601H72.1291L69.3546 0.608826H64.6086L60.6655 10.417L56.9414 0.608826H52.2443L49.1289 18.9601Z" fill="#CC9933"/>
<path d="M82.2785 0C76.9968 0 72.1289 3.8942 72.1289 9.4432C72.1289 15.3819 76.3881 19.5681 82.2785 19.5681C88.1684 19.5681 92.4276 15.3819 92.4276 9.4432C92.4276 3.8942 87.5597 0 82.2785 0ZM82.2785 4.62417C85.126 4.62417 87.4626 6.93656 87.4626 9.46794C87.4626 12.6316 85.126 14.9439 82.2785 14.9439C79.431 14.9439 77.0945 12.6316 77.0945 9.46794C77.0945 6.93656 79.431 4.62417 82.2785 4.62417Z" fill="#CC9933"/>
<path d="M98.317 7.69138V0.608826H93.5469V18.9601H98.317V11.4396H105.205V18.9601H109.976V0.608826H105.205V7.69138H98.317Z" fill="#CC9933"/>
<path d="M116.743 10.1498V18.9601H121.513V10.1498L128.28 0.608826H122.56L119.128 5.59798L115.696 0.608826H109.977L116.743 10.1498Z" fill="#CC9933"/>
<path d="M136.603 15.7718L137.795 18.9601H142.882L135.97 0.608826H130.762L123.703 18.9601H128.765L130.031 15.7718H136.603ZM135.313 12.1207H131.346L133.317 6.27969H133.366L135.313 12.1207H135.313Z" fill="#CC9933"/>
<path d="M155.248 1.6307C153.617 0.705867 151.353 0.121887 149.504 0.121887C145.829 0.121887 143.176 2.55554 143.176 6.27961C143.176 9.83295 145.147 10.6118 148.141 11.4636C149.163 11.7556 151.037 12.2183 151.037 13.557C151.037 14.8468 149.845 15.4067 148.725 15.4067C147.094 15.4067 145.683 14.5549 144.49 13.5082L142.445 17.3535C144.32 18.6674 146.583 19.4463 148.895 19.4463C150.745 19.4463 152.667 18.9353 154.103 17.7185C155.563 16.4775 156.002 14.6031 156.002 12.7776C156.002 9.80821 154.03 8.51839 151.475 7.76369L150.258 7.3987C149.43 7.13084 148.14 6.71699 148.14 5.64616C148.14 4.6242 149.309 4.11261 150.185 4.11261C151.353 4.11261 152.473 4.59946 153.348 5.32943L155.247 1.6301L155.248 1.6307Z" fill="#CC9933"/>
<path d="M49.1289 34.4493H52.3667V30.3192H54.2007C57.0259 30.3192 58.6119 29.0306 58.6119 26.0902C58.6119 23.2319 56.7617 21.9927 54.0849 21.9927H49.1289V34.4493ZM52.3667 24.6025H52.9121C54.1675 24.6025 55.2414 24.6194 55.2414 26.1885C55.2414 27.7082 54.0849 27.7082 52.9121 27.7082H52.3667V24.6025Z" fill="#CC9933"/>
<path d="M65.7517 29.3443C67.5193 29.0306 68.4779 27.5435 68.4779 25.8254C68.4779 23.1655 66.6113 21.9921 64.1493 21.9921H59.3086V34.4487H62.5464V29.6575H62.5796L65.6358 34.4487H69.667L65.7511 29.3437L65.7517 29.3443ZM62.5464 24.4704H62.8601C63.9171 24.4704 65.1068 24.6689 65.1068 26.0233C65.1068 27.3782 63.9171 27.5761 62.8601 27.5761H62.5464V24.4704Z" fill="#CC9933"/>
<path d="M73.0392 21.9921H69.8008V34.4493H73.0392V21.9921Z" fill="#CC9933"/>
<path d="M73.668 34.4493H76.8895L77.9308 27.2793H77.964L80.8217 34.4493H82.1103L85.1008 27.2793H85.134L86.0425 34.4493H89.2804L87.3969 21.9921H84.1754L81.4992 28.65L78.9714 21.9921H75.7831L73.668 34.4493Z" fill="#CC9933"/>
<path d="M96.9897 24.7347V21.9921H89.9023V34.4493H96.9897V31.7068H93.1402V29.5591H96.7912V26.8166H93.1402V24.7347H96.9897Z" fill="#CC9933"/>
<path d="M111.005 24.7347V21.9921H103.918V34.4493H111.005V31.7068H107.156V29.5591H110.807V26.8166H107.156V24.7347H111.005Z" fill="#CC9933"/>
<path d="M120.385 22.6864C119.278 22.0584 117.742 21.662 116.486 21.662C113.991 21.662 112.191 23.3144 112.191 25.8416C112.191 28.2535 113.529 28.7826 115.561 29.3606C116.255 29.559 117.527 29.8727 117.527 30.7813C117.527 31.6573 116.718 32.0367 115.958 32.0367C114.85 32.0367 113.892 31.4582 113.083 30.7481L111.695 33.3585C112.968 34.2508 114.504 34.7793 116.073 34.7793C117.329 34.7793 118.634 34.4324 119.609 33.6065C120.6 32.7637 120.897 31.4914 120.897 30.2528C120.897 28.2372 119.559 27.3619 117.824 26.8497L116.998 26.6017C116.437 26.4201 115.561 26.139 115.561 25.4121C115.561 24.7183 116.354 24.3714 116.948 24.3714C117.741 24.3714 118.501 24.702 119.096 25.1973L120.384 22.6858L120.385 22.6864Z" fill="#CC9933"/>
<path d="M126.645 24.7347H129.321V21.9921H120.73V24.7347H123.407V34.4493H126.645V24.7347Z" fill="#CC9933"/>
<path d="M136.393 32.2848L137.202 34.4487H140.655L135.963 21.9921H132.428L127.637 34.4487H131.073L131.932 32.2848H136.393ZM135.517 29.8065H132.824L134.162 25.8417H134.195L135.517 29.8065Z" fill="#CC9933"/>
<path d="M144.883 24.7347H147.56V21.9921H138.969V24.7347H141.646V34.4493H144.883V24.7347Z" fill="#CC9933"/>
<path d="M155.076 24.7347V21.9921H147.988V34.4493H155.076V31.7068H151.226V29.5591H154.877V26.8166H151.226V24.7347H155.076Z" fill="#CC9933"/>
<path d="M0.0625 41.5851H0.733955L2.05636 45.4238L3.43607 41.3806L4.82844 45.4238L6.15808 41.5851H6.82833L4.80793 47.008L3.44331 42.9714L2.08471 47.008L0.0625 41.5851Z" fill="black"/>
<path d="M7.9375 46.8035V41.5851H8.55768V43.5922H11.3316V41.5851H11.959V46.8035H11.3316V44.1835H8.55768V46.8035H7.9375Z" fill="black"/>
<path d="M13.7383 46.8035V41.5851H16.4899V42.1546H14.3585V43.6508H16.4899V44.2275H14.3585V46.2268H16.4899V46.8035H13.7383Z" fill="black"/>
<path d="M18.0703 46.8035V41.5851H19.2962C19.6455 41.5851 19.9019 41.6044 20.0636 41.6436C20.2265 41.6841 20.37 41.7504 20.4943 41.8457C20.6488 41.9664 20.7682 42.1293 20.8533 42.332C20.9395 42.5353 20.9824 42.7603 20.9824 43.0071C20.9824 43.4336 20.8629 43.76 20.6246 43.9814C20.3851 44.204 20.0358 44.3144 19.5749 44.3144H19.4645L21.4571 46.8035H20.6687L18.7641 44.3144H18.6766V46.8035H18.0709H18.0703ZM18.676 42.1106V43.8547H19.149C19.6346 43.8547 19.9592 43.7925 20.1233 43.6677C20.2874 43.5434 20.3688 43.3256 20.3688 43.0143C20.3688 42.6795 20.285 42.446 20.1161 42.3109C19.9471 42.1769 19.6244 42.11 19.149 42.11H18.676V42.1106Z" fill="black"/>
<path d="M22.5156 46.8035V41.5851H25.2672V42.1546H23.1358V43.6508H25.2672V44.2275H23.1358V46.2268H25.2672V46.8035H22.5156Z" fill="black"/>
<path d="M29.6313 46.2195H30.0271C30.6684 46.2195 31.1118 46.1918 31.3591 46.1357C31.6059 46.0796 31.8116 45.9849 31.9757 45.8485C32.1898 45.6712 32.3527 45.4407 32.4631 45.1602C32.5747 44.8778 32.6308 44.5557 32.6308 44.1919C32.6308 43.8269 32.576 43.506 32.4655 43.2285C32.3551 42.9522 32.1917 42.7235 31.9757 42.5425C31.8116 42.405 31.6035 42.3078 31.3501 42.2493C31.0973 42.1908 30.6569 42.1619 30.0265 42.1619H29.6307V46.2201L29.6313 46.2195ZM29.0039 46.8035V41.5851H30.006C30.7468 41.5851 31.2686 41.6231 31.5715 41.6967C31.8743 41.7721 32.141 41.8976 32.3684 42.0726C32.6677 42.3036 32.8951 42.598 33.0495 42.957C33.204 43.3159 33.2806 43.7292 33.2806 44.1979C33.2806 44.6637 33.204 45.0751 33.0507 45.4323C32.8975 45.79 32.6701 46.0844 32.3684 46.3155C32.1398 46.491 31.8804 46.6159 31.5896 46.6913C31.2976 46.7655 30.8451 46.8029 30.2298 46.8029H30.006H29.0039V46.8035Z" fill="black"/>
<path d="M34.8281 46.8035V41.5851H36.054C36.4033 41.5851 36.6597 41.6044 36.8214 41.6436C36.9843 41.6841 37.1278 41.7504 37.2521 41.8457C37.4066 41.9664 37.526 42.1293 37.6111 42.332C37.6973 42.5353 37.7402 42.7603 37.7402 43.0071C37.7402 43.4336 37.6207 43.76 37.3824 43.9814C37.1429 44.204 36.7936 44.3144 36.3327 44.3144H36.2223L38.215 46.8035H37.4265L35.5219 44.3144H35.4344V46.8035H34.8287H34.8281ZM35.4338 42.1106V43.8547H35.9068C36.3924 43.8547 36.717 43.7925 36.8811 43.6677C37.0452 43.5434 37.1266 43.3256 37.1266 43.0143C37.1266 42.6795 37.0428 42.446 36.8739 42.3109C36.7049 42.1769 36.3822 42.11 35.9068 42.11H35.4338V42.1106Z" fill="black"/>
<path d="M39.2695 46.8035V41.5851H42.0211V42.1546H39.8897V43.6508H42.0211V44.2275H39.8897V46.2268H42.0211V46.8035H39.2695Z" fill="black"/>
<path d="M45.2543 42.7525L44.4248 44.6721H46.085L45.2543 42.7525ZM45.2543 41.3806L47.6276 46.8035H46.9549L46.2775 45.2048H44.2396L43.5621 46.8035H42.8906L45.2543 41.3806Z" fill="black"/>
<path d="M51.1331 47.008L49.5115 43.2586L48.8557 46.8035H48.25L49.3082 41.3806L51.1331 45.6953L52.958 41.3806L54.0156 46.8035H53.4105L52.7475 43.2586L51.1331 47.008Z" fill="black"/>
<path d="M57.2469 43.9068C57.5866 44.0516 57.843 44.2435 58.0143 44.4836C58.1868 44.7231 58.2737 45.0078 58.2737 45.3348C58.2737 45.8138 58.1205 46.2011 57.8152 46.4943C57.5099 46.7875 57.1057 46.9347 56.6014 46.9347C56.1906 46.9347 55.8461 46.8303 55.5674 46.6198C55.2899 46.4093 55.1028 46.1112 55.0039 45.7245L55.5674 45.4458C55.644 45.7619 55.7695 46.002 55.9444 46.1649C56.1188 46.3278 56.3378 46.4099 56.6014 46.4099C56.9127 46.4099 57.1643 46.32 57.3579 46.1408C57.5504 45.961 57.6463 45.7269 57.6463 45.4404C57.6463 45.2069 57.5793 45.0048 57.4442 44.8323C57.3103 44.6597 57.1088 44.5149 56.8373 44.3955L56.202 44.124C55.8551 43.9792 55.5963 43.7934 55.4274 43.5642C55.2573 43.3367 55.1716 43.0628 55.1716 42.7443C55.1716 42.3733 55.3092 42.0668 55.5855 41.8249C55.8612 41.583 56.2129 41.4611 56.6412 41.4611C56.9537 41.4611 57.2264 41.5281 57.455 41.6608C57.6849 41.7947 57.8641 41.9902 57.9914 42.2508L57.478 42.5784C57.3621 42.3763 57.2312 42.2267 57.0858 42.1284C56.9411 42.03 56.777 41.9799 56.5942 41.9799C56.3607 41.9799 56.1694 42.0517 56.021 42.1941C55.8726 42.3365 55.7984 42.5175 55.7984 42.7389C55.7984 42.9235 55.8557 43.084 55.9698 43.2191C56.0826 43.3554 56.2605 43.4743 56.5001 43.5792L57.2457 43.9074L57.2469 43.9068Z" fill="black"/>
<path d="M61.7891 46.8035V41.5851H64.5406V42.1546H62.4092V43.6508H64.5406V44.2275H62.4092V46.8035H61.7891Z" fill="black"/>
<path d="M66.0273 46.8035V41.5851H66.6475V46.8035H66.0273Z" fill="black"/>
<path d="M68.4414 46.8035V41.3806L72.259 45.5493V41.5851H72.8502V47.008L69.0326 42.8828V46.8035H68.4414Z" fill="black"/>
<path d="M75.2563 46.2195H75.6521C76.2934 46.2195 76.7368 46.1918 76.9841 46.1357C77.2309 46.0796 77.4366 45.9849 77.6007 45.8485C77.8148 45.6712 77.9777 45.4407 78.0881 45.1602C78.1997 44.8778 78.2558 44.5557 78.2558 44.1919C78.2558 43.8269 78.2009 43.506 78.0905 43.2285C77.9801 42.9522 77.8167 42.7235 77.6007 42.5425C77.4366 42.405 77.2285 42.3078 76.9751 42.2493C76.7223 42.1908 76.2819 42.1619 75.6515 42.1619H75.2557V46.2201L75.2563 46.2195ZM74.6289 46.8035V41.5851H75.631C76.3718 41.5851 76.8936 41.6231 77.1965 41.6967C77.4993 41.7721 77.766 41.8976 77.9934 42.0726C78.2926 42.3036 78.5201 42.598 78.6745 42.957C78.829 43.3159 78.9056 43.7292 78.9056 44.1979C78.9056 44.6637 78.829 45.0751 78.6757 45.4323C78.5225 45.79 78.2951 46.0844 77.9934 46.3155C77.7648 46.491 77.5054 46.6159 77.2146 46.6913C76.9226 46.7655 76.4701 46.8029 75.8548 46.8029H75.631H74.6289V46.8035Z" fill="black"/>
<path d="M83.5207 46.8035V42.1763H82.0469V41.5851H85.6159V42.1763H84.1487V46.8035H83.5207Z" fill="black"/>
<path d="M86.8398 46.8035V41.5851H87.46V43.5922H90.2333V41.5851H90.8607V46.8035H90.2333V44.1835H87.46V46.8035H86.8398Z" fill="black"/>
<path d="M92.6445 46.8035V41.5851H95.3961V42.1546H93.2647V43.6508H95.3961V44.2275H93.2647V46.2268H95.3961V46.8035H92.6445Z" fill="black"/>
<path d="M96.9844 46.8035V41.5851H97.6046V46.8035H96.9844Z" fill="black"/>
<path d="M99.4023 46.8035V41.5851H100.628C100.978 41.5851 101.234 41.6044 101.396 41.6436C101.558 41.6841 101.702 41.7504 101.826 41.8457C101.981 41.9664 102.1 42.1293 102.185 42.332C102.272 42.5353 102.314 42.7603 102.314 43.0071C102.314 43.4336 102.195 43.76 101.957 43.9814C101.717 44.204 101.368 44.3144 100.907 44.3144H100.797L102.789 46.8035H102.001L100.096 44.3144H100.009V46.8035H99.4029H99.4023ZM100.008 42.1106V43.8547H100.481C100.967 43.8547 101.291 43.7925 101.455 43.6677C101.619 43.5434 101.701 43.3256 101.701 43.0143C101.701 42.6795 101.617 42.446 101.448 42.3109C101.279 42.1769 100.956 42.11 100.481 42.11H100.008V42.1106Z" fill="black"/>
<path d="M105.992 46.8035V41.5851H106.612V43.5922H109.386V41.5851H110.013V46.8035H109.386V44.1835H106.612V46.8035H105.992Z" fill="black"/>
<path d="M114.345 46.3582C114.63 46.3582 114.903 46.3045 115.159 46.1959C115.417 46.088 115.649 45.9299 115.856 45.723C116.061 45.5185 116.217 45.2874 116.323 45.0286C116.43 44.7692 116.484 44.4947 116.484 44.2051C116.484 43.9131 116.43 43.6344 116.322 43.3708C116.214 43.1071 116.058 42.8749 115.856 42.6728C115.652 42.4683 115.421 42.3126 115.163 42.2058C114.906 42.0984 114.633 42.0454 114.346 42.0454C114.056 42.0454 113.782 42.0991 113.522 42.2058C113.263 42.3126 113.034 42.4683 112.835 42.6728C112.631 42.8797 112.475 43.1132 112.368 43.3744C112.261 43.6362 112.208 43.9131 112.208 44.2051C112.208 44.4947 112.26 44.7686 112.366 45.025C112.472 45.282 112.629 45.5142 112.835 45.723C113.044 45.9323 113.277 46.0904 113.531 46.1972C113.787 46.3045 114.059 46.3582 114.346 46.3582H114.345ZM117.134 44.2051C117.134 44.5785 117.064 44.9303 116.927 45.2597C116.789 45.5903 116.588 45.8835 116.325 46.1405C116.06 46.3968 115.756 46.5941 115.414 46.7341C115.069 46.8728 114.714 46.9422 114.346 46.9422C113.977 46.9422 113.623 46.8728 113.282 46.7341C112.941 46.5941 112.638 46.3968 112.374 46.1405C112.108 45.881 111.906 45.5866 111.766 45.256C111.627 44.9266 111.559 44.5761 111.559 44.2051C111.559 43.8317 111.628 43.48 111.766 43.1482C111.906 42.8176 112.108 42.5214 112.374 42.2625C112.635 42.0086 112.937 41.8125 113.28 41.6749C113.622 41.5374 113.977 41.468 114.346 41.468C114.717 41.468 115.073 41.5374 115.417 41.6749C115.76 41.8125 116.063 42.008 116.325 42.2625C116.588 42.5195 116.789 42.8133 116.927 43.1445C117.064 43.4763 117.134 43.8293 117.134 44.2051Z" fill="black"/>
<path d="M121.109 47.008L119.488 43.2586L118.832 46.8035H118.227L119.285 41.3806L121.109 45.6953L122.934 41.3806L123.992 46.8035H123.386L122.723 43.2586L121.109 47.008Z" fill="black"/>
<path d="M125.332 46.8035V41.5851H128.084V42.1546H125.953V43.6508H128.084V44.2275H125.953V46.2268H128.084V46.8035H125.332Z" fill="black"/>
<path d="M129.821 46.4542C129.821 46.3371 129.863 46.2376 129.945 46.1549C130.029 46.0711 130.129 46.0301 130.244 46.0301C130.364 46.0301 130.465 46.0717 130.548 46.1531C130.632 46.2358 130.675 46.3365 130.675 46.4548C130.675 46.5718 130.633 46.6701 130.55 46.7504C130.466 46.8294 130.365 46.8698 130.244 46.8698C130.126 46.8698 130.025 46.8294 129.943 46.7504C129.862 46.6701 129.82 46.5718 129.82 46.4548L129.821 46.4542Z" fill="black"/>
<path d="M132.516 46.4542C132.516 46.3371 132.558 46.2376 132.641 46.1549C132.724 46.0711 132.825 46.0301 132.94 46.0301C133.059 46.0301 133.16 46.0717 133.244 46.1531C133.328 46.2358 133.37 46.3365 133.37 46.4548C133.37 46.5718 133.328 46.6701 133.246 46.7504C133.162 46.8294 133.06 46.8698 132.939 46.8698C132.821 46.8698 132.72 46.8294 132.639 46.7504C132.557 46.6701 132.516 46.5718 132.516 46.4548L132.516 46.4542Z" fill="black"/>
<path d="M135.196 46.4542C135.196 46.3371 135.238 46.2376 135.32 46.1549C135.404 46.0711 135.504 46.0301 135.619 46.0301C135.739 46.0301 135.84 46.0717 135.923 46.1531C136.007 46.2358 136.05 46.3365 136.05 46.4548C136.05 46.5718 136.008 46.6701 135.925 46.7504C135.841 46.8294 135.74 46.8698 135.619 46.8698C135.501 46.8698 135.4 46.8294 135.318 46.7504C135.237 46.6701 135.195 46.5718 135.195 46.4548L135.196 46.4542Z" fill="black"/>
</svg>
