<svg width="75" height="75" viewBox="0 0 75 75" fill="none" xmlns="http://www.w3.org/2000/svg">
<path d="M0 29.2227V46.874H9.44824C14.6484 46.874 18.8965 46.9033 18.8965 46.9326C18.8965 46.9619 17.5049 49.833 15.8203 53.3047L12.7441 59.6328L12.7734 62.7236L12.8174 65.8145L24.0527 56.3809L35.3027 46.9473V29.252V11.5713H17.6514H0V29.2227Z" fill="black" fill-opacity="0.7"/>
<path d="M46.1406 32.5186V46.874H53.8311C58.0645 46.874 61.5215 46.9033 61.5215 46.9326C61.5215 46.9766 60.3936 49.3057 59.0312 52.1328L56.541 57.2598L56.5703 59.7646L56.6143 62.2695L65.7402 54.623L74.8516 46.9619V32.5625V18.1631H60.4961H46.1406V32.5186Z" fill="black" fill-opacity="0.5"/>
</svg>
