<svg width="14" height="18" viewBox="0 0 14 18" fill="none" xmlns="http://www.w3.org/2000/svg">
<path d="M1.375 15.25H12.625C13.1428 15.25 13.5625 15.6697 13.5625 16.1875C13.5625 16.6621 13.2098 17.0544 12.7522 17.1164L12.625 17.125H1.375C0.857233 17.125 0.4375 16.7053 0.4375 16.1875C0.4375 15.7129 0.790192 15.3206 1.24779 15.2586L1.375 15.25ZM6.87279 0.258558L7 0.25C7.47462 0.25 7.86686 0.602692 7.92894 1.06029L7.9375 1.1875V10.7975L10.7565 7.98017C11.0893 7.64734 11.6102 7.61708 11.9772 7.8894L12.0823 7.98017C12.4152 8.313 12.4454 8.83383 12.1731 9.20085L12.0823 9.30599L7.66291 13.7254C7.33008 14.0582 6.80925 14.0885 6.44223 13.8162L6.33709 13.7254L1.91767 9.30599C1.55155 8.93988 1.55155 8.34629 1.91767 7.98017C2.2505 7.64734 2.77133 7.61708 3.13835 7.8894L3.2435 7.98017L6.0625 10.8V1.1875C6.0625 0.71288 6.41519 0.320636 6.87279 0.258558Z" fill="url(#paint0_linear_704_2000)"/>
<defs>
<linearGradient id="paint0_linear_704_2000" x1="-0.843754" y1="5.72033" x2="12.4088" y2="5.72033" gradientUnits="userSpaceOnUse">
<stop stop-color="#6A9113"/>
<stop offset="1" stop-color="#141517"/>
</linearGradient>
</defs>
</svg>
