<svg width="33" height="36" viewBox="0 0 33 36" fill="none" xmlns="http://www.w3.org/2000/svg">
<rect width="32.9331" height="36" rx="4" fill="#496115" fill-opacity="0.1"/>
<path d="M15.9284 8.02821C14.3724 8.2041 13.2156 9.26622 12.7691 10.9304C12.5864 11.6272 12.6202 12.9464 12.8435 13.8056C13.2765 15.4495 14.1221 16.6131 15.3195 17.1814C15.7254 17.3776 15.8134 17.3911 16.4696 17.3911C17.1326 17.3911 17.2137 17.3776 17.6467 17.1746C18.4653 16.7823 19.1283 16.0922 19.6221 15.1113C20.2783 13.8124 20.461 12.0061 20.0821 10.6666C19.5612 8.84679 17.9308 7.81173 15.9284 8.02821Z" fill="url(#paint0_linear_805_1864)"/>
<path d="M12.925 17.1275C10.6249 17.5807 8.81181 19.1502 8.21648 21.2136C8.10148 21.5992 8.06089 21.9713 8.03383 22.7357L8 23.7505L8.59533 25.5838L9.19066 27.4172L9.97541 27.566C11.1931 27.7893 13.5068 28.0599 13.4527 27.9719C13.4391 27.9516 12.5326 27.2751 11.4299 26.4836L9.4342 25.0359L12.1199 25.002L14.8057 24.9682L15.6243 22.4516C16.0708 21.0647 16.4564 19.9282 16.4834 19.9282C16.5037 19.9282 16.5443 20.0094 16.5714 20.1109C16.5917 20.2191 16.9502 21.3489 17.3697 22.6343L18.1341 24.9682L20.8199 25.002L23.4989 25.0359L21.5031 26.4836C20.4072 27.2751 19.5007 27.9449 19.4871 27.9719C19.4533 28.026 19.6022 28.0125 21.104 27.8366C21.7399 27.7622 22.5923 27.6337 22.9982 27.5525L23.7424 27.4037L24.3377 25.6109L24.9331 23.8181L24.8992 22.7696C24.8654 21.5518 24.7436 21.0106 24.3039 20.1921C23.4786 18.6428 21.882 17.5063 20.0148 17.1342L19.318 16.9989L18.973 17.3101C18.5603 17.6822 18.0665 17.9663 17.5523 18.1422C16.9908 18.3316 15.9016 18.3181 15.2995 18.1084C14.8057 17.9393 14.1833 17.5604 13.8721 17.2289C13.6489 16.9989 13.5947 16.9922 12.925 17.1275Z" fill="url(#paint1_linear_805_1864)"/>
<defs>
<linearGradient id="paint0_linear_805_1864" x1="11.9069" y1="14.3468" x2="19.607" y2="14.3468" gradientUnits="userSpaceOnUse">
<stop stop-color="#6A9113"/>
<stop offset="1" stop-color="#141517"/>
</linearGradient>
<linearGradient id="paint1_linear_805_1864" x1="6.34701" y1="24.4338" x2="23.4446" y2="24.4338" gradientUnits="userSpaceOnUse">
<stop stop-color="#6A9113"/>
<stop offset="1" stop-color="#141517"/>
</linearGradient>
</defs>
</svg>
