<svg width="34" height="36" viewBox="0 0 34 36" fill="none" xmlns="http://www.w3.org/2000/svg">
<rect width="33.6011" height="36" rx="4" fill="url(#paint0_linear_805_1888)"/>
<path d="M16.5382 8.12016L16.418 8.23555V9.34132C16.418 10.4182 16.4228 10.4471 16.5285 10.5673C16.7016 10.7644 16.8699 10.774 17.043 10.6057L17.1872 10.4615V9.34612V8.23555L17.067 8.12016C16.9949 8.04324 16.8939 7.99997 16.8026 7.99997C16.7112 7.99997 16.6103 8.04324 16.5382 8.12016Z" fill="white"/>
<path d="M10.6632 10.1732C10.5334 10.2357 10.4421 10.4472 10.4805 10.6059C10.4998 10.6732 10.8555 11.0674 11.293 11.5049C12.0863 12.2886 12.1632 12.3414 12.4036 12.2501C12.5238 12.202 12.6344 11.952 12.5959 11.803C12.5623 11.6636 11.2305 10.2934 11.0238 10.1828C10.8748 10.1059 10.8075 10.1011 10.6632 10.1732Z" fill="white"/>
<path d="M22.5478 10.2067C22.3122 10.3509 21.043 11.673 21.0093 11.8077C20.9516 12.0384 21.1439 12.274 21.3891 12.2788C21.5093 12.2788 21.6584 12.1538 22.317 11.4952C22.7497 11.0673 23.1151 10.6682 23.1343 10.6057C23.1728 10.4519 23.067 10.2355 22.9276 10.1682C22.7641 10.0961 22.7161 10.1009 22.5478 10.2067Z" fill="white"/>
<path d="M16.182 11.8512C15.432 11.9425 14.5666 12.2694 13.9176 12.7117C13.5234 12.9762 12.8839 13.6204 12.6243 14.005C12.2301 14.5867 11.9464 15.255 11.7926 15.9569C11.7589 16.1204 11.7301 16.5531 11.7349 16.9665C11.7349 17.9665 11.8166 18.2694 12.4512 19.5867C13.2541 21.2646 13.7541 22.63 13.8695 23.481C13.9416 24.0098 14.0282 24.2165 14.283 24.4329C14.5859 24.7021 14.7301 24.731 15.8839 24.731H16.908L17.0474 24.5915C17.2012 24.4329 17.2253 24.2694 17.1195 24.0627C17.0041 23.8415 16.8743 23.8175 15.8695 23.8175C15.1339 23.8175 14.9272 23.8031 14.8839 23.7502C14.8551 23.7117 14.7974 23.481 14.7589 23.2358C14.6291 22.3608 14.0426 20.779 13.2205 19.0579C12.7734 18.13 12.6868 17.856 12.6387 17.2358C12.4657 14.9713 14.1772 12.9569 16.4416 12.7598C16.8936 12.7213 16.932 12.7117 17.0522 12.5723C17.2253 12.3752 17.2253 12.1829 17.057 11.9906C16.8984 11.8127 16.7157 11.7838 16.182 11.8512Z" fill="white"/>
<path d="M18.3933 12.3174C18.2827 12.3703 18.1818 12.4905 18.076 12.6876C17.802 13.1924 17.6193 13.3222 17.0904 13.4088C16.677 13.4713 16.3789 13.8607 16.4318 14.2645C16.4847 14.6636 16.7299 14.8559 17.3404 14.9761C18.3212 15.1732 19.0327 15.6636 19.5327 16.4857C19.9077 17.0963 20.0616 18.0097 19.9077 18.7213C19.8116 19.1732 19.5279 19.7693 19.2443 20.1155C18.701 20.779 17.8164 21.2213 17.0375 21.2213C16.4654 21.2213 16.1433 21.4424 16.0568 21.8992C16.0231 22.0818 16.1145 22.3703 16.2635 22.5386C16.4174 22.7068 16.7106 22.8078 17.0808 22.8078C17.6145 22.8078 17.802 22.928 18.1049 23.4424C18.3164 23.7982 18.4414 23.9136 18.6337 23.9136C18.8356 23.9136 19.5808 23.5818 19.6866 23.4472C19.802 23.2982 19.8116 23.0434 19.7106 22.7597C19.6193 22.5049 19.6193 22.1347 19.701 21.928C19.802 21.6876 20.4943 21.0049 20.7154 20.9328C20.9125 20.8703 21.225 20.8847 21.6577 20.9857C22.1289 21.0915 22.225 21.0242 22.4799 20.3992C22.7347 19.779 22.6722 19.6059 22.0952 19.2982C21.8933 19.1876 21.7491 19.0722 21.6625 18.9424C21.5472 18.7645 21.5375 18.7117 21.5231 18.1155C21.4991 17.2645 21.5616 17.1347 22.1481 16.7934C22.677 16.4857 22.7154 16.3511 22.4702 15.7501C22.2683 15.2597 22.1337 15.1155 21.8693 15.1155C21.7587 15.1155 21.576 15.1492 21.4654 15.1876C21.2106 15.279 20.8356 15.279 20.6337 15.1924C20.4414 15.1107 19.7106 14.3703 19.6433 14.1876C19.5712 14.0001 19.5808 13.6972 19.6625 13.3847C19.7731 12.9761 19.7587 12.8174 19.5952 12.6732C19.4847 12.5674 18.7154 12.2309 18.5904 12.2309C18.5712 12.2309 18.4847 12.2693 18.3933 12.3174Z" fill="white"/>
<path d="M15.8797 15.8173C15.6729 15.9038 15.6249 16.0096 15.697 16.1971C15.7739 16.399 15.7162 16.5673 15.5047 16.774C15.322 16.9519 15.3124 16.9567 15.0335 16.9278C14.7114 16.8942 14.6874 16.9086 14.5672 17.1971C14.4854 17.3942 14.4614 17.3509 14.8701 17.7115C14.9566 17.7884 14.9758 17.8557 14.9758 18.0721C14.9758 18.399 14.9326 18.4855 14.7114 18.6201C14.5239 18.7307 14.5047 18.8221 14.6104 19.0769C14.6922 19.2692 14.7979 19.3125 15.0143 19.25C15.2258 19.1923 15.3893 19.2596 15.5912 19.4807C15.7499 19.6538 15.7547 19.6634 15.721 19.9567L15.6874 20.2596L15.9133 20.3557C16.1729 20.4663 16.2787 20.4326 16.3941 20.2115C16.4903 20.024 16.6008 19.9711 16.8893 19.9711C17.1441 19.9711 17.3508 20.0865 17.4037 20.2596C17.4566 20.4326 17.5912 20.4615 17.8364 20.3557L18.0624 20.2596L18.0287 19.9519L17.9999 19.6442L18.2162 19.4182L18.4326 19.1923L18.7114 19.2211C19.0191 19.2548 19.0624 19.2403 19.1489 19.0432C19.2403 18.8365 19.221 18.6826 19.1008 18.6201C18.8316 18.4855 18.7739 18.3846 18.7739 18.0721C18.7739 17.7596 18.8316 17.6586 19.1008 17.524C19.2354 17.4519 19.2403 17.2644 19.1104 17.048C19.0095 16.8846 19.0095 16.8846 18.7258 16.9182L18.4422 16.9519L18.221 16.7451L17.9951 16.5336L18.0239 16.2355C18.0528 15.9567 18.0479 15.9326 17.9374 15.8605C17.8749 15.8173 17.7451 15.774 17.6537 15.7548C17.5095 15.7355 17.4758 15.7451 17.4278 15.8413C17.2883 16.1105 17.1874 16.173 16.8893 16.173C16.5479 16.173 16.4614 16.1298 16.3268 15.9086C16.221 15.7211 16.1489 15.7067 15.8797 15.8173ZM17.4806 16.9711C17.8797 17.1875 18.1393 17.6105 18.1441 18.0576C18.1585 18.7596 17.5816 19.3413 16.8749 19.3461C15.8653 19.3461 15.2547 18.2355 15.8076 17.399C16.1826 16.8221 16.8797 16.6442 17.4806 16.9711Z" fill="white"/>
<path d="M8.13402 16.1923C7.95614 16.3558 7.95614 16.6058 8.12921 16.7452C8.24941 16.8414 8.31671 16.8462 9.35037 16.8462C10.384 16.8462 10.4513 16.8414 10.5715 16.7452C10.7254 16.625 10.7398 16.3847 10.6052 16.2164C10.5138 16.101 10.5042 16.101 9.38883 16.0866L8.26383 16.0722L8.13402 16.1923Z" fill="white"/>
<path d="M23.0281 16.1923C22.8599 16.3606 22.8647 16.6106 23.0329 16.7452C23.1531 16.8414 23.2204 16.8462 24.2541 16.8462C25.2877 16.8462 25.355 16.8414 25.4752 16.7452C25.6291 16.625 25.6435 16.3847 25.5089 16.2164C25.4175 16.101 25.4079 16.101 24.2829 16.0866L23.1483 16.0722L23.0281 16.1923Z" fill="white"/>
<path d="M14.3072 25.5674C14.038 25.7165 13.9851 26.0578 14.2014 26.2742L14.3408 26.4136H16.7928C19.1726 26.4136 19.2447 26.4088 19.3649 26.3174C19.6101 26.1251 19.5716 25.7117 19.2976 25.5722C19.1053 25.4713 14.4851 25.4665 14.3072 25.5674Z" fill="white"/>
<path d="M15.4031 27.226C15.3021 27.3317 15.2637 27.4135 15.2637 27.5433C15.2637 27.6731 15.3021 27.7548 15.4031 27.8606L15.5425 28H16.8021H18.0617L18.2012 27.8606C18.3021 27.7548 18.3406 27.6731 18.3406 27.5433C18.3406 27.4135 18.3021 27.3317 18.2012 27.226L18.0617 27.0865H16.8021H15.5425L15.4031 27.226Z" fill="white"/>
<defs>
<linearGradient id="paint0_linear_805_1888" x1="-3.28012" y1="11.67" x2="30.6475" y2="11.67" gradientUnits="userSpaceOnUse">
<stop stop-color="#6A9113"/>
<stop offset="1" stop-color="#141517"/>
</linearGradient>
</defs>
</svg>
