<svg width="43" height="44" viewBox="0 0 43 44" fill="none" xmlns="http://www.w3.org/2000/svg">
<path fill-rule="evenodd" clip-rule="evenodd" d="M2.84903 19.9358L14.5956 28.2033L9.61358 33.2814C9.47766 33.4137 9.36903 33.5721 9.29403 33.7475C9.21904 33.9229 9.17918 34.1118 9.17678 34.303C9.17439 34.4942 9.20951 34.684 9.28009 34.8613C9.35067 35.0386 9.4553 35.1998 9.58787 35.3356C9.72044 35.4713 9.87829 35.5788 10.0522 35.6519C10.2261 35.725 10.4126 35.7621 10.6008 35.7611C10.789 35.7602 10.9751 35.7211 11.1483 35.6462C11.3215 35.5713 11.4782 35.4622 11.6094 35.3251L16.9723 29.8753L20.5222 32.3834C20.7593 32.5506 21.041 32.6401 21.3297 32.6401C21.6183 32.6401 21.9 32.5506 22.1371 32.3834L25.687 29.8753L31.0346 35.3251C31.1667 35.4592 31.3235 35.5657 31.496 35.6383C31.6685 35.7109 31.8534 35.7483 32.0402 35.7483C32.2269 35.7483 32.4118 35.7109 32.5844 35.6383C32.7569 35.5657 32.9137 35.4592 33.0457 35.3251C33.1778 35.1909 33.2825 35.0316 33.354 34.8562C33.4254 34.6809 33.4622 34.493 33.4622 34.3032C33.4622 34.1135 33.4254 33.9255 33.354 33.7502C33.2825 33.5749 33.1778 33.4156 33.0457 33.2814L28.0637 28.2033L39.8103 19.9358V35.8514C39.8143 36.4795 39.6958 37.1022 39.4616 37.6834C39.2274 38.2647 38.8821 38.793 38.4458 39.2379C38.0094 39.6827 37.4907 40.0353 36.9194 40.2752C36.3482 40.515 35.7358 40.6375 35.1177 40.6354H7.61773C6.99965 40.6375 6.38729 40.515 5.81606 40.2752C5.24483 40.0353 4.72604 39.6827 4.2897 39.2379C3.85336 38.793 3.5081 38.2647 3.2739 37.6834C3.03969 37.1022 2.92118 36.4795 2.92521 35.8514L2.84903 19.9358ZM13.7119 15.7401C13.3595 15.7772 13.0332 15.9457 12.7959 16.2131C12.5586 16.4805 12.4273 16.8277 12.4273 17.1877C12.4273 17.5477 12.5586 17.895 12.7959 18.1624C13.0332 18.4297 13.3595 18.5982 13.7119 18.6353H28.9474C29.1468 18.6563 29.3484 18.6345 29.539 18.5713C29.7296 18.5081 29.9051 18.405 30.054 18.2685C30.2029 18.132 30.322 17.9653 30.4034 17.7791C30.4849 17.593 30.527 17.3915 30.527 17.1877C30.527 16.984 30.4849 16.7825 30.4034 16.5963C30.322 16.4101 30.2029 16.2434 30.054 16.107C29.9051 15.9705 29.7296 15.8673 29.539 15.8041C29.3484 15.741 29.1468 15.7192 28.9474 15.7401H13.7119ZM35.0416 15.0744L38.6371 17.2729L35.0416 19.8119V15.0744ZM7.61773 15.0744V19.7191L4.05263 17.2729L7.61773 15.0744ZM13.5291 7.90618C13.1452 7.93082 12.7867 8.10941 12.5324 8.40266C12.2781 8.69591 12.1489 9.0798 12.1731 9.46988C12.1974 9.85996 12.3731 10.2243 12.6617 10.4827C12.9503 10.7411 13.3281 10.8724 13.7119 10.8478H21.3297C21.7135 10.8478 22.0817 10.6928 22.3531 10.417C22.6245 10.1412 22.777 9.76707 22.777 9.37699C22.777 8.9869 22.6245 8.6128 22.3531 8.33697C22.0817 8.06114 21.7135 7.90618 21.3297 7.90618H13.5291ZM27.3324 5.56838L30.5471 9.4544H27.3324V5.56838ZM12.1884 3.06027H24.5443V11.0026C24.5443 11.3886 24.6952 11.7588 24.9638 12.0317C25.2324 12.3046 25.5966 12.4579 25.9765 12.4579H32.2078V21.8401L21.3297 29.4264L10.4972 21.8401V4.80975C10.4962 4.59034 10.5388 4.37298 10.6226 4.17076C10.7064 3.96854 10.8296 3.78565 10.9848 3.63311C11.1298 3.45143 11.3134 3.30551 11.5219 3.20629C11.7303 3.10708 11.9582 3.05715 12.1884 3.06027ZM25.9003 0.165113H12.1884C10.9762 0.165113 9.8136 0.654458 8.95644 1.5255C8.09928 2.39654 7.61773 3.57792 7.61773 4.80975V11.7767L0.777009 15.9569C0.551043 16.0748 0.359996 16.2516 0.223455 16.4693C0.0869139 16.6869 0.00979313 16.9375 0 17.1955V35.8514C0.0200722 37.8911 0.831505 39.8402 2.25794 41.2752C3.68437 42.7103 5.61051 43.5152 7.61773 43.5151H35.1939C37.1746 43.4749 39.062 42.6522 40.4558 41.2215C41.8495 39.7907 42.6399 37.8645 42.6593 35.8514V17.1955C42.6578 16.9177 42.578 16.6462 42.4296 16.413C42.2811 16.1799 42.07 15.9947 41.8214 15.8795L35.0416 11.6993V11.3742C35.1003 11.1403 35.0989 10.8951 35.0375 10.6619C34.9762 10.4288 34.8569 10.2156 34.6912 10.0427L27.0734 0.753435C26.9416 0.56382 26.7652 0.410683 26.5604 0.307939C26.3555 0.205194 26.1286 0.156099 25.9003 0.165113Z" fill="#005B8A"/>
</svg>
