<svg width="30" height="31" viewBox="0 0 30 31" fill="none" xmlns="http://www.w3.org/2000/svg">
<path fill-rule="evenodd" clip-rule="evenodd" d="M2.00357 14.1386L10.2643 20.0506L6.76071 23.682C6.66513 23.7765 6.58873 23.8899 6.53599 24.0153C6.48325 24.1407 6.45522 24.2758 6.45354 24.4125C6.45186 24.5492 6.47655 24.685 6.52619 24.8117C6.57583 24.9385 6.64941 25.0538 6.74263 25.1509C6.83586 25.2479 6.94687 25.3248 7.06918 25.3771C7.19148 25.4293 7.32264 25.4559 7.45498 25.4552C7.58733 25.4545 7.71822 25.4266 7.84 25.373C7.96178 25.3195 8.07202 25.2414 8.16429 25.1434L11.9357 21.2463L14.4321 23.0398C14.5989 23.1594 14.797 23.2234 15 23.2234C15.203 23.2234 15.4011 23.1594 15.5679 23.0398L18.0643 21.2463L21.825 25.1434C21.9179 25.2393 22.0281 25.3154 22.1494 25.3674C22.2708 25.4193 22.4008 25.446 22.5321 25.446C22.6635 25.446 22.7935 25.4193 22.9148 25.3674C23.0362 25.3154 23.1464 25.2393 23.2393 25.1434C23.3321 25.0474 23.4058 24.9335 23.4561 24.8081C23.5063 24.6827 23.5322 24.5484 23.5322 24.4127C23.5322 24.277 23.5063 24.1426 23.4561 24.0172C23.4058 23.8918 23.3321 23.7779 23.2393 23.682L19.7357 20.0506L27.9964 14.1386V25.5198C27.9993 25.9689 27.9159 26.4142 27.7512 26.8298C27.5865 27.2455 27.3437 27.6233 27.0369 27.9414C26.73 28.2595 26.3652 28.5116 25.9634 28.6831C25.5617 28.8547 25.1311 28.9422 24.6964 28.9408H5.35714C4.92248 28.9422 4.49184 28.8547 4.09012 28.6831C3.6884 28.5116 3.32357 28.2595 3.01672 27.9414C2.70986 27.6233 2.46706 27.2455 2.30236 26.8298C2.13765 26.4142 2.05431 25.9689 2.05714 25.5198L2.00357 14.1386ZM9.64286 11.1383C9.39503 11.1649 9.16552 11.2854 8.99866 11.4765C8.83181 11.6677 8.73945 11.916 8.73945 12.1735C8.73945 12.4309 8.83181 12.6793 8.99866 12.8704C9.16552 13.0616 9.39503 13.1821 9.64286 13.2086H20.3571C20.4974 13.2237 20.6391 13.2081 20.7732 13.1629C20.9073 13.1177 21.0306 13.0439 21.1354 12.9463C21.2401 12.8488 21.3238 12.7295 21.3811 12.5964C21.4384 12.4633 21.468 12.3192 21.468 12.1735C21.468 12.0278 21.4384 11.8837 21.3811 11.7506C21.3238 11.6174 21.2401 11.4982 21.1354 11.4006C21.0306 11.3031 20.9073 11.2293 20.7732 11.1841C20.6391 11.1389 20.4974 11.1233 20.3571 11.1383H9.64286ZM24.6429 10.6623L27.1714 12.2344L24.6429 14.0501V10.6623ZM5.35714 10.6623V13.9836L2.85 12.2344L5.35714 10.6623ZM9.51429 5.53633C9.24433 5.55395 8.99221 5.68166 8.81338 5.89136C8.63455 6.10106 8.54366 6.37557 8.56071 6.65452C8.57776 6.93346 8.70135 7.19398 8.90429 7.37877C9.10724 7.56356 9.3729 7.65747 9.64286 7.63985H15C15.27 7.63985 15.5288 7.52904 15.7197 7.3318C15.9106 7.13456 16.0179 6.86704 16.0179 6.58809C16.0179 6.30915 15.9106 6.04163 15.7197 5.84439C15.5288 5.64714 15.27 5.53633 15 5.53633H9.51429ZM19.2214 3.86459L21.4821 6.64345H19.2214V3.86459ZM8.57143 2.07106H17.2607V7.75056C17.2607 8.02657 17.3668 8.29127 17.5557 8.48644C17.7446 8.68161 18.0007 8.79125 18.2679 8.79125H22.65V15.5004L15 20.9252L7.38214 15.5004V3.3221C7.38138 3.1652 7.41137 3.00977 7.47029 2.86516C7.52921 2.72056 7.61586 2.58977 7.725 2.48069C7.82697 2.35077 7.95611 2.24642 8.10271 2.17548C8.24931 2.10453 8.40956 2.06883 8.57143 2.07106ZM18.2143 0.000751492H8.57143C7.71895 0.000751492 6.90138 0.350678 6.29859 0.973552C5.69579 1.59643 5.35714 2.44122 5.35714 3.3221V8.30412L0.546429 11.2933C0.387519 11.3776 0.253166 11.5041 0.157144 11.6597C0.0611219 11.8154 0.00688698 11.9946 0 12.179V25.5198C0.0141157 26.9783 0.584753 28.3721 1.58789 29.3983C2.59102 30.4245 3.94557 31.0001 5.35714 31H24.75C26.1429 30.9713 27.4702 30.383 28.4504 29.3598C29.4305 28.3367 29.9863 26.9593 30 25.5198V12.179C29.9989 11.9804 29.9429 11.7863 29.8384 11.6195C29.734 11.4528 29.5856 11.3204 29.4107 11.238L24.6429 8.24877V8.01627C24.6841 7.84905 24.6832 7.67367 24.64 7.50695C24.5969 7.34023 24.513 7.18776 24.3964 7.06415L19.0393 0.421456C18.9466 0.285863 18.8225 0.176356 18.6785 0.102885C18.5344 0.029413 18.3748 -0.00569473 18.2143 0.000751492Z" fill="#DBC087"/>
</svg>
