<svg width="42" height="42" viewBox="0 0 42 42" fill="none" xmlns="http://www.w3.org/2000/svg">
<g clip-path="url(#clip0_2251_2761)">
<path d="M39.375 3.93218L28.8658 3.93222V1.31641C28.8658 0.59125 28.2785 0.00390625 27.5533 0.00390625C26.8282 0.00390625 26.2408 0.59125 26.2408 1.31641V3.93156H15.7408V1.31641C15.7408 0.59125 15.1535 0.00390625 14.4283 0.00390625C13.7032 0.00390625 13.1158 0.59125 13.1158 1.31641V3.93156H2.625C1.17534 3.93156 0 5.10691 0 6.55656V39.3691C0 40.8187 1.17534 41.9941 2.625 41.9941H39.375C40.8247 41.9941 42 40.8187 42 39.3691V6.55656C42 5.10752 40.8247 3.93218 39.375 3.93218ZM39.375 39.3691H2.625V6.55656H13.1158V7.87891C13.1158 8.60402 13.7032 9.19141 14.4283 9.19141C15.1535 9.19141 15.7408 8.60402 15.7408 7.87891V6.55722H26.2408V7.87956C26.2408 8.60472 26.8282 9.19206 27.5533 9.19206C28.2785 9.19206 28.8658 8.60472 28.8658 7.87956V6.55722H39.375V39.3691ZM30.1875 20.9947H32.8125C33.537 20.9947 34.125 20.4067 34.125 19.6822V17.0572C34.125 16.3327 33.537 15.7447 32.8125 15.7447H30.1875C29.463 15.7447 28.875 16.3327 28.875 17.0572V19.6822C28.875 20.4067 29.463 20.9947 30.1875 20.9947ZM30.1875 31.494H32.8125C33.537 31.494 34.125 30.9067 34.125 30.1815V27.5565C34.125 26.832 33.537 26.244 32.8125 26.244H30.1875C29.463 26.244 28.875 26.832 28.875 27.5565V30.1815C28.875 30.9073 29.463 31.494 30.1875 31.494ZM22.3125 26.244H19.6875C18.963 26.244 18.375 26.832 18.375 27.5565V30.1815C18.375 30.9067 18.963 31.494 19.6875 31.494H22.3125C23.037 31.494 23.625 30.9067 23.625 30.1815V27.5565C23.625 26.8327 23.037 26.244 22.3125 26.244ZM22.3125 15.7447H19.6875C18.963 15.7447 18.375 16.3327 18.375 17.0572V19.6822C18.375 20.4067 18.963 20.9947 19.6875 20.9947H22.3125C23.037 20.9947 23.625 20.4067 23.625 19.6822V17.0572C23.625 16.332 23.037 15.7447 22.3125 15.7447ZM11.8125 15.7447H9.1875C8.463 15.7447 7.875 16.3327 7.875 17.0572V19.6822C7.875 20.4067 8.463 20.9947 9.1875 20.9947H11.8125C12.537 20.9947 13.125 20.4067 13.125 19.6822V17.0572C13.125 16.332 12.537 15.7447 11.8125 15.7447ZM11.8125 26.244H9.1875C8.463 26.244 7.875 26.832 7.875 27.5565V30.1815C7.875 30.9067 8.463 31.494 9.1875 31.494H11.8125C12.537 31.494 13.125 30.9067 13.125 30.1815V27.5565C13.125 26.8327 12.537 26.244 11.8125 26.244Z" fill="#92C8FF"/>
</g>
<defs>
<clipPath id="clip0_2251_2761">
<rect width="42" height="42" fill="white"/>
</clipPath>
</defs>
</svg>
