<svg width="200" height="47" viewBox="0 0 200 47" fill="none" xmlns="http://www.w3.org/2000/svg">
<g clip-path="url(#clip0_2283_2652)">
<path d="M11.7731 34.3698H6.94141V31.6798H20.0458V34.3698H15.0091V46.8814H11.7731V34.3698ZM24.9354 41.0914V46.8791H21.6994V31.6776H29.1208C31.2514 31.6776 32.7401 31.9473 33.5915 32.491C34.162 32.8565 34.6055 33.3335 34.9197 33.9307C35.2362 34.5302 35.3944 35.1877 35.3944 35.9098C35.3944 37.3562 35.0267 38.4682 34.289 39.2483C33.8321 39.723 33.2282 40.084 32.4771 40.3381C33.0744 40.5387 33.5201 40.7548 33.8255 40.9955C34.1286 41.234 34.4027 41.5839 34.6501 42.043C34.835 42.3996 34.9643 42.745 35.0445 43.0838C35.1203 43.4225 35.1849 43.924 35.2384 44.5836C35.3276 45.6734 35.4524 46.4423 35.6061 46.8791H31.9757C31.8665 46.5225 31.7551 45.8005 31.6459 44.7129C31.5545 43.8192 31.3962 43.1417 31.16 42.667C30.9282 42.1968 30.5717 41.8268 30.097 41.5571C29.5108 41.2384 28.6573 41.0824 27.5407 41.0891H24.9354V41.0914ZM24.9354 38.4036H29.4752C30.2351 38.4036 30.7745 38.29 31.0932 38.0649C31.5768 37.7239 31.8175 37.1333 31.8175 36.2953C31.8175 35.366 31.4542 34.7665 30.7254 34.5035C30.4736 34.4166 30.0568 34.3698 29.4752 34.3698H24.9354V38.4036ZM36.5266 46.8814L42.8158 31.6798H46.5421L52.8268 46.8814H49.0337L47.5672 43.3712H41.7906L40.3197 46.8814H36.5243H36.5266ZM44.6856 35.3415L42.5171 40.6813H46.8429L44.6856 35.3415ZM67.4734 31.6798L60.8299 46.8814H57.5894L51.1799 31.6798H54.8192L59.2899 43.1216L63.8318 31.6798H67.469H67.4734ZM80.4642 31.6798V34.3698H76.2476C75.1422 34.3698 74.3376 34.4456 73.8362 34.6016C73.3392 34.7531 72.9202 35.0495 72.5882 35.4908C72.3631 35.7894 72.2115 36.0947 72.1313 36.4023C72.0488 36.7054 71.9797 37.2314 71.9196 37.9713H80.4664V40.659H71.9196C72.0288 41.9806 72.4121 42.8988 73.0673 43.4158C73.7203 43.9329 74.8302 44.1914 76.3947 44.1914H80.4664V46.8814H76.2498C75.1065 46.8814 74.0992 46.81 73.2345 46.6696C71.8705 46.449 70.783 45.8495 69.974 44.8778C68.824 43.4827 68.2512 41.5883 68.2512 39.1992C68.2512 36.5494 69.0647 34.4901 70.6849 33.0192C71.2443 32.5222 71.8371 32.1723 72.4656 31.9785C73.0963 31.7801 73.9387 31.682 75.004 31.682H80.4664L80.4642 31.6798ZM82.8644 31.6798H86.1004V40.2266C86.1472 41.3098 86.1918 42.0296 86.2453 42.3884C86.3478 43.0793 86.6776 43.5518 87.237 43.8103C87.7986 44.0644 88.7792 44.1936 90.1833 44.1936H93.2788V46.8836H89.849C88.231 46.8903 87.0542 46.8011 86.321 46.6072C84.6429 46.1169 83.5798 45.0539 83.1341 43.4158C82.9602 42.7896 82.8711 41.7265 82.8644 40.2289V31.682V31.6798ZM116.107 37.9245V40.6323H113.992C113.243 42.9723 112.276 44.6126 111.086 45.5553C109.893 46.5025 108.2 46.9727 105.995 46.9727C104.366 46.9727 103.125 46.7142 102.269 46.1927C101.552 45.7603 101.039 45.1831 100.736 44.4544C100.471 43.8014 100.337 43.135 100.337 42.4597C100.337 41.6931 100.509 41.0356 100.845 40.4807C101.184 39.9258 101.654 39.538 102.256 39.3196C101.63 38.9251 101.162 38.5217 100.845 38.1161C100.355 37.4631 100.107 36.6608 100.107 35.7114C100.107 34.5236 100.502 33.5363 101.289 32.7496C101.692 32.3506 102.182 32.0743 102.755 31.9183C103.332 31.7623 104.164 31.682 105.247 31.682H110.317V34.372H105.995C104.549 34.372 103.823 34.9425 103.823 36.0814C103.823 36.6207 103.994 37.062 104.335 37.4074C104.676 37.7529 105.111 37.9289 105.637 37.9289H106.738V40.6367C106.619 40.6412 106.452 40.6412 106.241 40.6412C105.701 40.6412 105.32 40.6612 105.097 40.6991C104.877 40.7325 104.683 40.8128 104.525 40.9309C104.119 41.2273 103.914 41.6909 103.914 42.326C103.914 42.9768 104.114 43.4537 104.518 43.7613C104.921 44.0688 105.547 44.2204 106.399 44.2204C107.571 44.2204 108.487 43.9396 109.145 43.3757C109.802 42.8141 110.279 41.9026 110.573 40.6367H108.382V37.9289H116.107V37.9245ZM127.058 34.3698H122.227V31.6798H135.331V34.3698H130.294V46.8814H127.058V34.3698ZM143.448 31.5884C144.968 31.5884 146.303 31.847 147.45 32.3662C148.81 32.9813 149.759 34.0177 150.299 35.473C150.729 36.6162 150.945 37.9579 150.945 39.5023C150.945 41.0446 150.682 42.384 150.154 43.5206C149.507 44.8845 148.513 45.8339 147.161 46.3688C146.153 46.7677 144.992 46.9683 143.682 46.9683C141.972 46.9683 140.488 46.6496 139.218 46.01C138.157 45.4751 137.348 44.6393 136.786 43.5005C136.229 42.3617 135.946 40.9777 135.946 39.3552C135.946 36.4602 136.664 34.3943 138.103 33.1641C139.318 32.1278 141.101 31.5996 143.443 31.584L143.448 31.5884ZM143.47 34.1425C141.986 34.1425 140.923 34.6283 140.279 35.6C139.777 36.3555 139.528 37.5746 139.528 39.255C139.528 41.0356 139.846 42.3461 140.481 43.1863C141.108 44.0109 142.108 44.4209 143.481 44.4209C144.812 44.4209 145.79 44.002 146.421 43.1662C147.051 42.3305 147.368 41.0379 147.368 39.2839C147.368 37.6971 147.114 36.4848 146.603 35.6446C146.004 34.6506 144.959 34.1491 143.47 34.1402V34.1425ZM156.316 31.6798V40.7927C156.316 41.5192 156.376 42.0831 156.494 42.4865C156.612 42.8876 156.813 43.2308 157.103 43.5117C157.749 44.1312 158.638 44.4432 159.77 44.4432C160.495 44.4432 161.125 44.3206 161.665 44.0777C162.204 43.8303 162.581 43.5005 162.786 43.0793C163.002 42.6514 163.109 41.887 163.109 40.7927V31.6798H166.345V40.6367C166.345 41.8179 166.222 42.7896 165.977 43.5607C165.734 44.3318 165.346 44.9514 164.823 45.4127C163.626 46.4646 161.923 46.9928 159.712 46.9928C157.368 46.9928 155.656 46.4757 154.573 45.4461C154.007 44.9068 153.619 44.3073 153.403 43.6454C153.187 42.9879 153.082 42.0608 153.082 40.8685V31.6776H156.318L156.316 31.6798ZM172.5 41.0914V46.8791H169.264V31.6776H176.686C178.816 31.6776 180.305 31.9473 181.156 32.491C181.727 32.8565 182.17 33.3335 182.485 33.9307C182.801 34.5302 182.959 35.1877 182.959 35.9098C182.959 37.3562 182.591 38.4682 181.854 39.2483C181.399 39.723 180.793 40.084 180.042 40.3381C180.637 40.5387 181.085 40.7548 181.39 40.9955C181.693 41.234 181.967 41.5839 182.215 42.043C182.4 42.3996 182.529 42.745 182.609 43.0838C182.685 43.4225 182.75 43.924 182.803 44.5836C182.892 45.6734 183.017 46.4423 183.171 46.8791H179.54C179.431 46.5225 179.32 45.8005 179.211 44.7129C179.119 43.8192 178.961 43.1417 178.725 42.667C178.493 42.1968 178.136 41.8268 177.662 41.5571C177.078 41.2384 176.222 41.0824 175.105 41.0891H172.5V41.0914ZM172.5 38.4036H177.04C177.8 38.4036 178.339 38.29 178.658 38.0649C179.139 37.7239 179.382 37.1333 179.382 36.2953C179.382 35.366 179.019 34.7665 178.29 34.5035C178.038 34.4166 177.622 34.3698 177.04 34.3698H172.5V38.4036ZM185.509 46.8814V44.1914H192.451C193.568 44.1914 194.312 44.0822 194.684 43.8571C195.219 43.5339 195.489 43.0548 195.489 42.4129C195.489 41.673 195.177 41.1337 194.55 40.7905C194.194 40.5966 193.623 40.4985 192.841 40.4985H190.02C188.297 40.4985 187.053 40.1865 186.293 39.5647C185.819 39.1703 185.446 38.6755 185.179 38.076C184.909 37.4787 184.776 36.8413 184.776 36.1683C184.776 35.0963 185.088 34.1202 185.714 33.2354C186.322 32.3841 187.301 31.8871 188.647 31.7467C189.101 31.6999 189.779 31.6776 190.679 31.6776H198.223V34.3676H191.412C190.394 34.3742 189.719 34.421 189.38 34.5035C188.696 34.6751 188.355 35.1944 188.355 36.0635C188.355 36.8012 188.64 37.296 189.213 37.55C189.601 37.7217 190.242 37.8086 191.134 37.8086H193.572C194.827 37.8086 195.756 37.9155 196.376 38.1317C197.454 38.4928 198.194 39.1302 198.598 40.0417C198.925 40.7749 199.088 41.5616 199.088 42.3996C199.088 43.32 198.874 44.1424 198.453 44.8756C197.855 45.9141 196.96 46.5315 195.758 46.7343C195.181 46.8301 194.307 46.8791 193.149 46.8791H185.502L185.509 46.8814Z" fill="#DBC087"/>
<path d="M56.5937 26.742H40.3068C39.3173 26.742 38.466 26.3854 37.755 25.6744C37.0441 24.9613 36.6875 24.1122 36.6875 23.1226V1.40457H42.1165V21.7097H56.5937V26.7397V26.742ZM64.1956 26.742H58.7666V1.40457H64.1956V26.742ZM88.0843 23.1226C88.0843 24.1122 87.7278 24.9613 87.0168 25.6744C86.3037 26.3854 85.4546 26.742 84.465 26.742H66.3685V1.40457H84.465C85.4546 1.40457 86.3059 1.76115 87.0168 2.47209C87.7278 3.18525 88.0843 4.03436 88.0843 5.02388V23.1204V23.1226ZM82.6554 21.7119V6.43684H71.7975V21.7119H82.6554ZM110.163 26.742H93.8766C92.8871 26.742 92.0379 26.3854 91.3248 25.6744C90.6138 24.9613 90.2573 24.1122 90.2573 23.1226V5.02611C90.2573 4.03659 90.6138 3.18525 91.3248 2.47432C92.0379 1.76338 92.8871 1.4068 93.8766 1.4068H110.163V6.43684H95.6862V10.0918H110.163V15.1218H95.6862V21.7097H110.163V26.7397V26.742ZM134.052 11.5159C134.052 12.4987 133.696 13.3501 132.985 14.0543C132.272 14.7675 131.422 15.1218 130.433 15.1218H117.765V26.7397H112.336V1.40234H130.433C131.422 1.40234 132.272 1.75893 132.985 2.46986C133.696 3.17634 134.052 4.02545 134.052 5.00828V11.5114V11.5159ZM128.623 10.0918V6.43684H117.765V10.0918H128.623ZM158.302 26.742H152.106L149.827 20.952H139.631L137.315 26.742H131.155L141.291 1.40457H148.168L158.304 26.742H158.302ZM147.812 15.9197L144.712 8.1618L141.647 15.9197H147.812ZM175.206 6.43684H167.424V26.742H161.995V6.43684H153.49V1.4068H175.206V6.43684ZM199.095 26.742H193.666V15.1241H182.808V26.742H177.379V1.40457H182.808V10.0918H193.666V1.40457H199.095V26.742Z" fill="#0077B6"/>
<path fill-rule="evenodd" clip-rule="evenodd" d="M8.09766 10.5395V9.1154C8.21577 7.34587 8.09766 5.62313 8.09766 3.81793C8.09766 2.77493 8.4743 1.87679 9.22535 1.12574C9.9764 0.374687 10.8745 -0.00195312 11.9175 -0.00195312H31.0192V5.30889H13.8297V17.6087C11.9577 16.6259 10.3932 14.8118 8.91334 12.7704C8.38738 12.0461 8.1712 11.2928 8.09989 10.5395H8.09766Z" fill="#DBC087"/>
<path fill-rule="evenodd" clip-rule="evenodd" d="M31.0206 26.7408H11.9189C10.8759 26.7408 9.97778 26.3641 9.22673 25.6131C8.47568 24.862 8.09904 23.9639 8.09904 22.9209V21.2026C7.60651 20.7279 7.15855 20.5719 6.57465 20.1663C5.61188 19.4999 3.956 18.1182 3.30078 16.859C3.54816 17.0083 4.09863 17.5387 4.3683 17.7705C5.80354 19.0141 8.33305 20.0994 10.1828 20.514C11.0074 20.6989 11.8075 20.8661 12.7101 20.9842C13.7152 21.1157 17.6933 21.392 18.8478 21.4322H25.293V14.4788H17.6532V9.16797H31.0228V26.7408H31.0206Z" fill="#0077B6"/>
<path fill-rule="evenodd" clip-rule="evenodd" d="M18.0178 19.8804C14.8241 19.4057 12.9008 18.9845 10.1552 17.7031C7.4741 16.4528 4.94014 14.0057 4.20246 10.8812C3.94394 9.78693 4.01971 9.20749 3.95954 8.25586L2.35938 8.27146C2.60675 11.5119 3.59181 13.9991 6.06114 16.1943C7.81062 17.7521 10.5986 18.8887 12.8852 19.3567C14.1333 19.613 16.6004 20.0409 18.0178 19.8827V19.8804Z" fill="#0077B6"/>
<path fill-rule="evenodd" clip-rule="evenodd" d="M-0.00167761 5.95492L3.22093 4.55311L5.82398 7.22747C5.86633 6.94221 5.75267 6.6302 5.68581 6.34047C5.29134 4.65117 4.59377 1.21684 4.21936 0C3.9029 0.320924 3.43042 1.06306 3.13179 1.4709L-0.00390625 5.95492H-0.00167761Z" fill="#0077B6"/>
</g>
<defs>
<clipPath id="clip0_2283_2652">
<rect width="199.095" height="46.9957" fill="white"/>
</clipPath>
</defs>
</svg>
