<svg width="24" height="24" viewBox="0 0 24 24" fill="none" xmlns="http://www.w3.org/2000/svg">
<path d="M3.7941 4.10758L3.93934 3.93934C4.47187 3.40681 5.3052 3.35839 5.89242 3.7941L6.06066 3.93934L12 9.878L17.9393 3.93934C18.5251 3.35355 19.4749 3.35355 20.0607 3.93934C20.6464 4.52513 20.6464 5.47487 20.0607 6.06066L14.122 12L20.0607 17.9393C20.5932 18.4719 20.6416 19.3052 20.2059 19.8924L20.0607 20.0607C19.5281 20.5932 18.6948 20.6416 18.1076 20.2059L17.9393 20.0607L12 14.122L6.06066 20.0607C5.47487 20.6464 4.52513 20.6464 3.93934 20.0607C3.35355 19.4749 3.35355 18.5251 3.93934 17.9393L9.878 12L3.93934 6.06066C3.40681 5.52813 3.35839 4.6948 3.7941 4.10758Z" fill="#0077B6"/>
</svg>
