<svg width="35" height="35" viewBox="0 0 35 35" fill="none" xmlns="http://www.w3.org/2000/svg">
<path d="M3.09297 19.7267C4.17505 26.699 10.2417 32.0788 17.5028 32.0788C25.5221 32.0788 32.0832 25.5178 32.0832 17.4984C32.0832 9.47901 25.5236 2.91797 17.5042 2.91797C12.6946 2.91797 8.46255 5.25276 5.83464 8.7513V2.91943L2.92234 2.91797L2.91797 13.1263H13.1263V10.2096L8.46109 10.2082C10.5013 7.58609 13.8584 5.83464 17.5042 5.83464C23.918 5.83464 29.168 11.0846 29.168 17.4984C29.168 23.9121 23.918 29.1636 17.5028 29.1636C11.8473 29.1636 7.10193 25.089 6.0563 19.7267H3.09297Z" fill="#92C8FF"/>
<path d="M16.043 10.207V17.9391L20.7111 24.2056L23.0444 22.4599L18.9596 17.0627V10.207H16.043Z" fill="#92C8FF"/>
</svg>
