<svg width="24" height="24" viewBox="0 0 24 24" fill="none" xmlns="http://www.w3.org/2000/svg">
<path d="M3.7941 4.10048L3.93934 3.93225C4.47187 3.39971 5.3052 3.3513 5.89242 3.78701L6.06066 3.93225L12 9.87091L17.9393 3.93225C18.5251 3.34646 19.4749 3.34646 20.0607 3.93225C20.6464 4.51803 20.6464 5.46778 20.0607 6.05357L14.122 11.9929L20.0607 17.9322C20.5932 18.4648 20.6416 19.2981 20.2059 19.8853L20.0607 20.0536C19.5281 20.5861 18.6948 20.6345 18.1076 20.1988L17.9393 20.0536L12 14.1149L6.06066 20.0536C5.47487 20.6394 4.52513 20.6394 3.93934 20.0536C3.35355 19.4678 3.35355 18.518 3.93934 17.9322L9.878 11.9929L3.93934 6.05357C3.40681 5.52103 3.35839 4.68771 3.7941 4.10048Z" fill="url(#paint0_linear_97_1528)"/>
<defs>
<linearGradient id="paint0_linear_97_1528" x1="20.5" y1="11.9929" x2="3.5" y2="11.9929" gradientUnits="userSpaceOnUse">
<stop stop-color="#141517"/>
<stop offset="1" stop-color="#6A9113"/>
</linearGradient>
</defs>
</svg>
