<svg width="24" height="24" viewBox="0 0 24 24" fill="none" xmlns="http://www.w3.org/2000/svg">
<path d="M3 16.9927H15C15.5523 16.9927 16 17.4404 16 17.9927C16 18.5055 15.614 18.9282 15.1166 18.9859L15 18.9927H3C2.44772 18.9927 2 18.545 2 17.9927C2 17.4798 2.38604 17.0572 2.88338 16.9994L3 16.9927ZM3 10.9927H21C21.5523 10.9927 22 11.4404 22 11.9927C22 12.5055 21.614 12.9282 21.1166 12.9859L21 12.9927H3C2.44772 12.9927 2 12.545 2 11.9927C2 11.4798 2.38604 11.0572 2.88338 10.9994L3 10.9927ZM3 4.99268H18C18.5523 4.99268 19 5.44039 19 5.99268C19 6.50551 18.614 6.92818 18.1166 6.98595L18 6.99268H3C2.44772 6.99268 2 6.54496 2 5.99268C2 5.47984 2.38604 5.05717 2.88338 4.9994L3 4.99268Z" fill="url(#paint0_linear_704_2852)"/>
<defs>
<linearGradient id="paint0_linear_704_2852" x1="22" y1="11.9927" x2="2" y2="11.9927" gradientUnits="userSpaceOnUse">
<stop stop-color="#141517"/>
<stop offset="1" stop-color="#6A9113"/>
</linearGradient>
</defs>
</svg>
