<svg width="79" height="80" viewBox="0 0 79 80" fill="none" xmlns="http://www.w3.org/2000/svg">
<rect y="0.5" width="79" height="79" rx="39.5" fill="#FF9500"/>
<path d="M38.5039 25.1113C38.1348 25.3574 38.1172 25.4336 38.1172 26.7578C38.1172 27.8359 38.1289 27.9766 38.2285 28.1289C38.4102 28.3984 38.6328 28.5156 38.9961 28.5156C39.3594 28.5156 39.582 28.3984 39.7637 28.1289C39.8633 27.9766 39.875 27.8359 39.875 26.7578C39.875 25.6797 39.8633 25.5391 39.7637 25.3867C39.582 25.1172 39.3594 25 38.9961 25C38.7793 25 38.6211 25.0352 38.5039 25.1113Z" fill="white"/>
<path d="M32.7441 26.635C32.416 26.7873 32.2578 27.051 32.2578 27.4494C32.2578 27.7365 32.2988 27.8361 32.7383 28.592C32.9961 29.049 33.2715 29.4885 33.3359 29.5588C33.7051 29.9748 34.3203 29.969 34.7188 29.5471C34.8301 29.424 34.8652 29.3127 34.8828 29.0256L34.9004 28.6623L34.3555 27.7248C33.7754 26.7346 33.6641 26.6174 33.2246 26.5529C33.0605 26.5295 32.9199 26.5529 32.7441 26.635Z" fill="white"/>
<path d="M44.5391 26.6115C44.4102 26.6526 44.2637 26.7404 44.2051 26.799C44.1523 26.8576 43.877 27.3029 43.5957 27.7951L43.0859 28.6858L43.1094 29.0373C43.127 29.3127 43.168 29.4299 43.2793 29.5471C43.6719 29.969 44.2871 29.9748 44.6562 29.5588C44.7207 29.4885 44.9961 29.049 45.2539 28.592C45.6934 27.8361 45.7344 27.7365 45.7344 27.4494C45.7344 27.0451 45.5762 26.7873 45.248 26.6408C44.9551 26.5061 44.8438 26.5002 44.5391 26.6115Z" fill="white"/>
<path d="M37.5625 30.3906C34.5742 30.9941 32.2715 33.3438 31.7559 36.3379C31.6152 37.1406 31.6738 38.6699 31.8672 39.4141C32.3418 41.1953 33.332 42.6016 34.8965 43.709C35.6172 44.2188 35.7754 44.5645 35.7754 45.6309V46.082L34.4453 46.1113C33.3086 46.1348 33.0391 46.1582 32.6406 46.2695C30.1914 46.9375 28.4629 48.6543 27.7656 51.1035C27.6309 51.584 27.6133 51.7539 27.5898 53.0078C27.5547 54.543 27.5781 54.6484 27.9531 54.8828C28.1406 55 28.2871 55 38.998 55C49.709 55 49.8555 55 50.043 54.8828C50.418 54.6484 50.4414 54.543 50.4062 53.0078C50.3828 51.7422 50.3652 51.584 50.2246 51.0742C49.5684 48.7363 47.7754 46.9434 45.4434 46.293C44.9395 46.1523 44.7637 46.1348 43.5566 46.1113L42.2207 46.082V45.6309C42.2207 44.5645 42.3789 44.2188 43.0996 43.709C44.6641 42.6016 45.6543 41.1953 46.1289 39.4141C46.334 38.6348 46.3867 37.1641 46.2344 36.3262C45.8184 34.0117 44.377 32.0664 42.3145 31.041C41.5996 30.6895 41.1484 30.5312 40.3867 30.3848C39.625 30.2383 38.3066 30.2383 37.5625 30.3906ZM40.2227 32.2129C42.3203 32.6992 43.9785 34.3867 44.4121 36.4961C44.5352 37.0762 44.5352 38.1191 44.4121 38.6992C44.1426 40 43.3867 41.1953 42.3379 41.9746C41.248 42.7832 40.8086 43.3105 40.5742 44.084L40.5039 44.3359H40.1875H39.877V42.0625V39.7949L40.5859 39.0918C41.5469 38.1367 41.6348 38.0137 41.6348 37.6035C41.6348 37.0352 41.3184 36.7188 40.7559 36.7188C40.3574 36.7188 40.2988 36.7539 39.5723 37.4746L38.998 38.0371L38.4297 37.4746C37.6973 36.7539 37.6387 36.7188 37.2402 36.7188C36.6777 36.7188 36.3613 37.0352 36.3613 37.6035C36.3613 38.0137 36.4492 38.1367 37.4102 39.0918L38.1191 39.7949V42.0625V44.3359H37.8086H37.4922L37.4219 44.084C37.1875 43.3105 36.748 42.7832 35.6582 41.9746C34.6094 41.1953 33.8535 40 33.584 38.6992C33.4609 38.1191 33.4609 37.0762 33.584 36.4961C34.2051 33.4727 37.2285 31.5215 40.2227 32.2129ZM40.4629 46.4277C40.4629 47.377 40.252 47.8574 39.7012 48.1855C39.4316 48.3496 39.3262 48.3789 39.0156 48.3789C38.4238 48.3789 37.9961 48.1211 37.7266 47.5996C37.6152 47.3711 37.5801 47.1895 37.5508 46.7031L37.5156 46.0938H38.9863H40.4629V46.4277ZM35.9629 48.1328C36.291 49.041 37.123 49.8086 38.1133 50.1016C38.5762 50.2363 39.4727 50.2246 39.9414 50.0781C40.3867 49.9434 40.9316 49.627 41.248 49.3281C41.5352 49.0527 41.9043 48.4961 42.0332 48.1328L42.1328 47.8516H42.8359C44.8867 47.8574 46.0645 48.2559 47.1426 49.3164C48.0684 50.2363 48.5312 51.2969 48.6367 52.7266L48.6719 53.2422H38.998H29.3242L29.3594 52.7266C29.4121 52.041 29.4883 51.6602 29.6875 51.1094C30.1855 49.7383 31.3574 48.6191 32.7812 48.1445C33.4023 47.9336 33.9297 47.8691 35.0723 47.8574L35.8633 47.8516L35.9629 48.1328Z" fill="white"/>
<path d="M28.3468 30.9766C28.089 31.1348 27.9015 31.5449 27.9542 31.8496C28.0245 32.2715 28.1535 32.3945 29.132 32.9629L30.0636 33.502L30.4269 33.4844C30.714 33.4668 30.8253 33.4316 30.9484 33.3203C31.3702 32.9219 31.3761 32.3066 30.9601 31.9375C30.8898 31.873 30.4503 31.5977 29.9933 31.3398C29.2374 30.9004 29.1378 30.8594 28.8507 30.8594C28.6398 30.8594 28.4757 30.9004 28.3468 30.9766Z" fill="white"/>
<path d="M47.9726 31.3516C47.5156 31.6211 47.082 31.8906 47.0175 31.9492C46.6191 32.3125 46.6308 32.9277 47.0468 33.3203C47.1699 33.4316 47.2812 33.4668 47.5683 33.4844L47.9316 33.502L48.8632 32.9629C49.8417 32.3945 49.9707 32.2715 50.041 31.8496C50.0703 31.6914 50.0468 31.5508 49.9589 31.3633C49.8066 31.0117 49.5546 30.8594 49.1328 30.8652C48.8398 30.8652 48.7402 30.9062 47.9726 31.3516Z" fill="white"/>
</svg>
