<svg width="79" height="80" viewBox="0 0 79 80" fill="none" xmlns="http://www.w3.org/2000/svg">
<rect y="0.5" width="79" height="79" rx="39.5" fill="#FF9500"/>
<g clip-path="url(#clip0_3620_31714)">
<path d="M37.8541 25.1115C36.9049 25.3518 36.1608 25.7854 35.4986 26.4885C35.2701 26.7229 34.9947 27.0744 34.8776 27.2619C34.7604 27.467 34.6432 27.6018 34.5963 27.5901C33.9518 27.426 33.6295 27.3908 32.9615 27.4201C32.3522 27.4436 32.1354 27.4787 31.6725 27.6252C30.4186 28.0354 29.4342 28.8908 28.86 30.0686C28.5377 30.7365 28.4088 31.1994 28.3561 31.9143C28.3209 32.3537 28.3854 33.0686 28.485 33.3908C28.5143 33.4846 28.4674 33.4963 28.1041 33.4963C27.0377 33.4963 26.194 33.9299 25.7135 34.7326C25.3561 35.3303 25.3385 35.5061 25.3561 38.1955C25.3736 40.5451 25.3795 40.6272 25.5026 40.9377C25.7721 41.594 26.3463 42.1682 26.985 42.4084C27.2018 42.4905 27.5065 42.5432 27.9108 42.5608C28.3619 42.5901 28.5084 42.6135 28.485 42.6662C28.4733 42.7072 28.4264 42.9592 28.3854 43.2229C28.2565 44.1135 28.4264 45.174 28.819 45.9533L29.0182 46.3518L28.7662 46.926C28.6256 47.2424 28.5084 47.5822 28.5084 47.676C28.5084 47.9221 28.6901 48.0862 28.9713 48.0862C29.2408 48.0862 29.3756 47.9514 29.5397 47.5237C29.5924 47.383 29.651 47.2658 29.6627 47.2658C29.6803 47.2658 29.8151 47.3655 29.9674 47.4885C30.9694 48.3147 31.9303 48.6721 33.1666 48.6721C33.524 48.6721 33.9635 48.6311 34.1627 48.5842C34.3561 48.5373 34.5553 48.5022 34.6022 48.4963C34.6549 48.4963 34.7779 48.6428 34.8893 48.8244C35.1471 49.2522 35.7623 49.9084 36.2252 50.2365L36.5944 50.4944L36.5123 50.6819C36.3717 51.0217 35.2584 53.5119 35.1295 53.7932C35.0182 54.0217 34.9713 54.0627 34.8307 54.0627C34.6256 54.0627 34.6901 54.1858 33.6822 51.924C33.2486 50.9572 32.8385 50.1076 32.774 50.0373C32.7037 49.9612 32.5865 49.9026 32.5045 49.9026C32.4283 49.9026 31.4674 50.1955 30.3717 50.553C29.0592 50.9807 28.3385 51.1916 28.2447 51.1682C28.0104 51.1096 28.0162 50.9455 28.3033 50.3069C28.7018 49.4104 28.6549 49.0822 28.1217 49.0822C27.817 49.0822 27.7994 49.0998 27.4127 49.9612C27.067 50.7463 27.0319 51.0217 27.2486 51.4553C27.4596 51.8947 27.7526 52.0881 28.2389 52.1174C28.5611 52.135 28.7662 52.0764 30.3834 51.549C31.3678 51.2268 32.1881 50.9807 32.2115 51.0041C32.2291 51.0276 32.5807 51.7951 32.9908 52.7151C33.401 53.635 33.7994 54.4729 33.8815 54.5783C34.3151 55.1584 35.4108 55.1408 35.8033 54.5373C35.8795 54.4201 36.2779 53.5647 36.6881 52.6272C37.1041 51.6897 37.444 50.9162 37.4557 50.9045C37.4615 50.8928 37.6666 50.928 37.9069 50.9807C38.4869 51.1213 39.5065 51.1213 40.0865 50.9807C40.3268 50.928 40.5319 50.8928 40.5377 50.9045C40.5494 50.9162 40.8951 51.6897 41.3053 52.6272C41.7154 53.5647 42.1139 54.4201 42.1901 54.5373C42.5826 55.1408 43.6725 55.1584 44.1119 54.5783C44.194 54.4729 44.5924 53.635 45.0026 52.7151C45.4127 51.7951 45.7643 51.0276 45.7819 51.0041C45.8053 50.9807 46.6256 51.2268 47.61 51.549C49.2213 52.0764 49.4322 52.1291 49.7545 52.1174C50.2408 52.0881 50.5338 51.8947 50.7447 51.4553C50.9967 50.9397 50.9733 50.8518 49.9127 48.467L48.9752 46.3576L49.1744 45.9533C49.5611 45.1799 49.7369 44.0725 49.608 43.2229C49.5729 42.9826 49.526 42.7424 49.5084 42.6897C49.485 42.6076 49.567 42.5901 50.0826 42.5608C50.4869 42.5432 50.7916 42.4905 51.0084 42.4084C51.6471 42.1682 52.2213 41.594 52.4908 40.9377C52.6139 40.6272 52.6197 40.5451 52.6373 38.1955C52.6549 36.1389 52.6432 35.7229 52.5611 35.4123C52.2565 34.2229 51.2486 33.4963 49.8893 33.4963C49.5553 33.4963 49.4791 33.4787 49.5026 33.4143C49.5963 33.174 49.6725 32.3127 49.6373 31.8908C49.5846 31.1877 49.4557 30.719 49.1393 30.0686C48.6529 29.0725 48.2369 28.7619 47.8736 29.1311C47.6569 29.342 47.692 29.5295 48.0143 30.0158C48.6588 30.9768 48.8697 32.1252 48.5885 33.174L48.5123 33.467L47.4811 33.4846L46.4498 33.4963L46.11 33.0158C44.8854 31.2639 42.9049 29.969 40.7369 29.5002C39.858 29.3127 38.1178 29.3127 37.2389 29.5061C35.0651 29.9865 33.108 31.2639 31.8834 33.0158L31.5436 33.4963L30.5123 33.4846L29.4811 33.467L29.4049 33.174C29.194 32.3655 29.2701 31.4162 29.6217 30.6487C30.1256 29.5412 31.1217 28.7092 32.2994 28.428C32.9147 28.2756 33.7701 28.3225 34.4322 28.5451C35.1354 28.7737 35.1764 28.7561 35.5221 28.094C35.9791 27.2092 36.7174 26.5295 37.5904 26.1838C38.0768 25.9963 38.3815 25.9377 38.9967 25.9377C39.6119 25.9377 39.9166 25.9963 40.4029 26.1838C41.276 26.5295 42.0143 27.2092 42.4713 28.094C42.817 28.7561 42.8639 28.7737 43.5611 28.5393C44.0182 28.3869 44.1354 28.3694 44.8268 28.3752C45.4947 28.3752 45.6471 28.3928 46.0572 28.5334C46.6373 28.7268 46.7018 28.7268 46.8776 28.5451C47.0709 28.3576 47.0768 28.053 46.8951 27.8889C46.4791 27.5022 44.8502 27.2854 43.8776 27.4846C43.6197 27.5373 43.3795 27.5783 43.3444 27.5783C43.3151 27.5783 43.2037 27.4319 43.1041 27.2561C42.7115 26.5588 41.7799 25.7444 40.9596 25.3811C40.0924 25.0002 38.7623 24.883 37.8541 25.1115ZM40.11 30.3615C41.3463 30.549 42.6705 31.094 43.6256 31.8147C44.1178 32.1897 44.8736 32.9338 45.1373 33.303L45.2721 33.4963H38.9967H32.7213L32.9147 33.2268C33.2135 32.8049 34.1276 31.967 34.6783 31.5979C36.2897 30.5256 38.2584 30.0744 40.11 30.3615ZM50.7506 34.592C51.1197 34.7912 51.319 34.9787 51.5065 35.3244L51.6822 35.635V38.0373V40.4397L51.524 40.7326C51.3424 41.0783 51.1315 41.2834 50.774 41.4709L50.5104 41.6115H38.9967H27.483L27.1842 41.4533C27.0143 41.3655 26.7858 41.1838 26.6686 41.0432C26.2994 40.6155 26.2819 40.4748 26.2819 38.0432C26.2819 36.7424 26.3053 35.7815 26.3404 35.6526C26.4869 35.1311 27.0904 34.551 27.5651 34.4748C27.6471 34.4631 32.8444 34.4514 39.1139 34.4572L50.5104 34.4631L50.7506 34.592ZM31.8307 43.0002C32.2115 43.5862 33.4537 44.8166 34.0748 45.2268C35.0592 45.8772 36.1197 46.3283 37.2565 46.5744C38.0651 46.7502 39.8053 46.7619 40.608 46.6037C41.7916 46.3635 42.9108 45.8947 43.9186 45.2268C44.5514 44.8049 45.7408 43.633 46.1393 43.0295L46.444 42.5783H47.4635H48.483L48.5768 42.883C48.9869 44.26 48.442 45.9182 47.2526 46.8908C46.8658 47.2072 46.2447 47.5178 45.735 47.6467C45.149 47.799 44.1529 47.7463 43.526 47.5295C42.8756 47.3069 42.7994 47.3362 42.4596 48.0158C42.2545 48.4201 42.0963 48.6311 41.6979 49.0237C40.9069 49.8088 40.0865 50.1487 38.9967 50.1487C37.9069 50.1487 37.0865 49.8088 36.2955 49.0237C35.8971 48.6311 35.7389 48.4201 35.5338 48.0158C35.194 47.3362 35.1178 47.3069 34.4674 47.5295C33.8404 47.7463 32.8444 47.799 32.2584 47.6467C31.7486 47.5178 31.1276 47.2072 30.7408 46.8908C29.5514 45.9182 29.0065 44.26 29.4166 42.883L29.5104 42.5783H30.5299H31.5494L31.8307 43.0002ZM45.2076 42.6955C45.0787 42.9358 44.1119 43.8908 43.6315 44.2541C40.9069 46.299 37.0748 46.299 34.3619 44.2541C33.8815 43.8908 32.9147 42.9358 32.7858 42.6955C32.7213 42.5783 32.774 42.5783 38.9967 42.5783C45.2194 42.5783 45.2721 42.5783 45.2076 42.6955ZM49.151 49.0881C49.6725 50.2658 49.9479 50.9514 49.9244 51.0217C49.8483 51.2561 49.649 51.2151 47.6217 50.553C46.526 50.1955 45.5651 49.9026 45.4889 49.9026C45.4186 49.9026 45.3072 49.9436 45.2486 49.9846C45.1901 50.0315 44.7799 50.8752 44.3346 51.8713C43.2858 54.2209 43.3678 54.0744 43.1451 54.051C42.9694 54.0334 42.9518 53.9924 42.3541 52.6565C42.0201 51.9006 41.6686 51.1037 41.5748 50.8869L41.4049 50.4944L41.7682 50.2365C42.2311 49.9084 42.8522 49.2522 43.1041 48.8244C43.2154 48.6428 43.3385 48.4963 43.3912 48.4963C43.4381 48.5022 43.6373 48.5373 43.8307 48.5842C44.3463 48.7131 45.3658 48.6955 45.9518 48.5549C46.7252 48.3674 47.4576 47.9924 48.0787 47.4475C48.1901 47.3537 48.2955 47.2717 48.3131 47.2658C48.3307 47.2658 48.7057 48.0862 49.151 49.0881Z" fill="white"/>
<path d="M31.5918 35.7292C31.3047 35.9518 31.3691 36.1511 32.0195 37.0768L32.5996 37.903L31.9668 38.7995C31.1992 39.8835 31.1875 39.9069 31.2343 40.1237C31.2812 40.3347 31.4629 40.4694 31.709 40.4694C31.9375 40.4694 32.0605 40.3405 32.6933 39.4265C32.9394 39.0632 33.1621 38.7702 33.1855 38.7702C33.209 38.7761 33.4668 39.1218 33.7539 39.5378C34.0468 39.9597 34.334 40.3405 34.3984 40.3874C34.5918 40.5222 34.873 40.4929 35.0078 40.3171C35.2246 40.0417 35.1718 39.9011 34.5449 39.0104C34.2226 38.5476 33.9121 38.114 33.8652 38.0378C33.7773 37.903 33.789 37.8737 34.2988 37.1472C34.9433 36.2214 34.9726 36.1686 34.9257 35.9518C34.8437 35.5944 34.3867 35.4831 34.1289 35.7643C34.0468 35.8581 33.8007 36.1862 33.5781 36.4968L33.1797 37.071L32.7168 36.4089C32.4648 36.0515 32.2129 35.7175 32.1601 35.6765C32.0136 35.571 31.7675 35.5886 31.5918 35.7292Z" fill="white"/>
<path d="M36.0996 35.7526L35.9531 35.8932V38.0378V40.1823L36.0996 40.3229C36.2871 40.5163 36.5859 40.5221 36.7617 40.3346C36.8789 40.2116 36.8906 40.1354 36.8906 39.4909V38.7878L37.4414 38.7585C37.916 38.735 38.0391 38.7057 38.3086 38.5534C39.2637 38.0143 39.4102 36.7018 38.5898 35.9987C38.209 35.6764 37.9336 35.6061 37.0254 35.6061C36.2695 35.6061 36.2344 35.612 36.0996 35.7526ZM37.8281 36.6315C38.168 36.8073 38.2676 37.1354 38.0859 37.487C37.9688 37.7155 37.6875 37.8327 37.2422 37.8327H36.8906V37.1882V36.5436H37.2715C37.5 36.5436 37.7285 36.5788 37.8281 36.6315Z" fill="white"/>
<path d="M43.5371 35.7523L43.3906 35.8929V38.055V40.2171L43.5254 40.3402C43.6953 40.4984 43.9766 40.5043 44.1582 40.3578C44.2871 40.2523 44.2988 40.1937 44.3281 39.5609L44.3574 38.8812L45.0254 39.6429C45.3887 40.0589 45.7285 40.4164 45.7754 40.4339C46.0977 40.5629 46.4375 40.3461 46.4375 40.0179C46.4375 39.8187 46.373 39.725 45.7285 39.0043L45.3359 38.5589L45.6465 38.3949C46.373 38.014 46.6484 37.1644 46.2852 36.4379C45.9688 35.7933 45.541 35.6058 44.4336 35.6058C43.707 35.6058 43.6719 35.6117 43.5371 35.7523ZM45.166 36.6078C45.5352 36.7953 45.6055 37.182 45.3242 37.4515C45.166 37.6039 45.0898 37.6273 44.7383 37.6449L44.3281 37.6683V37.1058V36.5433H44.6855C44.8789 36.5433 45.0957 36.5726 45.166 36.6078Z" fill="white"/>
<path d="M47.2349 35.7285C47.0298 35.8926 47.024 36.1973 47.229 36.3965C47.3521 36.5195 47.4224 36.543 47.7505 36.543H48.1314L48.149 38.3945L48.1665 40.2461L48.3072 40.3574C48.4947 40.5098 48.7876 40.5039 48.9458 40.334C49.0747 40.1992 49.0747 40.1641 49.0747 38.3711V36.543H49.4849C49.8482 36.543 49.9185 36.5254 50.0415 36.3965C50.1353 36.3086 50.188 36.1855 50.188 36.0742C50.188 35.9629 50.1353 35.8398 50.0415 35.7519C49.9009 35.6055 49.9009 35.6055 48.647 35.6055C47.4634 35.6055 47.3814 35.6113 47.2349 35.7285Z" fill="white"/>
<path d="M27.9277 35.8164C27.8105 35.9688 27.8047 36.0391 27.8047 38.0781V40.1816L27.9512 40.3223C28.0918 40.4688 28.1094 40.4688 29.1172 40.4688H30.1426L30.2598 40.3164C30.4238 40.1055 30.418 39.8535 30.2363 39.6777C30.1016 39.5371 30.0605 39.5312 29.416 39.5312H28.7422V39.0332V38.5352H29.3574C29.9375 38.5352 29.9844 38.5234 30.1191 38.3887C30.2129 38.3008 30.2656 38.1777 30.2656 38.0664C30.2656 37.9551 30.2129 37.832 30.1191 37.7441C29.9844 37.6094 29.9375 37.5977 29.3574 37.5977H28.7422V37.0996V36.6016H29.3223C29.9434 36.6016 30.2363 36.5312 30.3242 36.3672C30.418 36.1914 30.3887 35.9277 30.2656 35.793C30.1484 35.6699 30.0957 35.6641 29.0938 35.6641H28.0449L27.9277 35.8164Z" fill="white"/>
<path d="M40.1094 35.7812C39.998 35.8926 39.9922 35.9746 39.9922 38.0664C39.9922 40.2168 39.9922 40.2285 40.1211 40.3516C40.2383 40.457 40.3262 40.4688 41.252 40.4688C42.0371 40.4688 42.2773 40.4512 42.377 40.3809C42.6348 40.1992 42.5938 39.7305 42.3008 39.5957C42.2188 39.5605 41.8789 39.5312 41.5449 39.5312H40.9297V39.0332V38.5352H41.4863C41.791 38.5352 42.1016 38.5059 42.1836 38.4707C42.3945 38.3711 42.4883 38.0664 42.3711 37.8438C42.2539 37.6152 42.1953 37.5977 41.5098 37.5977H40.9297V37.1055V36.6133L41.6094 36.5898C42.2656 36.5723 42.2949 36.5664 42.4297 36.4082C42.5996 36.209 42.6113 36.0215 42.4473 35.8164L42.3301 35.6641H41.2754C40.3027 35.6641 40.2207 35.6699 40.1094 35.7812Z" fill="white"/>
</g>
<defs>
<clipPath id="clip0_3620_31714">
<rect width="30" height="30" fill="white" transform="translate(24 25)"/>
</clipPath>
</defs>
</svg>
