<svg width="79" height="80" viewBox="0 0 79 80" fill="none" xmlns="http://www.w3.org/2000/svg">
<rect y="0.5" width="79" height="79" rx="39.5" fill="#FF9500"/>
<g clip-path="url(#clip0_3620_31728)">
<path d="M47.9989 25.3223C46.4403 25.6094 44.8466 26.3594 43.9794 27.2266C43.2939 27.9062 43.2763 27.9531 42.9482 30.3145L42.6728 32.3184L40.7919 34.1992L38.9169 36.0742L37.2587 34.416L35.6005 32.7578L35.6943 32.4121C35.8759 31.7031 35.788 30.8477 35.4599 30.1738C35.1552 29.5645 34.8739 29.3418 31.8446 27.3789C29.1259 25.6152 28.9736 25.5273 28.7099 25.5273H28.4345L27.1806 26.7695C26.495 27.4551 25.8915 28.0938 25.8388 28.1875C25.7861 28.2871 25.7626 28.4336 25.7802 28.5391C25.8212 28.8027 29.5185 34.4629 29.829 34.7383C30.122 35.0078 30.6025 35.2715 31.0302 35.3945C31.4345 35.5117 32.3075 35.5176 32.7353 35.4004L33.0575 35.3125L34.7157 36.9707L36.3681 38.623L34.3056 40.6855L32.2372 42.748L30.2099 43.0352C27.9599 43.3574 27.8778 43.3809 27.3212 43.8789C26.5185 44.5938 25.8036 45.918 25.3993 47.4414C25.165 48.3203 25.1005 49.709 25.2587 50.4824C25.4579 51.4727 25.8095 52.1348 26.1669 52.2168C26.5243 52.293 26.6943 52.1465 27.163 51.3613C27.6903 50.4766 28.4755 49.2871 28.6806 49.0645C28.7685 48.9766 28.9736 48.8359 29.1493 48.748C29.5243 48.5664 29.8642 48.584 30.3564 48.8184C31.3173 49.2754 31.915 50.0137 31.915 50.7637C31.915 51.0742 31.9267 51.0449 30.9657 52.6738C30.3212 53.752 30.1982 53.998 30.1982 54.1973C30.1982 54.3906 30.2333 54.4668 30.3857 54.6016L30.5673 54.7656H31.5107C32.1025 54.7656 32.495 54.7422 32.5771 54.6953C32.7587 54.6016 34.2821 53.4414 35.0204 52.8379C35.7997 52.1992 36.5556 51.4434 36.6435 51.2207C36.6845 51.1094 36.7314 50.3242 36.7607 49.1582L36.8075 47.2656L38.8583 45.2148L40.9091 43.1641L41.6708 43.9258L42.4325 44.6875L41.7177 45.4023C40.9443 46.1816 40.8505 46.3457 41.0146 46.6562C41.0673 46.75 42.6962 48.4082 44.6415 50.3477C47.2489 52.9492 48.2685 53.9219 48.5263 54.0801C49.6982 54.7715 51.2275 54.8359 52.4345 54.2383C53.5888 53.6641 54.6083 52.3926 54.8544 51.2207C55.0771 50.1426 54.8427 48.9238 54.2509 48.0742C54.1513 47.9336 52.4814 46.2168 50.5361 44.2598L47.0028 40.6973L46.6923 40.7031H46.3759L45.6611 41.4062L44.9462 42.1035L44.2021 41.3594L43.4579 40.6152L45.3271 38.7461L47.1962 36.877L49.0302 36.8477C51.04 36.8184 51.0751 36.8125 51.5087 36.4551C52.1708 35.9102 54.6083 32.8516 54.6786 32.4766C54.7021 32.3711 54.7079 31.9082 54.6962 31.4512L54.6786 30.6133L54.4853 30.4434C54.1454 30.1387 54.0458 30.1738 52.4931 31.0996C51.2333 31.8555 51.0751 31.9316 50.7704 31.9609C50.2314 32.002 49.8915 31.8555 49.3993 31.3633C48.8954 30.8594 48.6025 30.3086 48.5673 29.8105C48.538 29.4355 48.6259 29.1777 48.8778 28.8789C49.0653 28.6562 50.2255 27.8652 51.2509 27.2559C51.62 27.0391 51.9716 26.8047 52.0243 26.7344C52.0888 26.6582 52.1298 26.5117 52.1298 26.3594C52.1298 25.9492 51.8134 25.7207 50.8583 25.4336C50.4189 25.2988 50.2079 25.2754 49.4052 25.2578C48.7489 25.2461 48.3271 25.2637 47.9989 25.3223ZM50.0204 26.5176C50.0204 26.541 49.8564 26.6641 49.6571 26.793C48.6025 27.4375 48.0107 27.9355 47.6884 28.4453C47.0028 29.5176 47.3427 31.0586 48.5204 32.2422C49.2997 33.0273 50.3075 33.3555 51.2919 33.1445C51.4618 33.1035 51.9364 32.8691 52.5107 32.5293C53.8642 31.7324 53.8466 31.7852 52.1064 33.959C51.79 34.3574 51.3505 34.8848 51.1278 35.1367L50.7294 35.5879L49.3056 35.6289C48.5204 35.6523 47.6005 35.6934 47.2489 35.7168L46.622 35.7637L44.6357 37.7324C43.5458 38.8164 42.6259 39.707 42.5966 39.707C42.5673 39.707 42.3505 39.5078 42.1161 39.2734L41.6825 38.834L42.6845 37.791C43.2353 37.2168 44.1083 36.3262 44.6239 35.8105L45.5673 34.873V34.6035C45.5673 34.2227 45.3681 34.0234 44.9872 34.0234H44.7177L42.7548 35.9863L40.7919 37.9492L40.2939 37.4512L39.7958 36.9531L41.7997 34.9434C43.2997 33.4375 43.8036 32.8984 43.8329 32.7637C43.8505 32.6641 43.9853 31.7324 44.1318 30.6836C44.2782 29.6348 44.4071 28.7207 44.4247 28.6562C44.4657 28.4629 44.9579 27.9473 45.3505 27.6836C46.0302 27.2207 47.4071 26.6523 48.1513 26.5293C48.5614 26.4648 50.0204 26.4473 50.0204 26.5176ZM32.12 29.0371C33.122 29.6934 34.0009 30.2852 34.0712 30.3496C34.1474 30.4199 34.2821 30.6074 34.3642 30.7715C34.5048 31.0293 34.5224 31.1348 34.5224 31.6211C34.5224 32.1191 34.5048 32.2129 34.3525 32.5C34.1122 32.957 33.1337 33.9238 32.7177 34.1172C32.2782 34.3164 31.9091 34.3516 31.4521 34.2344C30.7489 34.0527 30.7665 34.0703 28.8798 31.1816L27.163 28.5508L27.995 27.7188L28.8212 26.8867L29.5653 27.373C29.9696 27.6367 31.1239 28.3867 32.12 29.0371ZM39.5028 38.418L44.0732 42.9883L43.663 43.3984L43.2528 43.8086L38.6708 39.2266L34.0829 34.6387L34.4755 34.2461C34.6923 34.0234 34.8857 33.8477 34.9032 33.8477C34.9208 33.8477 36.9892 35.9043 39.5028 38.418ZM37.7568 40.0117L38.2431 40.498L36.0751 42.666C34.0068 44.7402 33.9071 44.8457 33.9071 45.0566C33.9071 45.209 33.954 45.3262 34.0771 45.4609C34.2236 45.625 34.288 45.6543 34.5165 45.6543H34.7861L36.9423 43.498L39.0927 41.3477L39.5614 41.8164L40.0302 42.2852L37.8798 44.4414C36.6962 45.625 35.706 46.6621 35.6708 46.7441C35.6415 46.8262 35.5888 47.7637 35.5478 48.8242L35.4775 50.752L35.079 51.1445C34.7157 51.502 33.2216 52.7148 32.372 53.3535C31.7861 53.793 31.7919 53.6699 32.4364 52.5801C33.0575 51.5312 33.1103 51.373 33.0986 50.6934C33.081 49.6328 32.4364 48.625 31.3642 47.9746C30.0927 47.2129 28.9443 47.2305 27.9716 48.0449C27.6962 48.2734 27.1161 49.041 26.6708 49.7734C26.3954 50.2305 26.3603 50.1836 26.3544 49.3691C26.3486 48.4199 26.5243 47.6348 26.9931 46.5508C27.2861 45.8711 27.5439 45.4492 27.8954 45.0566C28.3935 44.5059 28.2763 44.5469 30.6845 44.1953L32.8642 43.8848L35.0439 41.7051C36.2392 40.5098 37.2294 39.5312 37.247 39.5312C37.2587 39.5312 37.4931 39.748 37.7568 40.0117ZM49.997 45.4609C53.1845 48.666 53.2841 48.7715 53.4833 49.1992C53.6767 49.6211 53.6825 49.668 53.6825 50.3418C53.6825 51.0332 53.6767 51.0508 53.4599 51.5078C53.1669 52.123 52.4052 52.9023 51.831 53.1719C51.0165 53.5586 50.1845 53.5469 49.3583 53.1367C48.9833 52.9551 48.7489 52.7441 47.1611 51.168C46.1825 50.1953 44.7177 48.7246 43.9091 47.8926L42.4384 46.3809L44.5478 44.2715C45.7021 43.1172 46.663 42.168 46.6806 42.168C46.6982 42.168 48.1923 43.6504 49.997 45.4609Z" fill="white"/>
<path d="M45.5117 45.2033C45.3652 45.3498 45.3359 45.4259 45.3359 45.6603V45.9416L47.873 48.4845C49.2617 49.8791 50.4746 51.0626 50.5625 51.1095C51.084 51.3849 51.6758 50.84 51.4121 50.3361C51.3594 50.2423 50.1758 49.0236 48.7754 47.6232C46.2676 45.1212 46.2266 45.0861 45.9629 45.0568C45.7227 45.0275 45.6758 45.0451 45.5117 45.2033Z" fill="white"/>
</g>
<defs>
<clipPath id="clip0_3620_31728">
<rect width="30" height="30" fill="white" transform="translate(25 25)"/>
</clipPath>
</defs>
</svg>
