<svg width="79" height="80" viewBox="0 0 79 80" fill="none" xmlns="http://www.w3.org/2000/svg">
<rect y="0.5" width="79" height="79" rx="39.5" fill="#FF9500"/>
<g clip-path="url(#clip0_3620_31750)">
<path d="M38.6543 25.1523C38.5371 25.2988 38.5312 25.3808 38.5312 26.7637C38.5312 28.3047 38.5547 28.4512 38.8066 28.5683C39.0352 28.6738 39.1758 28.6445 39.3574 28.457L39.5332 28.2871L39.5156 26.7637C39.498 25.3691 39.4863 25.2344 39.3867 25.123C39.2168 24.9355 38.8125 24.9531 38.6543 25.1523Z" fill="white"/>
<path d="M32.5096 26.6823C32.3865 26.7292 32.2518 27.0514 32.2869 27.2038C32.3397 27.403 33.7108 29.7643 33.8279 29.8464C33.9334 29.9284 34.1854 29.946 34.3436 29.8874C34.4842 29.8288 34.6248 29.5241 34.5779 29.3542C34.5311 29.1491 33.16 26.8053 33.0428 26.7116C32.9432 26.6413 32.6561 26.6237 32.5096 26.6823Z" fill="white"/>
<path d="M45.123 26.6926C45.0586 26.7219 44.9648 26.7922 44.9121 26.8508C44.6953 27.1086 43.4531 29.341 43.4531 29.4758C43.4531 29.5578 43.5117 29.6926 43.5879 29.7746C43.752 29.968 44.1094 29.9914 44.2734 29.8215C44.332 29.7629 44.6836 29.1769 45.0645 28.5207C45.791 27.2551 45.8672 27.0324 45.6445 26.8098C45.5098 26.6809 45.2812 26.6281 45.123 26.6926Z" fill="white"/>
<path d="M38.9485 29.8105C34.8938 30.2676 32.0286 32.6875 31.4075 36.1797C31.2903 36.8594 31.2903 38.2246 31.4133 38.9746C31.6887 40.6797 32.2922 42.1914 33.3118 43.7383C33.8801 44.5996 34.1438 45.1094 34.3723 45.7891C34.677 46.7148 34.7297 47.084 34.7649 48.5254C34.7825 49.2637 34.8235 49.9199 34.8528 49.9785C34.8821 50.0371 34.9641 50.1074 35.0286 50.1309C35.134 50.166 35.1516 50.2305 35.1575 50.5234C35.1633 50.7461 35.2161 50.9688 35.2922 51.127L35.4153 51.3789L35.2922 51.5898C35.093 51.9238 35.1106 52.4805 35.3274 52.8496C35.4973 53.1309 35.8079 53.3828 36.0715 53.4473C36.1887 53.4766 36.2473 53.5527 36.3235 53.7695C36.4524 54.1328 36.8508 54.5781 37.2551 54.7949L37.5657 54.9707H39.3528H41.1399L41.427 54.8242C41.5852 54.7422 41.8137 54.5781 41.9368 54.4609C42.1536 54.25 42.4583 53.7344 42.4583 53.582C42.4583 53.541 42.5872 53.459 42.7454 53.4004C43.4544 53.1484 43.7766 52.2637 43.4192 51.5723L43.302 51.3496L43.4426 51.0801C43.5481 50.875 43.5715 50.7344 43.5598 50.5C43.5481 50.2539 43.5598 50.1953 43.636 50.1953C43.6887 50.1953 43.8001 50.1426 43.888 50.0723L44.0403 49.9551V48.1973C44.0403 46.5215 44.0462 46.4395 44.1575 46.3281C44.263 46.2227 44.3508 46.2109 45.1712 46.2109C45.9797 46.2109 46.0911 46.1992 46.3547 46.0703C46.7297 45.9004 47.011 45.6191 47.1809 45.2441C47.3098 44.9688 47.3215 44.8867 47.3215 43.7617C47.3215 43.1113 47.3391 42.5781 47.3684 42.5781C47.6555 42.5664 48.259 42.4316 48.4114 42.3438C48.5989 42.2266 48.7864 41.875 48.7864 41.6348C48.7864 41.5645 48.4172 40.6738 47.9719 39.6543L47.1575 37.8027L47.1282 36.7773C47.0872 35.5762 46.9641 34.8848 46.6126 33.9941C45.7747 31.832 44.0051 30.3906 41.638 29.916C40.9758 29.7871 39.6399 29.7285 38.9485 29.8105ZM41.2395 30.8301C43.5188 31.2285 45.136 32.5938 45.8157 34.6973C46.0676 35.4648 46.1497 36.0625 46.1497 37.0703V37.9961L46.9172 39.7129C47.3391 40.6621 47.6965 41.4648 47.7083 41.5C47.7317 41.5469 47.5735 41.582 47.2512 41.6113C46.7532 41.6523 46.5833 41.7109 46.4602 41.8691C46.4075 41.9395 46.3899 42.3438 46.384 43.3105C46.384 44.4766 46.3723 44.6875 46.2786 44.8633C46.1087 45.209 45.8977 45.2734 44.8899 45.2734C44.093 45.2734 43.9817 45.2852 43.7473 45.4082C43.595 45.4844 43.4133 45.6426 43.3079 45.7891L43.1321 46.0469L43.1145 47.623L43.0969 49.1992H39.4172H35.7376L35.7024 48.0684C35.6438 46.0703 35.2805 44.9336 34.1555 43.2344C33.2883 41.9277 32.7317 40.6387 32.4329 39.2383C32.3215 38.7285 32.2981 38.4473 32.2981 37.5684C32.2981 36.6191 32.3157 36.4551 32.4505 35.9512C32.6614 35.166 32.9192 34.5859 33.3176 33.9824C34.6419 31.9785 37.1204 30.7656 39.9153 30.748C40.4016 30.7422 40.9465 30.7773 41.2395 30.8301ZM42.5051 50.3418C42.6399 50.5117 42.6165 50.6875 42.4407 50.8105C42.2473 50.9453 36.4524 50.9395 36.259 50.8047C36.1067 50.6992 36.0891 50.4531 36.2297 50.3008C36.3176 50.2012 36.4934 50.1953 39.3587 50.1953H42.3938L42.5051 50.3418ZM42.4876 51.9824C42.6633 52.1523 42.6692 52.1875 42.511 52.3867L42.3938 52.5391H39.388C36.0833 52.5391 36.1301 52.5449 36.1301 52.1875C36.1301 51.8301 36.0833 51.8359 39.3704 51.8359H42.3469L42.4876 51.9824ZM41.3508 53.6465C41.2805 53.7402 41.1106 53.875 40.9758 53.9395C40.7415 54.0508 40.6184 54.0625 39.3645 54.0625C38.5559 54.0625 37.9465 54.0391 37.8469 53.998C37.677 53.9336 37.302 53.6055 37.302 53.5234C37.302 53.5 38.2395 53.4766 39.388 53.4766H41.468L41.3508 53.6465Z" fill="white"/>
<path d="M38.7098 31.9495C38.0652 32.0608 37.9187 32.2307 38.0242 32.7112C38.0769 32.9397 38.0711 32.9924 37.9656 33.1331C37.8074 33.3499 37.5203 33.3792 37.3269 33.1975C37.2508 33.1272 37.1863 33.0335 37.1863 32.9924C37.1863 32.8753 36.8933 32.676 36.7176 32.676C36.4012 32.676 35.4402 33.4729 34.9246 34.1643C34.6023 34.5921 34.5789 34.8206 34.8484 35.0432C34.948 35.1253 35.0535 35.1956 35.0828 35.1956C35.1062 35.1956 35.1707 35.2717 35.2234 35.3655C35.3289 35.5764 35.2703 35.7874 35.0535 35.928C34.9246 36.0159 34.866 36.0159 34.6023 35.9514C34.0105 35.7991 33.8523 36.0686 33.8055 37.3342C33.7703 38.2835 33.8406 38.7464 34.0633 38.9397C34.2215 39.0745 34.2566 39.0803 34.7371 38.969C34.8601 38.9397 34.9305 38.969 35.0418 39.0803C35.2586 39.2971 35.2469 39.5432 35.0125 39.719C34.6433 40.0003 34.5496 40.1116 34.5496 40.2815C34.5496 40.5217 34.9187 41.0549 35.4402 41.5647C36.0555 42.1741 36.2957 42.3381 36.5594 42.344C36.782 42.344 36.8113 42.3206 37.1101 41.9456C37.2391 41.7815 37.2918 41.7522 37.4676 41.7698C37.6082 41.7815 37.7078 41.8342 37.7898 41.9397C37.8953 42.0862 37.8953 42.1214 37.825 42.4026C37.7254 42.7893 37.8191 42.9768 38.1531 43.1057C38.4754 43.2171 40.3562 43.2288 40.6258 43.1174C40.8777 43.0061 40.9773 42.7659 40.8836 42.4612C40.7254 41.928 41.2703 41.5706 41.5926 41.9983C41.868 42.3674 41.9851 42.4612 42.1551 42.4612C42.4891 42.4612 43.3094 41.8284 43.8719 41.1311C44.159 40.7678 44.2176 40.6565 44.2176 40.469C44.2176 40.2288 44.1355 40.1116 43.8601 39.971C43.409 39.7366 43.7137 38.9983 44.1883 39.1799C44.8855 39.4436 45.1375 38.9221 45.0848 37.2991C45.0672 36.6663 45.0379 36.4671 44.9558 36.344C44.8152 36.1214 44.616 36.0628 44.3113 36.1448C44.0887 36.2034 44.0301 36.1975 43.9012 36.1155C43.5848 35.9046 43.6492 35.512 44.0301 35.3186C44.282 35.1897 44.3348 35.1077 44.3348 34.8323C44.3348 34.4866 43.4266 33.4085 42.7762 32.9807C42.3308 32.6819 42.2019 32.7171 41.7976 33.2151C41.616 33.4378 41.4109 33.4729 41.2058 33.3147C41.0476 33.1858 41.0418 33.1741 41.0828 32.7639C41.1297 32.2717 41.0535 32.137 40.6726 32.0315C40.4324 31.9612 38.9734 31.9026 38.7098 31.9495ZM39.8699 32.887C40.0281 32.9163 40.0457 32.9514 40.075 33.1799C40.116 33.5491 40.3855 33.9534 40.7254 34.1702C40.9832 34.3225 41.0652 34.346 41.4578 34.346C41.8445 34.346 41.9441 34.3225 42.2137 34.1702L42.5242 33.9944L42.8465 34.3401L43.1687 34.6799L43.0574 34.8089C42.618 35.2835 42.6062 36.0862 43.0223 36.637C43.2039 36.8772 43.6785 37.1292 43.948 37.1292H44.159V37.5803C44.159 37.8323 44.1355 38.0667 44.1121 38.1018C44.0887 38.137 43.9539 38.1839 43.8133 38.2073C43.4851 38.26 43.3035 38.3538 43.034 38.6233C42.5594 39.1038 42.5066 39.8538 42.9168 40.4046L43.0633 40.6038L42.7058 40.9495L42.3426 41.301L42.1609 41.1487C41.9148 40.9436 41.4109 40.7971 41.0945 40.8499C40.4441 40.9612 39.8816 41.5413 39.8816 42.1096V42.2854H39.4891C38.9031 42.2854 38.8269 42.2503 38.8269 42.0159C38.8269 41.6057 38.5164 41.137 38.1121 40.9319C37.6375 40.6917 37.075 40.7268 36.6297 41.0315L36.407 41.178L36.0613 40.8147C35.7156 40.4514 35.7156 40.4514 35.8269 40.3284C36.4363 39.6604 36.2195 38.5296 35.4109 38.1487C35.241 38.0725 35.0359 38.0081 34.948 38.0081C34.7547 38.0081 34.6961 37.803 34.7547 37.3108L34.7957 36.9651L35.0887 36.9417C35.4402 36.9065 35.7859 36.678 36.0437 36.3206C36.1902 36.1096 36.2195 35.9983 36.2371 35.6467C36.2547 35.2659 36.243 35.1897 36.0789 34.885C35.868 34.4866 35.8855 34.4397 36.3308 34.0706C36.5594 33.8772 36.6004 33.8596 36.6648 33.9417C36.8348 34.1467 37.2098 34.2815 37.6316 34.2815C37.9949 34.2874 38.0828 34.2639 38.3289 34.1116C38.6922 33.8889 38.9441 33.5374 38.9851 33.1975C39.0027 33.0569 39.0496 32.9221 39.0848 32.8987C39.1609 32.846 39.6238 32.8401 39.8699 32.887Z" fill="white"/>
<path d="M38.8512 34.7565C38.2711 34.8796 37.8434 35.1198 37.4215 35.5417C36.5309 36.4381 36.3141 37.7155 36.859 38.8522C37.5621 40.3053 39.4079 40.8971 40.8434 40.1296C41.2243 39.9303 41.8043 39.3503 42.0036 38.9694C42.4547 38.1315 42.4547 37.0885 42.0094 36.2038C41.6461 35.4889 40.7672 34.8561 39.9411 34.7272C39.4606 34.6569 39.2965 34.6569 38.8512 34.7565ZM40.1403 35.7819C40.568 35.946 41.0016 36.362 41.2067 36.8073C41.7223 37.9264 40.984 39.2682 39.7418 39.4733C38.3414 39.7018 37.1579 38.2546 37.6559 36.9303C37.8668 36.3796 38.3883 35.8874 38.945 35.7174C39.2379 35.6296 39.8121 35.6647 40.1403 35.7819Z" fill="white"/>
<path d="M27.8363 31.3582C27.6429 31.5457 27.637 31.8504 27.8245 32.0145C27.8949 32.0789 28.4808 32.4422 29.1312 32.8172C30.4378 33.5731 30.6253 33.6317 30.848 33.3446C31.0238 33.1219 31.0062 32.8699 30.8128 32.6942C30.5199 32.4364 28.3226 31.2117 28.1468 31.2117C28.0472 31.2117 27.9183 31.2703 27.8363 31.3582Z" fill="white"/>
<path d="M48.4357 31.9902C47.1291 32.7402 46.9709 32.8809 47.0471 33.1797C47.1057 33.3965 47.2932 33.5547 47.5041 33.5547C47.633 33.5547 48.049 33.3496 48.8811 32.8633C49.5432 32.4883 50.1291 32.1309 50.1936 32.0723C50.3459 31.9316 50.3459 31.5449 50.1877 31.3867C49.9592 31.1582 49.7658 31.2227 48.4357 31.9902Z" fill="white"/>
<path d="M26.1387 37.627C26.0449 37.7148 25.9922 37.8379 25.9922 37.9492C25.9922 38.0605 26.0449 38.1836 26.1387 38.2715L26.2793 38.418H27.8262C29.3672 38.418 29.373 38.418 29.4961 38.2832C29.6719 38.0957 29.666 37.7734 29.4902 37.6094C29.3555 37.4863 29.3145 37.4805 27.8145 37.4805H26.2793L26.1387 37.627Z" fill="white"/>
<path d="M48.4961 37.6562C48.3262 37.8262 48.3379 38.1836 48.5137 38.3477C48.6484 38.4707 48.6894 38.4766 50.1894 38.4766H51.7246L51.8652 38.3301C52.0469 38.1543 52.0527 37.9023 51.8887 37.6914L51.7715 37.5391H50.1894C48.6894 37.5391 48.6074 37.5449 48.4961 37.6562Z" fill="white"/>
<path d="M29.0379 43.1289C27.9949 43.7324 27.7664 43.8848 27.7078 44.0312C27.5789 44.3418 27.8132 44.6875 28.1531 44.6875C28.2703 44.6875 29.6882 43.9141 30.6082 43.3457C31.1297 43.0234 31.0359 42.4023 30.4617 42.4023C30.3562 42.4023 29.8347 42.666 29.0379 43.1289Z" fill="white"/>
</g>
<defs>
<clipPath id="clip0_3620_31750">
<rect width="30" height="30" fill="white" transform="translate(24 25)"/>
</clipPath>
</defs>
</svg>
