<svg width="16" height="16" viewBox="0 0 16 16" fill="none" xmlns="http://www.w3.org/2000/svg">
<g clip-path="url(#clip0_247_546)">
<path d="M15.1562 4.73109C15.1211 3.93408 14.9922 3.38614 14.8076 2.91135C14.6171 2.40737 14.3241 1.95615 13.9402 1.58106C13.5651 1.20012 13.1109 0.904121 12.6127 0.71663C12.1352 0.532001 11.5901 0.403115 10.7931 0.367975C9.99016 0.329859 9.73525 0.321045 7.69872 0.321045C5.66219 0.321045 5.40728 0.329859 4.6073 0.364999C3.81029 0.400139 3.26236 0.529139 2.78768 0.713654C2.28358 0.904121 1.83237 1.19715 1.45728 1.58106C1.07634 1.95615 0.780455 2.41034 0.59285 2.90849C0.408221 3.38614 0.279336 3.9311 0.244195 4.72811C0.206079 5.53107 0.197266 5.78598 0.197266 7.82251C0.197266 9.85904 0.206079 10.114 0.241219 10.9139C0.27636 11.7109 0.40536 12.2589 0.589989 12.7337C0.780455 13.2377 1.07634 13.6889 1.45728 14.064C1.83237 14.4449 2.28656 14.7409 2.7847 14.9284C3.26236 15.113 3.80732 15.2419 4.60444 15.277C5.40431 15.3123 5.65933 15.321 7.69586 15.321C9.73239 15.321 9.98729 15.3123 10.7873 15.277C11.5843 15.2419 12.1322 15.113 12.6069 14.9284C13.615 14.5386 14.412 13.7416 14.8017 12.7337C14.9862 12.256 15.1152 11.7109 15.1504 10.9139C15.1855 10.114 15.1943 9.85904 15.1943 7.82251C15.1943 5.78598 15.1914 5.53107 15.1562 4.73109ZM13.8054 10.8553C13.7732 11.5879 13.6501 11.9835 13.5476 12.2472C13.2955 12.9007 12.7769 13.4193 12.1234 13.6714C11.8597 13.7739 11.4612 13.897 10.7315 13.9291C9.94036 13.9644 9.70308 13.9731 7.7017 13.9731C5.70031 13.9731 5.46005 13.9644 4.67174 13.9291C3.93918 13.897 3.54359 13.7739 3.27987 13.6714C2.95468 13.5512 2.65868 13.3607 2.41842 13.1116C2.16935 12.8684 1.97888 12.5754 1.8587 12.2502C1.75614 11.9865 1.63309 11.5879 1.60093 10.8583C1.56567 10.0671 1.55697 9.82974 1.55697 7.82835C1.55697 5.82696 1.56567 5.5867 1.60093 4.7985C1.63309 4.06594 1.75614 3.67035 1.8587 3.40663C1.97888 3.08133 2.16935 2.78544 2.4214 2.54507C2.66452 2.29599 2.95754 2.10553 3.28285 1.98546C3.54657 1.8829 3.94513 1.75985 4.67472 1.72757C5.46589 1.69243 5.70328 1.68362 7.70456 1.68362C9.70892 1.68362 9.9462 1.69243 10.7345 1.72757C11.4671 1.75985 11.8627 1.8829 12.1264 1.98546C12.4516 2.10553 12.7476 2.29599 12.9878 2.54507C13.2369 2.7883 13.4274 3.08133 13.5476 3.40663C13.6501 3.67035 13.7732 4.0688 13.8054 4.7985C13.8406 5.58968 13.8494 5.82696 13.8494 7.82835C13.8494 9.82974 13.8406 10.0642 13.8054 10.8553Z" fill="white"/>
<path d="M7.69704 3.96924C5.56974 3.96924 3.84375 5.69512 3.84375 7.82253C3.84375 9.94994 5.56974 11.6758 7.69704 11.6758C9.82446 11.6758 11.5503 9.94994 11.5503 7.82253C11.5503 5.69512 9.82446 3.96924 7.69704 3.96924ZM7.69704 10.3221C6.31696 10.3221 5.19751 9.20273 5.19751 7.82253C5.19751 6.44233 6.31696 5.323 7.69704 5.323C9.07724 5.323 10.1966 6.44233 10.1966 7.82253C10.1966 9.20273 9.07724 10.3221 7.69704 10.3221V10.3221Z" fill="white"/>
<path d="M12.6039 3.81681C12.6039 4.31358 12.2011 4.71638 11.7043 4.71638C11.2075 4.71638 10.8047 4.31358 10.8047 3.81681C10.8047 3.31992 11.2075 2.91724 11.7043 2.91724C12.2011 2.91724 12.6039 3.31992 12.6039 3.81681V3.81681Z" fill="white"/>
</g>
<defs>
<clipPath id="clip0_247_546">
<rect width="15" height="15" fill="white" transform="translate(0.171875 0.321045)"/>
</clipPath>
</defs>
</svg>
