<svg width="16" height="16" viewBox="0 0 16 16" fill="none" xmlns="http://www.w3.org/2000/svg">
<g clip-path="url(#clip0_247_401)">
<path d="M15.1672 15.3212V15.3206H15.171V9.81931C15.171 7.12806 14.5916 5.05493 11.4453 5.05493C9.93282 5.05493 8.91782 5.88493 8.50344 6.67181H8.45969V5.30618H5.47656V15.3206H8.58282V10.3618C8.58282 9.05618 8.83032 7.79368 10.4472 7.79368C12.0403 7.79368 12.0641 9.28368 12.0641 10.4456V15.3212H15.1672Z" fill="white"/>
<path d="M0.419922 5.30664H3.52992V15.321H0.419922V5.30664Z" fill="white"/>
<path d="M1.97312 0.321045C0.97875 0.321045 0.171875 1.12792 0.171875 2.12229C0.171875 3.11667 0.97875 3.94042 1.97312 3.94042C2.9675 3.94042 3.77437 3.11667 3.77437 2.12229C3.77375 1.12792 2.96688 0.321045 1.97312 0.321045V0.321045Z" fill="white"/>
</g>
<defs>
<clipPath id="clip0_247_401">
<rect width="15" height="15" fill="white" transform="translate(0.171875 0.321045)"/>
</clipPath>
</defs>
</svg>
