<svg width="44" height="44" viewBox="0 0 44 44" fill="none" xmlns="http://www.w3.org/2000/svg">
<rect width="44" height="44" rx="22" fill="white" fill-opacity="0.1"/>
<g clip-path="url(#clip0_3692_118)">
<path d="M31.9912 31.9999V31.999H31.9962V24.664C31.9962 21.0757 31.2237 18.3115 27.0287 18.3115C25.012 18.3115 23.6587 19.4182 23.1062 20.4674H23.0478V18.6465H19.0703V31.999H23.212V25.3874C23.212 23.6465 23.542 21.9632 25.6978 21.9632C27.822 21.9632 27.8537 23.9499 27.8537 25.499V31.9999H31.9912Z" fill="white"/>
<path d="M12.3281 18.6475H16.4748V32H12.3281V18.6475Z" fill="white"/>
<path d="M14.4017 12C13.0758 12 12 13.0758 12 14.4017C12 15.7275 13.0758 16.8258 14.4017 16.8258C15.7275 16.8258 16.8033 15.7275 16.8033 14.4017C16.8025 13.0758 15.7267 12 14.4017 12V12Z" fill="white"/>
</g>
<defs>
<clipPath id="clip0_3692_118">
<rect width="20" height="20" fill="white" transform="translate(12 12)"/>
</clipPath>
</defs>
</svg>
