<svg width="24" height="24" viewBox="0 0 24 24" fill="none" xmlns="http://www.w3.org/2000/svg">
<path d="M0 4C0 1.79086 1.79086 0 4 0H20C22.2091 0 24 1.79086 24 4V20C24 22.2091 22.2091 24 20 24H4C1.79086 24 0 22.2091 0 20V4Z" fill="white"/>
<path d="M6.47639 8.04425C6.43797 8.11012 11.7181 13.3683 11.8938 13.4287C12.009 13.4726 12.0914 13.4671 12.2231 13.4122C12.3219 13.3683 13.5404 12.1937 15.0059 10.7228C17.0806 8.64252 17.5966 8.09914 17.5307 8.05523C17.4319 7.98936 6.51481 7.97839 6.47639 8.04425Z" fill="url(#paint0_linear_704_1947)"/>
<path d="M6.06473 8.42847C5.97143 8.60411 5.9824 16.1237 6.07571 16.2499C6.13609 16.3323 6.3721 16.1127 8.14497 14.3398L10.1484 12.3365L8.13948 10.3276C6.28977 8.47787 6.11962 8.32418 6.06473 8.42847Z" fill="url(#paint1_linear_704_1947)"/>
<path d="M15.9115 10.3605L13.9356 12.3364L15.9115 14.3124C17.2618 15.6626 17.9039 16.2664 17.9424 16.228C18.0192 16.1511 18.0192 8.52177 17.9424 8.44493C17.9039 8.40651 17.2618 9.01027 15.9115 10.3605Z" fill="url(#paint2_linear_704_1947)"/>
<path d="M8.40294 14.6307C7.32166 15.712 6.45444 16.6122 6.47639 16.6341C6.53677 16.6945 17.4374 16.678 17.5307 16.6177C17.5966 16.5737 17.2124 16.1676 15.6645 14.6143C14.5942 13.544 13.6941 12.6658 13.6666 12.6658C13.6337 12.6658 13.3538 12.9237 13.0299 13.2366C12.4097 13.8513 12.2615 13.9282 11.8389 13.8458C11.6742 13.8184 11.5151 13.6922 11.054 13.2366C10.7302 12.9237 10.4502 12.6658 10.4173 12.6658C10.3899 12.6658 9.48422 13.5494 8.40294 14.6307Z" fill="url(#paint3_linear_704_1947)"/>
<defs>
<linearGradient id="paint0_linear_704_1947" x1="18" y1="12.336" x2="6" y2="12.336" gradientUnits="userSpaceOnUse">
<stop stop-color="#141517"/>
<stop offset="1" stop-color="#6A9113"/>
</linearGradient>
<linearGradient id="paint1_linear_704_1947" x1="18" y1="12.336" x2="6" y2="12.336" gradientUnits="userSpaceOnUse">
<stop stop-color="#141517"/>
<stop offset="1" stop-color="#6A9113"/>
</linearGradient>
<linearGradient id="paint2_linear_704_1947" x1="18" y1="12.336" x2="6" y2="12.336" gradientUnits="userSpaceOnUse">
<stop stop-color="#141517"/>
<stop offset="1" stop-color="#6A9113"/>
</linearGradient>
<linearGradient id="paint3_linear_704_1947" x1="18" y1="12.336" x2="6" y2="12.336" gradientUnits="userSpaceOnUse">
<stop stop-color="#141517"/>
<stop offset="1" stop-color="#6A9113"/>
</linearGradient>
</defs>
</svg>
