<svg width="36" height="36" viewBox="0 0 36 36" fill="none" xmlns="http://www.w3.org/2000/svg">
<rect width="35.991" height="36" rx="4" fill="url(#paint0_linear_805_1847)"/>
<path d="M17.5174 8.15336C17.2558 8.27064 17.0843 8.46008 16.7957 8.9382C16.3897 9.60577 15.9567 9.97564 15.5598 9.97564C15.4335 9.97564 14.9644 9.79522 14.5223 9.56969C13.6743 9.13667 13.4308 9.10961 12.9707 9.39828C12.5647 9.65088 12.4475 9.96662 12.4023 10.9048C12.3482 11.7979 12.3482 11.7979 12.0144 12.1046C11.6897 12.4023 11.6626 12.4114 10.8958 12.4114C10.2643 12.4114 10.0388 12.4475 9.81326 12.5918C9.11863 13.0158 9.02842 13.6743 9.55165 14.5494C10.2012 15.6229 10.0568 16.1281 8.91114 16.8137C8.36085 17.1475 8.24357 17.2558 8.10825 17.5986C7.96392 17.9774 7.96392 18.0316 8.10825 18.4105C8.24357 18.7533 8.36085 18.8615 8.91114 19.1953C10.0568 19.8809 10.2012 20.3861 9.55165 21.4596C9.02842 22.3347 9.11863 22.9932 9.81326 23.4172C10.0388 23.5616 10.2643 23.5977 10.8958 23.5977C11.6626 23.5977 11.6897 23.6067 12.0144 23.9044C12.3482 24.2111 12.3482 24.2111 12.4023 25.1042C12.4475 26.0424 12.5647 26.3581 12.9707 26.6107C13.4308 26.8994 13.6743 26.8723 14.5223 26.4393C14.9644 26.2138 15.4335 26.0334 15.5598 26.0334C15.9567 26.0334 16.3897 26.4032 16.8047 27.0889C17.1385 27.6392 17.2467 27.7564 17.5895 27.8917C17.9684 28.0361 18.0226 28.0361 18.4014 27.8917C18.7442 27.7564 18.8525 27.6392 19.1863 27.0889C19.6013 26.4032 20.0343 26.0334 20.4312 26.0334C20.5575 26.0334 21.0266 26.2138 21.4687 26.4393C22.3166 26.8723 22.5602 26.8994 23.0203 26.6107C23.4263 26.3581 23.5435 26.0424 23.5886 25.1042C23.6428 24.2111 23.6428 24.2111 23.9765 23.9044C24.3013 23.6067 24.3284 23.5977 25.0952 23.5977C25.7267 23.5977 25.9522 23.5616 26.1777 23.4172C26.8724 22.9932 26.9626 22.3347 26.4393 21.4596C25.7898 20.3861 25.9341 19.8809 27.0798 19.1953C27.6301 18.8615 27.7474 18.7533 27.8827 18.4105C28.0271 18.0316 28.0271 17.9774 27.8827 17.5986C27.7474 17.2558 27.6301 17.1475 27.0798 16.8137C25.9341 16.1281 25.7898 15.6229 26.4393 14.5494C26.9626 13.6743 26.8724 13.0158 26.1777 12.5918C25.9522 12.4475 25.7267 12.4114 25.1493 12.4114H24.4005L24.166 12.7722L23.9314 13.124L24.3825 13.8006C25.5553 15.5598 25.9341 17.8421 25.3929 19.935C24.7253 22.5602 22.5963 24.6892 19.926 25.4109C18.9157 25.6906 17.0753 25.6906 16.065 25.4109C13.4037 24.6892 11.3108 22.5963 10.5891 19.935C10.4267 19.3667 10.3906 18.9698 10.3906 18.0045C10.3906 17.0392 10.4267 16.6423 10.5891 16.074C11.3108 13.4127 13.4037 11.3198 16.065 10.5981C16.6333 10.4357 17.0302 10.3996 17.9955 10.3996C19.3848 10.3996 20.1245 10.553 21.3063 11.1033L22.0009 11.4281L22.7587 10.6703L23.5165 9.91249L23.2729 9.63284C23.1286 9.46143 22.885 9.30807 22.6685 9.24492C22.3166 9.15471 22.2535 9.17275 21.4777 9.56067C21.0266 9.7862 20.5485 9.97564 20.4222 9.97564C20.0343 9.97564 19.6013 9.60577 19.1953 8.9382C18.9066 8.46008 18.7352 8.27064 18.4736 8.15336C18.2842 8.06315 18.0677 8 17.9955 8C17.9233 8 17.7068 8.06315 17.5174 8.15336Z" fill="white"/>
<path d="M24.7165 9.78612C23.0205 10.589 20.675 13.5931 18.5099 17.7248L17.8784 18.9336L17.6078 18.5818C17.4544 18.3923 16.9853 17.8781 16.5613 17.4541C15.587 16.4799 15.0548 16.2002 14.1978 16.2002C13.6385 16.2002 13.1152 16.3265 13.1333 16.4618C13.1333 16.4889 13.3498 16.6873 13.6114 16.8948C14.5586 17.6436 16.1554 19.7455 16.9131 21.2521C17.2199 21.8655 17.6078 22.7315 17.8333 23.3269C17.9055 23.5254 17.9686 23.4262 18.4107 22.3346C19.8721 18.7261 22.7048 13.7735 25.0503 10.7063C25.4472 10.1921 25.79 9.71395 25.8171 9.64178C25.8983 9.43429 25.2938 9.50646 24.7165 9.78612Z" fill="white"/>
<path d="M16.9403 10.5983C13.9723 11.0765 11.6899 13.0882 10.8149 15.993C10.6074 16.6786 10.5713 16.9493 10.5713 18.0048C10.5713 19.0602 10.6074 19.3309 10.8149 20.0165C11.4554 22.1455 12.7725 23.7242 14.721 24.7075C14.9736 24.8428 15.542 25.0593 15.984 25.1856C16.6696 25.3931 16.9403 25.4292 17.9957 25.4292C19.0512 25.4292 19.3219 25.3931 20.0075 25.1856C22.6056 24.4008 24.3918 22.6146 25.1766 20.0165C25.3841 19.3309 25.4202 19.0602 25.4202 18.0048C25.4202 16.9493 25.3841 16.6786 25.1766 15.993C24.7436 14.5406 23.6791 12.7995 23.6791 13.5393C23.6791 13.6114 23.8054 13.846 23.9497 14.0715C24.7616 15.2713 25.0774 16.3629 25.0774 18.0048C25.0774 19.4662 24.9511 20.0255 24.3376 21.2524C23.9768 21.9831 23.7873 22.2357 23.0025 23.0115C22.2267 23.7964 21.9741 23.9858 21.2434 24.3467C20.0165 24.9601 19.4572 25.0864 17.9957 25.0864C16.5343 25.0864 15.975 24.9601 14.7481 24.3467C14.0174 23.9858 13.7648 23.7964 12.989 23.0115C12.2041 22.2357 12.0147 21.9831 11.6538 21.2524C11.0404 20.0255 10.9141 19.4662 10.9141 18.0048C10.9141 16.5433 11.0404 15.984 11.6538 14.7571C12.0147 14.0264 12.2041 13.7738 12.989 12.998C13.7648 12.2131 14.0174 12.0237 14.7481 11.6628C15.975 11.0494 16.5343 10.9231 17.9957 10.9231C19.376 10.9231 19.9804 11.0494 21.0359 11.5456C21.5772 11.8072 21.7035 11.8343 21.7846 11.735C21.8658 11.6358 21.7846 11.5546 21.3426 11.3381C20.1157 10.7156 18.2213 10.3999 16.9403 10.5983Z" fill="white"/>
<defs>
<linearGradient id="paint0_linear_805_1847" x1="-3.51342" y1="11.67" x2="32.8272" y2="11.67" gradientUnits="userSpaceOnUse">
<stop stop-color="#6A9113"/>
<stop offset="1" stop-color="#141517"/>
</linearGradient>
</defs>
</svg>
