<svg width="30" height="25" viewBox="0 0 30 25" fill="none" xmlns="http://www.w3.org/2000/svg">
<path d="M6.75644 12.7051C4.97866 12.8419 3.54276 13.4231 2.44875 14.4487C1.35473 15.4744 0.80772 16.8419 0.80772 18.5513C0.80772 20.4658 1.38892 21.9359 2.55131 22.9615C3.71371 23.9872 5.1496 24.5 6.859 24.5C9.18379 24.3633 10.859 23.5085 11.8846 21.9359C12.9103 20.3632 13.4231 18.5855 13.4231 16.6026C13.4231 14.688 13.1496 12.9103 12.6026 11.2692C11.9872 9.62821 11.2009 8.08975 10.2436 6.65385C9.28635 5.21795 8.19234 3.95299 6.96157 2.85897C5.66242 1.76496 4.32909 0.978634 2.96157 0.5L0.500031 3.88462C1.86755 4.84189 3.16669 6.14103 4.39746 7.78206C5.55986 9.42308 6.34618 11.0641 6.75644 12.7051ZM22.7125 12.7051C20.9347 12.8419 19.4988 13.4231 18.4048 14.4487C17.3108 15.4744 16.7638 16.8419 16.7638 18.5513C16.7638 20.4658 17.3792 21.9359 18.6099 22.9615C19.7723 23.9872 21.1398 24.5 22.7125 24.5C25.1056 24.4316 26.815 23.6111 27.8407 22.0385C28.8663 20.3974 29.3792 18.5855 29.3792 16.6026C29.3792 14.688 29.1056 12.9103 28.5586 11.2692C27.9433 9.62821 27.1569 8.08975 26.1997 6.65385C25.2424 5.21795 24.1484 3.95299 22.9176 2.85897C21.6185 1.76496 20.2851 0.978634 18.9176 0.5L16.4561 3.88462C17.8236 4.84189 19.1227 6.14103 20.3535 7.78206C21.5159 9.42308 22.3022 11.0641 22.7125 12.7051Z" fill="url(#paint0_linear_78_531)"/>
<defs>
<linearGradient id="paint0_linear_78_531" x1="32.1983" y1="8.28003" x2="3.03862" y2="8.28003" gradientUnits="userSpaceOnUse">
<stop stop-color="#6A9113"/>
<stop offset="1" stop-color="#141517"/>
</linearGradient>
</defs>
</svg>
