<svg width="49" height="48" viewBox="0 0 49 48" fill="none" xmlns="http://www.w3.org/2000/svg">
<path opacity="0.2" d="M20.8359 27H8.08594C7.68811 27 7.30658 26.842 7.02528 26.5607C6.74397 26.2794 6.58594 25.8978 6.58594 25.5V13.5C6.58594 13.1022 6.74397 12.7206 7.02528 12.4393C7.30658 12.158 7.68811 12 8.08594 12H19.3359C19.7338 12 20.1153 12.158 20.3966 12.4393C20.6779 12.7206 20.8359 13.1022 20.8359 13.5V27Z" fill="#0B63E5"/>
<path opacity="0.2" d="M42.5859 27H29.8359C29.4381 27 29.0566 26.842 28.7753 26.5607C28.494 26.2794 28.3359 25.8978 28.3359 25.5V13.5C28.3359 13.1022 28.494 12.7206 28.7753 12.4393C29.0566 12.158 29.4381 12 29.8359 12H41.0859C41.4838 12 41.8653 12.158 42.1466 12.4393C42.4279 12.7206 42.5859 13.1022 42.5859 13.5V27Z" fill="#0B63E5"/>
<path d="M20.8359 27H8.08594C7.68811 27 7.30658 26.842 7.02528 26.5607C6.74397 26.2794 6.58594 25.8978 6.58594 25.5V13.5C6.58594 13.1022 6.74397 12.7206 7.02528 12.4393C7.30658 12.158 7.68811 12 8.08594 12H19.3359C19.7338 12 20.1153 12.158 20.3966 12.4393C20.6779 12.7206 20.8359 13.1022 20.8359 13.5V30C20.8359 31.9891 20.0458 33.8968 18.6392 35.3033C17.2327 36.7098 15.3251 37.5 13.3359 37.5" stroke="#0B63E5" stroke-width="2.5" stroke-linecap="round" stroke-linejoin="round"/>
<path d="M42.5859 27H29.8359C29.4381 27 29.0566 26.842 28.7753 26.5607C28.494 26.2794 28.3359 25.8978 28.3359 25.5V13.5C28.3359 13.1022 28.494 12.7206 28.7753 12.4393C29.0566 12.158 29.4381 12 29.8359 12H41.0859C41.4838 12 41.8653 12.158 42.1466 12.4393C42.4279 12.7206 42.5859 13.1022 42.5859 13.5V30C42.5859 31.9891 41.7958 33.8968 40.3892 35.3033C38.9827 36.7098 37.0751 37.5 35.0859 37.5" stroke="#0B63E5" stroke-width="2.5" stroke-linecap="round" stroke-linejoin="round"/>
</svg>
