<svg width="30" height="25" viewBox="0 0 30 25" fill="none" xmlns="http://www.w3.org/2000/svg">
<path d="M23.2436 12.7051C25.0213 12.8419 26.4572 13.4231 27.5513 14.4487C28.6453 15.4744 29.1923 16.8419 29.1923 18.5513C29.1923 20.4658 28.6111 21.9359 27.4487 22.9615C26.2863 23.9872 24.8504 24.5 23.141 24.5C20.8162 24.3633 19.141 23.5085 18.1154 21.9359C17.0897 20.3632 16.5769 18.5855 16.5769 16.6026C16.5769 14.688 16.8504 12.9103 17.3974 11.2692C18.0128 9.62821 18.7991 8.08975 19.7564 6.65385C20.7136 5.21795 21.8077 3.95299 23.0384 2.85897C24.3376 1.76496 25.6709 0.978634 27.0384 0.5L29.5 3.88462C28.1324 4.84189 26.8333 6.14103 25.6025 7.78206C24.4401 9.42308 23.6538 11.0641 23.2436 12.7051ZM7.28752 12.7051C9.06529 12.8419 10.5012 13.4231 11.5952 14.4487C12.6892 15.4744 13.2362 16.8419 13.2362 18.5513C13.2362 20.4658 12.6208 21.9359 11.3901 22.9615C10.2277 23.9872 8.86017 24.5 7.28752 24.5C4.89435 24.4316 3.18495 23.6111 2.15931 22.0385C1.13367 20.3974 0.62085 18.5855 0.62085 16.6026C0.62085 14.688 0.894353 12.9103 1.44136 11.2692C2.05675 9.62821 2.84307 8.08975 3.80034 6.65385C4.7576 5.21795 5.85162 3.95299 7.08239 2.85897C8.38153 1.76496 9.71487 0.978634 11.0824 0.5L13.5439 3.88462C12.1764 4.84189 10.8773 6.14103 9.64649 7.78206C8.4841 9.42308 7.69777 11.0641 7.28752 12.7051Z" fill="url(#paint0_linear_78_527)"/>
<defs>
<linearGradient id="paint0_linear_78_527" x1="-2.19831" y1="8.28003" x2="26.9614" y2="8.28003" gradientUnits="userSpaceOnUse">
<stop stop-color="#6A9113"/>
<stop offset="1" stop-color="#141517"/>
</linearGradient>
</defs>
</svg>
