<svg width="33" height="32" viewBox="0 0 33 32" fill="none" xmlns="http://www.w3.org/2000/svg">
<path d="M17.7383 3.99496C17.2244 3.10943 15.9456 3.10942 15.4318 3.99496L11.8131 10.2314C11.5592 10.6688 11.1205 10.9673 10.6204 11.0429L3.83866 12.0672C2.69962 12.2392 2.30007 13.6774 3.18714 14.4123L8.23926 18.5979C8.70692 18.9854 8.92681 19.5965 8.81321 20.1931L7.49165 27.1333C7.28274 28.2304 8.43446 29.0828 9.42266 28.5625L15.8085 25.2001C16.2946 24.9441 16.8755 24.9441 17.3615 25.2001L23.7474 28.5625C24.7356 29.0828 25.8873 28.2304 25.6784 27.1333L24.3569 20.1931C24.2433 19.5965 24.4632 18.9854 24.9308 18.5979L29.9829 14.4123C30.87 13.6774 30.4705 12.2392 29.3314 12.0672L22.5497 11.0429C22.0496 10.9673 21.6109 10.6688 21.357 10.2314L17.7383 3.99496Z" fill="#FF8800"/>
</svg>
