<svg width="29" height="28" viewBox="0 0 29 28" fill="none" xmlns="http://www.w3.org/2000/svg">
<path d="M15.7383 1.99496C15.2244 1.10943 13.9456 1.10942 13.4318 1.99496L9.81306 8.23137C9.55923 8.66882 9.12049 8.96734 8.62041 9.04287L1.83866 10.0672C0.699615 10.2392 0.300069 11.6774 1.18714 12.4123L6.23926 16.5979C6.70692 16.9854 6.92681 17.5965 6.81321 18.1931L5.49165 25.1333C5.28274 26.2304 6.43446 27.0828 7.42266 26.5625L13.8085 23.2001C14.2946 22.9441 14.8755 22.9441 15.3615 23.2001L21.7474 26.5625C22.7356 27.0828 23.8873 26.2304 23.6784 25.1333L22.3569 18.1931C22.2433 17.5965 22.4632 16.9854 22.9308 16.5979L27.9829 12.4123C28.87 11.6774 28.4705 10.2392 27.3314 10.0672L20.5497 9.04287C20.0496 8.96734 19.6109 8.66882 19.357 8.23137L15.7383 1.99496Z" stroke="black" stroke-linejoin="round"/>
</svg>
