<svg width="16" height="16" viewBox="0 0 16 16" fill="none" xmlns="http://www.w3.org/2000/svg">
<g clip-path="url(#clip0_247_408)">
<path d="M15.1719 3.17011C14.6141 3.41479 14.0197 3.57698 13.4 3.65573C14.0375 3.27511 14.5241 2.67698 14.7528 1.95604C14.1584 2.31042 13.5022 2.56073 12.8028 2.70042C12.2384 2.09948 11.4341 1.72729 10.5566 1.72729C8.85406 1.72729 7.48344 3.10917 7.48344 4.80323C7.48344 5.04698 7.50406 5.28136 7.55469 5.50448C4.99813 5.37979 2.73594 4.15448 1.21625 2.28792C0.950937 2.74823 0.795313 3.27511 0.795313 3.84229C0.795313 4.90729 1.34375 5.85136 2.16125 6.39792C1.66719 6.38854 1.1825 6.24511 0.771875 6.01917C0.771875 6.02854 0.771875 6.04073 0.771875 6.05292C0.771875 7.54729 1.83781 8.78854 3.23562 9.07448C2.98531 9.14292 2.7125 9.17573 2.42937 9.17573C2.2325 9.17573 2.03375 9.16448 1.84719 9.12323C2.24562 10.341 3.37625 11.2364 4.72063 11.2654C3.67438 12.0839 2.34594 12.577 0.907813 12.577C0.655625 12.577 0.41375 12.5657 0.171875 12.5348C1.53406 13.4132 3.14844 13.9148 4.88938 13.9148C10.5481 13.9148 13.6419 9.22729 13.6419 5.16417C13.6419 5.02823 13.6372 4.89698 13.6306 4.76667C14.2409 4.33355 14.7537 3.79261 15.1719 3.17011Z" fill="white"/>
</g>
<defs>
<clipPath id="clip0_247_408">
<rect width="15" height="15" fill="white" transform="translate(0.171875 0.321045)"/>
</clipPath>
</defs>
</svg>
