<svg width="208" height="396" viewBox="0 0 208 396" fill="none" xmlns="http://www.w3.org/2000/svg">
<path fill-rule="evenodd" clip-rule="evenodd" d="M9.98758 83.495C74.676 83.495 127.124 135.96 127.124 200.684C127.124 265.408 74.676 317.858 9.98758 317.858C-54.7009 317.858 -107.134 265.393 -107.134 200.684C-107.134 135.975 -54.6862 83.495 9.98758 83.495ZM-3.20905 64.172C-12.5511 69.2639 -29.411 73.6201 -40.6804 79.2566C-143.635 130.677 -149.24 246.262 -62.66 309.455C-31.9415 331.883 -48.2865 317.196 -26.5863 317.991C13.2389 319.477 -6.75465 382.244 -40.1066 361.714C-48.6984 356.431 -47.4332 351.766 -52.1116 346.262C-57.9081 339.433 -146.033 303.348 -145.797 198.786C-145.606 119.227 -93.1579 66.2617 -29.2639 48.6311L-28.9991 4.23088C-75.9743 7.74817 -128.555 51.9277 -146.636 76.9461C-249.002 218.476 -150.108 402.641 26.5385 395.298C27.2888 324.966 20.0505 340.345 48.9007 328.852C72.278 319.521 96.847 303.819 112.236 286.733C167.773 225.07 153.4 147.895 90.9327 95.8423C53.3437 64.5252 69.1296 89.9262 43.0012 82.1558C23.8609 76.4604 22.5222 47.1889 40.9268 38.6091C50.3277 34.2235 61.1999 36.8136 67.4083 42.8475C77.6037 52.7665 68.1439 52.016 84.0328 60.7871C208.04 129.161 195.873 312.59 52.6522 352.737L52.4316 391C100.701 384.702 144.617 346.026 165.566 320.051C191.989 287.321 213.704 233.12 206.657 176.21C194.961 81.6848 114.384 -2.37691 9.81105 0.0513432L-3.20905 0.316244L-3.19432 64.1867H-3.20905V64.172Z" fill="url(#paint0_linear_704_2009)" fill-opacity="0.04"/>
<path fill-rule="evenodd" clip-rule="evenodd" d="M-87.11 241.795L-61.2201 226.936C-59.7336 226.051 -58.5267 225.401 -56.9076 224.501C-55.3181 223.616 -53.9345 222.524 -52.2419 221.978C-52.7423 218.496 -54.3319 215.043 -55.1267 208.344C-55.7449 203.091 -55.7449 197.779 -55.0973 192.556C-53.9051 182.862 -50.8878 174.864 -46.8107 167.531C-41.88 158.648 -34.6533 151.388 -27.191 146.032C-25.469 144.793 -23.7911 143.789 -21.966 142.742C-18.2128 140.602 -14.8128 139.097 -10.4561 137.592C16.8614 128.208 44.0317 137.681 61.7969 158.161C65.4765 162.396 71.9969 172.592 73.5865 179.615L-15.1072 230.89C-10.6916 234.992 -5.24576 237.737 0.685791 239.286C7.79482 241.145 15.5956 241.013 22.528 238.829C29.5487 236.615 47.1815 225.829 54.2169 221.609C68.5969 212.963 85.847 203.283 100.727 194.74C103.229 193.294 114.798 186.949 115.976 185.695C114.342 167.191 104.657 148.688 94.8252 135.364C92.6616 132.443 90.3655 129.964 88.1872 127.47C85.0375 123.855 76.957 116.994 72.8505 114.102C2.51088 64.5973 -89.7593 112.346 -95.2346 193.146C-95.8381 202.117 -95.3523 211.059 -93.7774 219.735C-92.8207 225.003 -89.5238 238.194 -87.0953 241.795L-87.11 241.809V241.795Z" fill="url(#paint1_linear_704_2009)" fill-opacity="0.04"/>
<path fill-rule="evenodd" clip-rule="evenodd" d="M12.4709 266.779C-0.358658 266.779 -8.84796 265.183 -19.7943 259.641C-32.5944 253.168 -37.2142 245.912 -39.5682 244.464L-57.0323 254.483C-59.9896 256.331 -73.1575 263.513 -74.4375 264.71C-64.9625 277.922 -48.4694 291.769 -29.0044 299.454C-6.9647 308.173 16.2962 309.267 40.0868 302.631C73.5878 293.306 100.748 265.951 111.355 232.715C112.4 229.419 115.151 219.695 114.99 216.355L42.3819 258.355C34.5547 262.804 23.1082 266.764 12.4562 266.764H12.4709V266.779Z" fill="url(#paint2_linear_704_2009)" fill-opacity="0.04"/>
<path fill-rule="evenodd" clip-rule="evenodd" d="M-28.6017 207.545C-27.0168 207.118 -22.2328 204.07 -20.4131 202.996L19.8987 179.689C22.6282 178.143 25.1523 176.582 27.9405 175.007C30.5233 173.55 33.8545 171.842 36.1878 170.163C29.6721 165.246 25.2257 162.051 15.4669 160.858C-5.84102 158.252 -25.0797 172.651 -28.7191 193.22C-29.3648 196.827 -29.9225 204.306 -28.587 207.545H-28.6017Z" fill="url(#paint3_linear_704_2009)" fill-opacity="0.04"/>
<defs>
<linearGradient id="paint0_linear_704_2009" x1="208" y1="197.755" x2="-188" y2="197.755" gradientUnits="userSpaceOnUse">
<stop stop-color="#141517"/>
<stop offset="1" stop-color="#6A9113"/>
</linearGradient>
<linearGradient id="paint1_linear_704_2009" x1="115.976" y1="167.896" x2="-95.4854" y2="167.896" gradientUnits="userSpaceOnUse">
<stop stop-color="#141517"/>
<stop offset="1" stop-color="#6A9113"/>
</linearGradient>
<linearGradient id="paint2_linear_704_2009" x1="114.996" y1="261.634" x2="-74.4375" y2="261.634" gradientUnits="userSpaceOnUse">
<stop stop-color="#141517"/>
<stop offset="1" stop-color="#6A9113"/>
</linearGradient>
<linearGradient id="paint3_linear_704_2009" x1="36.1878" y1="184.049" x2="-29.4043" y2="184.049" gradientUnits="userSpaceOnUse">
<stop stop-color="#141517"/>
<stop offset="1" stop-color="#6A9113"/>
</linearGradient>
</defs>
</svg>
