<svg width="20" height="21" viewBox="0 0 20 21" fill="none" xmlns="http://www.w3.org/2000/svg">
<path d="M8.93451 0.546425C5.35288 1.01563 2.31085 3.37731 1.00489 6.70478C0.516129 7.95991 0.324536 9.08992 0.363636 10.5327C0.402737 12.0889 0.727273 13.3519 1.42717 14.7126L1.67351 15.1935L0.836755 17.6608C0.375367 19.0176 0 20.1828 0 20.2532C0 20.4057 0.101662 20.5073 0.258065 20.5073C0.320626 20.5073 1.53275 20.1398 2.94428 19.6901L5.51711 18.8729L5.91593 19.0606C6.93646 19.5376 8.01173 19.8426 9.11046 19.9638C9.95503 20.0538 11.1515 20.0107 11.9844 19.8583C15.7458 19.1662 18.784 16.347 19.7263 12.6676C19.9648 11.737 20 11.4164 20 10.2238C20 9.27761 19.9883 9.08992 19.9101 8.64809C19.5464 6.62267 18.6823 4.92179 17.2825 3.48289C15.6637 1.8172 13.6813 0.83186 11.3783 0.542515C10.827 0.476044 9.47801 0.476044 8.93451 0.546425ZM11.2688 2.61876C12.9658 2.87683 14.4829 3.63147 15.6716 4.82404C16.8563 6.00488 17.5679 7.39686 17.8768 9.12903C17.9433 9.5083 17.9433 10.9589 17.8768 11.3578C17.5953 13.0274 16.8485 14.4897 15.6794 15.6588C13.6579 17.6843 10.7449 18.4272 7.98827 17.6295C7.40567 17.4614 6.66276 17.129 6.08016 16.7771C5.95112 16.6989 5.81036 16.6364 5.76735 16.6364C5.72434 16.6364 5.11828 16.8201 4.41838 17.043C3.71848 17.2659 3.1437 17.4418 3.13587 17.4379C3.13196 17.434 3.31183 16.8788 3.53861 16.2062C3.7654 15.5337 3.94917 14.9511 3.94917 14.9159C3.94917 14.8807 3.83187 14.6696 3.68719 14.4428C2.99902 13.3754 2.60802 12.2727 2.45943 10.9863C2.40469 10.521 2.43597 9.53176 2.51808 9.05082C2.94428 6.54838 4.49267 4.47604 6.79961 3.32257C7.39785 3.02541 8.32063 2.73606 9.06354 2.62267C9.54448 2.54838 10.7722 2.54447 11.2688 2.61876Z" fill="url(#paint0_linear_704_1838)"/>
<path d="M6.88598 5.7315C6.3894 5.83708 6.15089 5.95829 5.89674 6.22808C5.55656 6.59954 5.35324 7.0883 5.27112 7.72173C5.21638 8.1753 5.25939 8.65623 5.39625 9.11371C5.66604 10.0013 6.65529 11.4363 7.73056 12.4998C8.71589 13.4813 9.58002 14.0365 10.7961 14.4783C11.8088 14.8498 12.4461 14.9827 13.0522 14.9436C13.5018 14.9123 13.6543 14.8732 14.0179 14.6934C14.5458 14.4314 14.9251 14.0912 15.0971 13.7237C15.3044 13.2818 15.3904 12.5741 15.2692 12.32C15.191 12.1518 14.9798 12.0306 13.9046 11.5301C12.9544 11.0844 12.7276 11.0179 12.4735 11.1235C12.3992 11.1548 12.2271 11.3307 12.0238 11.5888C11.8439 11.8156 11.6367 12.0697 11.5663 12.1518L11.4373 12.2965L11.0385 12.1049C10.1235 11.6631 9.15382 10.8224 8.44219 9.85663L8.21541 9.55164L8.48129 9.24274C8.82538 8.84392 8.99351 8.53502 8.99351 8.28869C8.99351 8.03844 8.23496 6.18898 8.00426 5.87618C7.83222 5.64548 7.50768 5.60247 6.88598 5.7315Z" fill="url(#paint1_linear_704_1838)"/>
<defs>
<linearGradient id="paint0_linear_704_1838" x1="20" y1="10.5002" x2="0" y2="10.5002" gradientUnits="userSpaceOnUse">
<stop stop-color="#141517"/>
<stop offset="1" stop-color="#6A9113"/>
</linearGradient>
<linearGradient id="paint1_linear_704_1838" x1="15.3247" y1="10.305" x2="5.24805" y2="10.305" gradientUnits="userSpaceOnUse">
<stop stop-color="#141517"/>
<stop offset="1" stop-color="#6A9113"/>
</linearGradient>
</defs>
</svg>
