<svg width="24" height="24" viewBox="0 0 24 24" fill="none" xmlns="http://www.w3.org/2000/svg">
<path d="M0 4C0 1.79086 1.79086 0 4 0H20C22.2091 0 24 1.79086 24 4V20C24 22.2091 22.2091 24 20 24H4C1.79086 24 0 22.2091 0 20V4Z" fill="white"/>
<path d="M11.3607 6.02737C9.21173 6.30889 7.38651 7.7259 6.60293 9.72238C6.30968 10.4755 6.19472 11.1535 6.21818 12.0192C6.24164 12.9529 6.43636 13.7107 6.85631 14.5271L7.00411 14.8156L6.50205 16.296C6.22522 17.1101 6 17.8092 6 17.8514C6 17.9429 6.061 18.0039 6.15484 18.0039C6.19238 18.0039 6.91965 17.7834 7.76657 17.5136L9.31026 17.0233L9.54956 17.1359C10.1619 17.4221 10.807 17.6051 11.4663 17.6778C11.973 17.7318 12.6909 17.706 13.1906 17.6145C15.4475 17.1992 17.2704 15.5077 17.8358 13.3001C17.9789 12.7417 18 12.5494 18 11.8338C18 11.2661 17.993 11.1535 17.946 10.8884C17.7279 9.67311 17.2094 8.65259 16.3695 7.78924C15.3982 6.78983 14.2088 6.19863 12.827 6.02502C12.4962 5.98514 11.6868 5.98514 11.3607 6.02737ZM12.7613 7.27077C13.7795 7.42561 14.6897 7.87839 15.4029 8.59394C16.1138 9.30244 16.5408 10.1376 16.7261 11.1769C16.766 11.4045 16.766 12.2749 16.7261 12.5142C16.5572 13.5159 16.1091 14.3933 15.4076 15.0948C14.1947 16.3101 12.4469 16.7558 10.793 16.2772C10.4434 16.1763 9.99765 15.9769 9.64809 15.7658C9.57067 15.7189 9.48622 15.6813 9.46041 15.6813C9.4346 15.6813 9.07097 15.7916 8.65103 15.9253C8.23109 16.059 7.88622 16.1646 7.88153 16.1623C7.87918 16.1599 7.9871 15.8268 8.12317 15.4233C8.25924 15.0197 8.3695 14.6702 8.3695 14.6491C8.3695 14.628 8.29912 14.5013 8.21232 14.3652C7.79941 13.7247 7.56481 13.0631 7.47566 12.2913C7.44282 12.0121 7.46158 11.4186 7.51085 11.13C7.76657 9.62854 8.6956 8.38514 10.0798 7.69306C10.4387 7.51476 10.9924 7.34115 11.4381 7.27312C11.7267 7.22854 12.4633 7.22619 12.7613 7.27077Z" fill="url(#paint0_linear_704_1949)"/>
<path d="M10.1312 9.13773C9.83325 9.20107 9.69014 9.2738 9.53765 9.43568C9.33355 9.65855 9.21155 9.95181 9.16228 10.3319C9.12944 10.604 9.15525 10.8926 9.23736 11.1671C9.39923 11.6996 9.99278 12.5606 10.6379 13.1987C11.2291 13.7876 11.7476 14.1207 12.4772 14.3858C13.0849 14.6087 13.4673 14.6885 13.8309 14.665C14.1007 14.6462 14.1922 14.6228 14.4104 14.5149C14.7271 14.3577 14.9547 14.1536 15.0579 13.933C15.1822 13.6679 15.2338 13.2433 15.1611 13.0908C15.1142 12.9899 14.9875 12.9172 14.3423 12.6169C13.7723 12.3495 13.6362 12.3096 13.4837 12.3729C13.4391 12.3917 13.3359 12.4973 13.2139 12.6521C13.106 12.7882 12.9816 12.9407 12.9394 12.9899L12.862 13.0767L12.6227 12.9618C12.0737 12.6967 11.4919 12.1923 11.0649 11.6128L10.9289 11.4298L11.0884 11.2445C11.2948 11.0052 11.3957 10.8198 11.3957 10.672C11.3957 10.5219 10.9406 9.41222 10.8022 9.22453C10.6989 9.08612 10.5042 9.06031 10.1312 9.13773Z" fill="url(#paint1_linear_704_1949)"/>
<defs>
<linearGradient id="paint0_linear_704_1949" x1="18" y1="11.9997" x2="6" y2="11.9997" gradientUnits="userSpaceOnUse">
<stop stop-color="#141517"/>
<stop offset="1" stop-color="#6A9113"/>
</linearGradient>
<linearGradient id="paint1_linear_704_1949" x1="15.1944" y1="11.8818" x2="9.14844" y2="11.8818" gradientUnits="userSpaceOnUse">
<stop stop-color="#141517"/>
<stop offset="1" stop-color="#6A9113"/>
</linearGradient>
</defs>
</svg>
