<svg width="45" height="44" viewBox="0 0 45 44" fill="none" xmlns="http://www.w3.org/2000/svg">
<rect x="0.585938" width="44" height="44" rx="5" fill="white" fill-opacity="0.1"/>
<g clip-path="url(#clip0_2325_1360)">
<path d="M32.5859 15.7988C31.8422 16.125 31.0497 16.3412 30.2234 16.4462C31.0734 15.9388 31.7222 15.1412 32.0272 14.18C31.2347 14.6525 30.3597 14.9863 29.4272 15.1725C28.6747 14.3713 27.6022 13.875 26.4322 13.875C24.1622 13.875 22.3347 15.7175 22.3347 17.9763C22.3347 18.3012 22.3622 18.6137 22.4297 18.9112C19.0209 18.745 16.0047 17.1113 13.9784 14.6225C13.6247 15.2363 13.4172 15.9388 13.4172 16.695C13.4172 18.115 14.1484 19.3737 15.2384 20.1025C14.5797 20.09 13.9334 19.8988 13.3859 19.5975C13.3859 19.61 13.3859 19.6262 13.3859 19.6425C13.3859 21.635 14.8072 23.29 16.6709 23.6712C16.3372 23.7625 15.9734 23.8062 15.5959 23.8062C15.3334 23.8062 15.0684 23.7913 14.8197 23.7362C15.3509 25.36 16.8584 26.5538 18.6509 26.5925C17.2559 27.6838 15.4847 28.3412 13.5672 28.3412C13.2309 28.3412 12.9084 28.3263 12.5859 28.285C14.4022 29.4563 16.5547 30.125 18.8759 30.125C26.4209 30.125 30.5459 23.875 30.5459 18.4575C30.5459 18.2762 30.5397 18.1013 30.5309 17.9275C31.3447 17.35 32.0284 16.6288 32.5859 15.7988Z" fill="white"/>
</g>
<defs>
<clipPath id="clip0_2325_1360">
<rect width="20" height="20" fill="white" transform="translate(12.5859 12)"/>
</clipPath>
</defs>
</svg>
