<svg width="45" height="44" viewBox="0 0 45 44" fill="none" xmlns="http://www.w3.org/2000/svg">
<rect x="0.585938" width="44" height="44" rx="5" fill="white" fill-opacity="0.1"/>
<g clip-path="url(#clip0_2325_1362)">
<path d="M32.5664 17.8801C32.5195 16.8174 32.3477 16.0868 32.1015 15.4537C31.8475 14.7818 31.4568 14.1801 30.945 13.68C30.4448 13.1721 29.8392 12.7774 29.1751 12.5274C28.5383 12.2813 27.8116 12.1094 26.7489 12.0626C25.6783 12.0118 25.3384 12 22.623 12C19.9077 12 19.5678 12.0118 18.5011 12.0586C17.4385 12.1055 16.7079 12.2775 16.075 12.5235C15.4029 12.7774 14.8012 13.1681 14.3011 13.68C13.7932 14.1801 13.3987 14.7857 13.1485 15.4499C12.9024 16.0868 12.7305 16.8134 12.6837 17.8761C12.6328 18.9467 12.6211 19.2866 12.6211 22.002C12.6211 24.7173 12.6328 25.0572 12.6797 26.1239C12.7266 27.1865 12.8986 27.9171 13.1447 28.5502C13.3987 29.2221 13.7932 29.8238 14.3011 30.3239C14.8012 30.8318 15.4068 31.2265 16.071 31.4765C16.7079 31.7226 17.4345 31.8945 18.4973 31.9413C19.5638 31.9883 19.9038 31.9999 22.6192 31.9999C25.3346 31.9999 25.6745 31.9883 26.7411 31.9413C27.8038 31.8945 28.5344 31.7226 29.1673 31.4765C30.5114 30.9568 31.574 29.8941 32.0937 28.5502C32.3397 27.9133 32.5117 27.1865 32.5586 26.1239C32.6054 25.0572 32.6172 24.7173 32.6172 22.002C32.6172 19.2866 32.6132 18.9467 32.5664 17.8801ZM30.7653 26.0457C30.7223 27.0225 30.5582 27.5499 30.4215 27.9015C30.0854 28.7728 29.3939 29.4643 28.5226 29.8004C28.171 29.9372 27.6397 30.1012 26.6668 30.1441C25.6119 30.1911 25.2955 30.2027 22.627 30.2027C19.9585 30.2027 19.6381 30.1911 18.5871 30.1441C17.6103 30.1012 17.0829 29.9372 16.7312 29.8004C16.2976 29.6402 15.903 29.3862 15.5826 29.0541C15.2505 28.7298 14.9966 28.3391 14.8363 27.9055C14.6996 27.5539 14.5355 27.0225 14.4926 26.0497C14.4456 24.9948 14.434 24.6783 14.434 22.0097C14.434 19.3412 14.4456 19.0209 14.4926 17.9699C14.5355 16.9932 14.6996 16.4657 14.8363 16.1141C14.9966 15.6804 15.2505 15.2859 15.5866 14.9654C15.9108 14.6333 16.3015 14.3793 16.7352 14.2192C17.0868 14.0825 17.6182 13.9184 18.591 13.8754C19.6459 13.8285 19.9625 13.8168 22.6308 13.8168C25.3033 13.8168 25.6197 13.8285 26.6708 13.8754C27.6475 13.9184 28.175 14.0825 28.5266 14.2192C28.9602 14.3793 29.3548 14.6333 29.6752 14.9654C30.0073 15.2897 30.2612 15.6804 30.4215 16.1141C30.5582 16.4657 30.7223 16.997 30.7653 17.9699C30.8122 19.0248 30.8239 19.3412 30.8239 22.0097C30.8239 24.6783 30.8122 24.9908 30.7653 26.0457Z" fill="white"/>
<path d="M22.6221 16.8633C19.7857 16.8633 17.4844 19.1645 17.4844 22.001C17.4844 24.8376 19.7857 27.1387 22.6221 27.1387C25.4586 27.1387 27.7598 24.8376 27.7598 22.001C27.7598 19.1645 25.4586 16.8633 22.6221 16.8633ZM22.6221 25.3337C20.782 25.3337 19.2894 23.8413 19.2894 22.001C19.2894 20.1607 20.782 18.6683 22.6221 18.6683C24.4624 18.6683 25.9548 20.1607 25.9548 22.001C25.9548 23.8413 24.4624 25.3337 22.6221 25.3337Z" fill="white"/>
<path d="M29.1646 16.6604C29.1646 17.3227 28.6276 17.8598 27.9651 17.8598C27.3027 17.8598 26.7656 17.3227 26.7656 16.6604C26.7656 15.9978 27.3027 15.4609 27.9651 15.4609C28.6276 15.4609 29.1646 15.9978 29.1646 16.6604Z" fill="white"/>
</g>
<defs>
<clipPath id="clip0_2325_1362">
<rect width="20" height="20" fill="white" transform="translate(12.5859 12)"/>
</clipPath>
</defs>
</svg>
