<svg width="24" height="25" viewBox="0 0 24 25" fill="none" xmlns="http://www.w3.org/2000/svg">
<path d="M3.7941 4.60758L3.93934 4.43934C4.47187 3.90681 5.3052 3.85839 5.89242 4.2941L6.06066 4.43934L12 10.378L17.9393 4.43934C18.5251 3.85355 19.4749 3.85355 20.0607 4.43934C20.6464 5.02513 20.6464 5.97487 20.0607 6.56066L14.122 12.5L20.0607 18.4393C20.5932 18.9719 20.6416 19.8052 20.2059 20.3924L20.0607 20.5607C19.5281 21.0932 18.6948 21.1416 18.1076 20.7059L17.9393 20.5607L12 14.622L6.06066 20.5607C5.47487 21.1464 4.52513 21.1464 3.93934 20.5607C3.35355 19.9749 3.35355 19.0251 3.93934 18.4393L9.878 12.5L3.93934 6.56066C3.40681 6.02813 3.35839 5.1948 3.7941 4.60758Z" fill="white"/>
</svg>
