<svg width="45" height="44" viewBox="0 0 45 44" fill="none" xmlns="http://www.w3.org/2000/svg">
<rect x="0.585938" width="44" height="44" rx="5" fill="white" fill-opacity="0.1"/>
<g clip-path="url(#clip0_2325_1361)">
<path d="M32.581 32.0008V32H32.586V24.665C32.586 21.0767 31.8135 18.3125 27.6185 18.3125C25.6018 18.3125 24.2485 19.4192 23.696 20.4683H23.6377V18.6475H19.6602V32H23.8018V25.3883C23.8018 23.6475 24.1318 21.9642 26.2877 21.9642C28.4118 21.9642 28.4435 23.9508 28.4435 25.5V32.0008H32.581Z" fill="white"/>
<path d="M12.9141 18.6484H17.0607V32.0009H12.9141V18.6484Z" fill="white"/>
<path d="M14.9876 12C13.6618 12 12.5859 13.0758 12.5859 14.4017C12.5859 15.7275 13.6618 16.8258 14.9876 16.8258C16.3134 16.8258 17.3893 15.7275 17.3893 14.4017C17.3884 13.0758 16.3126 12 14.9876 12V12Z" fill="white"/>
</g>
<defs>
<clipPath id="clip0_2325_1361">
<rect width="20" height="20" fill="white" transform="translate(12.5859 12)"/>
</clipPath>
</defs>
</svg>
