<svg width="20" height="15" viewBox="0 0 20 15" fill="none" xmlns="http://www.w3.org/2000/svg">
<path d="M1 12.5H13C13.5523 12.5 14 12.9477 14 13.5C14 14.0128 13.614 14.4355 13.1166 14.4933L13 14.5H1C0.447715 14.5 0 14.0523 0 13.5C0 12.9872 0.38604 12.5645 0.883379 12.5067L1 12.5ZM1 6.5H19C19.5523 6.5 20 6.94772 20 7.5C20 8.01284 19.614 8.43551 19.1166 8.49327L19 8.5H1C0.447715 8.5 0 8.05228 0 7.5C0 6.98716 0.38604 6.56449 0.883379 6.50673L1 6.5ZM1 0.5H16C16.5523 0.5 17 0.947715 17 1.5C17 2.01284 16.614 2.43551 16.1166 2.49327L16 2.5H1C0.447715 2.5 0 2.05228 0 1.5C0 0.987164 0.38604 0.564493 0.883379 0.506728L1 0.5Z" fill="white"/>
</svg>
