<svg width="138" height="54" viewBox="0 0 138 54" fill="none" xmlns="http://www.w3.org/2000/svg">
<g clip-path="url(#clip0_2325_1289)">
<path d="M41.3565 2.19531C39.9893 2.54687 38.8077 3.23047 37.8409 4.20703C37.3526 4.70508 36.6983 5.59375 36.5616 5.94531C36.503 6.08203 35.2628 6.10156 23.6124 6.10156H10.7218L10.1749 5.52539C9.50107 4.83203 8.60263 4.23633 7.78232 3.95312C6.94247 3.66016 5.37021 3.58203 4.45224 3.79687C2.41122 4.27539 0.682709 5.97461 0.145599 8.01562C-0.0497132 8.75781 -0.0399476 10.252 0.155365 11.0137C0.770599 13.3965 2.9581 15.2031 5.41904 15.3594C7.19638 15.4668 8.63193 14.9297 9.96982 13.6504L10.7608 12.8887H13.2706C14.6476 12.8887 20.4288 12.8984 26.1319 12.9082L36.4835 12.9375L36.7081 13.3281C37.3429 14.4707 38.5343 15.5449 39.8917 16.209C41.1808 16.8535 41.796 16.9902 43.3585 16.9902C44.462 16.9902 44.794 16.9512 45.4093 16.7559C47.2647 16.1797 48.6905 15.0762 49.6573 13.4746C49.921 13.0254 49.9991 12.8008 49.9991 12.4199C49.9991 11.8047 49.6768 11.3359 49.1397 11.1797C48.9347 11.1211 47.6358 11.082 46.0733 11.082H43.3585V9.4707V7.85937H46.2393C49.4132 7.85937 49.5597 7.83984 49.8526 7.27344C50.1065 6.78516 50.0382 6.20898 49.6573 5.56445C48.6319 3.86523 47.0401 2.69336 45.0772 2.19531C44.0518 1.9414 42.3331 1.93164 41.3565 2.19531ZM44.628 3.9043C45.5558 4.14844 46.5616 4.72461 47.255 5.41797L47.8995 6.05273L45.3604 6.10156C42.5968 6.15039 42.4405 6.18945 42.0011 6.74609C41.6397 7.20508 41.5811 7.61523 41.6202 9.72461C41.6495 11.707 41.6495 11.7363 41.9132 12.127C42.3624 12.8105 42.5186 12.8398 45.3507 12.8398C47.0011 12.8398 47.8507 12.8789 47.8507 12.9375C47.8507 13.1426 46.5909 14.2754 46.0343 14.5684C44.9991 15.1055 44.4913 15.2324 43.3097 15.2324C42.1573 15.2227 41.6495 15.1152 40.6925 14.6465C39.6378 14.1289 38.8761 13.3965 38.0558 12.1172C37.4405 11.1602 37.1866 11.0918 34.5011 11.082H32.5186V9.4707V7.85937H34.7452C37.3136 7.85937 37.4308 7.83008 37.9581 7.01953C39.1788 5.13476 40.1456 4.36328 41.796 3.91406C42.4893 3.72851 43.9444 3.71875 44.628 3.9043ZM7.54794 5.79883C8.00693 6.01367 8.42685 6.32617 8.8956 6.79492C9.90146 7.82031 10.0284 7.85937 12.2843 7.85937H14.1593V9.46094V11.0625L12.2843 11.1016C10.0284 11.1602 9.96005 11.1797 8.87607 12.2148C7.9288 13.123 7.15732 13.5039 6.16122 13.5918C4.44247 13.7383 2.83115 12.7617 2.07919 11.1211C1.72763 10.3594 1.64951 9.10937 1.90341 8.33789C2.32333 7.03906 3.2706 6.07226 4.5499 5.61328C5.00888 5.45703 5.30185 5.41797 6.00497 5.44726C6.75693 5.47656 6.98154 5.52539 7.54794 5.79883ZM30.7608 9.4707V11.082H23.339H15.9171V9.4707V7.85937H23.339H30.7608V9.4707Z" fill="#007BFF"/>
<path d="M4.73633 7.20523C3.80859 7.65445 3.33008 8.44547 3.32031 9.52945C3.32031 10.0275 3.37891 10.2814 3.57422 10.6818C4.35547 12.2443 6.5625 12.5177 7.71484 11.2091C8.63281 10.1642 8.58398 8.64078 7.60742 7.68375C7.13867 7.22476 6.66992 7.03922 5.9082 7.00016C5.3418 6.98062 5.13672 7.00992 4.73633 7.20523ZM6.38672 9.04117C6.66992 9.3732 6.67969 9.41227 6.54297 9.75406C6.41602 10.0959 6.01562 10.34 5.71289 10.2619C5.08789 10.1056 4.87305 9.42203 5.32227 8.98258C5.66406 8.64078 6.06445 8.66031 6.38672 9.04117Z" fill="#007BFF"/>
<path d="M10.6934 16.2773C10.1465 16.4629 9.78516 16.834 7.16797 19.8223L4.57031 22.8008H3.33984C1.91406 22.8008 1.48438 22.9473 1.07422 23.5527C0.839844 23.9043 0.830078 23.9531 0.800781 25.9551C0.771484 27.9668 0.761719 28.0059 0.546875 28.1816C0.0976562 28.5332 0 28.9238 0 30.3984C0 31.6484 0.0195312 31.7852 0.224609 32.0781C0.703125 32.791 0.761719 32.8105 3.02734 32.8398L5.05859 32.8691L5.11719 33.2402C5.27344 34.2363 6.37695 35.75 7.37305 36.3262C8.00781 36.707 8.86719 36.9609 9.66797 37.0293C10.5469 37.0977 11.7773 36.8242 12.4902 36.4043C13.5645 35.7793 14.4824 34.627 14.8047 33.5039L14.9902 32.8594H15.791H16.6016V33.8652C16.6016 35.0859 16.8066 35.6035 17.4414 35.9551C17.793 36.1602 17.9492 36.1797 19.3164 36.1797H20.8008V41.5508V46.9121L16.377 46.9414L11.9531 46.9707L11.5527 47.2344C10.9863 47.6055 10.8105 48.0547 10.7617 49.207C10.6934 50.7402 10.8984 51.3555 11.6309 51.7949C11.9629 52 11.9824 52 24.9902 52H38.0078L38.3789 51.7949C38.584 51.6777 38.8477 51.4043 38.9746 51.1797C39.1895 50.8184 39.209 50.6621 39.209 49.5098C39.209 48.0254 39.082 47.6543 38.4473 47.2344L38.0469 46.9707L33.623 46.9414L29.1992 46.9121V41.5508V36.1797H30.6641C32.3633 36.1797 32.7246 36.0723 33.1152 35.4277C33.3203 35.1055 33.3496 34.9004 33.3887 33.9531L33.418 32.8594H34.2285H35.0391L35.1074 33.2207C35.2832 34.1973 36.2109 35.5254 37.168 36.1895C37.4023 36.3457 37.8906 36.5996 38.252 36.7363C38.8086 36.9512 39.0723 37 39.9414 37C41.0645 37.0098 41.6406 36.8633 42.5391 36.3652C43.6035 35.7695 44.7168 34.2754 44.8828 33.2402L44.9414 32.8691L46.9727 32.8398C49.2383 32.8105 49.2969 32.791 49.7852 32.0781C49.9805 31.7852 50 31.6484 50 30.3984C50 28.9238 49.9023 28.5332 49.4531 28.1816C49.2285 28.0059 49.2188 27.9375 49.2188 26.8828C49.2188 25.5547 49.0625 24.959 48.584 24.3926C47.9004 23.5918 47.9883 23.6016 41.7676 23.1816C38.7109 22.9766 36.1621 22.7715 36.0938 22.7227C36.0352 22.6738 34.2285 21.2285 32.0703 19.5098C29.9219 17.791 28.0176 16.3359 27.832 16.2773C27.4023 16.1211 11.1328 16.1211 10.6934 16.2773ZM16.6016 20.3594V22.8008H11.8164C9.18945 22.8008 7.03125 22.7812 7.03125 22.7422C7.03125 22.6836 10.2637 18.9727 10.8789 18.3281L11.2695 17.918H13.9355H16.6016V20.3594ZM30.0781 20.2227C31.6602 21.4824 33.0273 22.5859 33.1055 22.6641C33.2227 22.7812 32.2559 22.8008 25.8008 22.8008H18.3594V20.3594V17.918H22.7832H27.1973L30.0781 20.2227ZM41.6406 24.9395L47.002 25.3008L47.2266 25.5742C47.4414 25.8184 47.4609 25.9258 47.4609 26.8145V27.7812H46.9629C46.1621 27.7812 45.8105 28.0645 45.8008 28.6895C45.8008 28.9531 45.8691 29.1289 46.0449 29.2949C46.2598 29.5195 46.3477 29.5391 47.2656 29.5391H48.2422V30.3203V31.1016H46.5918H44.9414L44.873 30.7305C44.6875 29.7148 43.7598 28.4258 42.7344 27.7617C41.084 26.6973 38.75 26.7266 37.1289 27.8398C36.8457 28.0449 36.4355 28.4062 36.2109 28.6504C35.7812 29.1289 35.1953 30.2617 35.0977 30.7793L35.0391 31.1016H25H14.9609L14.8438 30.6328C14.4336 29.002 12.8809 27.4883 11.2305 27.1074C10.4883 26.9316 9.16992 26.9805 8.47656 27.1953C6.875 27.6836 5.40039 29.2461 5.12695 30.7305L5.05859 31.1016H3.4082H1.75781V30.3203V29.5391H2.73438C3.65234 29.5391 3.74023 29.5195 3.95508 29.2949C4.13086 29.1289 4.19922 28.9531 4.19922 28.6895C4.18945 28.0645 3.83789 27.7812 3.03711 27.7812H2.53906V26.1699V24.5586L19.4141 24.5684H36.2793L41.6406 24.9395ZM11.1719 28.9531C11.8848 29.2266 12.6074 29.9199 12.959 30.6621C13.3203 31.4336 13.3496 32.5566 13.0176 33.2695C12.7246 33.9238 11.9922 34.666 11.3379 34.9785C10.5664 35.3496 9.47266 35.3594 8.68164 34.9883C8.00781 34.6758 7.42188 34.1094 7.06055 33.4258C6.82617 32.9766 6.78711 32.8008 6.78711 32.0293C6.78711 31.2676 6.82617 31.082 7.06055 30.5938C7.39258 29.9102 8.13477 29.2266 8.81836 28.9629C9.50195 28.6992 10.4785 28.6992 11.1719 28.9531ZM41.1523 28.9629C41.8652 29.2266 42.5977 29.9004 42.9395 30.5938C43.1738 31.0723 43.2129 31.2676 43.2129 31.9805C43.2129 32.6738 43.1738 32.8984 42.9492 33.3672C42.6367 34.041 42.0508 34.627 41.3281 34.9785C40.8594 35.2129 40.6543 35.252 39.9902 35.2422C39.0137 35.2422 38.3203 34.9395 37.6562 34.2266C36.9629 33.4941 36.7676 32.9863 36.7676 31.9805C36.7773 31.2285 36.8066 31.0918 37.1094 30.5352C37.9199 29.0215 39.5898 28.377 41.1523 28.9629ZM31.6406 33.6406V34.4219H25H18.3594V33.6406V32.8594H25H31.6406V33.6406ZM24.1211 40.5254V44.8809L24.3652 45.1152C24.5215 45.2812 24.707 45.3594 24.9414 45.3594C25.8984 45.3594 25.8789 45.4473 25.8789 40.4277V36.1797H26.6602H27.4414V41.5508V46.9219H25H22.5586V41.5508V36.1797H23.3398H24.1211V40.5254ZM37.4023 49.4609V50.2422H24.9512H12.5V49.4609V48.6797H24.9512H37.4023V49.4609Z" fill="white"/>
<path d="M20.2422 26.3555C20.0273 26.541 19.9688 26.668 19.9688 27C19.9688 27.332 20.0273 27.459 20.2422 27.6445C20.4961 27.8594 20.5938 27.8789 21.6875 27.8789C22.8008 27.8789 22.8691 27.8691 23.0938 27.6348C23.4355 27.3027 23.4355 26.6973 23.0938 26.3652C22.8691 26.1309 22.8008 26.1211 21.6875 26.1211C20.5938 26.1211 20.4961 26.1406 20.2422 26.3555Z" fill="white"/>
</g>
<path d="M84.28 42H63.24V37.24L77.68 17.48H63.56V12.76H84.04V17.32L69.48 37.28H84.28V42ZM89.6756 18.28C87.9956 18.28 86.6756 16.96 86.6756 15.32C86.6756 13.68 87.9956 12.4 89.6756 12.4C91.2756 12.4 92.5956 13.68 92.5956 15.32C92.5956 16.96 91.2756 18.28 89.6756 18.28ZM87.2356 42V22.24H92.1156V42H87.2356ZM103.077 42H98.1975V26.32H94.3975V22.24H98.1975V16.08H103.077V22.24H106.918V26.32H103.077V42ZM114.914 42.52C110.714 42.52 108.154 40.08 108.154 36.36C108.154 32.72 110.794 30.44 115.474 30.08L121.394 29.64V29.2C121.394 26.52 119.794 25.44 117.314 25.44C114.434 25.44 112.834 26.64 112.834 28.72H108.674C108.674 24.44 112.194 21.64 117.554 21.64C122.874 21.64 126.154 24.52 126.154 30V42H121.874L121.514 39.08C120.674 41.12 117.994 42.52 114.914 42.52ZM116.514 38.84C119.514 38.84 121.434 37.04 121.434 34V32.96L117.314 33.28C114.274 33.56 113.114 34.56 113.114 36.16C113.114 37.96 114.314 38.84 116.514 38.84ZM132.588 18.28C130.948 18.28 129.628 16.96 129.628 15.32C129.628 13.68 130.948 12.4 132.588 12.4C134.188 12.4 135.548 13.68 135.548 15.32C135.548 16.96 134.188 18.28 132.588 18.28ZM125.428 51.28L126.228 46.96C126.908 47.16 127.308 47.2 127.908 47.2C129.588 47.2 130.148 46.24 130.148 44.24V22.24H135.028V44.8C135.028 49 132.628 51.72 128.348 51.72C127.428 51.72 126.708 51.64 125.428 51.28Z" fill="white"/>
<defs>
<clipPath id="clip0_2325_1289">
<rect width="50" height="50" fill="white" transform="translate(0 2)"/>
</clipPath>
</defs>
</svg>
