<svg width="65" height="64" viewBox="0 0 65 64" fill="none" xmlns="http://www.w3.org/2000/svg">
<rect x="0.171875" width="64" height="64" rx="32" fill="#E2F0FF"/>
<path d="M33.4647 41.7071C33.2772 41.5196 33.1719 41.2652 33.1719 41C33.1719 40.7348 33.2772 40.4805 33.4647 40.2929L40.7577 33H21.1719C20.9067 33 20.6523 32.8947 20.4648 32.7071C20.2772 32.5196 20.1719 32.2652 20.1719 32C20.1719 31.7348 20.2772 31.4805 20.4648 31.2929C20.6523 31.1054 20.9067 31 21.1719 31H40.7577L33.4647 23.7071C33.3719 23.6143 33.2982 23.504 33.248 23.3827C33.1977 23.2613 33.1718 23.1313 33.1719 23C33.1719 22.8687 33.1977 22.7386 33.248 22.6173C33.2983 22.496 33.3719 22.3857 33.4648 22.2929C33.5576 22.2 33.6679 22.1264 33.7892 22.0761C33.9106 22.0259 34.0406 22 34.1719 22C34.3032 22 34.4333 22.0259 34.5546 22.0761C34.6759 22.1264 34.7862 22.2001 34.879 22.2929L43.879 31.2929C43.8823 31.2962 43.885 31.2998 43.8882 31.3031C43.9079 31.3233 43.9271 31.3441 43.9451 31.366C43.9551 31.3782 43.9639 31.3911 43.9732 31.4037C43.9834 31.4173 43.9939 31.4306 44.0034 31.4447C44.0131 31.4592 44.0215 31.4743 44.0305 31.4893C44.0382 31.5023 44.0465 31.5151 44.0537 31.5286C44.0617 31.5436 44.0685 31.5591 44.0758 31.5744C44.0825 31.5887 44.0896 31.6027 44.0957 31.6173C44.1018 31.6321 44.1068 31.6472 44.1121 31.6623C44.1178 31.678 44.1238 31.6936 44.1287 31.7097C44.1332 31.7247 44.1366 31.7399 44.1404 31.755C44.1445 31.7715 44.1492 31.7879 44.1525 31.8047C44.1559 31.8221 44.158 31.8397 44.1605 31.8572C44.1626 31.872 44.1654 31.8864 44.1669 31.9013C44.1701 31.9342 44.1719 31.9671 44.1719 32C44.1719 32.033 44.1701 32.0659 44.1669 32.0987C44.1654 32.1136 44.1626 32.1281 44.1605 32.1428C44.158 32.1604 44.1559 32.1779 44.1525 32.1954C44.1492 32.2122 44.1445 32.2285 44.1404 32.245C44.1366 32.2602 44.1332 32.2754 44.1287 32.2903C44.1238 32.3064 44.1178 32.322 44.1121 32.3378C44.1068 32.3528 44.1018 32.3679 44.0957 32.3827C44.0896 32.3973 44.0825 32.4113 44.0758 32.4256C44.0685 32.4409 44.0617 32.4564 44.0537 32.4715C44.0465 32.4849 44.0382 32.4977 44.0305 32.5108C44.0215 32.5257 44.0131 32.5409 44.0034 32.5554C43.9939 32.5695 43.9834 32.5828 43.9732 32.5963C43.9639 32.6089 43.9551 32.6219 43.9451 32.6341C43.9268 32.6563 43.9073 32.6775 43.8871 32.6981C43.8843 32.701 43.8819 32.7042 43.879 32.7071L34.879 41.7071C34.7862 41.8 34.6759 41.8736 34.5546 41.9239C34.4333 41.9742 34.3032 42 34.1719 42C34.0405 42 33.9105 41.9742 33.7892 41.9239C33.6678 41.8736 33.5576 41.8 33.4647 41.7071Z" fill="#007BFF"/>
</svg>
