<svg width="30" height="31" viewBox="0 0 30 31" fill="none" xmlns="http://www.w3.org/2000/svg">
<path fill-rule="evenodd" clip-rule="evenodd" d="M14.8407 7.15699C19.6897 7.15699 23.6211 11.0884 23.6211 15.9384C23.6211 20.7884 19.6897 24.7187 14.8407 24.7187C9.99183 24.7187 6.06153 20.7873 6.06153 15.9384C6.06153 11.0895 9.99293 7.15699 14.8407 7.15699ZM13.8516 5.70904C13.1513 6.0906 11.8875 6.41702 11.0428 6.83939C3.32554 10.6925 2.90538 19.3537 9.39523 24.089C11.6978 25.7697 10.4726 24.6691 12.0992 24.7286C15.0845 24.84 13.5858 29.5434 11.0858 28.005C10.4418 27.6091 10.5366 27.2595 10.1859 26.8471C9.75142 26.3354 3.14578 23.6314 3.16343 15.7961C3.17776 9.83453 7.10917 5.86563 11.8985 4.54451L11.9184 1.21743C8.39721 1.48099 4.45589 4.79153 3.10057 6.66625C-4.57255 17.2717 2.84032 31.0718 16.0814 30.5215C16.1376 25.2514 15.595 26.4038 17.7576 25.5425C19.5099 24.8433 21.3515 23.6667 22.505 22.3863C26.668 17.7657 25.5906 11.9827 20.9082 8.08222C18.0906 5.73551 19.2739 7.6389 17.3154 7.05663C15.8807 6.62986 15.7803 4.43643 17.1599 3.79352C17.8646 3.46489 18.6795 3.65898 19.1449 4.11112C19.9091 4.85439 19.2 4.79815 20.391 5.4554C29.6863 10.5789 28.7743 24.3239 18.0388 27.3323L18.0223 30.1995C21.6405 29.7275 24.9323 26.8294 26.5026 24.883C28.4832 22.4305 30.1109 18.3689 29.5827 14.1045C28.706 7.02135 22.6661 0.72228 14.8275 0.904238L13.8516 0.924088L13.8527 5.71014H13.8516V5.70904Z" fill="url(#paint0_linear_886_268)"/>
<path fill-rule="evenodd" clip-rule="evenodd" d="M7.55916 19.0075L9.49895 17.897C9.61033 17.8309 9.70076 17.7824 9.82206 17.7151C9.94116 17.6489 10.0448 17.5673 10.1716 17.5265C10.1341 17.2663 10.015 17.0082 9.9555 16.5075C9.90918 16.115 9.90918 15.718 9.95771 15.3276C10.047 14.603 10.2731 14.0053 10.5786 13.4573C10.948 12.7934 11.4895 12.2508 12.0486 11.8505C12.1776 11.7579 12.3033 11.6829 12.4401 11.6046C12.7213 11.4447 12.976 11.3322 13.3024 11.2197C15.3492 10.5184 17.3849 11.2263 18.716 12.757C18.9917 13.0735 19.4802 13.8355 19.5993 14.3604L12.9539 18.1926C13.2848 18.4992 13.6928 18.7043 14.1372 18.8201C14.6699 18.959 15.2543 18.9491 15.7738 18.7859C16.2998 18.6205 17.6209 17.8143 18.148 17.4989C19.2254 16.8527 20.5179 16.1293 21.6328 15.4908C21.8203 15.3827 22.6871 14.9085 22.7753 14.8148C22.6529 13.4319 21.9273 12.049 21.1906 11.0532C21.0285 10.8349 20.8565 10.6496 20.6932 10.4632C20.4573 10.193 19.8518 9.68025 19.5441 9.4641C14.274 5.76428 7.36066 9.33287 6.95043 15.3717C6.90521 16.0422 6.94161 16.7105 7.05961 17.3589C7.13129 17.7526 7.37831 18.7385 7.56026 19.0075L7.55916 19.0086V19.0075Z" fill="url(#paint1_linear_886_268)"/>
<path fill-rule="evenodd" clip-rule="evenodd" d="M15.0415 20.8962C14.0798 20.8962 13.4435 20.7771 12.6231 20.3636C11.6636 19.8806 11.3174 19.3391 11.1409 19.231L9.83193 19.9787C9.61027 20.1166 8.62329 20.6525 8.52734 20.7418C9.23753 21.7277 10.4737 22.761 11.9327 23.3345C13.5847 23.9851 15.3282 24.0667 17.1114 23.5716C19.6224 22.8757 21.6581 20.8345 22.4532 18.3543C22.5315 18.1084 22.7377 17.3828 22.7256 17.1335L17.2834 20.2676C16.6967 20.5996 15.8388 20.8951 15.0403 20.8951H15.0415V20.8962Z" fill="url(#paint2_linear_886_268)"/>
<path fill-rule="evenodd" clip-rule="evenodd" d="M11.9451 16.4611C12.0642 16.4291 12.4237 16.2009 12.5604 16.1204L15.5898 14.3747C15.7949 14.2589 15.9846 14.142 16.1941 14.024C16.3882 13.9148 16.6385 13.7869 16.8138 13.6612C16.3242 13.2928 15.9901 13.0535 15.2567 12.9642C13.6555 12.769 12.2097 13.8475 11.9363 15.3881C11.8877 15.6583 11.8458 16.2185 11.9462 16.4611H11.9451Z" fill="url(#paint3_linear_886_268)"/>
<defs>
<linearGradient id="paint0_linear_886_268" x1="29.6833" y1="15.7189" x2="0" y2="15.7189" gradientUnits="userSpaceOnUse">
<stop stop-color="#141517"/>
<stop offset="1" stop-color="#6A9113"/>
</linearGradient>
<linearGradient id="paint1_linear_886_268" x1="22.7753" y1="13.4845" x2="6.93164" y2="13.4845" gradientUnits="userSpaceOnUse">
<stop stop-color="#141517"/>
<stop offset="1" stop-color="#6A9113"/>
</linearGradient>
<linearGradient id="paint2_linear_886_268" x1="22.7261" y1="20.5123" x2="8.52734" y2="20.5123" gradientUnits="userSpaceOnUse">
<stop stop-color="#141517"/>
<stop offset="1" stop-color="#6A9113"/>
</linearGradient>
<linearGradient id="paint3_linear_886_268" x1="16.8138" y1="14.7013" x2="11.8848" y2="14.7013" gradientUnits="userSpaceOnUse">
<stop stop-color="#141517"/>
<stop offset="1" stop-color="#6A9113"/>
</linearGradient>
</defs>
</svg>
