<svg width="68" height="50" viewBox="0 0 68 50" fill="none" xmlns="http://www.w3.org/2000/svg">
<path fill-rule="evenodd" clip-rule="evenodd" d="M25.4601 24.2022H28.1332C28.1574 24.0981 28.2772 23.8899 28.3276 23.7891L29.3412 21.7643C29.4318 21.5918 29.3848 21.5928 29.2465 21.3636L27.6334 18.6754C27.5522 18.5402 27.4812 18.4221 27.4055 18.2957L27.2048 17.9619C27.1864 17.9361 27.1756 17.9252 27.1612 17.9084V22.0153H26.4322V17.9084C26.4171 17.9259 26.4243 17.9138 26.3989 17.9479L26.1969 18.2807C26.1166 18.4153 26.0468 18.5306 25.9691 18.6605L24.2542 21.5149C24.197 21.6073 24.1842 21.6302 24.2347 21.7322L25.2576 23.7732C25.3135 23.8848 25.4352 24.0958 25.4601 24.2026V24.2022Z" fill="#1B1B1B"/>
<path fill-rule="evenodd" clip-rule="evenodd" d="M24.2446 26.3886H29.3478V24.9307H24.2446V26.3886Z" fill="#1B1B1B"/>
<path fill-rule="evenodd" clip-rule="evenodd" d="M16.5804 30.2981L17.3932 31.2076C17.5335 31.362 17.6854 31.4975 17.8261 31.6333C18.0213 31.8218 18.183 31.9347 18.2558 32.0905C18.4081 32.1293 18.9807 32.6692 19.1724 32.8123C20.2358 33.6065 21.264 34.0935 22.4854 34.6043C23.1511 34.8827 24.4078 35.2149 25.2063 35.2812C25.662 35.319 26.0131 35.429 26.7421 35.437C27.9912 35.4506 28.5981 35.3934 29.7943 35.1311C31.4862 34.7604 32.0609 34.5425 33.5706 33.7382C34.3112 33.3436 34.9352 32.8611 35.558 32.3436C35.8453 32.1049 37.0604 30.8536 37.178 30.5307C37.1877 30.4154 36.4101 29.4301 36.2477 29.2019L33.4958 25.4488C33.3915 25.3241 33.4534 25.3569 33.291 25.3062C33.1253 25.4158 32.9662 25.7784 32.866 25.9567L32.7638 26.1216C32.0427 26.9984 31.7305 27.3341 30.7277 28.0115C28.4095 29.5774 25.0662 29.3756 22.7769 27.5414C22.2249 27.099 21.9086 26.7671 21.498 26.2009C20.6619 25.0479 20.2101 23.7149 20.2076 22.2202C20.2048 20.6648 20.5987 19.3949 21.432 18.1761C21.6287 17.8883 21.8422 17.636 22.0139 17.4464C23.1554 16.1852 24.7044 15.4861 26.4128 15.2784C28.1324 15.0693 29.9748 15.6732 31.0669 16.497C31.1826 16.5843 31.3389 16.7155 31.4429 16.7967C32.0463 17.2678 32.5111 17.8921 32.9495 18.5398C33.0533 18.6931 33.111 18.8339 33.2032 18.9719L35.3338 22.0733C35.8712 22.9194 38.9392 27.1727 39.7447 28.1418L42.7352 31.6995C42.9368 31.9131 43.1477 32.1167 43.4048 32.3434C43.8625 32.747 44.196 33.128 44.9471 33.4096C46.2485 33.8976 48.3442 33.953 49.6726 33.7339C50.0733 33.6677 50.456 33.6604 50.8459 33.5909C51.5023 33.4738 53.5093 33.0883 53.9188 32.6531C53.8942 32.2416 52.2483 27.3485 52.1699 27.2292C51.4542 27.3654 50.9471 27.8964 49.3697 27.945C48.3923 27.9751 47.3415 27.8207 46.6751 27.1299C46.244 26.683 43.9895 23.8282 43.5603 23.2377C43.1872 22.7243 42.4601 21.894 42.0159 21.3118C41.0106 19.9938 39.858 18.6609 38.9319 17.3924C38.8666 17.3028 37.4969 15.5527 37.4912 15.4551C37.3345 15.3829 37.2082 15.1688 37.1047 15.0231C37.0039 14.8812 36.8821 14.767 36.7727 14.6297C36.5939 14.4051 36.2499 14.0593 36.1323 13.775C35.9414 13.6405 35.5695 13.1235 35.4224 12.9525C33.1901 10.3591 31.9048 9.25314 28.1894 8.90599C25.9524 8.69683 23.3012 9.16341 21.5007 10.1123C20.3582 10.7144 20.4755 10.6111 19.4433 11.3051C19.1927 11.4736 18.7833 11.7478 18.5159 12.006C18.2582 12.2548 17.991 12.489 17.6989 12.7702C17.4378 13.0215 17.1641 13.3205 16.9178 13.6164C15.3995 15.4424 14.2656 17.7851 13.9374 20.2876C13.6784 22.2622 13.8526 24.375 14.4034 26.0776C15.261 28.7287 16.4358 29.9312 16.5804 30.2981Z" fill="#1B1B1B"/>
<path fill-rule="evenodd" clip-rule="evenodd" d="M35.9778 7.55713L39.2568 11.7438C39.3254 11.8333 39.4365 11.94 39.4993 12.0294L39.6043 12.1589C39.6538 12.2168 39.6743 12.2364 39.7325 12.3016L40.2044 12.9198C40.3481 13.1858 40.3502 13.046 40.4494 13.2634C40.6782 13.3817 43.0821 16.6051 43.7535 17.4049L44.8532 18.8014C45.0114 18.8551 45.435 19.4157 45.5823 19.6125C45.6279 19.3419 45.6104 14.2268 45.5963 13.3688C45.5858 12.7416 45.5259 12.9003 47.4274 12.9003C49.1272 12.9003 51.2171 12.9498 52.8292 12.8967C52.943 12.5764 52.8677 8.16105 52.8688 7.43356C50.9169 7.38562 48.5941 7.43107 46.5692 7.43024C46.3523 7.43024 45.8671 7.50073 45.7361 7.38015C45.5075 7.17497 45.7661 0.917495 45.6565 0.0126939L39.2862 -0.000244141C39.1409 0.718621 39.4134 7.19952 39.1951 7.39076C39.1868 7.3969 39.1718 7.39242 39.1671 7.40403L38.8483 7.43289C38.7113 7.43256 38.5776 7.43356 38.4396 7.43173L36.0007 7.43356C35.954 7.50123 35.9743 7.42775 35.9777 7.55729L35.9778 7.55713Z" fill="#1B1B1B"/>
<path d="M5.82008 44.3571L5.69618 45.7151C5.42565 45.7998 5.20389 45.865 5.03106 45.9091C4.52234 46.0428 4.01861 46.1097 3.51819 46.1097C2.49927 46.1097 1.67757 45.8048 1.04993 45.1967C0.712393 44.869 0.453146 44.4891 0.272185 44.0556C0.0912251 43.6218 0 43.167 0 42.6893C0 41.9948 0.182617 41.3705 0.549347 40.8162C0.890037 40.301 1.33191 39.9195 1.87644 39.675C2.37521 39.4452 2.92472 39.331 3.523 39.331C3.95674 39.331 4.45069 39.3735 5.00817 39.4583C5.10271 39.4714 5.17934 39.4778 5.2364 39.4778C5.37341 39.4778 5.49399 39.4062 5.59517 39.2627V40.8293C5.44838 40.6206 5.30988 40.4707 5.17934 40.381C4.77181 40.1055 4.28118 39.967 3.70728 39.967C3.27354 39.967 2.87264 40.0582 2.50408 40.2408C2.13719 40.4251 1.83896 40.6777 1.61388 41.0021C1.31382 41.4423 1.16388 41.9869 1.16388 42.6389C1.16388 43.4833 1.40356 44.1486 1.88126 44.6344C2.32959 45.0893 2.936 45.3175 3.69733 45.3175C4.17834 45.3175 4.63629 45.2067 5.06838 44.9849C5.30805 44.861 5.48736 44.7388 5.60462 44.6182C5.65837 44.5645 5.73019 44.478 5.81992 44.3575L5.82008 44.3571Z" fill="#1B1B1B"/>
<path d="M8.83622 41.0325C9.56321 41.0325 10.1502 41.2657 10.6002 41.7303C11.0583 42.2046 11.2882 42.8029 11.2882 43.522C11.2882 44.2489 11.0454 44.8587 10.5579 45.3526C10.0786 45.8368 9.49172 46.0798 8.79392 46.0798C8.40596 46.0798 8.04072 45.9983 7.70169 45.8336C7.36266 45.6689 7.07571 45.4376 6.83919 45.1375C6.47892 44.6794 6.29962 44.1348 6.29962 43.504C6.29962 42.9676 6.44144 42.4851 6.72507 42.0547C7.17341 41.3732 7.87768 41.0325 8.83622 41.0325ZM8.80354 41.7074C8.32585 41.7074 7.93788 41.9079 7.63949 42.3106C7.39169 42.6465 7.26779 43.0557 7.26779 43.5366C7.26779 44.0355 7.39981 44.4657 7.66404 44.831C7.95265 45.2271 8.3227 45.4244 8.77419 45.4244C9.01386 45.4244 9.24044 45.3641 9.45888 45.2418C9.67733 45.1211 9.85829 44.9549 10.0051 44.7446C10.2154 44.4349 10.3197 44.0274 10.3197 43.5236C10.3197 43.0378 10.204 42.6253 9.97074 42.2863C9.70503 41.8998 9.31541 41.7075 8.80354 41.7075V41.7074Z" fill="#1B1B1B"/>
<path d="M15.9667 44.2108V42.0768C15.9667 41.8063 15.9488 41.6334 15.9145 41.5568C15.8639 41.4296 15.7629 41.3253 15.6129 41.2453C15.569 41.2209 15.4792 41.1818 15.3455 41.1312H17.3117C17.0852 41.2143 16.9287 41.304 16.839 41.4034C16.7688 41.48 16.7266 41.5696 16.7151 41.6708C16.6989 41.7636 16.6907 41.899 16.6907 42.0766V46.2208L13.1009 42.3963V45.0372C13.1009 45.311 13.1188 45.4839 13.1531 45.5572C13.2054 45.6875 13.3047 45.7919 13.4548 45.8685C13.4988 45.893 13.5885 45.932 13.7222 45.9826H11.756C11.9826 45.8995 12.1392 45.8098 12.2288 45.7104C12.2989 45.6338 12.3412 45.5441 12.3527 45.4431C12.3689 45.3502 12.3772 45.2148 12.3772 45.037V42.096C12.3739 41.783 12.3137 41.5613 12.1962 41.4276C12.0805 41.3087 11.8979 41.2108 11.6467 41.1309H13.0586L15.9671 44.2105L15.9667 44.2108Z" fill="#1B1B1B"/>
<path d="M20.3257 41.0367L20.4023 42.3881C20.2393 42.1778 20.1072 42.0295 20.0046 41.9431C19.7813 41.7622 19.5269 41.6709 19.2401 41.6709C19.0298 41.6709 18.8684 41.7232 18.7576 41.8292C18.6483 41.9302 18.5945 42.0493 18.5945 42.183C18.5945 42.3037 18.6353 42.4031 18.7153 42.483C18.7951 42.5661 18.906 42.6542 19.0495 42.7471L19.6543 43.1335C20.2265 43.5036 20.5118 43.9682 20.5118 44.529C20.5118 44.979 20.3423 45.3523 20.0047 45.6522C19.6819 45.9392 19.3053 46.0826 18.8717 46.0826C18.4788 46.0826 18.0762 46.0029 17.6653 45.8413V44.6185C18.0876 45.1125 18.5 45.3586 18.9027 45.3586C19.1293 45.3586 19.32 45.2755 19.4733 45.1092C19.5988 44.9755 19.6607 44.8303 19.6607 44.6739C19.6607 44.3789 19.4552 44.1 19.0429 43.8424L18.5439 43.531C18.0175 43.2032 17.7533 42.7892 17.7533 42.2888C17.7533 41.8861 17.9163 41.5649 18.2407 41.3221C18.4983 41.1314 18.8194 41.0352 19.2043 41.0352C19.3917 41.0352 19.6526 41.0693 19.9868 41.1378C20.0276 41.1476 20.0651 41.1524 20.096 41.1524C20.1351 41.1524 20.2117 41.1133 20.3258 41.0367H20.3257Z" fill="#1B1B1B"/>
<path d="M21.5578 45.037V42.0765C21.5578 41.8059 21.5399 41.6331 21.5057 41.5565C21.4551 41.4293 21.3557 41.3249 21.209 41.245C21.1617 41.2206 21.0705 41.1814 20.9368 41.1309H23.0691C22.8426 41.214 22.686 41.3037 22.5964 41.403C22.5264 41.4797 22.484 41.5692 22.4725 41.6704C22.4563 41.7633 22.448 41.8987 22.448 42.0763V45.0368C22.448 45.3107 22.4659 45.4835 22.5002 45.5568C22.5525 45.6872 22.6502 45.7915 22.797 45.8682C22.8442 45.8959 22.9355 45.935 23.0691 45.9823H20.9368C21.1633 45.8992 21.3199 45.8095 21.4095 45.7101C21.4795 45.6335 21.5219 45.5437 21.5334 45.4427C21.5496 45.3498 21.5578 45.2145 21.5578 45.0367V45.037Z" fill="#1B1B1B"/>
<path d="M27.114 44.2284C27.0276 44.7861 26.9689 45.3712 26.9362 45.9826H23.4622C23.6887 45.8995 23.8453 45.8098 23.9349 45.7104C24.0049 45.6338 24.0473 45.5441 24.0588 45.4431C24.075 45.3502 24.0832 45.2148 24.0832 45.037V42.0765C24.0832 41.8059 24.0652 41.6331 24.0311 41.5565C23.9805 41.4293 23.8811 41.3249 23.7343 41.245C23.6871 41.2206 23.5958 41.1814 23.4622 41.1309H25.5945C25.368 41.214 25.2114 41.3037 25.1218 41.403C25.0518 41.4797 25.0094 41.5692 24.9979 41.6704C24.9817 41.7633 24.9734 41.8987 24.9734 42.0763V44.719C24.9767 44.9358 25.0027 45.0776 25.05 45.1445C25.1071 45.2243 25.2162 45.2651 25.3792 45.2684H25.8374C26.2074 45.2651 26.496 45.1657 26.703 44.9685C26.871 44.799 27.0079 44.5528 27.1139 44.2282L27.114 44.2284Z" fill="#1B1B1B"/>
<path d="M27.9674 45.037V42.0765C27.9674 41.8059 27.9495 41.6331 27.9153 41.5565C27.8647 41.4293 27.7654 41.3249 27.6186 41.245C27.5713 41.2206 27.4801 41.1814 27.3464 41.1309H29.4788C29.2522 41.214 29.0956 41.3037 29.006 41.403C28.936 41.4797 28.8936 41.5692 28.8821 41.6704C28.8659 41.7633 28.8576 41.8987 28.8576 42.0763V45.0368C28.8576 45.3107 28.8755 45.4835 28.9098 45.5568C28.9621 45.6872 29.0598 45.7915 29.2066 45.8682C29.2538 45.8959 29.3451 45.935 29.4788 45.9823H27.3464C27.5729 45.8992 27.7295 45.8095 27.8191 45.7101C27.8891 45.6335 27.9315 45.5437 27.943 45.4427C27.9592 45.3498 27.9674 45.2145 27.9674 45.0367V45.037Z" fill="#1B1B1B"/>
<path d="M32.493 41.0325C33.22 41.0325 33.807 41.2657 34.257 41.7303C34.7152 42.2046 34.9451 42.8029 34.9451 43.522C34.9451 44.2489 34.7022 44.8587 34.2147 45.3526C33.7354 45.8368 33.1485 46.0798 32.4507 46.0798C32.0628 46.0798 31.6976 45.9983 31.3585 45.8336C31.0195 45.6689 30.7325 45.4376 30.496 45.1375C30.1358 44.6794 29.9565 44.1348 29.9565 43.504C29.9565 42.9676 30.0983 42.4851 30.3819 42.0547C30.8302 41.3732 31.5345 41.0325 32.493 41.0325ZM32.4604 41.7074C31.9827 41.7074 31.5947 41.9079 31.2963 42.3106C31.0485 42.6465 30.9246 43.0557 30.9246 43.5366C30.9246 44.0355 31.0566 44.4657 31.3209 44.831C31.6095 45.2271 31.9795 45.4244 32.431 45.4244C32.6707 45.4244 32.8973 45.3641 33.1157 45.2418C33.3342 45.1211 33.5151 44.9549 33.6619 44.7446C33.8722 44.4349 33.9766 44.0274 33.9766 43.5236C33.9766 43.0378 33.8608 42.6253 33.6276 42.2863C33.3619 41.8998 32.9722 41.7075 32.4604 41.7075V41.7074Z" fill="#1B1B1B"/>
<path d="M42.3083 42.6167C42.2985 42.7569 42.2935 42.907 42.2935 43.065C42.2935 43.2379 42.2985 43.4041 42.3083 43.5673C42.1273 43.4825 41.948 43.4401 41.7687 43.4401C41.7475 43.4401 41.7165 43.4434 41.679 43.4482C41.8535 43.6666 41.9416 43.9275 41.9416 44.2259C41.9416 44.7705 41.7133 45.2171 41.2552 45.5643C40.8444 45.8756 40.3454 46.0322 39.7603 46.0322C39.0543 46.0322 38.5279 45.809 38.1822 45.3638C37.9425 45.0639 37.8236 44.723 37.8236 44.3415C37.8236 43.9176 37.9606 43.5802 38.2361 43.3276C38.3192 43.2526 38.4366 43.1727 38.5882 43.0896C38.391 42.8499 38.2932 42.5794 38.2932 42.2777C38.2932 42.0609 38.3486 41.862 38.461 41.6827C38.572 41.5017 38.7267 41.3616 38.924 41.2587C39.1507 41.1413 39.4489 41.0828 39.819 41.0828C40.0228 41.0828 40.2477 41.1007 40.4939 41.1365V42.0103C40.2673 41.8489 40.0455 41.7673 39.8319 41.7673C39.6297 41.7673 39.4635 41.8375 39.3315 41.9776C39.219 42.0982 39.1635 42.2481 39.1635 42.4259C39.1635 42.7764 39.3721 43.0504 39.7911 43.2477C39.6085 43.2851 39.4504 43.3389 39.3167 43.409C38.9467 43.6031 38.7624 43.8688 38.7624 44.2062C38.7624 44.5046 38.888 44.7441 39.1374 44.9219C39.3332 45.0621 39.5791 45.1322 39.8727 45.1322C40.2461 45.1322 40.533 45.0214 40.7319 44.7997C40.8998 44.6122 40.9829 44.3969 40.9829 44.1558C40.9829 43.9617 40.9241 43.807 40.8084 43.6895C40.6878 43.5689 40.5524 43.5086 40.4008 43.5086C40.3536 43.5086 40.2557 43.5183 40.1074 43.5379C40.1303 43.3097 40.1416 43.1564 40.1416 43.0798C40.1416 43.0032 40.1286 42.8466 40.1024 42.6119C40.2328 42.6494 40.3257 42.6754 40.3796 42.6917C40.5835 42.7471 40.8442 42.7749 41.1622 42.7749C41.5191 42.7749 41.8289 42.7406 42.093 42.6723C42.1322 42.6625 42.2038 42.6446 42.3081 42.6169L42.3083 42.6167Z" fill="#1B1B1B"/>
<path d="M50.47 39.1968V40.9233C50.2858 40.4064 49.8849 40.1505 49.2653 40.1538H48.191V45.0331C48.191 45.3103 48.2089 45.4848 48.2433 45.5581C48.2955 45.6885 48.3932 45.7928 48.54 45.8694C48.5873 45.8971 48.6787 45.9363 48.8124 45.9835H46.5723C46.7989 45.9004 46.9553 45.8107 47.0451 45.7113C47.1152 45.6347 47.1575 45.545 47.169 45.444C47.1852 45.3511 47.1933 45.2141 47.1933 45.0331V40.1538H46.1728C45.7571 40.157 45.4522 40.2386 45.2582 40.3983C45.1276 40.5026 45.0202 40.6788 44.9337 40.9233V39.1968C45.051 39.2913 45.1538 39.3565 45.2434 39.3925C45.364 39.4365 45.5547 39.4593 45.8157 39.4593H49.5913C50.0021 39.4593 50.2955 39.3713 50.47 39.1969V39.1968Z" fill="#1B1B1B"/>
<path d="M51.849 43.7428V44.7178C51.8523 44.941 51.8815 45.0878 51.9354 45.158C51.9957 45.2427 52.1114 45.2852 52.2844 45.2884H52.7425C53.1142 45.285 53.4028 45.1857 53.6098 44.99C53.7778 44.8204 53.913 44.5743 54.019 44.2515C53.9293 44.8042 53.869 45.3812 53.8364 45.9828H50.4062C50.6328 45.8997 50.7894 45.81 50.879 45.7106C50.949 45.634 50.9914 45.5443 51.0029 45.4433C51.0191 45.3504 51.0273 45.2134 51.0273 45.0324V42.0767C51.0273 41.8062 51.0093 41.6333 50.9752 41.5567C50.9246 41.4295 50.8252 41.3251 50.6784 41.2452C50.6312 41.2208 50.5399 41.1817 50.4062 41.1311H53.1157C53.2983 41.1311 53.4351 41.0984 53.5232 41.0349C53.5705 41.0005 53.639 40.9239 53.7271 40.8066V42.4238C53.6471 42.2591 53.5542 42.1254 53.4466 42.0244C53.3129 41.9037 53.1776 41.8287 53.0422 41.7994C52.9395 41.7717 52.7781 41.7569 52.5564 41.7569H51.8488V43.0676H52.4748C52.7844 43.0642 53.0193 43.0236 53.1822 42.9437C53.3159 42.8768 53.4283 42.7562 53.5212 42.5817V44.2169C53.4479 44.0571 53.3615 43.943 53.2636 43.8712C53.1543 43.7979 53.0435 43.7587 52.9294 43.7523C52.8528 43.7458 52.7077 43.7425 52.4942 43.7425H51.8486L51.849 43.7428Z" fill="#1B1B1B"/>
<path d="M58.9962 44.4733L58.8771 45.7725C58.7468 45.8116 58.6685 45.8345 58.6439 45.8443C58.119 46.0026 57.6365 46.0807 57.1979 46.0807C56.4153 46.0807 55.7861 45.8541 55.3133 45.4025C54.7786 44.8954 54.5112 44.2744 54.5112 43.5375C54.5112 43.143 54.596 42.7713 54.7671 42.424C54.9367 42.0767 55.1763 41.7866 55.4845 41.555C55.9458 41.2077 56.518 41.0334 57.2027 41.0334C57.5615 41.0334 57.9478 41.0644 58.3618 41.1263C58.4253 41.136 58.4792 41.1409 58.5232 41.1409C58.5965 41.1409 58.6585 41.1148 58.7106 41.0611C58.7187 41.0529 58.7366 41.0317 58.7629 41.0007C58.7726 40.9909 58.7856 40.9763 58.8053 40.9551V42.4109C58.6439 42.1696 58.4744 41.9969 58.2951 41.8924C58.0229 41.731 57.7016 41.6496 57.3333 41.6496C57.0252 41.6496 56.7431 41.7131 56.484 41.8386C56.2248 41.9642 56.0161 42.1385 55.858 42.362C55.6446 42.6668 55.5386 43.0483 55.5386 43.5031C55.5386 44.0883 55.7081 44.5514 56.0488 44.8888C56.3601 45.2003 56.7872 45.3567 57.3303 45.3567C57.7638 45.3567 58.1682 45.2311 58.5399 44.9817C58.628 44.9246 58.7813 44.7551 58.9964 44.4729L58.9962 44.4733Z" fill="#1B1B1B"/>
<path d="M60.7537 43.0388H62.9643V42.077C62.9643 41.8064 62.9464 41.6336 62.9121 41.557C62.8615 41.4264 62.7621 41.3223 62.6154 41.2455C62.5681 41.2178 62.4769 41.1786 62.343 41.1314H64.4754C64.2488 41.2145 64.0922 41.3042 64.0027 41.4035C63.9325 41.4802 63.8902 41.5697 63.8788 41.6709C63.8625 41.7638 63.8542 41.8992 63.8542 42.0768V45.0373C63.8542 45.3112 63.8721 45.484 63.9065 45.5573C63.9587 45.6877 64.0564 45.792 64.2032 45.8687C64.2505 45.8964 64.3417 45.9355 64.4754 45.9828H62.343C62.5697 45.8997 62.7262 45.81 62.8157 45.7106C62.8859 45.634 62.9282 45.5442 62.9396 45.4432C62.9559 45.3503 62.964 45.215 62.964 45.0372V43.7819H60.7533V45.0372C60.7533 45.311 60.7712 45.4839 60.8056 45.5572C60.8578 45.6875 60.9555 45.7919 61.1023 45.8685C61.1496 45.8962 61.2408 45.9353 61.3745 45.9826H59.2421C59.4687 45.8995 59.6253 45.8098 59.7148 45.7104C59.7848 45.6338 59.8273 45.5441 59.8388 45.4431C59.855 45.3502 59.8631 45.2148 59.8631 45.037V42.0765C59.8631 41.8059 59.8452 41.6331 59.811 41.5565C59.7605 41.4293 59.6611 41.3249 59.5143 41.245C59.467 41.2206 59.3758 41.1814 59.2421 41.1309H61.3745C61.1479 41.214 60.9914 41.3037 60.9018 41.403C60.8318 41.4797 60.7893 41.5692 60.7779 41.6704C60.7616 41.7633 60.7533 41.8987 60.7533 42.0763V43.0382L60.7537 43.0388Z" fill="#1B1B1B"/>
<path d="M67.549 41.0367L67.6256 42.3881C67.4626 42.1778 67.3305 42.0295 67.2279 41.9431C67.0046 41.7622 66.7502 41.6709 66.4634 41.6709C66.2531 41.6709 66.0917 41.7232 65.9809 41.8292C65.8716 41.9302 65.8178 42.0493 65.8178 42.183C65.8178 42.3037 65.8586 42.4031 65.9386 42.483C66.0184 42.5661 66.1293 42.6542 66.2728 42.7471L66.8775 43.1335C67.4498 43.5036 67.7351 43.9682 67.7351 44.529C67.7351 44.979 67.5656 45.3523 67.228 45.6522C66.9052 45.9392 66.5286 46.0826 66.095 46.0826C65.702 46.0826 65.2995 46.0029 64.8886 45.8413V44.6185C65.3109 45.1125 65.7233 45.3586 66.126 45.3586C66.3526 45.3586 66.5433 45.2755 66.6966 45.1092C66.8221 44.9755 66.884 44.8303 66.884 44.6739C66.884 44.3789 66.6785 44.1 66.2662 43.8424L65.7672 43.531C65.2408 43.2032 64.9766 42.7892 64.9766 42.2888C64.9766 41.8861 65.1396 41.5649 65.464 41.3221C65.7216 41.1314 66.0427 41.0352 66.4276 41.0352C66.615 41.0352 66.8759 41.0693 67.2101 41.1378C67.2509 41.1476 67.2884 41.1524 67.3192 41.1524C67.3584 41.1524 67.435 41.1133 67.5491 41.0367H67.549Z" fill="#1B1B1B"/>
<path d="M0.256595 48.9863H0.545865C0.599606 48.9863 0.646047 48.9817 0.685523 48.9726C0.724833 48.9633 0.757678 48.9479 0.783553 48.926C0.809594 48.9042 0.828834 48.8749 0.84144 48.8379C0.854046 48.8011 0.860347 48.754 0.860347 48.6971C0.860347 48.6317 0.852053 48.5793 0.835135 48.5398C0.818382 48.5005 0.792675 48.4707 0.758341 48.4504C0.724006 48.4304 0.681542 48.4172 0.631284 48.4114C0.580861 48.4056 0.522312 48.4027 0.455136 48.4027H0.256429V48.9863H0.256595ZM0.256595 48.2015H0.535745C0.582685 48.2015 0.623823 48.1976 0.658987 48.19C0.694316 48.1826 0.724005 48.1683 0.748387 48.1474C0.772604 48.1265 0.790683 48.098 0.80246 48.0618C0.814236 48.0258 0.820043 47.9792 0.820043 47.9221C0.820043 47.8651 0.813737 47.8186 0.801131 47.7825C0.788526 47.7465 0.769285 47.718 0.743244 47.6969C0.717203 47.676 0.684196 47.6612 0.643891 47.6529C0.603585 47.6446 0.554989 47.6403 0.497931 47.6403C0.455967 47.6403 0.412342 47.642 0.36706 47.6453C0.321779 47.6486 0.284792 47.6529 0.256429 47.6579V48.2013L0.256595 48.2015ZM0 47.4821C0.0738105 47.4687 0.157572 47.4574 0.251618 47.4481C0.345498 47.4388 0.430257 47.4343 0.505561 47.4343C0.589489 47.4343 0.666117 47.4423 0.735781 47.4582C0.805445 47.4741 0.864991 47.5002 0.91442 47.5362C0.963848 47.5722 1.00249 47.6204 1.03019 47.6808C1.05789 47.7412 1.07166 47.815 1.07166 47.9022C1.07166 48.0011 1.05358 48.0834 1.01759 48.1487C0.981595 48.2141 0.924869 48.2637 0.847741 48.2972C0.948422 48.334 1.01842 48.3891 1.0579 48.4619C1.09737 48.5348 1.11694 48.6216 1.11694 48.7223C1.11694 48.8128 1.10317 48.8888 1.07548 48.9498C1.04778 49.0111 1.00913 49.0596 0.959701 49.0958C0.910273 49.132 0.851887 49.1575 0.784877 49.1726C0.717867 49.1877 0.644887 49.1953 0.5661 49.1953H0.0605396C0.0202341 49.1953 0.000166028 49.1761 0.000166028 49.1374V47.4823L0 47.4821Z" fill="#1B1B1B"/>
<path d="M2.26682 47.9067C2.30033 47.9067 2.32305 47.9121 2.33483 47.9229C2.34644 47.9339 2.35241 47.9485 2.35241 47.9669V48.1354C2.34063 48.1337 2.32902 48.1329 2.31725 48.1329C2.30547 48.1329 2.29452 48.1329 2.28457 48.1329C2.21574 48.1329 2.15337 48.1439 2.09714 48.1656C2.04091 48.1873 1.9885 48.2243 1.9399 48.2762V49.1944H1.74616C1.70586 49.1944 1.68579 49.1752 1.68579 49.1366V47.914H1.83922C1.86095 47.914 1.87704 47.9186 1.88699 47.9277C1.89711 47.937 1.90457 47.9533 1.90954 47.9768L1.91966 48.0875C1.95831 48.0405 2.00774 47.9986 2.06811 47.9617C2.12849 47.9249 2.19467 47.9065 2.26682 47.9065V47.9067Z" fill="#1B1B1B"/>
<path d="M3.13577 49.1941H2.94204C2.90173 49.1941 2.88166 49.1749 2.88166 49.1363V47.9137H3.07539C3.1157 47.9137 3.13577 47.9331 3.13577 47.9715V49.1941ZM3.01004 47.7125C2.95464 47.7125 2.91484 47.702 2.89062 47.6809C2.86624 47.66 2.85413 47.6244 2.85413 47.5741C2.85413 47.5255 2.86624 47.4902 2.89062 47.4685C2.91484 47.4467 2.95481 47.4358 3.01004 47.4358C3.06362 47.4358 3.10309 47.4467 3.1283 47.4685C3.15352 47.4902 3.16612 47.5255 3.16612 47.5741C3.16612 47.6244 3.15352 47.66 3.1283 47.6809C3.10309 47.7018 3.06378 47.7125 3.01004 47.7125Z" fill="#1B1B1B"/>
<path d="M3.81544 49.1947C3.77514 49.1947 3.75507 49.1754 3.75507 49.1368V47.9142H3.90849C3.9269 47.9142 3.9425 47.9185 3.95494 47.9268C3.96754 47.9351 3.9755 47.952 3.97882 47.977L3.98894 48.055C4.09294 47.9425 4.22629 47.8865 4.38884 47.8865C4.52634 47.8865 4.62454 47.9263 4.68309 48.0059C4.7418 48.0855 4.77116 48.1917 4.77116 48.3242V49.1947H4.57743C4.55902 49.1947 4.54426 49.1897 4.53331 49.1796C4.52236 49.1695 4.51706 49.1552 4.51706 49.1368V48.3444C4.51706 48.2572 4.49865 48.1948 4.46182 48.157C4.425 48.1192 4.37126 48.1004 4.30077 48.1004C4.23193 48.1004 4.17322 48.1142 4.12478 48.1419C4.07618 48.1696 4.03754 48.1976 4.00901 48.2262V49.1947H3.81528H3.81544Z" fill="#1B1B1B"/>
<path d="M5.34937 48.5428C5.34937 48.4171 5.36148 48.3126 5.38586 48.2296C5.41024 48.1467 5.44756 48.0804 5.49782 48.0309C5.54824 47.9815 5.61144 47.9467 5.68774 47.9264C5.76403 47.9064 5.85427 47.8962 5.9581 47.8962C6.02511 47.8962 6.09477 47.8996 6.16692 47.9064C6.23907 47.913 6.30028 47.9206 6.35054 47.9289C6.38238 47.9339 6.40627 47.9415 6.42219 47.9516C6.43812 47.9618 6.44608 47.9818 6.44608 48.012V48.1202H6.35054C6.35551 48.2258 6.359 48.3303 6.36066 48.4333C6.36231 48.5365 6.36314 48.6383 6.36314 48.739V49.1893C6.36314 49.337 6.32201 49.4492 6.23991 49.5264C6.1578 49.6035 6.03025 49.6422 5.85758 49.6422C5.83071 49.6422 5.80052 49.641 5.76702 49.6383C5.73351 49.6359 5.69951 49.6325 5.66518 49.6282C5.63084 49.6241 5.59817 49.6189 5.56715 49.6131C5.53613 49.6073 5.51059 49.6002 5.49035 49.5917C5.46862 49.5834 5.45469 49.573 5.44889 49.5604C5.44308 49.5478 5.4401 49.5323 5.4401 49.5138V49.4081C5.49881 49.4166 5.55753 49.4232 5.61625 49.4283C5.67496 49.4333 5.73119 49.4358 5.78476 49.4358C5.90717 49.4358 5.99227 49.4186 6.04004 49.3842C6.0878 49.3499 6.11169 49.2908 6.11169 49.2069V49.0508C6.06309 49.0843 6.01399 49.1104 5.96457 49.1288C5.91514 49.1472 5.85675 49.1565 5.78974 49.1565C5.7025 49.1565 5.63084 49.1414 5.57461 49.1112C5.51838 49.081 5.4736 49.0387 5.4401 48.9842C5.40659 48.9298 5.38304 48.8651 5.36977 48.7904C5.35634 48.7158 5.3497 48.6332 5.3497 48.5426L5.34937 48.5428ZM5.60331 48.5378C5.60331 48.6166 5.60829 48.6828 5.6184 48.7365C5.62852 48.7903 5.64394 48.8339 5.66501 48.8674C5.68591 48.9009 5.71328 48.9248 5.74678 48.939C5.78029 48.9533 5.81976 48.9604 5.86505 48.9604C5.91862 48.9604 5.9644 48.9525 6.00205 48.9366C6.03987 48.9206 6.0762 48.9009 6.11152 48.8775V48.1027C6.08465 48.0994 6.05745 48.0973 6.02975 48.0964C6.00205 48.0956 5.97651 48.0953 5.95296 48.0953C5.89092 48.0953 5.83801 48.1011 5.79439 48.1129C5.75076 48.1245 5.71477 48.1469 5.68624 48.1795C5.65771 48.2122 5.63681 48.2572 5.62321 48.3141C5.60978 48.3711 5.60314 48.4458 5.60314 48.538L5.60331 48.5378Z" fill="#1B1B1B"/>
<path d="M7.25204 49.1941H7.0583C7.018 49.1941 6.99793 49.1749 6.99793 49.1363V47.9137H7.19166C7.23197 47.9137 7.25204 47.9331 7.25204 47.9715V49.1941ZM7.12631 47.7125C7.07091 47.7125 7.0311 47.702 7.00689 47.6809C6.98251 47.66 6.9704 47.6244 6.9704 47.5741C6.9704 47.5255 6.98251 47.4902 7.00689 47.4685C7.0311 47.4467 7.07108 47.4358 7.12631 47.4358C7.17989 47.4358 7.21936 47.4467 7.24457 47.4685C7.26978 47.4902 7.28239 47.5255 7.28239 47.5741C7.28239 47.6244 7.26978 47.66 7.24457 47.6809C7.21936 47.7018 7.18005 47.7125 7.12631 47.7125Z" fill="#1B1B1B"/>
<path d="M7.93165 49.1947C7.89135 49.1947 7.87128 49.1754 7.87128 49.1368V47.9142H8.0247C8.04311 47.9142 8.05871 47.9185 8.07115 47.9268C8.08375 47.9351 8.09171 47.952 8.09503 47.977L8.10515 48.055C8.20915 47.9425 8.34251 47.8865 8.50506 47.8865C8.64256 47.8865 8.74075 47.9263 8.7993 48.0059C8.85802 48.0855 8.88737 48.1917 8.88737 48.3242V49.1947H8.69364C8.67523 49.1947 8.66047 49.1897 8.64952 49.1796C8.63858 49.1695 8.63327 49.1552 8.63327 49.1368V48.3444C8.63327 48.2572 8.61486 48.1948 8.57804 48.157C8.54121 48.1192 8.48747 48.1004 8.41698 48.1004C8.34815 48.1004 8.28943 48.1142 8.24099 48.1419C8.19239 48.1696 8.15375 48.1976 8.12522 48.2262V49.1947H7.93149H7.93165Z" fill="#1B1B1B"/>
<path d="M9.46674 48.5428C9.46674 48.4171 9.47884 48.3126 9.50323 48.2296C9.52761 48.1467 9.56493 48.0804 9.61519 48.0309C9.66561 47.9815 9.7288 47.9467 9.8051 47.9264C9.8814 47.9064 9.97163 47.8962 10.0755 47.8962C10.1425 47.8962 10.2121 47.8996 10.2843 47.9064C10.3564 47.913 10.4176 47.9206 10.4679 47.9289C10.4997 47.9339 10.5236 47.9415 10.5396 47.9516C10.5555 47.9618 10.5634 47.9818 10.5634 48.012V48.1202H10.4679C10.4729 48.2258 10.4764 48.3303 10.478 48.4333C10.4797 48.5365 10.4805 48.6383 10.4805 48.739V49.1893C10.4805 49.337 10.4394 49.4492 10.3573 49.5264C10.2752 49.6035 10.1476 49.6422 9.97495 49.6422C9.94808 49.6422 9.91789 49.641 9.88439 49.6383C9.85088 49.6359 9.81688 49.6325 9.78254 49.6282C9.74821 49.6241 9.71553 49.6189 9.68452 49.6131C9.6535 49.6073 9.62796 49.6002 9.60772 49.5917C9.58599 49.5834 9.57206 49.573 9.56626 49.5604C9.56045 49.5478 9.55746 49.5323 9.55746 49.5138V49.4081C9.61618 49.4166 9.6749 49.4232 9.73361 49.4283C9.79233 49.4333 9.84856 49.4358 9.90214 49.4358C10.0245 49.4358 10.1096 49.4186 10.1574 49.3842C10.2052 49.3499 10.2291 49.2908 10.2291 49.2069V49.0508C10.1805 49.0843 10.1314 49.1104 10.0819 49.1288C10.0325 49.1472 9.97412 49.1565 9.90711 49.1565C9.81986 49.1565 9.74821 49.1414 9.69198 49.1112C9.63575 49.081 9.59097 49.0387 9.55746 48.9842C9.52396 48.9298 9.50041 48.8651 9.48714 48.7904C9.4737 48.7158 9.46707 48.6332 9.46707 48.5426L9.46674 48.5428ZM9.72067 48.5378C9.72067 48.6166 9.72565 48.6828 9.73577 48.7365C9.74589 48.7903 9.76131 48.8339 9.78238 48.8674C9.80328 48.9009 9.83065 48.9248 9.86415 48.939C9.89766 48.9533 9.93713 48.9604 9.98241 48.9604C10.036 48.9604 10.0818 48.9525 10.1194 48.9366C10.1572 48.9206 10.1936 48.9009 10.2289 48.8775V48.1027C10.202 48.0994 10.1748 48.0973 10.1471 48.0964C10.1194 48.0956 10.0939 48.0953 10.0703 48.0953C10.0083 48.0953 9.95538 48.1011 9.91175 48.1129C9.86813 48.1245 9.83214 48.1469 9.80361 48.1795C9.77508 48.2122 9.75418 48.2572 9.74058 48.3141C9.72715 48.3711 9.72051 48.4458 9.72051 48.538L9.72067 48.5378Z" fill="#1B1B1B"/>
<path d="M12.7173 47.4519C12.7643 47.4519 12.7835 47.4728 12.7752 47.5148L12.7475 47.6783C12.7291 47.7856 12.7044 47.9052 12.6734 48.0367C12.6424 48.1684 12.6075 48.3021 12.5686 48.438C12.5299 48.5738 12.4885 48.7075 12.444 48.8392C12.3995 48.9709 12.3546 49.0895 12.3095 49.1952H12.0683C12.0449 49.1952 12.0277 49.1905 12.0167 49.1814C12.0058 49.1721 11.997 49.1592 11.9904 49.1424C11.9434 49.0266 11.8968 48.9001 11.8512 48.7626C11.8059 48.6251 11.7628 48.4829 11.7225 48.3363C11.6818 48.1895 11.6454 48.0411 11.6135 47.891C11.5817 47.7408 11.5553 47.5945 11.5352 47.4521H11.7616C11.7968 47.4521 11.8169 47.4715 11.822 47.51C11.8338 47.5939 11.8489 47.6891 11.8673 47.7956C11.886 47.9021 11.9092 48.0165 11.9368 48.1389C11.9645 48.2613 11.9972 48.3895 12.0353 48.5237C12.0731 48.6579 12.1174 48.7938 12.1678 48.9313C12.2181 48.7904 12.263 48.6516 12.3015 48.5149C12.3402 48.3783 12.3737 48.2466 12.4014 48.12C12.4291 47.9935 12.4525 47.8739 12.4722 47.7616C12.4914 47.6493 12.507 47.5461 12.5188 47.4522H12.7175L12.7173 47.4519Z" fill="#1B1B1B"/>
<path d="M13.5727 49.1941H13.379C13.3387 49.1941 13.3186 49.1749 13.3186 49.1363V47.9137H13.5123C13.5526 47.9137 13.5727 47.9331 13.5727 47.9715V49.1941ZM13.447 47.7125C13.3916 47.7125 13.3518 47.702 13.3276 47.6809C13.3032 47.66 13.2911 47.6244 13.2911 47.5741C13.2911 47.5255 13.3032 47.4902 13.3276 47.4685C13.3518 47.4467 13.3918 47.4358 13.447 47.4358C13.5006 47.4358 13.54 47.4467 13.5653 47.4685C13.5905 47.4902 13.6031 47.5255 13.6031 47.5741C13.6031 47.6244 13.5905 47.66 13.5653 47.6809C13.54 47.7018 13.5007 47.7125 13.447 47.7125Z" fill="#1B1B1B"/>
<path d="M14.1521 48.9857C14.2059 48.9923 14.2654 48.9986 14.3308 49.0046C14.3961 49.0104 14.4598 49.0134 14.5218 49.0134C14.6325 49.0134 14.7071 48.9991 14.7458 48.9707C14.7842 48.9422 14.8036 48.8969 14.8036 48.8349C14.8036 48.8064 14.7998 48.7825 14.7922 48.7632C14.7847 48.744 14.7708 48.7273 14.7507 48.713C14.7307 48.6987 14.7033 48.6858 14.669 48.674C14.6346 48.6622 14.5905 48.6498 14.5369 48.6362C14.4782 48.6211 14.4241 48.6055 14.3747 48.5896C14.3253 48.5737 14.2828 48.5523 14.2477 48.5254C14.2125 48.4985 14.1853 48.4645 14.1659 48.4235C14.1466 48.3824 14.137 48.3292 14.137 48.2638C14.137 48.128 14.1765 48.0311 14.2553 47.9732C14.3341 47.9153 14.4449 47.8865 14.5874 47.8865C14.6159 47.8865 14.6469 47.8876 14.6804 47.8901C14.7139 47.8926 14.7468 47.8959 14.7784 47.9002C14.8103 47.9046 14.8401 47.9095 14.8678 47.9153C14.8955 47.9211 14.9186 47.9274 14.937 47.9341C14.9554 47.9425 14.9685 47.9517 14.976 47.9618C14.9836 47.9719 14.9874 47.9878 14.9874 48.0095V48.1177C14.912 48.1092 14.8461 48.1029 14.7899 48.0988C14.7336 48.0945 14.6831 48.0925 14.6376 48.0925C14.5421 48.0925 14.4754 48.1051 14.4376 48.1303C14.3998 48.1555 14.381 48.1956 14.381 48.251C14.381 48.2812 14.386 48.306 14.3961 48.3254C14.4062 48.3446 14.4221 48.361 14.4439 48.3745C14.4656 48.3879 14.4941 48.4 14.5295 48.4109C14.5646 48.4219 14.6066 48.4332 14.6552 48.4449C14.7122 48.46 14.765 48.4756 14.8138 48.4916C14.8624 48.5075 14.9043 48.5284 14.9395 48.5544C14.9747 48.5805 15.002 48.6148 15.0213 48.6576C15.0405 48.7002 15.0501 48.7553 15.0501 48.8223C15.0501 48.8961 15.0387 48.9585 15.0161 49.0097C14.9934 49.0608 14.9612 49.1024 14.9193 49.1341C14.8773 49.166 14.8274 49.1887 14.7696 49.2021C14.7118 49.2156 14.6476 49.2222 14.5772 49.2222C14.547 49.2222 14.5139 49.2209 14.4779 49.2184C14.4419 49.2159 14.4062 49.2121 14.3711 49.2071C14.3359 49.2021 14.3032 49.1967 14.273 49.1907C14.2428 49.1849 14.2193 49.1786 14.2025 49.1718C14.1825 49.1635 14.169 49.1529 14.1622 49.1404C14.1554 49.1278 14.1521 49.1124 14.1521 49.0938V48.9857Z" fill="#1B1B1B"/>
<path d="M15.8709 49.1941H15.6772C15.6369 49.1941 15.6168 49.1749 15.6168 49.1363V47.9137H15.8106C15.8509 47.9137 15.8709 47.9331 15.8709 47.9715V49.1941ZM15.7452 47.7125C15.6898 47.7125 15.65 47.702 15.6258 47.6809C15.6014 47.66 15.5893 47.6244 15.5893 47.5741C15.5893 47.5255 15.6014 47.4902 15.6258 47.4685C15.65 47.4467 15.69 47.4358 15.7452 47.4358C15.7988 47.4358 15.8383 47.4467 15.8635 47.4685C15.8887 47.4902 15.9013 47.5255 15.9013 47.5741C15.9013 47.6244 15.8887 47.66 15.8635 47.6809C15.8383 47.7018 15.799 47.7125 15.7452 47.7125Z" fill="#1B1B1B"/>
<path d="M16.9985 49.2255C16.8089 49.2255 16.6719 49.1717 16.5871 49.0646C16.5024 48.9573 16.4601 48.7871 16.4601 48.5539C16.4601 48.3225 16.5024 48.153 16.5871 48.0457C16.6719 47.9383 16.8089 47.8848 16.9985 47.8848C17.1881 47.8848 17.3251 47.9385 17.4098 48.0457C17.4946 48.153 17.5369 48.3225 17.5369 48.5539C17.5369 48.7871 17.4946 48.9571 17.4098 49.0646C17.3251 49.1719 17.1881 49.2255 16.9985 49.2255ZM17.2803 48.5539C17.2803 48.4633 17.2748 48.3878 17.2639 48.3275C17.2529 48.2671 17.2362 48.2188 17.2136 48.1828C17.1909 48.1468 17.1617 48.1211 17.1255 48.106C17.0894 48.0909 17.0471 48.0833 16.9985 48.0833C16.9499 48.0833 16.9076 48.0909 16.8714 48.106C16.8354 48.1211 16.8061 48.1467 16.7834 48.1828C16.7606 48.2188 16.7439 48.2671 16.7329 48.3275C16.722 48.3878 16.7167 48.4633 16.7167 48.5539C16.7167 48.6461 16.7222 48.7229 16.7329 48.7841C16.7439 48.8453 16.7606 48.8939 16.7834 48.9301C16.8059 48.966 16.8353 48.9913 16.8714 49.0055C16.9074 49.0198 16.9499 49.0269 16.9985 49.0269C17.0471 49.0269 17.0894 49.0198 17.1255 49.0055C17.1615 48.9913 17.1909 48.966 17.2136 48.9301C17.2363 48.8941 17.2529 48.8453 17.2639 48.7841C17.2748 48.7229 17.2803 48.6461 17.2803 48.5539Z" fill="#1B1B1B"/>
<path d="M18.181 49.1947C18.1407 49.1947 18.1207 49.1754 18.1207 49.1368V47.9142H18.2741C18.2925 47.9142 18.3081 47.9185 18.3205 47.9268C18.3331 47.9351 18.3411 47.952 18.3444 47.977L18.3545 48.055C18.4585 47.9425 18.5919 47.8865 18.7544 47.8865C18.8919 47.8865 18.9901 47.9263 19.0487 48.0059C19.1074 48.0855 19.1368 48.1917 19.1368 48.3242V49.1947H18.943C18.9246 49.1947 18.9099 49.1897 18.8989 49.1796C18.888 49.1695 18.8827 49.1552 18.8827 49.1368V48.3444C18.8827 48.2572 18.8642 48.1948 18.8274 48.157C18.7906 48.1192 18.7369 48.1004 18.6664 48.1004C18.5975 48.1004 18.5388 48.1142 18.4904 48.1419C18.4418 48.1696 18.4031 48.1976 18.3746 48.2262V49.1947H18.1809H18.181Z" fill="#1B1B1B"/>
<path d="M20.8888 49.1872C20.8503 49.1973 20.8138 49.2048 20.7795 49.2099C20.7452 49.2149 20.7095 49.2176 20.6725 49.2176C20.5518 49.2176 20.4642 49.1907 20.4096 49.1371C20.355 49.0834 20.3278 48.9988 20.3278 48.883V48.1157H20.2398C20.1995 48.1157 20.1794 48.0965 20.1794 48.0578V47.9143H20.3328L20.3454 47.5823H20.5214C20.5617 47.5823 20.5818 47.6017 20.5818 47.6402V47.9143H20.8283C20.8467 47.9143 20.8614 47.9193 20.8722 47.9294C20.8832 47.9396 20.8885 47.9538 20.8885 47.9722V48.1157H20.5816V48.8704C20.5816 48.9157 20.5891 48.9508 20.6042 48.9761C20.6193 49.0013 20.6494 49.0137 20.6947 49.0137C20.7233 49.0137 20.7471 49.0134 20.7664 49.0125C20.7856 49.0117 20.8037 49.0114 20.8205 49.0114C20.8657 49.0114 20.8883 49.0306 20.8883 49.0693V49.1875L20.8888 49.1872Z" fill="#1B1B1B"/>
<path d="M21.9129 49.2255C21.7233 49.2255 21.5863 49.1717 21.5015 49.0646C21.4167 48.9573 21.3745 48.7871 21.3745 48.5539C21.3745 48.3225 21.4167 48.153 21.5015 48.0457C21.5863 47.9383 21.7233 47.8848 21.9129 47.8848C22.1024 47.8848 22.2394 47.9385 22.3242 48.0457C22.409 48.153 22.4513 48.3225 22.4513 48.5539C22.4513 48.7871 22.409 48.9571 22.3242 49.0646C22.2394 49.1719 22.1024 49.2255 21.9129 49.2255ZM22.1947 48.5539C22.1947 48.4633 22.1892 48.3878 22.1782 48.3275C22.1673 48.2671 22.1505 48.2188 22.128 48.1828C22.1053 48.1468 22.0761 48.1211 22.0399 48.106C22.0037 48.0909 21.9615 48.0833 21.9129 48.0833C21.8643 48.0833 21.822 48.0909 21.7858 48.106C21.7498 48.1211 21.7204 48.1467 21.6977 48.1828C21.675 48.2188 21.6582 48.2671 21.6473 48.3275C21.6364 48.3878 21.631 48.4633 21.631 48.5539C21.631 48.6461 21.6365 48.7229 21.6473 48.7841C21.6582 48.8453 21.675 48.8939 21.6977 48.9301C21.7203 48.966 21.7496 48.9913 21.7858 49.0055C21.8218 49.0198 21.8643 49.0269 21.9129 49.0269C21.9615 49.0269 22.0037 49.0198 22.0399 49.0055C22.0759 48.9913 22.1053 48.966 22.128 48.9301C22.1507 48.8941 22.1673 48.8453 22.1782 48.7841C22.1892 48.7229 22.1947 48.6461 22.1947 48.5539Z" fill="#1B1B1B"/>
<path d="M23.6268 49.1952C23.5865 49.1952 23.5665 49.1759 23.5665 49.1373V47.4519H23.7701C23.7886 47.4519 23.8033 47.4569 23.8141 47.467C23.8251 47.4771 23.8304 47.4914 23.8304 47.5098V48.9739H24.4492C24.4895 48.9739 24.5096 48.9931 24.5096 49.0318V49.1953H23.6267L23.6268 49.1952Z" fill="#1B1B1B"/>
<path d="M25.2967 49.1941H25.1029C25.0626 49.1941 25.0425 49.1749 25.0425 49.1363V47.9137H25.2363C25.2766 47.9137 25.2967 47.9331 25.2967 47.9715V49.1941ZM25.1709 47.7125C25.1155 47.7125 25.0757 47.702 25.0515 47.6809C25.0271 47.66 25.015 47.6244 25.015 47.5741C25.015 47.5255 25.0271 47.4902 25.0515 47.4685C25.0757 47.4467 25.1157 47.4358 25.1709 47.4358C25.2245 47.4358 25.264 47.4467 25.2892 47.4685C25.3144 47.4902 25.327 47.5255 25.327 47.5741C25.327 47.6244 25.3144 47.66 25.2892 47.6809C25.264 47.7018 25.2247 47.7125 25.1709 47.7125Z" fill="#1B1B1B"/>
<path d="M26.4972 47.9138C26.5157 47.9138 26.5304 47.9188 26.5414 47.9289C26.5521 47.9391 26.5576 47.9533 26.5576 47.9717V48.1152H26.2431V49.1943H26.0469C26.0083 49.1943 25.989 49.1751 25.989 49.1364V48.1152H25.9009C25.8606 48.1152 25.8406 48.096 25.8406 48.0573V47.9138H25.989V47.7201C25.989 47.6062 26.0151 47.5176 26.067 47.4547C26.1189 47.3919 26.2095 47.3604 26.3387 47.3604C26.3654 47.3604 26.399 47.3625 26.4392 47.3667C26.4795 47.3708 26.5113 47.3779 26.5347 47.388C26.5531 47.3965 26.5654 47.407 26.5712 47.4196C26.577 47.4322 26.58 47.4468 26.58 47.4635V47.5742C26.538 47.5692 26.5062 47.5657 26.4845 47.564C26.4627 47.5624 26.4367 47.5615 26.4065 47.5615C26.3697 47.5615 26.3402 47.5657 26.3184 47.5742C26.2967 47.5824 26.2803 47.5942 26.2693 47.6093C26.2584 47.6244 26.2513 47.6425 26.2479 47.6634C26.2446 47.6843 26.243 47.7073 26.243 47.7326V47.9137H26.4969L26.4972 47.9138Z" fill="#1B1B1B"/>
<path d="M27.2579 48.6499C27.2612 48.7169 27.2689 48.774 27.2805 48.8209C27.2923 48.8679 27.312 48.906 27.3397 48.9354C27.3674 48.9647 27.4047 48.9861 27.4517 48.9996C27.4986 49.013 27.559 49.0196 27.6328 49.0196C27.6981 49.0196 27.7578 49.0163 27.8114 49.0095C27.865 49.0029 27.902 48.9994 27.9221 48.9994C27.9607 48.9994 27.9799 49.0178 27.9799 49.0548V49.1604C27.9396 49.1772 27.8847 49.1918 27.8151 49.2044C27.7456 49.217 27.6655 49.2233 27.5749 49.2233C27.4794 49.2233 27.3963 49.2115 27.3259 49.188C27.2554 49.1646 27.1972 49.1264 27.1511 49.0735C27.105 49.0206 27.071 48.9519 27.0491 48.8672C27.0274 48.7824 27.0164 48.6798 27.0164 48.559C27.0164 48.4383 27.0274 48.3351 27.0491 48.2497C27.0708 48.1641 27.104 48.0941 27.1485 48.0395C27.1929 47.9849 27.2478 47.9456 27.3132 47.9213C27.3785 47.8969 27.4548 47.8848 27.542 47.8848C27.6392 47.8848 27.719 47.8985 27.7811 47.9262C27.8431 47.9539 27.8917 47.9913 27.927 48.0382C27.9622 48.0851 27.9866 48.14 28 48.2029C28.0134 48.2658 28.0201 48.3333 28.0201 48.4054C28.0201 48.454 28.0176 48.501 28.0125 48.5462C28.0075 48.5915 28.0008 48.6259 27.9924 48.6494H27.2579V48.6499ZM27.7887 48.4713C27.7904 48.4545 27.7912 48.4419 27.7912 48.4334C27.7912 48.425 27.7912 48.414 27.7912 48.4008C27.7912 48.2935 27.7749 48.2125 27.7421 48.1581C27.7094 48.1035 27.6452 48.0763 27.5497 48.0763C27.4926 48.0763 27.4457 48.0856 27.4089 48.104C27.372 48.1225 27.3427 48.1485 27.3208 48.182C27.2991 48.2155 27.2835 48.257 27.2742 48.3064C27.2649 48.3558 27.2594 48.4109 27.2579 48.4713H27.7887Z" fill="#1B1B1B"/>
<path d="M28.9137 49.0458C28.9137 49.0793 28.9079 49.1133 28.8961 49.1476C28.8843 49.182 28.8659 49.2286 28.8408 49.2873L28.7427 49.5063H28.6295C28.601 49.5063 28.5867 49.4953 28.5867 49.4736C28.5867 49.4635 28.5892 49.4518 28.5942 49.4384L28.6924 49.1893C28.6504 49.1792 28.6211 49.1624 28.6043 49.139C28.5876 49.1155 28.5791 49.0853 28.5791 49.0485C28.5791 48.9914 28.5925 48.9508 28.6194 48.9264C28.6463 48.9022 28.6889 48.8899 28.7476 48.8899C28.8063 48.8899 28.8486 48.9025 28.8747 48.9277C28.9007 48.9529 28.9137 48.9922 28.9137 49.046V49.0458Z" fill="#1B1B1B"/>
<path d="M30.1136 49.1952C30.0733 49.1952 30.0533 49.1759 30.0533 49.1373V47.4821C30.1271 47.4687 30.21 47.4574 30.3022 47.4481C30.3944 47.4388 30.4809 47.4343 30.5613 47.4343C30.7642 47.4343 30.9134 47.478 31.0091 47.5652C31.1047 47.6524 31.1526 47.7982 31.1526 48.0029C31.1526 48.1069 31.1397 48.1948 31.1136 48.267C31.0876 48.3391 31.0511 48.3978 31.0042 48.4431C30.9572 48.4884 30.8997 48.5216 30.8318 48.5425C30.764 48.5634 30.6888 48.5738 30.6067 48.5738C30.5631 48.5738 30.517 48.5708 30.4684 48.565C30.4198 48.5592 30.3686 48.5504 30.315 48.5387V49.1952H30.1138H30.1136ZM30.3148 48.3373C30.3584 48.3456 30.4021 48.3529 30.4457 48.3587C30.4893 48.3645 30.5329 48.3675 30.5766 48.3675C30.6303 48.3675 30.6772 48.362 30.7174 48.3512C30.7577 48.3403 30.7909 48.321 30.8167 48.2933C30.8428 48.2656 30.8625 48.2283 30.8758 48.1814C30.8892 48.1344 30.8959 48.0749 30.8959 48.0028C30.8959 47.9256 30.8887 47.8636 30.8745 47.8166C30.8602 47.7697 30.8388 47.7332 30.8103 47.7072C30.7817 47.6811 30.7469 47.6636 30.7058 47.6543C30.6646 47.645 30.6182 47.6405 30.5661 47.6405C30.5159 47.6405 30.4684 47.6422 30.424 47.6455C30.3795 47.6488 30.343 47.6531 30.3145 47.6581V48.3373H30.3148Z" fill="#1B1B1B"/>
<path d="M32.1969 49.2255C32.0073 49.2255 31.8703 49.1717 31.7855 49.0646C31.7008 48.9573 31.6585 48.7871 31.6585 48.5539C31.6585 48.3225 31.7008 48.153 31.7855 48.0457C31.8703 47.9383 32.0073 47.8848 32.1969 47.8848C32.3865 47.8848 32.5235 47.9385 32.6082 48.0457C32.693 48.153 32.7353 48.3225 32.7353 48.5539C32.7353 48.7871 32.693 48.9571 32.6082 49.0646C32.5235 49.1719 32.3865 49.2255 32.1969 49.2255ZM32.4787 48.5539C32.4787 48.4633 32.4732 48.3878 32.4623 48.3275C32.4513 48.2671 32.4346 48.2188 32.412 48.1828C32.3893 48.1468 32.3601 48.1211 32.3239 48.106C32.2878 48.0909 32.2455 48.0833 32.1969 48.0833C32.1483 48.0833 32.106 48.0909 32.0698 48.106C32.0338 48.1211 32.0045 48.1467 31.9817 48.1828C31.959 48.2188 31.9423 48.2671 31.9313 48.3275C31.9204 48.3878 31.9151 48.4633 31.9151 48.5539C31.9151 48.6461 31.9205 48.7229 31.9313 48.7841C31.9423 48.8453 31.959 48.8939 31.9817 48.9301C32.0043 48.966 32.0337 48.9913 32.0698 49.0055C32.1058 49.0198 32.1483 49.0269 32.1969 49.0269C32.2455 49.0269 32.2878 49.0198 32.3239 49.0055C32.3599 48.9913 32.3893 48.966 32.412 48.9301C32.4347 48.8941 32.4513 48.8453 32.4623 48.7841C32.4732 48.7229 32.4787 48.6461 32.4787 48.5539Z" fill="#1B1B1B"/>
<path d="M34.0766 48.0206C34.1035 48.0206 34.1228 48.0248 34.1345 48.0332C34.1463 48.0415 34.1563 48.0601 34.1647 48.0885L34.3908 48.9287C34.4125 48.8549 34.4339 48.774 34.454 48.6859C34.4741 48.5978 34.493 48.5086 34.5097 48.418C34.5265 48.3275 34.5407 48.2386 34.5528 48.1513C34.5646 48.0641 34.5746 47.9853 34.583 47.9148H34.7667C34.79 47.9148 34.8051 47.9203 34.8119 47.9312C34.8187 47.9422 34.8212 47.9568 34.8196 47.9752C34.8179 47.9952 34.8153 48.0175 34.8119 48.0419C34.8086 48.0661 34.8051 48.0909 34.8018 48.116C34.7766 48.2837 34.7401 48.461 34.6932 48.6479C34.6459 48.835 34.5867 49.0173 34.5159 49.1951H34.321C34.3026 49.1951 34.2886 49.1905 34.2795 49.1814C34.2702 49.1721 34.2632 49.1583 34.2581 49.1399L34.0309 48.3147L33.7889 49.1951H33.5981C33.5747 49.1951 33.5588 49.1905 33.5504 49.1814C33.5421 49.1721 33.5344 49.1583 33.5278 49.1399C33.491 49.0443 33.4565 48.9453 33.4255 48.843C33.3944 48.7406 33.3659 48.6371 33.3407 48.5323C33.3155 48.4275 33.2938 48.3232 33.2749 48.2192C33.2564 48.1152 33.2422 48.0138 33.2321 47.9148H33.4308C33.4676 47.9148 33.4878 47.9342 33.4911 47.9727C33.4979 48.0415 33.5067 48.1162 33.518 48.1966C33.529 48.277 33.5422 48.3597 33.5583 48.4444C33.5742 48.5292 33.5923 48.6129 33.6116 48.696C33.6308 48.7791 33.6519 48.8566 33.6736 48.9287L33.9206 48.0206H34.0766Z" fill="#1B1B1B"/>
<path d="M35.5643 48.6499C35.5676 48.7169 35.5752 48.774 35.5868 48.8209C35.5986 48.8679 35.6183 48.906 35.646 48.9354C35.6737 48.9647 35.7111 48.9861 35.758 48.9996C35.8049 49.013 35.8653 49.0196 35.9391 49.0196C36.0045 49.0196 36.0642 49.0163 36.1178 49.0095C36.1713 49.0029 36.2083 48.9994 36.2284 48.9994C36.267 48.9994 36.2863 49.0178 36.2863 49.0548V49.1604C36.246 49.1772 36.1911 49.1918 36.1214 49.2044C36.0519 49.217 35.9718 49.2233 35.8812 49.2233C35.7857 49.2233 35.7026 49.2115 35.6323 49.188C35.5618 49.1646 35.5036 49.1264 35.4574 49.0735C35.4113 49.0206 35.3773 48.9519 35.3554 48.8672C35.3337 48.7824 35.3228 48.6798 35.3228 48.559C35.3228 48.4383 35.3337 48.3351 35.3554 48.2497C35.3772 48.1641 35.4103 48.0941 35.4548 48.0395C35.4992 47.9849 35.5541 47.9456 35.6195 47.9213C35.6848 47.8969 35.7611 47.8848 35.8484 47.8848C35.9456 47.8848 36.0254 47.8985 36.0874 47.9262C36.1494 47.9539 36.198 47.9913 36.2334 48.0382C36.2685 48.0851 36.2929 48.14 36.3063 48.2029C36.3198 48.2658 36.3264 48.3333 36.3264 48.4054C36.3264 48.454 36.3239 48.501 36.3188 48.5462C36.3138 48.5915 36.3072 48.6259 36.2987 48.6494H35.5643V48.6499ZM36.095 48.4713C36.0967 48.4545 36.0975 48.4419 36.0975 48.4334C36.0975 48.425 36.0975 48.414 36.0975 48.4008C36.0975 48.2935 36.0813 48.2125 36.0484 48.1581C36.0157 48.1035 35.9516 48.0763 35.856 48.0763C35.799 48.0763 35.752 48.0856 35.7152 48.104C35.6784 48.1225 35.649 48.1485 35.6271 48.182C35.6054 48.2155 35.5898 48.257 35.5805 48.3064C35.5712 48.3558 35.5657 48.4109 35.5643 48.4713H36.095Z" fill="#1B1B1B"/>
<path d="M37.4883 47.9067C37.5218 47.9067 37.5445 47.9121 37.5563 47.9229C37.5679 47.9339 37.5739 47.9485 37.5739 47.9669V48.1354C37.5621 48.1337 37.5505 48.1329 37.5387 48.1329C37.5269 48.1329 37.516 48.1329 37.506 48.1329C37.4372 48.1329 37.3748 48.1439 37.3186 48.1656C37.2624 48.1873 37.21 48.2243 37.1614 48.2762V49.1944H36.9676C36.9273 49.1944 36.9073 49.1752 36.9073 49.1366V47.914H37.0607C37.0824 47.914 37.0985 47.9186 37.1085 47.9277C37.1186 47.937 37.126 47.9533 37.131 47.9768L37.1411 48.0875C37.1798 48.0405 37.2292 47.9986 37.2896 47.9617C37.35 47.9249 37.4161 47.9065 37.4883 47.9065V47.9067Z" fill="#1B1B1B"/>
<path d="M38.2696 48.6499C38.273 48.7169 38.2806 48.774 38.2922 48.8209C38.304 48.8679 38.3237 48.906 38.3514 48.9354C38.3791 48.9647 38.4164 48.9861 38.4634 48.9996C38.5103 49.013 38.5707 49.0196 38.6445 49.0196C38.7099 49.0196 38.7696 49.0163 38.8231 49.0095C38.8767 49.0029 38.9137 48.9994 38.9338 48.9994C38.9724 48.9994 38.9917 49.0178 38.9917 49.0548V49.1604C38.9513 49.1772 38.8964 49.1918 38.8268 49.2044C38.7573 49.217 38.6772 49.2233 38.5866 49.2233C38.4911 49.2233 38.408 49.2115 38.3376 49.188C38.2672 49.1646 38.2089 49.1264 38.1628 49.0735C38.1167 49.0206 38.0827 48.9519 38.0608 48.8672C38.0391 48.7824 38.0281 48.6798 38.0281 48.559C38.0281 48.4383 38.0391 48.3351 38.0608 48.2497C38.0825 48.1641 38.1157 48.0941 38.1602 48.0395C38.2046 47.9849 38.2595 47.9456 38.3249 47.9213C38.3902 47.8969 38.4665 47.8848 38.5538 47.8848C38.651 47.8848 38.7307 47.8985 38.7928 47.9262C38.8548 47.9539 38.9034 47.9913 38.9387 48.0382C38.9739 48.0851 38.9983 48.14 39.0117 48.2029C39.0252 48.2658 39.0318 48.3333 39.0318 48.4054C39.0318 48.454 39.0293 48.501 39.0242 48.5462C39.0192 48.5915 39.0126 48.6259 39.0041 48.6494H38.2696V48.6499ZM38.8004 48.4713C38.8021 48.4545 38.8029 48.4419 38.8029 48.4334C38.8029 48.425 38.8029 48.414 38.8029 48.4008C38.8029 48.2935 38.7866 48.2125 38.7538 48.1581C38.7211 48.1035 38.6569 48.0763 38.5614 48.0763C38.5043 48.0763 38.4574 48.0856 38.4206 48.104C38.3838 48.1225 38.3544 48.1485 38.3325 48.182C38.3108 48.2155 38.2952 48.257 38.2859 48.3064C38.2766 48.3558 38.2711 48.4109 38.2696 48.4713H38.8004Z" fill="#1B1B1B"/>
<path d="M40.3623 48.1283C40.3304 48.1148 40.2964 48.1039 40.2604 48.0956C40.2244 48.0871 40.1846 48.083 40.141 48.083C40.0823 48.083 40.0332 48.0914 39.9939 48.1082C39.9544 48.125 39.9234 48.1523 39.9008 48.19C39.8781 48.2278 39.8622 48.2764 39.853 48.3359C39.8438 48.3955 39.8393 48.468 39.8393 48.5536C39.8393 48.7129 39.8569 48.8286 39.8922 48.9007C39.9274 48.9729 39.9929 49.0089 40.0884 49.0089C40.1554 49.0089 40.2113 48.9959 40.2556 48.9699C40.3001 48.9438 40.3357 48.9175 40.3624 48.8906V48.1284L40.3623 48.1283ZM40.0126 49.2175C39.8617 49.2175 39.7522 49.1618 39.6844 49.0502C39.6165 48.9387 39.5825 48.7771 39.5825 48.5658C39.5825 48.3243 39.624 48.1512 39.7069 48.0465C39.79 47.9417 39.9153 47.8893 40.0829 47.8893C40.1534 47.8893 40.2117 47.8961 40.2578 47.9093C40.3039 47.9228 40.3387 47.9362 40.3621 47.9496V47.3887H40.5558C40.5742 47.3887 40.589 47.3936 40.5998 47.4038C40.6107 47.4139 40.616 47.4281 40.616 47.4466V49.195H40.4626C40.4442 49.195 40.4286 49.1908 40.4162 49.1823C40.4036 49.1741 40.3956 49.1571 40.3923 49.1321L40.3822 49.0541C40.3435 49.0961 40.2946 49.1338 40.235 49.1673C40.1755 49.2008 40.1014 49.2177 40.0125 49.2177L40.0126 49.2175Z" fill="#1B1B1B"/>
<path d="M41.9178 47.3887C41.968 47.3887 41.9932 47.4131 41.9932 47.4617V47.9899C42.0317 47.9631 42.0775 47.9389 42.1303 47.917C42.1832 47.8952 42.2464 47.8843 42.3202 47.8843C42.3923 47.8843 42.4565 47.8972 42.5126 47.9233C42.5688 47.9493 42.6161 47.9896 42.6547 48.044C42.6934 48.0986 42.7226 48.1686 42.7428 48.2542C42.7629 48.3397 42.773 48.4419 42.773 48.561C42.773 48.6801 42.7625 48.7811 42.7416 48.8642C42.7207 48.9473 42.6876 49.0157 42.6423 49.0692C42.597 49.123 42.5388 49.162 42.4675 49.1862C42.3961 49.2106 42.311 49.2227 42.2122 49.2227C42.1166 49.2227 42.0324 49.2142 41.9594 49.1974C41.8864 49.1807 41.8315 49.1648 41.7945 49.1497C41.7745 49.1412 41.7602 49.1308 41.7517 49.1182C41.7434 49.1056 41.7391 49.0875 41.7391 49.0641V47.3887H41.9178ZM41.9932 48.9986C42.0267 49.007 42.0603 49.0137 42.0938 49.0186C42.1273 49.0238 42.1659 49.0263 42.2095 49.0263C42.2616 49.0263 42.3069 49.0205 42.3454 49.0087C42.3839 48.9971 42.4157 48.9739 42.4409 48.9395C42.4661 48.9052 42.485 48.8577 42.4975 48.7974C42.5101 48.737 42.5164 48.6582 42.5164 48.5608C42.5164 48.4703 42.5109 48.3948 42.5001 48.3344C42.4892 48.2741 42.4724 48.226 42.4497 48.1898C42.4271 48.1538 42.3989 48.1278 42.3654 48.1119C42.3319 48.0959 42.2916 48.088 42.2447 48.088C42.191 48.088 42.1437 48.0959 42.1026 48.1119C42.0614 48.1278 42.0251 48.1475 41.9932 48.1711V48.9986Z" fill="#1B1B1B"/>
<path d="M43.5079 47.9727C43.5246 48.07 43.5405 48.1546 43.5561 48.2268C43.5712 48.2989 43.5888 48.3703 43.609 48.4406C43.6291 48.5111 43.6543 48.5866 43.6848 48.667C43.715 48.7474 43.754 48.8432 43.8009 48.9538C43.8651 48.8012 43.9176 48.6368 43.959 48.4608C44.0002 48.2847 44.0328 48.1027 44.0562 47.915H44.2448C44.2665 47.915 44.281 47.9196 44.2876 47.9287C44.2944 47.938 44.2977 47.9493 44.2977 47.9627C44.2977 47.9778 44.2956 47.9987 44.2914 48.0256C44.2873 48.0525 44.2835 48.0768 44.2801 48.0986C44.2516 48.2663 44.2156 48.4227 44.172 48.5678C44.1284 48.7128 44.0847 48.839 44.0411 48.9463C43.9859 49.0855 43.933 49.1991 43.8822 49.2872C43.8318 49.3752 43.782 49.4452 43.7321 49.4973C43.6827 49.5492 43.6328 49.5849 43.5833 49.6041C43.5334 49.6234 43.4827 49.633 43.4307 49.633C43.4102 49.633 43.3876 49.6318 43.3624 49.6292C43.3372 49.6267 43.3188 49.6221 43.3067 49.6154C43.2781 49.602 43.2639 49.5794 43.2639 49.5476V49.4318C43.2839 49.4335 43.3017 49.4343 43.3171 49.4343C43.3322 49.4343 43.3465 49.4343 43.3599 49.4343C43.4019 49.4343 43.4387 49.4288 43.4697 49.4179C43.5007 49.4069 43.5284 49.391 43.552 49.3701C43.5754 49.3492 43.5973 49.3223 43.6178 49.2897C43.6379 49.257 43.6598 49.2188 43.6832 49.1752C43.628 49.0797 43.5764 48.9795 43.5293 48.8745C43.4818 48.7697 43.4395 48.6632 43.4017 48.555C43.3636 48.4469 43.3309 48.3391 43.3032 48.2318C43.2752 48.1245 43.2546 48.0188 43.2411 47.9148H43.4448C43.4701 47.9148 43.486 47.9211 43.4926 47.9337C43.4994 47.9463 43.5044 47.9592 43.5077 47.9727H43.5079Z" fill="#1B1B1B"/>
<path d="M45.7247 47.6733H45.3248C45.2845 47.6733 45.2644 47.6541 45.2644 47.6154V47.4519H46.3913C46.4097 47.4519 46.4245 47.4569 46.4353 47.467C46.4462 47.4771 46.4515 47.4914 46.4515 47.5098V47.6733H45.9886V49.1953H45.7849C45.7446 49.1953 45.7246 49.1761 45.7246 49.1374V47.6733H45.7247Z" fill="#1B1B1B"/>
<path d="M46.988 48.6499C46.9913 48.7169 46.9989 48.774 47.0105 48.8209C47.0223 48.8679 47.0421 48.906 47.0698 48.9354C47.0975 48.9647 47.1348 48.9861 47.1817 48.9996C47.2287 49.013 47.289 49.0196 47.3629 49.0196C47.4282 49.0196 47.4879 49.0163 47.5415 49.0095C47.5951 49.0029 47.6321 48.9994 47.6521 48.9994C47.6908 48.9994 47.71 49.0178 47.71 49.0548V49.1604C47.6697 49.1772 47.6148 49.1918 47.5451 49.2044C47.4756 49.217 47.3955 49.2233 47.305 49.2233C47.2094 49.2233 47.1263 49.2115 47.056 49.188C46.9855 49.1646 46.9273 49.1264 46.8812 49.0735C46.8351 49.0206 46.8011 48.9519 46.7792 48.8672C46.7574 48.7824 46.7465 48.6798 46.7465 48.559C46.7465 48.4383 46.7574 48.3351 46.7792 48.2497C46.8009 48.1641 46.8341 48.0941 46.8785 48.0395C46.923 47.9849 46.9779 47.9456 47.0432 47.9213C47.1086 47.8969 47.1849 47.8848 47.2721 47.8848C47.3693 47.8848 47.4491 47.8985 47.5111 47.9262C47.5732 47.9539 47.6218 47.9913 47.6571 48.0382C47.6923 48.0851 47.7166 48.14 47.7301 48.2029C47.7435 48.2658 47.7502 48.3333 47.7502 48.4054C47.7502 48.454 47.7477 48.501 47.7425 48.5462C47.7375 48.5915 47.7309 48.6259 47.7225 48.6494H46.988V48.6499ZM47.5188 48.4713C47.5204 48.4545 47.5213 48.4419 47.5213 48.4334C47.5213 48.425 47.5213 48.414 47.5213 48.4008C47.5213 48.2935 47.505 48.2125 47.4722 48.1581C47.4395 48.1035 47.3753 48.0763 47.2797 48.0763C47.2227 48.0763 47.1758 48.0856 47.1389 48.104C47.1021 48.1225 47.0728 48.1485 47.0509 48.182C47.0291 48.2155 47.0135 48.257 47.0042 48.3064C46.995 48.3558 46.9895 48.4109 46.988 48.4713H47.5188Z" fill="#1B1B1B"/>
<path d="M49.1545 49.1593C49.1159 49.1761 49.0664 49.1907 49.0061 49.2033C48.9457 49.2159 48.882 49.2222 48.8148 49.2222C48.7209 49.2222 48.6413 49.2074 48.5758 49.1782C48.5105 49.1489 48.4575 49.1061 48.4174 49.0499C48.3771 48.9936 48.3477 48.9241 48.3293 48.841C48.3109 48.7579 48.3016 48.6637 48.3016 48.5581C48.3016 48.3234 48.3431 48.1527 48.426 48.0462C48.5091 47.9397 48.637 47.8865 48.8097 47.8865C48.8667 47.8865 48.923 47.8911 48.9782 47.9002C49.0334 47.9095 49.0737 47.92 49.099 47.9318C49.1174 47.94 49.1305 47.951 49.1379 47.9644C49.1456 47.9779 49.1492 47.9938 49.1492 48.0122V48.1203C49.0956 48.1121 49.0444 48.1056 48.9958 48.1014C48.9472 48.0973 48.9052 48.0951 48.8701 48.0951C48.813 48.0951 48.7647 48.1023 48.7254 48.1165C48.686 48.1308 48.6538 48.1555 48.6286 48.1908C48.6033 48.226 48.5854 48.2726 48.5745 48.3305C48.5635 48.3884 48.5582 48.46 48.5582 48.5455C48.5582 48.641 48.565 48.719 48.5783 48.7795C48.5917 48.8399 48.611 48.8873 48.6362 48.9216C48.6614 48.956 48.6924 48.9795 48.7292 48.9921C48.7661 49.0047 48.8089 49.011 48.8576 49.011C48.9062 49.011 48.9528 49.0081 48.9973 49.0023C49.0417 48.9965 49.0741 48.9935 49.0941 48.9935C49.1345 48.9935 49.1545 49.0135 49.1545 49.0538V49.1595V49.1593Z" fill="#1B1B1B"/>
<path d="M50.5282 49.195C50.5098 49.195 50.4951 49.19 50.4841 49.1799C50.4732 49.1697 50.4679 49.1555 50.4679 49.1371V48.3447C50.4679 48.2575 50.4495 48.1951 50.4126 48.1573C50.3758 48.1195 50.3221 48.1007 50.2516 48.1007C50.1828 48.1007 50.124 48.1145 50.0756 48.1422C50.027 48.1699 49.9884 48.1979 49.9598 48.2265V49.195H49.7661C49.7258 49.195 49.7057 49.1757 49.7057 49.1371V47.3887H49.8995C49.9179 47.3887 49.9326 47.3936 49.9434 47.4038C49.9544 47.4139 49.9598 47.4281 49.9598 47.4466V48.0427C50.0084 47.9908 50.0658 47.9518 50.1322 47.9257C50.1985 47.8997 50.2693 47.8868 50.3446 47.8868C50.4788 47.8868 50.5754 47.9261 50.6339 48.005C50.6926 48.0838 50.722 48.1903 50.722 48.3245V49.195H50.5282Z" fill="#1B1B1B"/>
<path d="M51.3913 49.1947C51.351 49.1947 51.3309 49.1754 51.3309 49.1368V47.9142H51.4843C51.5027 47.9142 51.5183 47.9185 51.5308 47.9268C51.5434 47.9351 51.5513 47.952 51.5547 47.977L51.5648 48.055C51.6688 47.9425 51.8021 47.8865 51.9647 47.8865C52.1022 47.8865 52.2004 47.9263 52.2589 48.0059C52.3176 48.0855 52.347 48.1917 52.347 48.3242V49.1947H52.1533C52.1349 49.1947 52.1201 49.1897 52.1091 49.1796C52.0982 49.1695 52.0929 49.1552 52.0929 49.1368V48.3444C52.0929 48.2572 52.0745 48.1948 52.0377 48.157C52.0008 48.1192 51.9471 48.1004 51.8766 48.1004C51.8078 48.1004 51.7491 48.1142 51.7006 48.1419C51.652 48.1696 51.6134 48.1976 51.5848 48.2262V49.1947H51.3911H51.3913Z" fill="#1B1B1B"/>
<path d="M53.4647 49.2255C53.2751 49.2255 53.1381 49.1717 53.0534 49.0646C52.9686 48.9573 52.9263 48.7871 52.9263 48.5539C52.9263 48.3225 52.9686 48.153 53.0534 48.0457C53.1381 47.9383 53.2751 47.8848 53.4647 47.8848C53.6543 47.8848 53.7913 47.9385 53.8761 48.0457C53.9608 48.153 54.0031 48.3225 54.0031 48.5539C54.0031 48.7871 53.9608 48.9571 53.8761 49.0646C53.7913 49.1719 53.6543 49.2255 53.4647 49.2255ZM53.7465 48.5539C53.7465 48.4633 53.7411 48.3878 53.7301 48.3275C53.7192 48.2671 53.7024 48.2188 53.6799 48.1828C53.6571 48.1468 53.6279 48.1211 53.5918 48.106C53.5556 48.0909 53.5133 48.0833 53.4647 48.0833C53.4161 48.0833 53.3738 48.0909 53.3377 48.106C53.3017 48.1211 53.2723 48.1467 53.2496 48.1828C53.2269 48.2188 53.2101 48.2671 53.1992 48.3275C53.1882 48.3878 53.1829 48.4633 53.1829 48.5539C53.1829 48.6461 53.1884 48.7229 53.1992 48.7841C53.2101 48.8453 53.2269 48.8939 53.2496 48.9301C53.2722 48.966 53.3015 48.9913 53.3377 49.0055C53.3737 49.0198 53.4161 49.0269 53.4647 49.0269C53.5133 49.0269 53.5556 49.0198 53.5918 49.0055C53.6278 48.9913 53.6571 48.966 53.6799 48.9301C53.7026 48.8941 53.7192 48.8453 53.7301 48.7841C53.7411 48.7229 53.7465 48.6461 53.7465 48.5539Z" fill="#1B1B1B"/>
<path d="M54.8409 48.8979C54.8409 48.9432 54.8483 48.9725 54.8634 48.986C54.8785 48.9994 54.9054 49.0069 54.9439 49.0085C54.9707 49.0102 54.9908 49.0143 55.0042 49.0211C55.0177 49.0279 55.0245 49.0439 55.0245 49.0689V49.1847C54.9976 49.193 54.9699 49.1994 54.9414 49.2036C54.9128 49.2077 54.8818 49.2099 54.8483 49.2099C54.7964 49.2099 54.7536 49.2019 54.7201 49.186C54.6866 49.1701 54.6597 49.1462 54.6397 49.1143C54.6196 49.0825 54.6057 49.0427 54.5982 48.9949C54.5907 48.9472 54.5869 48.8914 54.5869 48.8276V47.3887H54.7806C54.7991 47.3887 54.8138 47.3936 54.8246 47.4038C54.8355 47.4139 54.841 47.4281 54.841 47.4466V48.8981L54.8409 48.8979Z" fill="#1B1B1B"/>
<path d="M56.0119 49.2255C55.8223 49.2255 55.6853 49.1717 55.6006 49.0646C55.5158 48.9573 55.4735 48.7871 55.4735 48.5539C55.4735 48.3225 55.5158 48.153 55.6006 48.0457C55.6853 47.9383 55.8223 47.8848 56.0119 47.8848C56.2015 47.8848 56.3385 47.9385 56.4233 48.0457C56.508 48.153 56.5503 48.3225 56.5503 48.5539C56.5503 48.7871 56.508 48.9571 56.4233 49.0646C56.3385 49.1719 56.2015 49.2255 56.0119 49.2255ZM56.2937 48.5539C56.2937 48.4633 56.2883 48.3878 56.2773 48.3275C56.2664 48.2671 56.2496 48.2188 56.227 48.1828C56.2043 48.1468 56.1751 48.1211 56.139 48.106C56.1028 48.0909 56.0605 48.0833 56.0119 48.0833C55.9633 48.0833 55.921 48.0909 55.8849 48.106C55.8489 48.1211 55.8195 48.1467 55.7968 48.1828C55.7741 48.2188 55.7573 48.2671 55.7464 48.3275C55.7354 48.3878 55.7301 48.4633 55.7301 48.5539C55.7301 48.6461 55.7356 48.7229 55.7464 48.7841C55.7573 48.8453 55.7741 48.8939 55.7968 48.9301C55.8193 48.966 55.8487 48.9913 55.8849 49.0055C55.9209 49.0198 55.9633 49.0269 56.0119 49.0269C56.0605 49.0269 56.1028 49.0198 56.139 49.0055C56.175 48.9913 56.2043 48.966 56.227 48.9301C56.2498 48.8941 56.2664 48.8453 56.2773 48.7841C56.2883 48.7229 56.2937 48.6461 56.2937 48.5539Z" fill="#1B1B1B"/>
<path d="M57.1036 48.5428C57.1036 48.4171 57.1157 48.3126 57.1401 48.2296C57.1645 48.1467 57.2018 48.0804 57.252 48.0309C57.3025 47.9815 57.3657 47.9467 57.442 47.9264C57.5182 47.9064 57.6085 47.8962 57.7123 47.8962C57.7793 47.8962 57.849 47.8996 57.9211 47.9064C57.9933 47.913 58.0545 47.9206 58.1048 47.9289C58.1366 47.9339 58.1605 47.9415 58.1764 47.9516C58.1923 47.9618 58.2003 47.9818 58.2003 48.012V48.1202H58.1048C58.1097 48.2258 58.1132 48.3303 58.1149 48.4333C58.1165 48.5365 58.1174 48.6383 58.1174 48.739V49.1893C58.1174 49.337 58.0762 49.4492 57.9941 49.5264C57.912 49.6035 57.7845 49.6422 57.6118 49.6422C57.5849 49.6422 57.5547 49.641 57.5212 49.6383C57.4877 49.6359 57.4537 49.6325 57.4194 49.6282C57.3851 49.6241 57.3524 49.6189 57.3214 49.6131C57.2903 49.6073 57.2648 49.6002 57.2446 49.5917C57.2228 49.5834 57.2089 49.573 57.2031 49.5604C57.1973 49.5478 57.1943 49.5323 57.1943 49.5138V49.4081C57.253 49.4166 57.3117 49.4232 57.3705 49.4283C57.4292 49.4333 57.4854 49.4358 57.539 49.4358C57.6614 49.4358 57.7465 49.4186 57.7942 49.3842C57.842 49.3499 57.8659 49.2908 57.8659 49.2069V49.0508C57.8173 49.0843 57.7682 49.1104 57.7188 49.1288C57.6694 49.1472 57.611 49.1565 57.544 49.1565C57.4567 49.1565 57.3851 49.1414 57.3288 49.1112C57.2726 49.081 57.2278 49.0387 57.1943 48.9842C57.1608 48.9298 57.1372 48.8651 57.124 48.7904C57.1105 48.7158 57.1039 48.6332 57.1039 48.5426L57.1036 48.5428ZM57.3575 48.5378C57.3575 48.6166 57.3625 48.6828 57.3726 48.7365C57.3827 48.7903 57.3982 48.8339 57.4192 48.8674C57.4401 48.9009 57.4675 48.9248 57.501 48.939C57.5345 48.9533 57.574 48.9604 57.6193 48.9604C57.6728 48.9604 57.7186 48.9525 57.7563 48.9366C57.7941 48.9206 57.8304 48.9009 57.8657 48.8775V48.1027C57.8389 48.0994 57.8117 48.0973 57.784 48.0964C57.7563 48.0956 57.7307 48.0953 57.7072 48.0953C57.6451 48.0953 57.5922 48.1011 57.5486 48.1129C57.505 48.1245 57.469 48.1469 57.4405 48.1795C57.4119 48.2122 57.391 48.2572 57.3774 48.3141C57.364 48.3711 57.3574 48.4458 57.3574 48.538L57.3575 48.5378Z" fill="#1B1B1B"/>
<path d="M58.9529 47.9727C58.9697 48.07 58.9856 48.1546 59.0012 48.2268C59.0163 48.2989 59.0339 48.3703 59.0541 48.4406C59.0742 48.5111 59.0994 48.5866 59.1299 48.667C59.1601 48.7474 59.1991 48.8432 59.246 48.9538C59.3102 48.8012 59.3626 48.6368 59.4041 48.4608C59.4452 48.2847 59.4779 48.1027 59.5013 47.915H59.6899C59.7116 47.915 59.726 47.9196 59.7327 47.9287C59.7395 47.938 59.7428 47.9493 59.7428 47.9627C59.7428 47.9778 59.7406 47.9987 59.7365 48.0256C59.7323 48.0525 59.7285 48.0768 59.7252 48.0986C59.6967 48.2663 59.6607 48.4227 59.6171 48.5678C59.5734 48.7128 59.5298 48.839 59.4862 48.9463C59.431 49.0855 59.3781 49.1991 59.3273 49.2872C59.2769 49.3752 59.2271 49.4452 59.1772 49.4973C59.1278 49.5492 59.0778 49.5849 59.0284 49.6041C58.9785 49.6234 58.9277 49.633 58.8758 49.633C58.8552 49.633 58.8327 49.6318 58.8075 49.6292C58.7823 49.6267 58.7638 49.6221 58.7517 49.6154C58.7232 49.602 58.7089 49.5794 58.7089 49.5476V49.4318C58.729 49.4335 58.7468 49.4343 58.7622 49.4343C58.7773 49.4343 58.7915 49.4343 58.805 49.4343C58.8469 49.4343 58.8838 49.4288 58.9148 49.4179C58.9458 49.4069 58.9735 49.391 58.9971 49.3701C59.0204 49.3492 59.0423 49.3223 59.0629 49.2897C59.083 49.257 59.1049 49.2188 59.1283 49.1752C59.073 49.0797 59.0214 48.9795 58.9743 48.8745C58.9269 48.7697 58.8846 48.6632 58.8468 48.555C58.8086 48.4469 58.776 48.3391 58.7483 48.2318C58.7202 48.1245 58.6997 48.0188 58.6862 47.9148H58.8899C58.9151 47.9148 58.931 47.9211 58.9377 47.9337C58.9445 47.9463 58.9495 47.9592 58.9528 47.9727H58.9529Z" fill="#1B1B1B"/>
<path d="M60.4539 49.0485C60.4539 49.1072 60.4404 49.1486 60.4136 49.173C60.3867 49.1972 60.3439 49.2095 60.2852 49.2095C60.2248 49.2095 60.1817 49.1974 60.1556 49.173C60.1296 49.1486 60.1167 49.1072 60.1167 49.0485C60.1167 48.9914 60.1301 48.9508 60.157 48.9264C60.1838 48.9022 60.2265 48.8899 60.2852 48.8899C60.3439 48.8899 60.3867 48.902 60.4136 48.9264C60.4404 48.9508 60.4539 48.9914 60.4539 49.0485Z" fill="#1B1B1B"/>
<path d="M61.3898 49.0485C61.3898 49.1072 61.3764 49.1486 61.3495 49.173C61.3226 49.1972 61.2799 49.2095 61.2211 49.2095C61.1608 49.2095 61.1176 49.1974 61.0916 49.173C61.0656 49.1486 61.0526 49.1072 61.0526 49.0485C61.0526 48.9914 61.0661 48.9508 61.0929 48.9264C61.1198 48.9022 61.1624 48.8899 61.2211 48.8899C61.2799 48.8899 61.3226 48.902 61.3495 48.9264C61.3764 48.9508 61.3898 48.9914 61.3898 49.0485Z" fill="#1B1B1B"/>
<path d="M62.325 49.0485C62.325 49.1072 62.3116 49.1486 62.2847 49.173C62.2578 49.1972 62.215 49.2095 62.1563 49.2095C62.0959 49.2095 62.0528 49.1974 62.0268 49.173C62.0007 49.1486 61.9878 49.1072 61.9878 49.0485C61.9878 48.9914 62.0012 48.9508 62.0281 48.9264C62.055 48.9022 62.0976 48.8899 62.1563 48.8899C62.215 48.8899 62.2578 48.902 62.2847 48.9264C62.3116 48.9508 62.325 48.9914 62.325 49.0485Z" fill="#1B1B1B"/>
</svg>
