<svg width="237" height="40" viewBox="0 0 237 40" fill="none" xmlns="http://www.w3.org/2000/svg">
<path fill-rule="evenodd" clip-rule="evenodd" d="M14.8407 11.157C19.6897 11.157 23.6211 15.0884 23.6211 19.9384C23.6211 24.7884 19.6897 28.7187 14.8407 28.7187C9.99183 28.7187 6.06153 24.7873 6.06153 19.9384C6.06153 15.0895 9.99293 11.157 14.8407 11.157ZM13.8516 9.70904C13.1513 10.0906 11.8875 10.417 11.0428 10.8394C3.32554 14.6925 2.90538 23.3537 9.39523 28.089C11.6978 29.7697 10.4726 28.6691 12.0992 28.7286C15.0845 28.84 13.5858 33.5434 11.0858 32.005C10.4418 31.6091 10.5366 31.2595 10.1859 30.8471C9.75142 30.3354 3.14578 27.6314 3.16343 19.7961C3.17776 13.8345 7.10917 9.86563 11.8985 8.54451L11.9184 5.21743C8.39721 5.48099 4.45589 8.79153 3.10057 10.6663C-4.57255 21.2717 2.84032 35.0718 16.0814 34.5215C16.1376 29.2514 15.595 30.4038 17.7576 29.5425C19.5099 28.8433 21.3515 27.6667 22.505 26.3863C26.668 21.7657 25.5906 15.9827 20.9082 12.0822C18.0906 9.73551 19.2739 11.6389 17.3154 11.0566C15.8807 10.6299 15.7803 8.43643 17.1599 7.79352C17.8646 7.46489 18.6795 7.65898 19.1449 8.11112C19.9091 8.85439 19.2 8.79815 20.391 9.4554C29.6863 14.5789 28.7743 28.3239 18.0388 31.3323L18.0223 34.1995C21.6405 33.7275 24.9323 30.8294 26.5026 28.883C28.4832 26.4305 30.1109 22.3689 29.5827 18.1045C28.706 11.0213 22.6661 4.72228 14.8275 4.90424L13.8516 4.92409L13.8527 9.71014H13.8516V9.70904Z" fill="url(#paint0_linear_704_1977)"/>
<path fill-rule="evenodd" clip-rule="evenodd" d="M7.55916 23.0075L9.49895 21.897C9.61033 21.8309 9.70076 21.7824 9.82206 21.7151C9.94116 21.6489 10.0448 21.5673 10.1716 21.5265C10.1341 21.2663 10.015 21.0082 9.9555 20.5075C9.90918 20.115 9.90918 19.718 9.95771 19.3276C10.047 18.603 10.2731 18.0053 10.5786 17.4573C10.948 16.7934 11.4895 16.2508 12.0486 15.8505C12.1776 15.7579 12.3033 15.6829 12.4401 15.6046C12.7213 15.4447 12.976 15.3322 13.3024 15.2197C15.3492 14.5184 17.3849 15.2263 18.716 16.757C18.9917 17.0735 19.4802 17.8355 19.5993 18.3604L12.9539 22.1926C13.2848 22.4992 13.6928 22.7043 14.1372 22.8201C14.6699 22.959 15.2543 22.9491 15.7738 22.7859C16.2998 22.6205 17.6209 21.8143 18.148 21.4989C19.2254 20.8527 20.5179 20.1293 21.6328 19.4908C21.8203 19.3827 22.6871 18.9085 22.7753 18.8148C22.6529 17.4319 21.9273 16.049 21.1906 15.0532C21.0285 14.8349 20.8565 14.6496 20.6932 14.4632C20.4573 14.193 19.8518 13.6802 19.5441 13.4641C14.274 9.76428 7.36066 13.3329 6.95043 19.3717C6.90521 20.0422 6.94161 20.7105 7.05961 21.3589C7.13129 21.7526 7.37831 22.7385 7.56026 23.0075L7.55916 23.0086V23.0075Z" fill="url(#paint1_linear_704_1977)"/>
<path fill-rule="evenodd" clip-rule="evenodd" d="M15.0415 24.8965C14.0798 24.8965 13.4435 24.7774 12.6231 24.3638C11.6636 23.8808 11.3174 23.3393 11.1409 23.2313L9.83193 23.979C9.61027 24.1168 8.62329 24.6528 8.52734 24.7421C9.23753 25.728 10.4737 26.7613 11.9327 27.3347C13.5847 27.9853 15.3282 28.067 17.1114 27.5718C19.6224 26.876 21.6581 24.8347 22.4532 22.3546C22.5315 22.1086 22.7377 21.383 22.7256 21.1338L17.2834 24.2679C16.6967 24.5998 15.8388 24.8954 15.0403 24.8954H15.0415V24.8965Z" fill="url(#paint2_linear_704_1977)"/>
<path fill-rule="evenodd" clip-rule="evenodd" d="M11.9451 20.4611C12.0642 20.4291 12.4237 20.2009 12.5604 20.1204L15.5898 18.3747C15.7949 18.2589 15.9846 18.142 16.1941 18.024C16.3882 17.9148 16.6385 17.7869 16.8138 17.6612C16.3242 17.2928 15.9901 17.0535 15.2567 16.9642C13.6555 16.769 12.2097 17.8475 11.9363 19.3881C11.8877 19.6583 11.8458 20.2185 11.9462 20.4611H11.9451Z" fill="url(#paint3_linear_704_1977)"/>
<path d="M52.0932 16.31H40.3835L40.3121 17.0576C40.3121 19.7395 40.7816 21.7731 41.7181 23.1613C42.6545 24.5494 43.9789 25.2434 45.6859 25.2434C46.0406 25.2434 46.4285 25.2077 46.8418 25.1363C47.2578 25.0648 47.6737 24.9474 48.0871 24.779C48.503 24.6132 49.072 24.2993 49.7967 23.8349C50.5188 23.373 51.0955 22.8551 51.5216 22.286L50.9526 24.8479L50.5265 25.1694C49.1741 26.1416 48.1049 26.6749 47.3241 26.7719C46.5407 26.8663 46.0304 26.9327 45.7931 26.9684C45.5558 27.0041 45.2828 27.022 44.974 27.022C42.8867 27.022 41.1286 26.3764 39.7073 25.0827C38.2835 23.789 37.4772 22.4493 37.2858 21.0612C37.097 19.6731 37 18.729 37 18.2314C37 16.0472 37.6405 14.1844 38.9214 12.6432C40.2024 11.0995 41.4552 10.2395 42.6775 10.0635C43.8997 9.88486 44.7367 9.79555 45.1858 9.79555C47.0613 9.79555 48.6153 10.3289 49.8477 11.398C51.0827 12.4646 51.8176 13.914 52.0549 15.741L52.0906 16.31H52.0932ZM40.5953 15.1005H46.5765H47.2169H47.6099C48.2988 15.1005 48.6433 14.7433 48.6433 14.0313C48.6433 13.7456 48.5668 13.3679 48.4111 12.8933C48.258 12.4187 47.8778 11.9849 47.2731 11.5945C46.6683 11.2041 45.9513 11.0076 45.1195 11.0076C44.9536 11.0076 44.7622 11.0255 44.5504 11.0612C44.3361 11.0969 44.0171 11.1684 43.5884 11.2755C43.1623 11.3827 42.6443 11.7323 42.0396 12.3268C41.4348 12.9188 40.9908 13.6562 40.705 14.534L40.5979 15.1031L40.5953 15.1005ZM50.6005 26.5269C51.1236 26.1467 51.5446 25.8023 51.8635 25.496C52.1851 25.1873 52.6291 24.6642 53.1981 23.9293L57.2501 18.7162L53.3767 12.9316C53.1394 12.5514 52.9021 12.2145 52.6648 11.916C52.4275 11.62 52.0702 11.2219 51.5982 10.7244L51.0291 10.1196H56.1886C56.1657 10.2395 56.1529 10.3926 56.1529 10.5815C56.1529 10.9132 56.2244 11.2526 56.3673 11.597C56.5102 11.9466 56.7526 12.3906 57.1098 12.9367L59.2991 16.2003L61.7437 12.9316C62.2846 12.2681 62.6214 11.7629 62.7694 11.4184C62.9174 11.0739 62.9889 10.6402 62.9889 10.1196H66.227L64.9333 11.3546C64.6909 11.5919 64.4459 11.8599 64.1907 12.1482C63.9432 12.4442 63.7289 12.6943 63.563 12.9086L60.1055 17.4761L64.3515 23.9421C65.0991 25.0521 65.8774 25.9171 66.6888 26.5295H61.7411C61.7411 26.0778 61.6824 25.6874 61.5625 25.3557C61.4451 25.024 61.1721 24.5494 60.7434 23.9319L58.0616 19.9921L54.9358 23.9599C54.4382 24.5774 54.1422 24.9857 54.035 25.1873C53.9279 25.3889 53.8743 25.6747 53.8743 26.0293V26.5269H50.6005ZM65.9437 10.1171H69.858V12.1456C71.0445 10.5559 72.6929 9.75983 74.8057 9.75983C76.7527 9.75983 78.3704 10.4488 79.6641 11.8292C80.9578 13.2123 81.6034 14.9908 81.6034 17.1674C81.6034 18.3003 81.361 19.6297 80.8736 21.1531C80.3862 22.679 79.3834 23.9523 77.8652 24.9806C76.3469 26.0064 74.3286 26.5218 71.8151 26.5218H70.7817H70.2841H69.7508V33.1792C69.7508 33.9141 69.7993 34.4371 69.8937 34.7459C69.9881 35.0547 70.2025 35.3864 70.5342 35.7436H66.0126C66.2627 35.4119 66.4515 35.0495 66.5765 34.6566C66.7016 34.2662 66.7603 33.7737 66.7603 33.1792V32.0743V12.8167C66.7603 11.8905 66.6046 11.1684 66.2984 10.6453L65.9412 10.112L65.9437 10.1171ZM69.7508 21.3062V21.9416C69.7508 24.1666 70.6235 25.2817 72.374 25.2817C72.8256 25.2817 73.5554 25.1286 74.5633 24.8199C75.5661 24.5111 76.426 23.7762 77.1431 22.5999C77.8601 21.4312 78.2224 19.8721 78.2224 17.9303C78.2224 16.1084 77.9264 14.6744 77.3268 13.618C76.7271 12.5616 76.0943 11.9568 75.4232 11.791C74.7521 11.6251 74.349 11.5307 74.201 11.5052C74.0581 11.4822 73.8437 11.4695 73.5554 11.4695C72.3867 11.4695 71.4554 11.8905 70.7741 12.7274C70.0928 13.5695 69.7534 14.7611 69.7534 16.2998V21.3062H69.7508ZM97.161 16.3125H85.4513L85.3799 17.0602C85.3799 19.742 85.8494 21.7757 86.7859 23.1638C87.7223 24.5519 89.0467 25.246 90.7563 25.246C91.111 25.246 91.4988 25.2103 91.9122 25.1388C92.3281 25.0674 92.744 24.95 93.1574 24.7816C93.5733 24.6157 94.1424 24.3019 94.8645 23.8375C95.5892 23.3756 96.1633 22.8576 96.5894 22.2886L96.0204 24.8505L95.5943 25.172C94.2419 26.1442 93.1753 26.6775 92.3919 26.7744C91.6085 26.8689 91.0982 26.9352 90.8609 26.9709C90.6236 27.0066 90.3506 27.0245 90.0418 27.0245C87.9545 27.0245 86.1964 26.3789 84.7751 25.0852C83.3513 23.7915 82.545 22.4519 82.3536 21.0638C82.1648 19.6757 82.0678 18.7315 82.0678 18.234C82.0678 16.0497 82.7083 14.187 83.9892 12.6458C85.2702 11.102 86.523 10.2421 87.7453 10.066C88.9676 9.88741 89.8045 9.7981 90.2562 9.7981C92.1316 9.7981 93.6856 10.3314 94.9181 11.4006C96.1505 12.4672 96.888 13.9165 97.1253 15.7435L97.161 16.3125ZM85.6631 15.1031H91.6443H92.2847H92.6752C93.3641 15.1031 93.7086 14.7458 93.7086 14.0339C93.7086 13.7481 93.632 13.3705 93.4764 12.8958C93.3233 12.4212 92.9431 11.9874 92.3383 11.597C91.7336 11.2066 91.0166 11.0102 90.1847 11.0102C90.0188 11.0102 89.8275 11.028 89.6157 11.0637C89.4013 11.0995 89.0824 11.1709 88.6537 11.2781C88.2276 11.3852 87.7096 11.7348 87.1048 12.3294C86.5001 12.9214 86.0561 13.6588 85.7703 14.5366L85.6631 15.1056V15.1031ZM109.299 10.2625V3.67661C109.299 2.63298 109.039 1.70672 108.516 0.900391H112.361V23.9293C112.361 25.0674 112.609 25.9349 113.109 26.5269H109.299V24.3912C108.825 25.1745 108.143 25.7971 107.253 26.259C106.362 26.7209 105.349 26.9531 104.209 26.9531C102.31 26.9531 100.721 26.2539 99.4397 24.8581C98.1587 23.4573 97.5182 21.6736 97.5182 19.4945C97.5182 18.6167 97.7198 17.3894 98.123 15.8175C98.5262 14.2457 99.5774 12.9239 101.274 11.8548C102.971 10.7933 105.326 10.2574 108.34 10.2574H109.302L109.299 10.2625ZM109.299 15.4246V14.7126C109.299 12.5539 108.416 11.4746 106.643 11.4746C106.24 11.4746 105.569 11.6047 104.62 11.865C103.675 12.1252 102.805 12.855 101.996 14.0543C101.195 15.2536 100.792 16.777 100.792 18.6295V19.839C100.958 21.4772 101.379 22.753 102.063 23.6665C102.739 24.58 103.438 25.0903 104.15 25.1975C104.867 25.3047 105.306 25.3583 105.474 25.3583C106.643 25.3583 107.574 24.9321 108.263 24.0773C108.957 23.2225 109.302 22.013 109.302 20.4463V15.4271L109.299 15.4246ZM113.895 26.5295L114.321 26.0676C114.676 25.5445 114.854 24.8326 114.854 23.9319V22.7938V12.7912C114.854 12.1023 114.806 11.5817 114.719 11.2245C114.63 10.8698 114.451 10.5024 114.178 10.1222H117.916V23.9319C117.916 24.6438 117.965 25.1669 118.059 25.4986C118.154 25.8303 118.355 26.1748 118.664 26.5295H113.895ZM114.464 4.81722C114.464 4.29412 114.653 3.83227 115.033 3.42911C115.413 3.02594 115.875 2.82435 116.421 2.82435C116.944 2.82435 117.411 3.02084 117.827 3.41124C118.243 3.80165 118.45 4.27116 118.45 4.81722C118.45 5.34031 118.248 5.78941 117.845 6.16961C117.442 6.54981 116.967 6.73863 116.421 6.73863C115.875 6.73863 115.413 6.54981 115.033 6.16961C114.653 5.78941 114.464 5.34031 114.464 4.81722ZM134.293 16.3151H122.583L122.512 17.0627C122.512 19.7446 122.981 21.7782 123.918 23.1664C124.854 24.5545 126.179 25.2485 127.888 25.2485C128.243 25.2485 128.631 25.2128 129.044 25.1414C129.46 25.0699 129.876 24.9525 130.289 24.7841C130.705 24.6183 131.274 24.3044 131.997 23.84C132.719 23.3782 133.295 22.8602 133.722 22.2911L133.152 24.853L132.726 25.1745C131.374 26.1467 130.305 26.68 129.524 26.777C128.741 26.8714 128.23 26.9378 127.993 26.9735C127.756 27.0092 127.483 27.0271 127.174 27.0271C125.087 27.0271 123.329 26.3815 121.907 25.0878C120.483 23.7941 119.677 22.4544 119.486 21.0663C119.297 19.6782 119.2 18.7341 119.2 18.2365C119.2 16.0523 119.84 14.1895 121.121 12.6483C122.402 11.1046 123.655 10.2446 124.877 10.0686C126.1 9.88996 126.937 9.80065 127.386 9.80065C129.261 9.80065 130.815 10.334 132.048 11.4031C133.283 12.4697 134.018 13.9191 134.255 15.7461L134.291 16.3151H134.293ZM122.795 15.1056H128.774H129.414H129.805C130.494 15.1056 130.838 14.7484 130.838 14.0364C130.838 13.7507 130.762 13.373 130.606 12.8984C130.453 12.4238 130.073 11.99 129.468 11.5996C128.863 11.2092 128.146 11.0127 127.314 11.0127C127.148 11.0127 126.957 11.0306 126.745 11.0663C126.531 11.102 126.212 11.1735 125.783 11.2806C125.355 11.3878 124.839 11.7374 124.234 12.3319C123.63 12.9239 123.186 13.6613 122.9 14.5391L122.793 15.1082L122.795 15.1056ZM134.936 26.532C135.505 25.8916 135.791 25.0265 135.791 23.9344V22.9393V12.8295C135.791 12.0691 135.755 11.5435 135.691 11.2449C135.625 10.9489 135.441 10.5738 135.15 10.1247H138.96V12.0461L139.779 11.2628C141.055 10.2906 142.507 9.80321 144.14 9.80321C144.306 9.80321 144.49 9.81597 144.691 9.83893C144.893 9.8619 145.413 9.92824 146.268 10.0354C147.118 10.1426 147.876 10.5815 148.542 11.3521C149.2 12.1227 149.532 13.3271 149.532 14.9653V23.9344C149.532 24.6463 149.58 25.1694 149.675 25.5012C149.769 25.8329 149.983 26.1773 150.315 26.532H146.186L146.472 24.2534V21.9033V16.0293C146.472 13.0872 145.446 11.6149 143.387 11.6149C142.943 11.6149 142.313 11.6915 141.512 11.8471C140.711 12.0002 140.065 12.4161 139.578 13.0923C139.098 13.7685 138.853 14.7841 138.853 16.1365V23.9676C138.853 24.6565 138.901 25.1592 138.996 25.4807C139.09 25.7997 139.292 26.1518 139.601 26.5295H134.939L134.936 26.532ZM150.601 11.6175L150.95 10.1222H152.06V6.73353L155.122 5.80217V10.1196H158.22L157.934 11.6149H155.122V22.5718V23.6384C155.194 24.5698 155.651 25.0316 156.493 25.0316C156.707 25.0316 156.873 25.0087 156.99 24.9602L157.353 24.8122C157.549 24.7101 157.725 24.5928 157.894 24.4448C158.059 24.2968 158.22 24.113 158.363 23.8936V25.815C157.7 26.3611 157.095 26.6647 156.549 26.7234C156.003 26.7821 155.564 26.8127 155.232 26.8127C154.117 26.8127 153.311 26.458 152.811 25.7461C152.313 25.0342 152.063 23.8961 152.063 22.3294V11.6149H150.603L150.601 11.6175Z" fill="url(#paint4_linear_704_1977)"/>
<path d="M166.835 10.8651V7.05543H182.069V11.0054L181.854 10.6839C181.38 9.99497 180.798 9.49229 180.111 9.17078C179.422 8.85182 178.534 8.69106 177.442 8.69106H176.161V23.8889C176.161 24.7896 176.314 25.5015 176.623 26.0246L176.98 26.5222H171.783C172.4 25.8817 172.709 25.004 172.709 23.8889V22.784V8.65278L171.433 8.6885C170.395 8.6885 169.54 8.8314 168.871 9.11464C168.2 9.40043 167.59 9.87504 167.049 10.5385L166.835 10.86V10.8651ZM193.995 16.3104H182.285L182.214 17.058C182.214 19.7398 182.683 21.7735 183.62 23.1616C184.556 24.5498 185.881 25.2438 187.588 25.2438C187.942 25.2438 188.33 25.2081 188.744 25.1366C189.16 25.0652 189.576 24.9478 189.989 24.7794C190.405 24.6136 190.974 24.2997 191.699 23.8353C192.421 23.3734 192.997 22.8554 193.423 22.2864L192.854 24.8483L192.426 25.1698C191.073 26.142 190.007 26.6753 189.223 26.7723C188.44 26.8667 187.93 26.933 187.692 26.9688C187.455 27.0045 187.182 27.0223 186.873 27.0223C184.786 27.0223 183.028 26.3768 181.607 25.0831C180.183 23.7894 179.376 22.4497 179.185 21.0616C178.996 19.6735 178.899 18.7294 178.899 18.2318C178.899 16.0476 179.54 14.1848 180.821 12.6436C182.102 11.0998 183.355 10.2399 184.577 10.0639C185.799 9.88525 186.636 9.79593 187.085 9.79593C188.961 9.79593 190.515 10.3292 191.747 11.3984C192.979 12.465 193.717 13.9144 193.954 15.7414L193.99 16.3104H193.995ZM182.497 15.1009H188.478H189.119H189.512C190.201 15.1009 190.543 14.7436 190.543 14.0317C190.543 13.7459 190.466 13.3683 190.31 12.8937C190.155 12.4191 189.777 11.9853 189.17 11.5949C188.565 11.2045 187.848 11.008 187.016 11.008C186.85 11.008 186.659 11.0258 186.447 11.0616C186.233 11.0973 185.914 11.1687 185.485 11.2759C185.059 11.3831 184.541 11.7327 183.936 12.3272C183.332 12.9192 182.888 13.6566 182.602 14.5344L182.495 15.1034L182.497 15.1009ZM208.129 10.9008V14.8508L207.95 14.565L207.703 14.1389C207.062 13.2126 206.422 12.5084 205.781 12.021C205.141 11.5336 204.549 11.2427 204.003 11.1483C203.457 11.0539 203.018 11.0054 202.686 11.0054C201.239 11.0054 200.058 11.6 199.144 12.7865C198.231 13.973 197.774 15.6342 197.774 17.7699C197.774 18.339 197.81 18.9437 197.881 19.5842C197.881 19.8215 197.917 20.0639 197.988 20.314C198.06 20.5615 198.177 21.0667 198.343 21.8271C198.509 22.5875 199.042 23.3581 199.946 24.1415C200.846 24.9249 201.915 25.3153 203.148 25.3153C204.169 25.3153 205.064 25.1086 205.835 24.6927C206.605 24.2767 207.134 23.9578 207.419 23.7307C207.705 23.5036 208.096 23.1438 208.593 22.6437L208.879 22.3221L209.058 22.1792L208.417 24.8483L208.096 25.0984L207.777 25.3484C207.231 25.7286 206.644 26.0476 206.013 26.3104C205.386 26.5707 204.858 26.7442 204.429 26.8259C204.003 26.9075 203.646 26.9611 203.362 26.9866C203.076 27.0096 202.806 27.0223 202.543 27.0223C200.456 27.0223 198.662 26.3589 197.169 25.0295C195.674 23.7001 194.837 22.3706 194.658 21.0438C194.48 19.7143 194.391 18.8008 194.391 18.3032C194.391 16.5936 194.753 15.106 195.478 13.8353C196.202 12.5645 197.215 11.5694 198.522 10.8447C199.826 10.1226 201.249 9.76021 202.793 9.76021C203.054 9.76021 203.327 9.76021 203.612 9.76021C203.873 9.8087 204.301 9.85463 204.893 9.90311C205.485 9.95159 206.317 10.1761 207.384 10.5793L207.774 10.7579L208.131 10.9008H208.129ZM209.484 26.5273C210.03 25.8868 210.303 25.0218 210.303 23.9297V22.8631V3.57239C210.303 2.48027 210.078 1.58972 209.627 0.90332H213.365V12.1154C214.414 10.8804 215.488 10.1761 216.598 9.99752C217.703 9.8189 218.448 9.72959 218.828 9.72959C219.231 9.72959 219.912 9.8138 220.862 9.972C221.816 10.1379 222.587 10.5946 223.181 11.3423C223.781 12.095 224.077 13.3122 224.077 14.9963V23.9118C224.077 25.0575 224.373 25.9302 224.967 26.5273H220.803C220.874 25.4837 220.928 24.5089 220.964 23.6082C221 22.7074 221.017 21.651 221.017 20.4416V15.8511V14.9963V14.5344C221.017 13.6081 220.726 12.8784 220.152 12.3451C219.576 11.8118 218.764 11.5438 217.703 11.5438C217.537 11.5438 217.363 11.5566 217.175 11.5796C216.983 11.6025 216.611 11.6561 216.047 11.7403C215.483 11.822 214.896 12.2379 214.283 12.9855C213.671 13.7332 213.365 14.6518 213.365 15.7439V23.9654C213.365 24.7003 213.413 25.2234 213.508 25.5322C213.602 25.8409 213.827 26.1726 214.184 26.5299H209.486L209.484 26.5273ZM225.718 25.7797V21.8297L225.932 22.1869L226.218 22.6488L226.715 23.3607C227.238 24.0496 227.731 24.5651 228.193 24.9095C228.655 25.254 229.147 25.4837 229.67 25.6036C230.05 25.6521 230.311 25.6751 230.453 25.6751C231.285 25.6751 231.962 25.425 232.482 24.9274C233.005 24.4298 233.265 23.7766 233.265 22.9703C233.265 22.733 233.235 22.4421 233.176 22.0976C233.117 21.7531 232.875 21.3627 232.446 20.9238C232.018 20.4849 231.148 19.9261 229.831 19.2499C228.514 18.5737 227.517 17.8261 226.84 17.007C226.164 16.1879 225.825 15.3152 225.825 14.3915C225.825 13.9628 226.026 13.0927 226.429 11.776C226.833 10.4594 228.838 9.80103 232.446 9.80103C233.038 9.84696 233.467 9.90055 233.727 9.96179C233.988 10.0205 234.403 10.1455 234.973 10.3343L235.363 10.4772L235.577 10.5487V13.9297L235.434 13.6439L235.149 13.2177C234.669 12.5058 234.141 11.9649 233.554 11.5974C232.972 11.23 232.332 11.0463 231.637 11.0463C230.997 11.0463 230.42 11.2249 229.923 11.5796C229.425 11.9368 229.122 12.3272 229.027 12.7533C228.933 13.1795 228.884 13.501 228.884 13.7153C228.884 14.2129 229.073 14.6773 229.453 15.1034C229.839 15.5296 230.492 15.994 231.423 16.4915L232.497 17.0606L233.393 17.5582C235.439 18.7677 236.465 20.1685 236.465 21.7582C236.465 22.2328 236.353 22.8963 236.128 23.7511C235.904 24.6059 235.197 25.3637 234.011 26.0297C232.824 26.6932 231.341 27.0249 229.56 27.0249C228.16 26.882 226.879 26.4686 225.715 25.7797H225.718Z" fill="url(#paint5_linear_704_1977)"/>
<path d="M75.3828 29.2549H236.468" stroke="#373535" stroke-width="0.28834" stroke-miterlimit="2.61313"/>
<path d="M84.0714 33.274L84.1148 34.1237L84.051 34.0242C83.9234 33.843 83.7933 33.7104 83.6657 33.6261C83.5381 33.5419 83.4003 33.4909 83.2549 33.473C83.1095 33.4552 83.015 33.445 82.9742 33.445C82.5991 33.445 82.2929 33.593 82.0556 33.889C81.8209 34.185 81.7009 34.6085 81.7009 35.1597C81.7009 35.2847 81.7162 35.494 81.7443 35.7925C81.7724 36.0911 81.8974 36.3641 82.1168 36.6116C82.3363 36.8591 82.5991 36.9842 82.9104 36.9842C83.0967 36.9842 83.2728 36.9433 83.4386 36.8617L83.5815 36.7826V35.596C83.5815 35.3766 83.5254 35.2005 83.4106 35.0678H84.4389C84.319 35.2209 84.2603 35.3996 84.2603 35.6011V35.8334V36.6193C84.2603 36.7341 84.2628 36.8081 84.2679 36.8413C84.273 36.8744 84.2883 36.9229 84.319 36.9867L84.1837 37.0352L84.0485 37.076L83.755 37.15C83.4514 37.224 83.1605 37.2597 82.8824 37.2597C82.3542 37.2597 81.928 37.122 81.604 36.8464C81.2799 36.5708 81.0911 36.2748 81.04 35.9635C80.9865 35.6522 80.9609 35.4225 80.9609 35.2745C80.9609 35.1929 80.9635 35.1342 80.9686 35.0934C80.9737 35.0525 81.0145 34.8076 81.0936 34.3559C81.1727 33.9068 81.4304 33.5981 81.8693 33.4348C82.3082 33.2715 82.6297 33.1873 82.8339 33.1873C82.987 33.1873 83.1605 33.2051 83.3544 33.2383L83.7193 33.3021C83.7474 33.3072 83.7882 33.3097 83.8418 33.3097C83.8852 33.3097 83.9209 33.3072 83.949 33.3021L84.0765 33.2817L84.0714 33.274ZM87.8862 35.1163H85.5361L85.5233 35.2669C85.5233 35.8053 85.6178 36.2135 85.804 36.4917C85.9929 36.7698 86.2582 36.9102 86.6002 36.9102C86.6716 36.9102 86.7482 36.9025 86.8324 36.8897C86.9166 36.8744 86.9982 36.8515 87.0824 36.8183C87.1666 36.7851 87.2789 36.7213 87.4243 36.6295C87.5698 36.5376 87.6846 36.433 87.7714 36.3182L87.6566 36.8336L87.5698 36.8974C87.2993 37.0939 87.085 37.2011 86.9268 37.2189C86.7686 37.2368 86.6665 37.2495 86.6206 37.2572C86.5721 37.2648 86.5185 37.2674 86.4573 37.2674C86.0388 37.2674 85.6841 37.1373 85.4009 36.877C85.1151 36.6167 84.9543 36.3488 84.916 36.0681C84.8778 35.79 84.8599 35.6011 84.8599 35.5016C84.8599 35.0627 84.9875 34.6902 85.2452 34.3789C85.5029 34.0701 85.753 33.8966 85.998 33.8609C86.2429 33.8252 86.4113 33.8073 86.5006 33.8073C86.8783 33.8073 87.1896 33.9145 87.4371 34.1288C87.6846 34.3432 87.8326 34.6341 87.8811 35.0015L87.8888 35.1163H87.8862ZM85.5795 34.8739H86.7813H86.9089H86.988C87.1258 34.8739 87.1947 34.8025 87.1947 34.6596C87.1947 34.6034 87.1794 34.5269 87.1488 34.4325C87.1181 34.3381 87.0416 34.2488 86.9191 34.1722C86.7966 34.0931 86.6537 34.0548 86.4879 34.0548C86.4547 34.0548 86.4164 34.0574 86.3731 34.065C86.3297 34.0727 86.2659 34.0854 86.1791 34.1084C86.0924 34.1288 85.9903 34.2003 85.8678 34.3202C85.7453 34.4401 85.656 34.5856 85.5999 34.7616L85.5795 34.8765V34.8739ZM88.3021 37.1679C88.417 37.0403 88.4731 36.8668 88.4731 36.6473V36.4458V34.4172C88.4731 34.2641 88.4654 34.1594 88.4527 34.0982C88.4399 34.0395 88.4016 33.963 88.343 33.8737H89.1059V34.259L89.2692 34.1008C89.5244 33.9043 89.8178 33.8073 90.1444 33.8073C90.1776 33.8073 90.2133 33.8099 90.2542 33.815C90.295 33.8201 90.3996 33.8328 90.5706 33.8532C90.7415 33.8737 90.8921 33.963 91.0273 34.1186C91.16 34.2743 91.2264 34.5141 91.2264 34.8433V36.6448C91.2264 36.7877 91.2366 36.8923 91.2544 36.9586C91.2748 37.025 91.3157 37.0939 91.3846 37.1653H90.5553L90.614 36.7086V36.2365V35.0576C90.614 34.4656 90.4073 34.1722 89.9939 34.1722C89.9046 34.1722 89.7796 34.1875 89.6162 34.2181C89.4555 34.2488 89.3253 34.333 89.2284 34.4682C89.1314 34.6034 89.0829 34.8076 89.0829 35.0781V36.6499C89.0829 36.7877 89.0931 36.8897 89.111 36.9535C89.1314 37.0173 89.1697 37.0888 89.2335 37.1653H88.297L88.3021 37.1679ZM94.8472 35.1163H92.4971L92.4818 35.2669C92.4818 35.8053 92.5762 36.2135 92.7625 36.4917C92.9513 36.7698 93.2167 36.9102 93.5586 36.9102C93.63 36.9102 93.7066 36.9025 93.7908 36.8897C93.875 36.8744 93.9567 36.8515 94.0409 36.8183C94.1251 36.7851 94.2373 36.7213 94.3828 36.6295C94.5282 36.5376 94.6431 36.433 94.7298 36.3182L94.615 36.8336L94.5282 36.8974C94.2578 37.0939 94.0434 37.2011 93.8852 37.2189C93.727 37.2368 93.6249 37.2495 93.579 37.2572C93.5305 37.2648 93.4769 37.2674 93.4157 37.2674C92.9972 37.2674 92.6451 37.1373 92.3593 36.877C92.0735 36.6167 91.9102 36.3488 91.8745 36.0681C91.8362 35.79 91.8158 35.6011 91.8158 35.5016C91.8158 35.0627 91.9459 34.6902 92.2011 34.3789C92.4588 34.0701 92.7089 33.8966 92.9538 33.8609C93.1988 33.8252 93.3672 33.8073 93.4565 33.8073C93.8342 33.8073 94.1455 33.9145 94.393 34.1288C94.6405 34.3432 94.7885 34.6341 94.837 35.0015L94.8446 35.1163H94.8472ZM92.5379 34.8739H93.7398H93.8673H93.9464C94.0842 34.8739 94.1531 34.8025 94.1531 34.6596C94.1531 34.6034 94.1378 34.5269 94.1072 34.4325C94.0766 34.3381 94 34.2488 93.8776 34.1722C93.7551 34.0931 93.6122 34.0548 93.4463 34.0548C93.4131 34.0548 93.3749 34.0574 93.3315 34.065C93.2881 34.0727 93.2243 34.0854 93.1376 34.1084C93.0508 34.1288 92.9487 34.2003 92.8263 34.3202C92.7038 34.4401 92.6145 34.5856 92.5583 34.7616L92.5379 34.8765V34.8739ZM95.2606 37.1679C95.3218 37.1015 95.3652 37.0275 95.3933 36.9459C95.4188 36.8642 95.4315 36.7647 95.4315 36.6448V36.4304V34.4146C95.4315 34.1952 95.3856 34.014 95.2963 33.8711H96.0465V34.3432L96.1103 34.2539C96.3272 34.0191 96.6027 33.8762 96.937 33.8277H97.0391V34.6698L96.9957 34.606C96.8809 34.4146 96.738 34.3202 96.5721 34.3202C96.5109 34.3202 96.4522 34.3304 96.3986 34.3483L96.2914 34.4044C96.2149 34.4529 96.1537 34.5218 96.1103 34.6111C96.0669 34.7004 96.0465 34.8152 96.0465 34.9556V35.0627V36.6422C96.0465 36.8004 96.0541 36.9076 96.0669 36.9637C96.0822 37.0199 96.123 37.0888 96.1894 37.1628H95.2606V37.1679ZM98.9758 35.0678V34.6392C98.9758 34.555 98.9656 34.4376 98.9426 34.2921C98.9222 34.1467 98.7844 34.0752 98.5369 34.0752C98.4425 34.0752 98.3328 34.0957 98.2103 34.139C98.0878 34.1824 97.9781 34.2437 97.8811 34.3279C97.7816 34.4121 97.6719 34.5345 97.5469 34.6953L97.4525 34.8305L97.4014 34.8943L97.3938 34.1314C97.5239 34.0548 97.6872 33.9834 97.8862 33.917C98.0853 33.8507 98.3149 33.8175 98.5726 33.8175C98.6543 33.8175 98.7819 33.8277 98.9554 33.8456C99.1289 33.8635 99.2795 33.9349 99.4019 34.0599C99.5244 34.1824 99.5882 34.3891 99.5882 34.6749V36.6473C99.5882 36.7902 99.5984 36.8948 99.6214 36.9612C99.6418 37.0275 99.6877 37.0964 99.7541 37.1679H99.0192L98.9988 36.7902L98.9273 36.8617C98.7181 37.0582 98.5267 37.1704 98.3558 37.2036C98.1848 37.2368 98.0598 37.2546 97.9832 37.2546C97.7306 37.2546 97.5214 37.1806 97.3504 37.0301C97.182 36.8795 97.0978 36.6984 97.0978 36.484C97.0978 36.308 97.1539 36.1574 97.2662 36.0298C97.3785 35.9048 97.5928 35.7645 97.9092 35.6114L98.2971 35.4251L98.542 35.3026L98.6849 35.2312L98.8227 35.1597L98.9809 35.0678H98.9758ZM98.9758 35.3817L98.8533 35.4455L98.8176 35.4608L98.5395 35.596L98.4884 35.6165L98.3455 35.6956C98.1133 35.8282 97.9551 35.9431 97.8735 36.0375C97.7918 36.1319 97.7536 36.2416 97.7536 36.3667C97.7536 36.5631 97.8199 36.6933 97.9526 36.7647C98.0853 36.8336 98.2027 36.8693 98.3022 36.8693C98.4068 36.8693 98.5446 36.8285 98.7155 36.7443C98.8865 36.6601 98.9733 36.4458 98.9733 36.0987V35.3843L98.9758 35.3817ZM100.254 37.1679C100.354 37.0428 100.405 36.8693 100.405 36.6473V36.433V32.5672C100.405 32.4575 100.4 32.3733 100.392 32.3171C100.382 32.261 100.361 32.1998 100.331 32.1385L100.27 32.0237H101.02V36.6473C101.02 36.78 101.03 36.8821 101.048 36.951C101.068 37.0199 101.101 37.0939 101.155 37.1679H100.254ZM103.712 37.1679C103.855 37.0428 103.926 36.8693 103.926 36.6473V36.433V33.8099C103.926 33.5853 103.87 33.4093 103.755 33.2817C103.969 33.2817 104.146 33.2791 104.283 33.274C104.421 33.2689 104.554 33.2638 104.684 33.2587L105.255 33.223H105.383C105.521 33.223 105.636 33.2357 105.73 33.2613C105.822 33.2868 105.95 33.3531 106.108 33.4552C106.269 33.5598 106.348 33.7537 106.348 34.0395C106.348 34.31 106.233 34.5422 106.006 34.7387C105.881 34.8331 105.728 34.9147 105.541 34.9811L105.462 35.0015L105.677 35.0372C105.952 35.0985 106.166 35.2158 106.32 35.3868C106.473 35.5578 106.549 35.7619 106.549 36.0018C106.549 36.211 106.483 36.4202 106.353 36.6295C106.223 36.8387 106.054 36.9918 105.85 37.0837C105.646 37.1755 105.368 37.224 105.021 37.224H104.893H104.651L104.457 37.1959L104.23 37.1679H103.714H103.712ZM104.612 34.902L104.715 34.9096C105.286 34.9096 105.582 34.7974 105.608 34.5703C105.631 34.3432 105.643 34.2054 105.643 34.1518C105.643 33.718 105.416 33.5011 104.96 33.5011C104.901 33.5011 104.845 33.5011 104.791 33.5037C104.738 33.5062 104.676 33.5139 104.615 33.5292V34.902H104.612ZM104.605 35.2082L104.612 36.4075V36.5657V36.6167C104.612 36.7928 104.679 36.8923 104.814 36.9127C104.947 36.9331 105.023 36.9433 105.044 36.9433C105.062 36.9433 105.074 36.9433 105.079 36.9433C105.284 36.9433 105.457 36.8566 105.597 36.6831C105.738 36.5095 105.809 36.285 105.809 36.0145C105.809 35.8869 105.786 35.7696 105.738 35.6675C105.689 35.5654 105.623 35.4736 105.539 35.397C105.452 35.3179 105.355 35.2669 105.245 35.2439C105.136 35.2209 104.952 35.2082 104.694 35.2082H104.607H104.605ZM106.927 37.1653C106.988 37.099 107.031 37.025 107.06 36.9433C107.085 36.8617 107.1 36.7622 107.1 36.6422V36.4279V34.4121C107.1 34.1926 107.054 34.0114 106.965 33.8686H107.715V34.3406L107.779 34.2513C107.996 34.0166 108.272 33.8737 108.606 33.8252H108.708V34.6672L108.665 34.6034C108.55 34.4121 108.407 34.3177 108.238 34.3177C108.177 34.3177 108.118 34.3279 108.065 34.3457L107.958 34.4019C107.881 34.4503 107.82 34.5192 107.777 34.6085C107.733 34.6978 107.713 34.8127 107.713 34.953V35.0602V36.6397C107.713 36.7979 107.72 36.9051 107.733 36.9612C107.748 37.0173 107.789 37.0862 107.856 37.1602H106.927V37.1653ZM110.642 35.0653V34.6366C110.642 34.5524 110.632 34.435 110.609 34.2896C110.589 34.1441 110.451 34.0727 110.203 34.0727C110.109 34.0727 109.999 34.0931 109.877 34.1365C109.754 34.1799 109.644 34.2411 109.547 34.3253C109.448 34.4095 109.338 34.532 109.213 34.6928L109.119 34.828L109.068 34.8918L109.06 34.1288C109.188 34.0523 109.353 33.9808 109.553 33.9145C109.754 33.8481 109.981 33.815 110.239 33.815C110.321 33.815 110.448 33.8252 110.622 33.843C110.795 33.8609 110.943 33.9324 111.068 34.0574C111.191 34.1799 111.255 34.3865 111.255 34.6723V36.6448C111.255 36.7877 111.265 36.8923 111.285 36.9586C111.306 37.025 111.351 37.0939 111.418 37.1653H110.683L110.663 36.7877L110.591 36.8591C110.382 37.0556 110.19 37.1679 110.019 37.2011C109.849 37.2342 109.724 37.2521 109.647 37.2521C109.394 37.2521 109.185 37.1781 109.014 37.0275C108.846 36.877 108.762 36.6958 108.762 36.4815C108.762 36.3054 108.818 36.1549 108.93 36.0273C109.042 35.9023 109.257 35.7619 109.573 35.6088L109.961 35.4225L110.206 35.3001L110.349 35.2286L110.486 35.1572L110.645 35.0653H110.642ZM110.642 35.3792L110.52 35.4429L110.484 35.4583L110.206 35.5935L110.155 35.6139L110.012 35.693C109.78 35.8257 109.621 35.9405 109.54 36.0349C109.458 36.1293 109.42 36.2391 109.42 36.3641C109.42 36.5606 109.486 36.6907 109.619 36.7622C109.752 36.8311 109.869 36.8668 109.968 36.8668C110.073 36.8668 110.211 36.826 110.382 36.7418C110.553 36.6575 110.64 36.4432 110.64 36.0962V35.3817L110.642 35.3792ZM111.913 37.1653C112.028 37.0377 112.084 36.8642 112.084 36.6448V36.4432V34.4146C112.084 34.2615 112.076 34.1569 112.063 34.0957C112.051 34.037 112.012 33.9604 111.954 33.8711H112.717V34.2564L112.88 34.0982C113.135 33.9017 113.429 33.8048 113.755 33.8048C113.788 33.8048 113.824 33.8073 113.865 33.8124C113.906 33.8175 114.01 33.8303 114.181 33.8507C114.352 33.8711 114.503 33.9604 114.638 34.1161C114.771 34.2717 114.837 34.5116 114.837 34.8407V36.6422C114.837 36.7851 114.847 36.8897 114.865 36.9561C114.886 37.0224 114.926 37.0913 114.993 37.1628H114.163L114.22 36.706V36.234V35.0551C114.22 34.4631 114.013 34.1697 113.6 34.1697C113.51 34.1697 113.385 34.185 113.222 34.2156C113.061 34.2462 112.931 34.3304 112.834 34.4656C112.737 34.6009 112.689 34.805 112.689 35.0755V36.6473C112.689 36.7851 112.699 36.8872 112.717 36.951C112.737 37.0148 112.775 37.0862 112.839 37.1628H111.903L111.913 37.1653ZM117.779 33.8992V32.5774C117.779 32.3682 117.726 32.1819 117.621 32.0211H118.392V36.6448C118.392 36.8744 118.443 37.048 118.542 37.1653H117.779V36.7366C117.685 36.8949 117.547 37.0199 117.368 37.1117C117.19 37.2036 116.986 37.2521 116.756 37.2521C116.376 37.2521 116.057 37.1117 115.799 36.8311C115.541 36.5504 115.414 36.1906 115.414 35.7543C115.414 35.5782 115.455 35.3307 115.536 35.0168C115.618 34.7004 115.827 34.435 116.169 34.2207C116.508 34.0089 116.983 33.9017 117.588 33.9017H117.782L117.779 33.8992ZM117.779 34.9352V34.7923C117.779 34.3585 117.601 34.1416 117.246 34.1416C117.164 34.1416 117.029 34.1671 116.84 34.2207C116.651 34.2717 116.475 34.4197 116.314 34.6596C116.154 34.8994 116.072 35.2056 116.072 35.5782V35.8206C116.105 36.1498 116.189 36.4049 116.327 36.5886C116.462 36.7724 116.603 36.8744 116.746 36.8949C116.891 36.9153 116.978 36.9255 117.011 36.9255C117.246 36.9255 117.432 36.8387 117.57 36.6677C117.71 36.4968 117.779 36.2544 117.779 35.938V34.9301V34.9352ZM118.986 37.1653L119.073 37.0735C119.144 36.9688 119.18 36.826 119.18 36.6448V36.4151V34.407C119.18 34.2692 119.17 34.1646 119.152 34.0931C119.134 34.0217 119.098 33.9477 119.042 33.8711H119.792V36.6422C119.792 36.7851 119.803 36.8897 119.821 36.9561C119.841 37.0224 119.879 37.0913 119.943 37.1628H118.986V37.1653ZM119.101 32.8071C119.101 32.7024 119.139 32.6106 119.216 32.5289C119.292 32.4473 119.384 32.4064 119.494 32.4064C119.599 32.4064 119.693 32.4447 119.775 32.5238C119.859 32.6029 119.9 32.6973 119.9 32.8071C119.9 32.9117 119.859 33.0035 119.777 33.0775C119.695 33.1541 119.601 33.1924 119.491 33.1924C119.382 33.1924 119.29 33.1541 119.213 33.0775C119.137 33.001 119.098 32.9117 119.098 32.8071H119.101ZM120.379 37.1653C120.494 37.0377 120.55 36.8642 120.55 36.6448V36.4432V34.4146C120.55 34.2615 120.543 34.1569 120.53 34.0957C120.517 34.037 120.479 33.9604 120.42 33.8711H121.183V34.2564L121.346 34.0982C121.602 33.9017 121.895 33.8048 122.222 33.8048C122.255 33.8048 122.293 33.8073 122.331 33.8124C122.372 33.8175 122.477 33.8303 122.648 33.8507C122.819 33.8711 122.969 33.9604 123.105 34.1161C123.237 34.2717 123.304 34.5116 123.304 34.8407V36.6422C123.304 36.7851 123.314 36.8897 123.332 36.9561C123.352 37.0224 123.393 37.0913 123.459 37.1628H122.63L122.686 36.706V36.234V35.0551C122.686 34.4631 122.479 34.1697 122.066 34.1697C121.977 34.1697 121.852 34.185 121.688 34.2156C121.528 34.2462 121.397 34.3304 121.3 34.4656C121.204 34.6009 121.155 34.805 121.155 35.0755V36.6473C121.155 36.7851 121.165 36.8872 121.183 36.951C121.204 37.0148 121.242 37.0862 121.306 37.1628H120.369L120.379 37.1653ZM124.824 37.1806H124.694C124.556 37.1806 124.408 37.1449 124.248 37.076C124.087 37.0046 124.008 36.8744 124.008 36.6831C124.008 36.5733 124.041 36.4815 124.107 36.4075C124.174 36.3309 124.263 36.2595 124.373 36.188C124.482 36.1166 124.6 36.0579 124.722 36.012L124.845 35.9686L124.738 35.9482C124.48 35.8818 124.281 35.7594 124.138 35.5833C123.995 35.4072 123.924 35.198 123.924 34.953C123.924 34.8535 123.952 34.7081 124.005 34.5167C124.061 34.3253 124.204 34.1595 124.439 34.0166C124.671 33.8737 124.993 33.8022 125.404 33.8022C125.569 33.8022 125.743 33.8124 125.922 33.8354C126.1 33.8558 126.271 33.8686 126.437 33.8762C126.6 33.8788 126.753 33.8813 126.891 33.8813H127.006H127.106V34.361L127.047 34.333L126.968 34.2972C126.858 34.2539 126.753 34.2181 126.649 34.1901C126.547 34.162 126.455 34.1467 126.373 34.1467L126.322 34.139H126.271C126.491 34.2972 126.6 34.5269 126.6 34.8331C126.6 34.9045 126.585 35.0245 126.554 35.1954C126.524 35.3638 126.399 35.5399 126.179 35.7211C125.96 35.9022 125.697 35.9916 125.386 35.9916H125.322H125.258H125.222L125.136 36.0196C124.988 36.0732 124.88 36.1268 124.814 36.1829C124.748 36.2365 124.707 36.2952 124.692 36.3564C124.676 36.4177 124.671 36.4534 124.671 36.4687C124.671 36.5784 124.704 36.6422 124.768 36.6575C124.832 36.6729 124.901 36.678 124.972 36.678H125.25H125.465H125.592L125.799 36.6575L126.001 36.6473C126.177 36.6473 126.345 36.6729 126.508 36.7213C126.672 36.7724 126.799 36.8617 126.899 36.9918C126.996 37.122 127.044 37.2725 127.044 37.446C127.044 37.5404 127.032 37.6323 127.006 37.7165C126.981 37.8033 126.894 37.9589 126.746 38.1834C126.598 38.4105 126.368 38.6045 126.057 38.7652C125.746 38.926 125.49 39.023 125.294 39.0536C125.095 39.0842 124.929 39.0995 124.789 39.0995C124.63 39.0995 124.472 39.0816 124.314 39.0459C124.156 39.0102 124.015 38.9234 123.896 38.7831C123.776 38.6453 123.717 38.4871 123.717 38.311C123.717 38.1758 123.755 38.0406 123.834 37.8977C123.913 37.7573 124.018 37.6323 124.153 37.5251C124.286 37.4179 124.462 37.3184 124.681 37.2266L124.824 37.1755V37.1806ZM124.59 34.8714V35.0423C124.623 35.2439 124.689 35.4021 124.784 35.5169C124.88 35.6343 124.98 35.7007 125.082 35.7211C125.187 35.7389 125.256 35.7491 125.289 35.7491C125.483 35.7491 125.641 35.6828 125.766 35.5501C125.891 35.4174 125.955 35.2388 125.955 35.0143V34.8433C125.955 34.6188 125.904 34.4376 125.804 34.2998C125.705 34.162 125.603 34.0803 125.501 34.0574C125.398 34.0344 125.312 34.0217 125.24 34.0217C125.046 34.0217 124.888 34.0982 124.768 34.2513C124.648 34.4044 124.59 34.6111 124.59 34.8739V34.8714ZM125.212 37.1806L125.097 37.2368C124.878 37.3567 124.717 37.4741 124.613 37.5915C124.508 37.7063 124.444 37.8186 124.424 37.9283C124.403 38.0355 124.391 38.1171 124.391 38.1681C124.391 38.5815 124.671 38.7882 125.233 38.7882C125.358 38.7882 125.47 38.7729 125.569 38.7423C125.669 38.7116 125.809 38.6428 125.99 38.5381C126.172 38.4335 126.302 38.3008 126.381 38.1426C126.46 37.9819 126.498 37.8543 126.498 37.7522C126.498 37.6042 126.445 37.4792 126.337 37.3771C126.23 37.275 126.121 37.2164 126.006 37.2062C125.891 37.1934 125.812 37.1883 125.766 37.1857C125.72 37.1832 125.684 37.1832 125.656 37.1832C125.603 37.1832 125.552 37.1832 125.495 37.1832C125.442 37.1832 125.386 37.1832 125.327 37.1832H125.212V37.1806ZM129.484 37.1653V32.0211H130.027V37.1653H129.484ZM132.599 36.9663V36.137L132.655 36.2799C132.745 36.4789 132.852 36.6371 132.977 36.7494C133.099 36.8617 133.219 36.928 133.329 36.9484C133.441 36.9688 133.531 36.9816 133.597 36.9816C133.788 36.9816 133.947 36.928 134.077 36.8183C134.204 36.7086 134.278 36.5912 134.299 36.4687C134.317 36.3462 134.327 36.2722 134.327 36.2467C134.327 36.1191 134.294 36.0018 134.227 35.8971C134.161 35.7925 134.038 35.67 133.862 35.5323L133.52 35.2822C133.268 35.0959 133.069 34.9198 132.923 34.754C132.778 34.5881 132.706 34.3814 132.706 34.1314C132.706 33.9451 132.76 33.7741 132.867 33.6159C132.974 33.4577 133.115 33.3455 133.286 33.274C133.457 33.2026 133.628 33.1668 133.799 33.1668C133.985 33.1668 134.164 33.1898 134.334 33.2357C134.505 33.2817 134.61 33.3046 134.648 33.3046C134.692 33.3046 134.738 33.2868 134.791 33.2536V34.111C134.753 33.9834 134.681 33.8481 134.577 33.7104C134.472 33.5726 134.35 33.4909 134.212 33.4679C134.074 33.445 133.99 33.4322 133.962 33.4322C133.791 33.4322 133.651 33.4858 133.541 33.5904C133.431 33.695 133.378 33.8303 133.378 33.9987C133.378 34.0319 133.378 34.0574 133.378 34.0778C133.388 34.1594 133.413 34.2334 133.457 34.2998C133.5 34.3661 133.574 34.4503 133.679 34.5499L133.794 34.6494L133.929 34.7565L134.051 34.8484L134.209 34.9632L134.383 35.0934L134.546 35.2158C134.847 35.4838 134.998 35.7696 134.998 36.0809C134.998 36.1319 134.998 36.1829 134.998 36.2314C134.983 36.2824 134.96 36.382 134.926 36.5274C134.893 36.6729 134.753 36.8311 134.508 37.002C134.263 37.173 133.967 37.2597 133.617 37.2597C133.398 37.2597 133.204 37.2317 133.036 37.1781C132.867 37.1245 132.719 37.0556 132.597 36.974L132.599 36.9663ZM135.35 35.545C135.35 35.101 135.485 34.7234 135.753 34.4044C136.021 34.088 136.297 33.9068 136.577 33.8609C136.858 33.815 137.047 33.792 137.141 33.792C137.626 33.792 138.037 33.9579 138.371 34.2921C138.705 34.6264 138.871 35.0321 138.871 35.5144C138.871 35.5807 138.871 35.6471 138.871 35.716C138.856 35.7772 138.838 35.8742 138.813 36.0043C138.79 36.1344 138.705 36.308 138.563 36.5249C138.42 36.7417 138.223 36.9178 137.968 37.0505C137.715 37.1832 137.44 37.2495 137.139 37.2495C137.014 37.2495 136.833 37.2291 136.593 37.1883C136.353 37.1475 136.108 37.0071 135.855 36.7622C135.605 36.5198 135.46 36.2824 135.416 36.0502C135.373 35.8206 135.35 35.693 135.347 35.6675C135.345 35.6445 135.345 35.6012 135.345 35.5399L135.35 35.545ZM136.029 35.5374L136.049 35.767C136.105 36.1676 136.23 36.4764 136.424 36.6933C136.618 36.9102 136.848 37.0173 137.121 37.0173C137.422 37.0173 137.675 36.9076 137.884 36.6882C138.093 36.4687 138.198 36.1651 138.198 35.7747V35.6598C138.198 35.5884 138.198 35.5169 138.198 35.4455C138.182 35.3791 138.17 35.2975 138.154 35.2031C138.139 35.1087 138.114 35.0015 138.073 34.8841C138.032 34.7667 137.973 34.6392 137.897 34.5014C137.82 34.3636 137.708 34.2539 137.56 34.1697C137.412 34.0854 137.254 34.0446 137.088 34.0446C136.784 34.0446 136.529 34.1697 136.327 34.4197C136.126 34.6698 136.024 35.0423 136.024 35.5374H136.029ZM139.201 34.1722L139.29 33.8711H139.507V33.2791C139.507 32.8275 139.604 32.4958 139.8 32.2865C139.997 32.0773 140.298 31.9727 140.703 31.9727H140.826L140.897 31.9803L141.071 32.0084L141.214 32.039V32.8887L141.17 32.8173L141.104 32.6948L141.025 32.5723C140.959 32.4626 140.905 32.3886 140.869 32.3503C140.834 32.312 140.785 32.2789 140.724 32.2533C140.665 32.2278 140.612 32.2151 140.563 32.2151C140.476 32.2151 140.4 32.2406 140.328 32.2891C140.259 32.3401 140.211 32.4013 140.185 32.4779C140.16 32.5544 140.142 32.6361 140.132 32.7254C140.122 32.8147 140.117 32.9372 140.117 33.0928V33.8711H140.76L140.668 34.1722H140.117V36.6448C140.117 36.7928 140.124 36.8949 140.137 36.9561C140.15 37.0148 140.188 37.0862 140.244 37.1679H139.338C139.448 37.0428 139.502 36.8693 139.502 36.6473V36.4458V34.1748H139.195L139.201 34.1722ZM140.823 34.1722L140.895 33.8711H141.117V33.1924L141.732 33.0061V33.8737H142.354L142.298 34.1748H141.734V36.3743V36.5886C141.75 36.7749 141.842 36.8693 142.01 36.8693C142.053 36.8693 142.086 36.8642 142.109 36.854L142.181 36.8234C142.219 36.803 142.255 36.78 142.288 36.7494C142.321 36.7188 142.354 36.6831 142.382 36.6371V37.0224C142.25 37.1322 142.127 37.1934 142.018 37.2036C141.908 37.2164 141.821 37.2215 141.752 37.2215C141.528 37.2215 141.367 37.15 141.267 37.0071C141.168 36.8642 141.117 36.6346 141.117 36.3207V34.1697H140.823V34.1722ZM142.303 33.8711H143.288C143.24 33.9528 143.217 34.037 143.217 34.1288C143.217 34.2156 143.232 34.31 143.263 34.4146L143.901 36.4279L144.431 34.7208C144.485 34.5601 144.511 34.4223 144.511 34.3074C144.511 34.2692 144.511 34.2309 144.511 34.1926C144.495 34.1492 144.488 34.1212 144.483 34.1059L144.419 33.9477L144.398 33.9119L144.37 33.8686H145.192L145.177 33.9196L145.156 33.963V34.1569L145.177 34.3355L145.248 34.5396L145.807 36.3692L146.427 34.407C146.455 34.3202 146.468 34.2462 146.468 34.185C146.468 34.0574 146.409 33.9502 146.289 33.8711H147.067L146.953 33.9783C146.843 34.088 146.761 34.2334 146.71 34.4146L145.853 37.1653H145.424L144.702 34.8076L143.959 37.1653H143.495L142.622 34.407C142.566 34.2309 142.492 34.088 142.4 33.9783L142.308 33.8711H142.303ZM148.912 35.0653V34.6366C148.912 34.5524 148.902 34.435 148.879 34.2896C148.859 34.1441 148.721 34.0727 148.473 34.0727C148.379 34.0727 148.269 34.0931 148.147 34.1365C148.024 34.1799 147.915 34.2411 147.818 34.3253C147.718 34.4095 147.608 34.532 147.483 34.6928L147.389 34.828L147.338 34.8918L147.33 34.1288C147.458 34.0523 147.624 33.9808 147.823 33.9145C148.022 33.8481 148.251 33.815 148.509 33.815C148.591 33.815 148.718 33.8252 148.892 33.843C149.065 33.8609 149.213 33.9324 149.338 34.0574C149.461 34.1799 149.525 34.3865 149.525 34.6723V36.6448C149.525 36.7877 149.535 36.8923 149.555 36.9586C149.576 37.025 149.622 37.0939 149.688 37.1653H148.953L148.933 36.7877L148.861 36.8591C148.652 37.0556 148.461 37.1679 148.29 37.2011C148.119 37.2342 147.994 37.2521 147.917 37.2521C147.664 37.2521 147.455 37.1781 147.284 37.0275C147.116 36.877 147.032 36.6958 147.032 36.4815C147.032 36.3054 147.088 36.1549 147.2 36.0273C147.312 35.9023 147.527 35.7619 147.843 35.6088L148.231 35.4225L148.476 35.3001L148.619 35.2286L148.757 35.1572L148.915 35.0653H148.912ZM148.912 35.3792L148.79 35.4429L148.754 35.4583L148.476 35.5935L148.425 35.6139L148.282 35.693C148.047 35.8257 147.892 35.9405 147.81 36.0349C147.728 36.1293 147.687 36.2391 147.687 36.3641C147.687 36.5606 147.754 36.6907 147.886 36.7622C148.019 36.8311 148.137 36.8668 148.236 36.8668C148.341 36.8668 148.478 36.826 148.649 36.7418C148.82 36.6575 148.907 36.4432 148.907 36.0962V35.3817L148.912 35.3792ZM150.183 37.1653C150.244 37.099 150.288 37.025 150.316 36.9433C150.341 36.8617 150.354 36.7622 150.354 36.6422V36.4279V34.4121C150.354 34.1926 150.308 34.0114 150.219 33.8686H150.969V34.3406L151.033 34.2513C151.25 34.0166 151.525 33.8737 151.859 33.8252H151.961V34.6672L151.918 34.6034C151.803 34.4121 151.66 34.3177 151.495 34.3177C151.433 34.3177 151.375 34.3279 151.321 34.3457L151.214 34.4019C151.137 34.4503 151.076 34.5192 151.033 34.6085C150.989 34.6978 150.969 34.8127 150.969 34.953V35.0602V36.6397C150.969 36.7979 150.977 36.9051 150.989 36.9612C151.005 37.0173 151.045 37.0862 151.112 37.1602H150.183V37.1653ZM155.077 35.1138H152.727L152.712 35.2643C152.712 35.8027 152.806 36.211 152.995 36.4891C153.184 36.7673 153.449 36.9076 153.791 36.9076C153.862 36.9076 153.939 36.9 154.023 36.8872C154.107 36.8719 154.189 36.8489 154.273 36.8158C154.358 36.7826 154.47 36.7188 154.615 36.6269C154.761 36.5351 154.876 36.4304 154.962 36.3156L154.847 36.8311L154.761 36.8949C154.49 37.0913 154.276 37.1985 154.118 37.2164C153.959 37.2342 153.857 37.247 153.811 37.2546C153.763 37.2623 153.709 37.2648 153.648 37.2648C153.23 37.2648 152.878 37.1347 152.592 36.8744C152.306 36.6142 152.143 36.3462 152.107 36.0656C152.069 35.7874 152.051 35.5986 152.051 35.4991C152.051 35.0602 152.178 34.6876 152.436 34.3763C152.694 34.0676 152.944 33.8941 153.189 33.8584C153.434 33.8226 153.602 33.8048 153.692 33.8048C154.067 33.8048 154.38 33.9119 154.628 34.1263C154.876 34.3406 155.024 34.6315 155.072 34.9989L155.08 35.1138H155.077ZM152.768 34.8714H153.97H154.1H154.179C154.317 34.8714 154.386 34.7999 154.386 34.657C154.386 34.6009 154.37 34.5243 154.34 34.4299C154.309 34.3355 154.232 34.2462 154.11 34.1697C153.988 34.0905 153.845 34.0523 153.679 34.0523C153.646 34.0523 153.607 34.0548 153.564 34.0625C153.521 34.0701 153.457 34.0829 153.37 34.1059C153.283 34.1263 153.181 34.1977 153.059 34.3177C152.936 34.4376 152.847 34.583 152.791 34.7591L152.77 34.8739L152.768 34.8714ZM157.562 37.1806C157.705 37.0556 157.777 36.8821 157.777 36.6575V36.4355V33.7971C157.777 33.667 157.764 33.5649 157.741 33.4884C157.718 33.4118 157.677 33.3378 157.619 33.2664H158.063H158.098L158.54 33.223L158.79 33.2026C159.499 33.2026 160.045 33.3531 160.425 33.6568C160.806 33.9604 160.997 34.3993 160.997 34.976C160.997 35.0959 160.969 35.3536 160.91 35.7517C160.854 36.1498 160.614 36.4891 160.196 36.7673C159.777 37.0454 159.157 37.1857 158.338 37.1857H157.966H157.557L157.562 37.1806ZM158.463 36.53V36.7009C158.478 36.7928 158.507 36.8489 158.55 36.877C158.593 36.9025 158.69 36.9153 158.843 36.9153C159.257 36.9153 159.601 36.752 159.872 36.4253C160.142 36.0987 160.28 35.6394 160.28 35.0474L160.252 34.754C160.147 33.9757 159.739 33.5521 159.032 33.4807H158.882C158.723 33.4807 158.616 33.496 158.563 33.5241C158.509 33.5521 158.476 33.6057 158.466 33.6823V33.7257V33.8686V36.5325L158.463 36.53Z" fill="#28410D"/>
<path d="M164.419 35.1166H162.069L162.053 35.2671C162.053 35.8055 162.148 36.2138 162.337 36.4919C162.526 36.77 162.791 36.9104 163.133 36.9104C163.204 36.9104 163.281 36.9027 163.365 36.89C163.449 36.8747 163.531 36.8517 163.615 36.8185C163.699 36.7854 163.812 36.7216 163.957 36.6297C164.102 36.5378 164.217 36.4332 164.304 36.3184L164.189 36.8338L164.102 36.8976C163.832 37.0941 163.618 37.2013 163.459 37.2191C163.301 37.237 163.199 37.2498 163.153 37.2574C163.105 37.2651 163.051 37.2676 162.99 37.2676C162.571 37.2676 162.219 37.1375 161.934 36.8772C161.648 36.617 161.484 36.349 161.449 36.0683C161.41 35.7902 161.393 35.6014 161.393 35.5019C161.393 35.063 161.52 34.6904 161.778 34.3791C162.036 34.0704 162.286 33.8969 162.531 33.8611C162.776 33.8254 162.944 33.8075 163.033 33.8075C163.408 33.8075 163.722 33.9147 163.97 34.1291C164.217 34.3434 164.365 34.6343 164.414 35.0017L164.421 35.1166H164.419ZM162.112 34.8742H163.311H163.442H163.521C163.658 34.8742 163.727 34.8027 163.727 34.6598C163.727 34.6037 163.712 34.5271 163.681 34.4327C163.651 34.3383 163.574 34.249 163.452 34.1724C163.329 34.0933 163.186 34.0551 163.021 34.0551C162.987 34.0551 162.949 34.0576 162.906 34.0653C162.862 34.0729 162.799 34.0857 162.712 34.1086C162.625 34.1291 162.523 34.2005 162.4 34.3204C162.278 34.4404 162.189 34.5858 162.133 34.7619L162.112 34.8767V34.8742ZM164.383 33.8739H165.368C165.348 33.9607 165.34 34.0219 165.34 34.0602C165.34 34.1418 165.371 34.2566 165.429 34.4097L166.162 36.4205L166.894 34.4097C166.927 34.3281 166.945 34.2515 166.945 34.175C166.945 34.05 166.886 33.9504 166.766 33.8739H167.573C167.402 34.0066 167.274 34.1877 167.195 34.4174L166.18 37.1681H165.766L164.751 34.4174C164.669 34.1877 164.546 34.0066 164.378 33.8739H164.383ZM170.571 35.1166H168.221L168.206 35.2671C168.206 35.8055 168.3 36.2138 168.486 36.4919C168.675 36.77 168.94 36.9104 169.282 36.9104C169.354 36.9104 169.43 36.9027 169.515 36.89C169.599 36.8747 169.68 36.8517 169.765 36.8185C169.849 36.7854 169.961 36.7216 170.107 36.6297C170.252 36.5378 170.367 36.4332 170.454 36.3184L170.339 36.8338L170.252 36.8976C169.982 37.0941 169.767 37.2013 169.609 37.2191C169.451 37.237 169.349 37.2498 169.303 37.2574C169.254 37.2651 169.201 37.2676 169.139 37.2676C168.721 37.2676 168.369 37.1375 168.083 36.8772C167.797 36.617 167.637 36.349 167.598 36.0683C167.56 35.7902 167.54 35.6014 167.54 35.5019C167.54 35.063 167.67 34.6904 167.925 34.3791C168.183 34.0704 168.433 33.8969 168.678 33.8611C168.923 33.8254 169.091 33.8075 169.18 33.8075C169.558 33.8075 169.869 33.9147 170.117 34.1291C170.364 34.3434 170.512 34.6343 170.561 35.0017L170.568 35.1166H170.571ZM168.262 34.8742H169.464H169.591H169.67C169.808 34.8742 169.877 34.8027 169.877 34.6598C169.877 34.6037 169.862 34.5271 169.831 34.4327C169.8 34.3383 169.724 34.249 169.601 34.1724C169.479 34.0933 169.336 34.0551 169.17 34.0551C169.137 34.0551 169.099 34.0576 169.055 34.0653C169.012 34.0729 168.948 34.0857 168.861 34.1086C168.777 34.1291 168.673 34.2005 168.55 34.3204C168.428 34.4404 168.338 34.5858 168.282 34.7619L168.262 34.8767V34.8742ZM170.992 37.1681C171.092 37.0431 171.143 36.8696 171.143 36.6476V36.4332V32.5674C171.143 32.4577 171.137 32.3735 171.13 32.3174C171.12 32.2612 171.099 32.2 171.069 32.1387L171.007 32.0239H171.758V36.6476C171.758 36.7803 171.768 36.8823 171.786 36.9512C171.806 37.0201 171.842 37.0941 171.893 37.1681H170.992ZM172.334 35.5452C172.334 35.1013 172.469 34.7236 172.737 34.4046C173.005 34.0882 173.281 33.9071 173.562 33.8611C173.842 33.8152 174.031 33.7922 174.125 33.7922C174.61 33.7922 175.021 33.9581 175.355 34.2924C175.69 34.6266 175.856 35.0324 175.856 35.5146C175.856 35.581 175.856 35.6473 175.856 35.7162C175.843 35.7775 175.822 35.8744 175.799 36.0045C175.776 36.1347 175.692 36.3082 175.549 36.5251C175.406 36.742 175.21 36.918 174.957 37.0507C174.705 37.1834 174.429 37.2498 174.128 37.2498C174.003 37.2498 173.822 37.2294 173.582 37.1885C173.342 37.1477 173.097 37.0074 172.847 36.7624C172.597 36.52 172.452 36.2827 172.408 36.0505C172.365 35.8208 172.342 35.6932 172.339 35.6677C172.337 35.6448 172.337 35.6014 172.337 35.5401L172.334 35.5452ZM173.013 35.5376L173.033 35.7672C173.092 36.1679 173.217 36.4766 173.408 36.6935C173.602 36.9104 173.832 37.0176 174.105 37.0176C174.406 37.0176 174.659 36.9078 174.868 36.6884C175.077 36.469 175.182 36.1653 175.182 35.7749V35.6601C175.182 35.5886 175.182 35.5172 175.182 35.4457C175.167 35.3794 175.154 35.2977 175.138 35.2033C175.126 35.1089 175.098 35.0017 175.057 34.8844C175.016 34.767 174.957 34.6394 174.881 34.5016C174.804 34.3638 174.692 34.2541 174.544 34.1699C174.396 34.0857 174.238 34.0449 174.072 34.0449C173.768 34.0449 173.513 34.1699 173.311 34.42C173.11 34.67 173.008 35.0426 173.008 35.5376H173.013ZM176.284 33.8739H177.07V34.2822C177.307 33.9632 177.639 33.8024 178.063 33.8024C178.453 33.8024 178.777 33.9402 179.037 34.2184C179.298 34.4965 179.428 34.8537 179.428 35.2901C179.428 35.5172 179.379 35.7851 179.282 36.0888C179.185 36.395 178.984 36.6501 178.678 36.8568C178.371 37.0635 177.968 37.1656 177.463 37.1656H177.256H177.157H177.05V38.5026C177.05 38.6506 177.06 38.7553 177.078 38.8165C177.098 38.8777 177.139 38.9466 177.205 39.0181H176.299C176.351 38.9517 176.386 38.8777 176.412 38.8012C176.437 38.7221 176.45 38.6226 176.45 38.5052V38.2832V34.4174C176.45 34.2311 176.419 34.0857 176.358 33.9811L176.287 33.8739H176.284ZM177.047 36.1194V36.247C177.047 36.6935 177.223 36.918 177.573 36.918C177.665 36.918 177.81 36.8874 178.012 36.8262C178.213 36.7649 178.384 36.6169 178.53 36.3822C178.673 36.1474 178.747 35.8336 178.747 35.4457C178.747 35.0808 178.688 34.7925 178.568 34.5807C178.448 34.3689 178.32 34.2464 178.185 34.2133C178.05 34.1801 177.971 34.1597 177.94 34.1571C177.912 34.152 177.869 34.1495 177.81 34.1495C177.575 34.1495 177.389 34.2337 177.251 34.4021C177.113 34.5705 177.047 34.8104 177.047 35.1191V36.1245V36.1194ZM179.857 37.1681C179.925 37.0916 179.969 37.0176 179.994 36.9461C180.017 36.8747 180.028 36.7752 180.028 36.645V36.4307V34.4149C180.028 34.272 180.02 34.1648 180.002 34.0933C179.987 34.0219 179.951 33.9479 179.9 33.8713H180.642V34.2439C180.862 34.0091 181.079 33.879 181.291 33.8458C181.502 33.8152 181.648 33.7999 181.724 33.7999C181.949 33.7999 182.143 33.8458 182.306 33.9402C182.467 34.0321 182.589 34.1648 182.671 34.3383L182.755 34.2464C182.965 34.0219 183.166 33.8918 183.36 33.856C183.554 33.8203 183.689 33.8024 183.771 33.8024C183.852 33.8024 183.985 33.8203 184.174 33.8535C184.363 33.8866 184.516 33.9785 184.636 34.1342C184.756 34.2873 184.814 34.5271 184.814 34.8563V36.645C184.814 36.7828 184.827 36.89 184.855 36.964C184.881 37.038 184.932 37.1069 185.008 37.1681H184.159L184.202 36.7037C184.202 36.6374 184.202 36.5455 184.202 36.4332C184.202 36.3184 184.202 36.2393 184.202 36.1985V35.063V34.841V34.7619C184.202 34.5833 184.141 34.4378 184.021 34.3255C183.898 34.2133 183.745 34.1571 183.562 34.1571C183.447 34.1571 183.281 34.2056 183.056 34.3026C182.834 34.3995 182.722 34.6292 182.722 34.9864V36.6476C182.722 36.7905 182.735 36.8976 182.758 36.9691C182.781 37.0405 182.829 37.1069 182.901 37.1681H182.094L182.11 36.9691V36.6833V36.4052V36.2623V35.1191C182.11 34.4761 181.906 34.1546 181.495 34.1546C181.382 34.1546 181.211 34.198 180.984 34.2822C180.757 34.3689 180.645 34.6088 180.645 35.0043V36.6476C180.645 36.8721 180.696 37.0456 180.796 37.1681H179.859H179.857ZM188.466 35.1166H186.116L186.101 35.2671C186.101 35.8055 186.195 36.2138 186.381 36.4919C186.57 36.77 186.835 36.9104 187.177 36.9104C187.249 36.9104 187.325 36.9027 187.41 36.89C187.494 36.8747 187.575 36.8517 187.66 36.8185C187.744 36.7854 187.856 36.7216 188.002 36.6297C188.147 36.5378 188.262 36.4332 188.349 36.3184L188.234 36.8338L188.147 36.8976C187.876 37.0941 187.662 37.2013 187.504 37.2191C187.346 37.237 187.244 37.2498 187.198 37.2574C187.149 37.2651 187.096 37.2676 187.034 37.2676C186.616 37.2676 186.264 37.1375 185.978 36.8772C185.692 36.617 185.531 36.349 185.493 36.0683C185.455 35.7902 185.435 35.6014 185.435 35.5019C185.435 35.063 185.565 34.6904 185.82 34.3791C186.078 34.0704 186.328 33.8969 186.573 33.8611C186.818 33.8254 186.986 33.8075 187.075 33.8075C187.453 33.8075 187.764 33.9147 188.012 34.1291C188.259 34.3434 188.407 34.6343 188.456 35.0017L188.463 35.1166H188.466ZM186.157 34.8742H187.358H187.486H187.565C187.703 34.8742 187.772 34.8027 187.772 34.6598C187.772 34.6037 187.757 34.5271 187.726 34.4327C187.695 34.3383 187.619 34.249 187.496 34.1724C187.374 34.0933 187.231 34.0551 187.065 34.0551C187.032 34.0551 186.994 34.0576 186.95 34.0653C186.907 34.0729 186.843 34.0857 186.756 34.1086C186.672 34.1291 186.567 34.2005 186.445 34.3204C186.323 34.4404 186.233 34.5858 186.177 34.7619L186.157 34.8767V34.8742ZM188.879 37.1681C188.994 37.0405 189.05 36.867 189.05 36.6476V36.446V34.4174C189.05 34.2643 189.043 34.1597 189.03 34.0984C189.017 34.0397 188.979 33.9632 188.92 33.8739H189.683V34.2592L189.846 34.101C190.102 33.9045 190.395 33.8075 190.722 33.8075C190.755 33.8075 190.793 33.8101 190.834 33.8152C190.875 33.8203 190.979 33.8331 191.15 33.8535C191.321 33.8739 191.472 33.9632 191.607 34.1189C191.74 34.2745 191.806 34.5144 191.806 34.8435V36.645C191.806 36.7879 191.816 36.8925 191.834 36.9589C191.855 37.0252 191.895 37.0941 191.962 37.1656H191.132L191.189 36.7088V36.2367V35.0579C191.189 34.4659 190.982 34.1724 190.569 34.1724C190.479 34.1724 190.352 34.1877 190.191 34.2184C190.03 34.249 189.9 34.3332 189.803 34.4684C189.706 34.6037 189.658 34.8078 189.658 35.0783V36.6501C189.658 36.7879 189.668 36.89 189.686 36.9538C189.706 37.0176 189.744 37.089 189.808 37.1656H188.872L188.879 37.1681ZM192.309 34.175L192.38 33.8739H192.602V33.1951L193.217 33.0089V33.8764H193.84L193.784 34.1775H193.22V36.3771V36.5914C193.235 36.7777 193.327 36.8721 193.495 36.8721C193.539 36.8721 193.572 36.867 193.595 36.8568L193.669 36.8262C193.707 36.8058 193.743 36.7828 193.776 36.7522C193.809 36.7216 193.842 36.6858 193.87 36.6399V37.0252C193.738 37.1349 193.615 37.1962 193.506 37.2064C193.396 37.2191 193.309 37.2242 193.24 37.2242C193.016 37.2242 192.855 37.1528 192.755 37.0099C192.656 36.867 192.605 36.6374 192.605 36.3235V34.1724H192.311L192.309 34.175ZM196.274 37.1681V32.0239H196.818V37.1681H196.274ZM199.474 37.1681C199.596 37.0354 199.66 36.8619 199.66 36.6476V36.4332V33.8101C199.66 33.6289 199.632 33.4835 199.573 33.3738L199.502 33.2589H200.518C200.403 33.4171 200.347 33.6009 200.347 33.8152V36.6374C200.347 36.8568 200.4 37.0329 200.505 37.1656H199.476L199.474 37.1681ZM200.681 34.0244V33.2589H203.738V34.0525L203.694 33.9887C203.6 33.8509 203.483 33.7489 203.345 33.6851C203.207 33.6213 203.028 33.5881 202.809 33.5881H202.551V36.6399C202.551 36.8211 202.582 36.964 202.643 37.0686L202.715 37.1681H201.671C201.796 37.0405 201.857 36.8645 201.857 36.6399V36.4179V33.5804L201.602 33.5881C201.393 33.5881 201.222 33.6162 201.087 33.6749C200.951 33.731 200.829 33.828 200.722 33.9607L200.678 34.0244H200.681ZM208.941 33.2538V34.0831L208.905 34.0193C208.785 33.8331 208.634 33.6902 208.448 33.5907C208.262 33.4911 208.076 33.4401 207.884 33.4401C207.797 33.4401 207.711 33.4529 207.619 33.4758C207.527 33.4988 207.438 33.5345 207.348 33.5753C207.162 33.68 207.014 33.8305 206.902 34.0244C206.79 34.2184 206.716 34.4837 206.677 34.818L206.649 35.1548C206.649 35.3513 206.665 35.5325 206.693 35.7009C206.721 35.8693 206.777 36.0505 206.856 36.2444C206.938 36.4383 207.07 36.6016 207.257 36.7343C207.443 36.867 207.652 36.9334 207.884 36.9334C208.032 36.9334 208.18 36.9027 208.331 36.8364C208.481 36.7726 208.624 36.6782 208.762 36.5532L208.884 36.4307L208.956 36.3516L209.007 36.2878L208.936 36.7394C208.622 37.0814 208.208 37.2549 207.7 37.2549C207.652 37.2549 207.609 37.2549 207.57 37.2523C207.532 37.2498 207.376 37.2217 207.103 37.1681C206.83 37.1145 206.565 36.9002 206.307 36.5327C206.05 36.1627 205.922 35.7111 205.922 35.1727C205.922 34.5628 206.101 34.078 206.455 33.7182C206.81 33.3585 207.264 33.1798 207.818 33.1798C207.966 33.1798 208.109 33.1926 208.249 33.2207C208.389 33.2462 208.484 33.264 208.53 33.2717C208.578 33.2793 208.624 33.2819 208.673 33.2819C208.696 33.2819 208.747 33.2742 208.823 33.2615H208.887H208.946L208.941 33.2538ZM209.354 35.5478C209.354 35.1038 209.489 34.7262 209.757 34.4072C210.025 34.0908 210.301 33.9096 210.581 33.8637C210.862 33.8178 211.051 33.7948 211.145 33.7948C211.63 33.7948 212.041 33.9607 212.375 34.2949C212.709 34.6292 212.875 35.0349 212.875 35.5172C212.875 35.5835 212.875 35.6499 212.875 35.7188C212.86 35.78 212.842 35.877 212.817 36.0071C212.794 36.1372 212.709 36.3107 212.567 36.5276C212.424 36.7445 212.227 36.9206 211.972 37.0533C211.719 37.186 211.444 37.2523 211.143 37.2523C211.018 37.2523 210.837 37.2319 210.597 37.1911C210.357 37.1503 210.112 37.0099 209.859 36.7649C209.609 36.5225 209.464 36.2852 209.42 36.053C209.377 35.8234 209.354 35.6958 209.351 35.6703C209.349 35.6473 209.349 35.6039 209.349 35.5427L209.354 35.5478ZM210.033 35.5401L210.053 35.7698C210.109 36.1704 210.234 36.4792 210.428 36.6961C210.622 36.9129 210.852 37.0201 211.125 37.0201C211.426 37.0201 211.679 36.9104 211.888 36.6909C212.097 36.4715 212.202 36.1679 212.202 35.7774V35.6626C212.202 35.5912 212.202 35.5197 212.202 35.4483C212.186 35.3819 212.174 35.3003 212.158 35.2059C212.143 35.1115 212.117 35.0043 212.077 34.8869C212.036 34.7695 211.977 34.642 211.901 34.5042C211.824 34.3664 211.712 34.2566 211.564 34.1724C211.416 34.0882 211.258 34.0474 211.092 34.0474C210.788 34.0474 210.533 34.1724 210.331 34.4225C210.13 34.6726 210.028 35.0451 210.028 35.5401H210.033ZM213.304 37.1681C213.419 37.0405 213.475 36.867 213.475 36.6476V36.446V34.4174C213.475 34.2643 213.467 34.1597 213.455 34.0984C213.442 34.0397 213.404 33.9632 213.345 33.8739H214.108V34.2592L214.271 34.101C214.526 33.9045 214.82 33.8075 215.146 33.8075C215.179 33.8075 215.215 33.8101 215.256 33.8152C215.297 33.8203 215.401 33.8331 215.572 33.8535C215.743 33.8739 215.894 33.9632 216.029 34.1189C216.162 34.2745 216.228 34.5144 216.228 34.8435V36.645C216.228 36.7879 216.238 36.8925 216.256 36.9589C216.277 37.0252 216.318 37.0941 216.386 37.1656H215.557L215.616 36.7088V36.2367V35.0579C215.616 34.4659 215.409 34.1724 214.996 34.1724C214.906 34.1724 214.781 34.1877 214.618 34.2184C214.457 34.249 214.327 34.3332 214.23 34.4684C214.133 34.6037 214.085 34.8078 214.085 35.0783V36.6501C214.085 36.7879 214.095 36.89 214.113 36.9538C214.133 37.0176 214.172 37.089 214.235 37.1656H213.299L213.304 37.1681ZM216.825 37.0176V36.224L216.869 36.2954L216.925 36.3873L217.024 36.5302C217.129 36.668 217.228 36.7726 217.32 36.8415C217.412 36.9104 217.512 36.9563 217.616 36.9818C217.693 36.992 217.746 36.9946 217.775 36.9946C217.94 36.9946 218.078 36.9436 218.183 36.844C218.287 36.7445 218.341 36.6144 218.341 36.4511C218.341 36.4026 218.336 36.3465 218.323 36.2776C218.31 36.2087 218.262 36.1296 218.178 36.0428C218.091 35.9535 217.917 35.8412 217.652 35.706C217.387 35.5708 217.188 35.4202 217.052 35.2569C216.917 35.0936 216.848 34.9175 216.848 34.7313C216.848 34.6445 216.889 34.471 216.971 34.2056C217.052 33.9402 217.456 33.8101 218.178 33.8101C218.298 33.8203 218.382 33.8305 218.435 33.8433C218.489 33.856 218.571 33.8815 218.686 33.9173L218.765 33.9453L218.808 33.9607V34.6394L218.78 34.5833L218.724 34.4965C218.627 34.3536 218.522 34.2464 218.405 34.1724C218.287 34.0984 218.16 34.0627 218.02 34.0627C217.889 34.0627 217.775 34.0984 217.675 34.1699C217.576 34.2413 217.514 34.3204 217.496 34.4046C217.476 34.4888 217.468 34.5552 217.468 34.596C217.468 34.6955 217.507 34.7899 217.583 34.8742C217.66 34.9609 217.792 35.0528 217.979 35.1523L218.196 35.2671L218.374 35.3666C218.785 35.609 218.992 35.8897 218.992 36.2112C218.992 36.3056 218.969 36.4383 218.923 36.6118C218.877 36.7828 218.737 36.9359 218.497 37.0686C218.259 37.2013 217.961 37.2676 217.604 37.2676C217.323 37.2396 217.065 37.1554 216.833 37.0176H216.825ZM219.369 33.8662H220.132V35.9254C220.132 36.2725 220.176 36.5149 220.265 36.6501C220.352 36.7854 220.518 36.867 220.76 36.89H220.939C221.064 36.89 221.173 36.8645 221.275 36.816C221.375 36.765 221.459 36.6961 221.526 36.6067C221.592 36.5174 221.635 36.4358 221.656 36.3618C221.674 36.2878 221.684 36.1602 221.684 35.9841V34.4046C221.684 34.1852 221.635 34.0066 221.541 33.8662H222.299V36.6501C222.299 36.7369 222.301 36.8109 222.309 36.8721C222.317 36.9334 222.342 36.9997 222.383 37.0737L222.462 37.1732H221.684V36.7369C221.459 37.0712 221.097 37.237 220.602 37.237L220.364 37.2166C220.043 37.1681 219.824 37.0635 219.701 36.8976C219.579 36.7343 219.517 36.4536 219.517 36.0581V34.4149C219.517 34.2337 219.489 34.0857 219.431 33.9709L219.367 33.8637L219.369 33.8662ZM222.957 37.1681C223.057 37.0431 223.108 36.8696 223.108 36.6476V36.4332V32.5674C223.108 32.4577 223.102 32.3735 223.095 32.3174C223.085 32.2612 223.064 32.2 223.034 32.1387L222.972 32.0239H223.723V36.6476C223.723 36.7803 223.733 36.8823 223.751 36.9512C223.771 37.0201 223.807 37.0941 223.858 37.1681H222.957ZM224.215 34.175L224.286 33.8739H224.508V33.1951L225.123 33.0089V33.8764H225.746L225.687 34.1775H225.123V36.3771V36.5914C225.136 36.7777 225.231 36.8721 225.399 36.8721C225.442 36.8721 225.476 36.867 225.498 36.8568L225.57 36.8262C225.608 36.8058 225.644 36.7828 225.677 36.7522C225.71 36.7216 225.743 36.6858 225.772 36.6399V37.0252C225.639 37.1349 225.516 37.1962 225.407 37.2064C225.297 37.2191 225.21 37.2242 225.141 37.2242C224.917 37.2242 224.756 37.1528 224.656 37.0099C224.557 36.867 224.506 36.6374 224.506 36.3235V34.1724H224.212L224.215 34.175ZM227.831 35.0681V34.6394C227.831 34.5552 227.821 34.4378 227.798 34.2924C227.777 34.1469 227.639 34.0755 227.392 34.0755C227.297 34.0755 227.188 34.0959 227.065 34.1393C226.943 34.1826 226.833 34.2439 226.736 34.3281C226.637 34.4123 226.527 34.5348 226.402 34.6955L226.307 34.8308L226.256 34.8946L226.249 34.1316C226.379 34.0551 226.542 33.9836 226.741 33.9173C226.94 33.8509 227.17 33.8178 227.428 33.8178C227.509 33.8178 227.637 33.828 227.81 33.8458C227.984 33.8637 228.134 33.9351 228.257 34.0602C228.379 34.1826 228.443 34.3893 228.443 34.6751V36.6476C228.443 36.7905 228.453 36.8951 228.476 36.9614C228.497 37.0278 228.543 37.0967 228.609 37.1681H227.874L227.854 36.7905L227.782 36.8619C227.573 37.0584 227.382 37.1707 227.211 37.2038C227.04 37.237 226.915 37.2549 226.838 37.2549C226.585 37.2549 226.376 37.1809 226.205 37.0303C226.037 36.8798 225.953 36.6986 225.953 36.4843C225.953 36.3082 226.009 36.1576 226.121 36.0301C226.233 35.905 226.448 35.7647 226.764 35.6116L227.152 35.4253L227.397 35.3028L227.54 35.2314L227.678 35.1599L227.836 35.0681H227.831ZM227.831 35.3819L227.708 35.4457L227.673 35.461L227.394 35.5963L227.343 35.6167L227.2 35.6958C226.968 35.8285 226.81 35.9433 226.728 36.0377C226.647 36.1321 226.608 36.2419 226.608 36.3669C226.608 36.5634 226.675 36.6935 226.807 36.7649C226.94 36.8338 227.058 36.8696 227.157 36.8696C227.262 36.8696 227.399 36.8287 227.57 36.7445C227.741 36.6603 227.828 36.446 227.828 36.099V35.3845L227.831 35.3819ZM229.101 37.1681C229.216 37.0405 229.272 36.867 229.272 36.6476V36.446V34.4174C229.272 34.2643 229.265 34.1597 229.252 34.0984C229.239 34.0397 229.201 33.9632 229.142 33.8739H229.908V34.2592L230.071 34.101C230.326 33.9045 230.62 33.8075 230.946 33.8075C230.98 33.8075 231.018 33.8101 231.059 33.8152C231.099 33.8203 231.204 33.8331 231.375 33.8535C231.546 33.8739 231.697 33.9632 231.832 34.1189C231.964 34.2745 232.031 34.5144 232.031 34.8435V36.645C232.031 36.7879 232.041 36.8925 232.059 36.9589C232.079 37.0252 232.12 37.0941 232.189 37.1656H231.36L231.416 36.7088V36.2367V35.0579C231.416 34.4659 231.209 34.1724 230.796 34.1724C230.706 34.1724 230.579 34.1877 230.418 34.2184C230.257 34.249 230.127 34.3332 230.03 34.4684C229.933 34.6037 229.885 34.8078 229.885 35.0783V36.6501C229.885 36.7879 229.895 36.89 229.913 36.9538C229.933 37.0176 229.972 37.089 230.035 37.1656H229.099L229.101 37.1681ZM232.531 34.175L232.602 33.8739H232.824V33.1951L233.439 33.0089V33.8764H234.062L234.003 34.1775H233.439V36.3771V36.5914C233.452 36.7777 233.546 36.8721 233.715 36.8721C233.758 36.8721 233.791 36.867 233.814 36.8568L233.886 36.8262C233.924 36.8058 233.96 36.7828 233.993 36.7522C234.026 36.7216 234.059 36.6858 234.087 36.6399V37.0252C233.955 37.1349 233.832 37.1962 233.723 37.2064C233.613 37.2191 233.526 37.2242 233.457 37.2242C233.233 37.2242 233.072 37.1528 232.972 37.0099C232.873 36.867 232.822 36.6374 232.822 36.3235V34.1724H232.528L232.531 34.175ZM234.304 37.0176V36.224L234.348 36.2954L234.404 36.3873L234.503 36.5302C234.608 36.668 234.708 36.7726 234.799 36.8415C234.891 36.9104 234.991 36.9563 235.095 36.9818C235.172 36.992 235.226 36.9946 235.254 36.9946C235.419 36.9946 235.557 36.9436 235.662 36.844C235.766 36.7445 235.82 36.6144 235.82 36.4511C235.82 36.4026 235.815 36.3465 235.802 36.2776C235.789 36.2087 235.741 36.1296 235.654 36.0428C235.567 35.9535 235.394 35.8412 235.129 35.706C234.863 35.5708 234.664 35.4202 234.529 35.2569C234.394 35.0936 234.325 34.9175 234.325 34.7313C234.325 34.6445 234.366 34.471 234.447 34.2056C234.529 33.9402 234.93 33.8101 235.654 33.8101C235.774 33.8203 235.858 33.8305 235.912 33.8433C235.965 33.856 236.047 33.8815 236.162 33.9173L236.241 33.9453L236.284 33.9607V34.6394L236.256 34.5833L236.2 34.4965C236.103 34.3536 235.996 34.2464 235.879 34.1724C235.761 34.0984 235.634 34.0627 235.493 34.0627C235.366 34.0627 235.248 34.0984 235.149 34.1699C235.049 34.2413 234.988 34.3204 234.97 34.4046C234.95 34.4888 234.942 34.5552 234.942 34.596C234.942 34.6955 234.981 34.7899 235.057 34.8742C235.136 34.9609 235.266 35.0528 235.453 35.1523L235.667 35.2671L235.846 35.3666C236.256 35.609 236.463 35.8897 236.463 36.2112C236.463 36.3056 236.44 36.4383 236.394 36.6118C236.348 36.7828 236.208 36.9359 235.968 37.0686C235.731 37.2013 235.432 37.2676 235.075 37.2676C234.794 37.2396 234.537 37.1554 234.304 37.0176Z" fill="#28410D"/>
<defs>
<linearGradient id="paint0_linear_704_1977" x1="29.6833" y1="19.7189" x2="0" y2="19.7189" gradientUnits="userSpaceOnUse">
<stop stop-color="#141517"/>
<stop offset="1" stop-color="#6A9113"/>
</linearGradient>
<linearGradient id="paint1_linear_704_1977" x1="22.7753" y1="17.4845" x2="6.93164" y2="17.4845" gradientUnits="userSpaceOnUse">
<stop stop-color="#141517"/>
<stop offset="1" stop-color="#6A9113"/>
</linearGradient>
<linearGradient id="paint2_linear_704_1977" x1="22.7261" y1="24.5125" x2="8.52734" y2="24.5125" gradientUnits="userSpaceOnUse">
<stop stop-color="#141517"/>
<stop offset="1" stop-color="#6A9113"/>
</linearGradient>
<linearGradient id="paint3_linear_704_1977" x1="16.8138" y1="18.7013" x2="11.8848" y2="18.7013" gradientUnits="userSpaceOnUse">
<stop stop-color="#141517"/>
<stop offset="1" stop-color="#6A9113"/>
</linearGradient>
<linearGradient id="paint4_linear_704_1977" x1="158.363" y1="18.322" x2="37" y2="18.322" gradientUnits="userSpaceOnUse">
<stop stop-color="#141517"/>
<stop offset="1" stop-color="#6A9113"/>
</linearGradient>
<linearGradient id="paint5_linear_704_1977" x1="236.465" y1="13.9641" x2="166.835" y2="13.9641" gradientUnits="userSpaceOnUse">
<stop stop-color="#141517"/>
<stop offset="1" stop-color="#6A9113"/>
</linearGradient>
</defs>
</svg>
