<svg width="68" height="50" viewBox="0 0 68 50" fill="none" xmlns="http://www.w3.org/2000/svg">
<path fill-rule="evenodd" clip-rule="evenodd" d="M25.46 24.2022H28.1331C28.1574 24.0981 28.2771 23.8899 28.3275 23.7891L29.3411 21.7643C29.4317 21.5918 29.3848 21.5928 29.2464 21.3636L27.6334 18.6754C27.5521 18.5402 27.4811 18.4221 27.4055 18.2957L27.2048 17.9619C27.1864 17.9361 27.1756 17.9252 27.1612 17.9084V22.0153H26.4322V17.9084C26.4171 17.9259 26.4242 17.9138 26.3988 17.9479L26.1968 18.2807C26.1165 18.4153 26.0467 18.5306 25.9691 18.6605L24.2542 21.5149C24.197 21.6073 24.1842 21.6302 24.2346 21.7322L25.2575 23.7732C25.3134 23.8848 25.4352 24.0958 25.46 24.2026V24.2022Z" fill="white"/>
<path fill-rule="evenodd" clip-rule="evenodd" d="M24.2441 26.3886H29.3473V24.9307H24.2441V26.3886Z" fill="white"/>
<path fill-rule="evenodd" clip-rule="evenodd" d="M16.581 30.2981L17.3938 31.2076C17.5341 31.362 17.686 31.4975 17.8267 31.6333C18.0219 31.8218 18.1836 31.9347 18.2565 32.0905C18.4087 32.1293 18.9813 32.6692 19.173 32.8123C20.2364 33.6065 21.2646 34.0935 22.4861 34.6043C23.1517 34.8827 24.4084 35.2149 25.2069 35.2812C25.6626 35.319 26.0137 35.429 26.7427 35.437C27.9918 35.4506 28.5987 35.3934 29.795 35.1311C31.4868 34.7604 32.0615 34.5425 33.5712 33.7382C34.3118 33.3436 34.9358 32.8611 35.5586 32.3436C35.8459 32.1049 37.0611 30.8536 37.1787 30.5307C37.1883 30.4154 36.4107 29.4301 36.2483 29.2019L33.4964 25.4488C33.3921 25.3241 33.454 25.3569 33.2916 25.3062C33.1259 25.4158 32.9668 25.7784 32.8666 25.9567L32.7645 26.1216C32.0433 26.9984 31.7311 27.3341 30.7283 28.0115C28.4101 29.5774 25.0668 29.3756 22.7775 27.5414C22.2255 27.099 21.9092 26.7671 21.4986 26.2009C20.6625 25.0479 20.2107 23.7149 20.2082 22.2202C20.2054 20.6648 20.5993 19.3949 21.4326 18.1761C21.6294 17.8883 21.8428 17.636 22.0145 17.4464C23.156 16.1852 24.705 15.4861 26.4134 15.2784C28.133 15.0693 29.9754 15.6732 31.0675 16.497C31.1833 16.5843 31.3395 16.7155 31.4435 16.7967C32.0469 17.2678 32.5117 17.8921 32.9501 18.5398C33.0539 18.6931 33.1116 18.8339 33.2038 18.9719L35.3344 22.0733C35.8718 22.9194 38.9398 27.1727 39.7453 28.1418L42.7358 31.6995C42.9374 31.9131 43.1484 32.1167 43.4055 32.3434C43.8631 32.747 44.1966 33.128 44.9477 33.4096C46.2491 33.8976 48.3448 33.953 49.6732 33.7339C50.0739 33.6677 50.4566 33.6604 50.8466 33.5909C51.5029 33.4738 53.5099 33.0883 53.9194 32.6531C53.8948 32.2416 52.249 27.3485 52.1705 27.2292C51.4548 27.3654 50.9477 27.8964 49.3703 27.945C48.3929 27.9751 47.3421 27.8207 46.6757 27.1299C46.2446 26.683 43.9901 23.8282 43.5609 23.2377C43.1878 22.7243 42.4607 21.894 42.0165 21.3118C41.0112 19.9938 39.8586 18.6609 38.9325 17.3924C38.8672 17.3028 37.4975 15.5527 37.4918 15.4551C37.3351 15.3829 37.2088 15.1688 37.1053 15.0231C37.0045 14.8812 36.8828 14.767 36.7733 14.6297C36.5945 14.4051 36.2505 14.0593 36.1329 13.775C35.942 13.6405 35.5701 13.1235 35.423 12.9525C33.1907 10.3591 31.9054 9.25314 28.19 8.90599C25.953 8.69683 23.3018 9.16341 21.5013 10.1123C20.3588 10.7144 20.4761 10.6111 19.4439 11.3051C19.1933 11.4736 18.7839 11.7478 18.5165 12.006C18.2588 12.2548 17.9916 12.489 17.6995 12.7702C17.4384 13.0215 17.1647 13.3205 16.9184 13.6164C15.4001 15.4424 14.2662 17.7851 13.938 20.2876C13.679 22.2622 13.8532 24.375 14.404 26.0776C15.2616 28.7287 16.4364 29.9312 16.581 30.2981Z" fill="white"/>
<path fill-rule="evenodd" clip-rule="evenodd" d="M35.9781 7.55713L39.2572 11.7438C39.3257 11.8333 39.4368 11.94 39.4997 12.0294L39.6046 12.1589C39.6541 12.2168 39.6746 12.2364 39.7329 12.3016L40.2047 12.9198C40.3484 13.1858 40.3505 13.046 40.4497 13.2634C40.6785 13.3817 43.0824 16.6051 43.7538 17.4049L44.8535 18.8014C45.0117 18.8551 45.4353 19.4157 45.5826 19.6125C45.6282 19.3419 45.6107 14.2268 45.5966 13.3688C45.5861 12.7416 45.5262 12.9003 47.4277 12.9003C49.1275 12.9003 51.2174 12.9498 52.8295 12.8967C52.9433 12.5764 52.868 8.16105 52.8691 7.43356C50.9172 7.38562 48.5944 7.43107 46.5695 7.43024C46.3526 7.43024 45.8674 7.50073 45.7364 7.38015C45.5078 7.17497 45.7664 0.917495 45.6568 0.0126939L39.2865 -0.000244141C39.1412 0.718621 39.4137 7.19952 39.1954 7.39076C39.1872 7.3969 39.1721 7.39242 39.1674 7.40403L38.8486 7.43289C38.7116 7.43256 38.5779 7.43356 38.4399 7.43173L36.001 7.43356C35.9543 7.50123 35.9747 7.42775 35.978 7.55729L35.9781 7.55713Z" fill="white"/>
<path d="M5.82008 44.3571L5.69618 45.7151C5.42565 45.7998 5.20389 45.865 5.03106 45.9091C4.52234 46.0428 4.01861 46.1097 3.51819 46.1097C2.49927 46.1097 1.67757 45.8048 1.04993 45.1967C0.712393 44.869 0.453146 44.4891 0.272185 44.0556C0.0912251 43.6218 0 43.167 0 42.6893C0 41.9948 0.182617 41.3705 0.549347 40.8162C0.890037 40.301 1.33191 39.9195 1.87644 39.675C2.37521 39.4452 2.92472 39.331 3.523 39.331C3.95674 39.331 4.45069 39.3735 5.00817 39.4583C5.10271 39.4714 5.17934 39.4778 5.2364 39.4778C5.37341 39.4778 5.49399 39.4062 5.59517 39.2627V40.8293C5.44838 40.6206 5.30988 40.4707 5.17934 40.381C4.77181 40.1055 4.28118 39.967 3.70728 39.967C3.27354 39.967 2.87264 40.0582 2.50408 40.2408C2.13719 40.4251 1.83896 40.6777 1.61388 41.0021C1.31382 41.4423 1.16388 41.9869 1.16388 42.6389C1.16388 43.4833 1.40356 44.1486 1.88126 44.6344C2.32959 45.0893 2.936 45.3175 3.69733 45.3175C4.17834 45.3175 4.63629 45.2067 5.06838 44.9849C5.30805 44.861 5.48736 44.7388 5.60462 44.6182C5.65837 44.5645 5.73019 44.478 5.81992 44.3575L5.82008 44.3571Z" fill="white"/>
<path d="M8.83543 41.0325C9.56242 41.0325 10.1494 41.2657 10.5994 41.7303C11.0575 42.2046 11.2874 42.8029 11.2874 43.522C11.2874 44.2489 11.0446 44.8587 10.5571 45.3526C10.0778 45.8368 9.49093 46.0798 8.79313 46.0798C8.40517 46.0798 8.03993 45.9983 7.7009 45.8336C7.36187 45.6689 7.07492 45.4376 6.83839 45.1375C6.47813 44.6794 6.29883 44.1348 6.29883 43.504C6.29883 42.9676 6.44065 42.4851 6.72428 42.0547C7.17261 41.3732 7.87688 41.0325 8.83543 41.0325ZM8.80275 41.7074C8.32506 41.7074 7.93709 41.9079 7.6387 42.3106C7.39089 42.6465 7.26699 43.0557 7.26699 43.5366C7.26699 44.0355 7.39902 44.4657 7.66325 44.831C7.95185 45.2271 8.3219 45.4244 8.77339 45.4244C9.01307 45.4244 9.23964 45.3641 9.45809 45.2418C9.67654 45.1211 9.85749 44.9549 10.0043 44.7446C10.2146 44.4349 10.3189 44.0274 10.3189 43.5236C10.3189 43.0378 10.2032 42.6253 9.96995 42.2863C9.70423 41.8998 9.31461 41.7075 8.80275 41.7075V41.7074Z" fill="white"/>
<path d="M15.9665 44.2108V42.0768C15.9665 41.8063 15.9486 41.6334 15.9142 41.5568C15.8636 41.4296 15.7626 41.3253 15.6127 41.2453C15.5687 41.2209 15.479 41.1818 15.3453 41.1312H17.3115C17.0849 41.2143 16.9285 41.304 16.8388 41.4034C16.7686 41.48 16.7263 41.5696 16.7149 41.6708C16.6986 41.7636 16.6905 41.899 16.6905 42.0766V46.2208L13.1006 42.3963V45.0372C13.1006 45.311 13.1185 45.4839 13.1529 45.5572C13.2051 45.6875 13.3045 45.7919 13.4546 45.8685C13.4985 45.893 13.5883 45.932 13.722 45.9826H11.7558C11.9824 45.8995 12.1389 45.8098 12.2285 45.7104C12.2987 45.6338 12.341 45.5441 12.3524 45.4431C12.3687 45.3502 12.377 45.2148 12.377 45.037V42.096C12.3736 41.783 12.3134 41.5613 12.196 41.4276C12.0802 41.3087 11.8976 41.2108 11.6465 41.1309H13.0583L15.9668 44.2105L15.9665 44.2108Z" fill="white"/>
<path d="M20.3263 41.0367L20.403 42.3881C20.2399 42.1778 20.1079 42.0295 20.0052 41.9431C19.782 41.7622 19.5275 41.6709 19.2408 41.6709C19.0304 41.6709 18.869 41.7232 18.7582 41.8292C18.6489 41.9302 18.5952 42.0493 18.5952 42.183C18.5952 42.3037 18.636 42.4031 18.716 42.483C18.7957 42.5661 18.9067 42.6542 19.0502 42.7471L19.6549 43.1335C20.2272 43.5036 20.5125 43.9682 20.5125 44.529C20.5125 44.979 20.3429 45.3523 20.0054 45.6522C19.6826 45.9392 19.3059 46.0826 18.8724 46.0826C18.4794 46.0826 18.0769 46.0029 17.666 45.8413V44.6185C18.0883 45.1125 18.5007 45.3586 18.9034 45.3586C19.13 45.3586 19.3207 45.2755 19.474 45.1092C19.5995 44.9755 19.6614 44.8303 19.6614 44.6739C19.6614 44.3789 19.4559 44.1 19.0435 43.8424L18.5446 43.531C18.0181 43.2032 17.7539 42.7892 17.7539 42.2888C17.7539 41.8861 17.917 41.5649 18.2414 41.3221C18.499 41.1314 18.8201 41.0352 19.2049 41.0352C19.3924 41.0352 19.6533 41.0693 19.9875 41.1378C20.0283 41.1476 20.0658 41.1524 20.0966 41.1524C20.1358 41.1524 20.2124 41.1133 20.3265 41.0367H20.3263Z" fill="white"/>
<path d="M21.5585 45.037V42.0765C21.5585 41.8059 21.5406 41.6331 21.5064 41.5565C21.4558 41.4293 21.3565 41.3249 21.2097 41.245C21.1624 41.2206 21.0712 41.1814 20.9375 41.1309H23.0699C22.8433 41.214 22.6867 41.3037 22.5972 41.403C22.5272 41.4797 22.4847 41.5692 22.4733 41.6704C22.457 41.7633 22.4487 41.8987 22.4487 42.0763V45.0368C22.4487 45.3107 22.4666 45.4835 22.501 45.5568C22.5532 45.6872 22.6509 45.7915 22.7977 45.8682C22.845 45.8959 22.9362 45.935 23.0699 45.9823H20.9375C21.1641 45.8992 21.3207 45.8095 21.4102 45.7101C21.4802 45.6335 21.5227 45.5437 21.5341 45.4427C21.5504 45.3498 21.5585 45.2145 21.5585 45.0367V45.037Z" fill="white"/>
<path d="M27.1148 44.2284C27.0284 44.7861 26.9696 45.3712 26.937 45.9826H23.4629C23.6895 45.8995 23.846 45.8098 23.9356 45.7104C24.0056 45.6338 24.0481 45.5441 24.0595 45.4431C24.0758 45.3502 24.0839 45.2148 24.0839 45.037V42.0765C24.0839 41.8059 24.066 41.6331 24.0318 41.5565C23.9812 41.4293 23.8819 41.3249 23.7351 41.245C23.6878 41.2206 23.5966 41.1814 23.4629 41.1309H25.5953C25.3687 41.214 25.2121 41.3037 25.1226 41.403C25.0526 41.4797 25.0101 41.5692 24.9986 41.6704C24.9824 41.7633 24.9741 41.8987 24.9741 42.0763V44.719C24.9774 44.9358 25.0035 45.0776 25.0507 45.1445C25.1078 45.2243 25.2169 45.2651 25.38 45.2684H25.8381C26.2081 45.2651 26.4968 45.1657 26.7038 44.9685C26.8718 44.799 27.0086 44.5528 27.1146 44.2282L27.1148 44.2284Z" fill="white"/>
<path d="M27.9667 45.037V42.0765C27.9667 41.8059 27.9488 41.6331 27.9146 41.5565C27.864 41.4293 27.7647 41.3249 27.6179 41.245C27.5706 41.2206 27.4794 41.1814 27.3457 41.1309H29.4781C29.2515 41.214 29.0949 41.3037 29.0054 41.403C28.9354 41.4797 28.8929 41.5692 28.8815 41.6704C28.8652 41.7633 28.8569 41.8987 28.8569 42.0763V45.0368C28.8569 45.3107 28.8748 45.4835 28.9092 45.5568C28.9614 45.6872 29.0591 45.7915 29.2059 45.8682C29.2532 45.8959 29.3444 45.935 29.4781 45.9823H27.3457C27.5723 45.8992 27.7289 45.8095 27.8184 45.7101C27.8884 45.6335 27.9309 45.5437 27.9423 45.4427C27.9586 45.3498 27.9667 45.2145 27.9667 45.0367V45.037Z" fill="white"/>
<path d="M32.4936 41.0325C33.2206 41.0325 33.8076 41.2657 34.2576 41.7303C34.7157 42.2046 34.9456 42.8029 34.9456 43.522C34.9456 44.2489 34.7028 44.8587 34.2153 45.3526C33.736 45.8368 33.1491 46.0798 32.4513 46.0798C32.0634 46.0798 31.6981 45.9983 31.3591 45.8336C31.0201 45.6689 30.7331 45.4376 30.4966 45.1375C30.1363 44.6794 29.957 44.1348 29.957 43.504C29.957 42.9676 30.0988 42.4851 30.3825 42.0547C30.8308 41.3732 31.5351 41.0325 32.4936 41.0325ZM32.4609 41.7074C31.9833 41.7074 31.5953 41.9079 31.2969 42.3106C31.0491 42.6465 30.9252 43.0557 30.9252 43.5366C30.9252 44.0355 31.0572 44.4657 31.3215 44.831C31.6101 45.2271 31.9801 45.4244 32.4316 45.4244C32.6713 45.4244 32.8978 45.3641 33.1163 45.2418C33.3347 45.1211 33.5157 44.9549 33.6625 44.7446C33.8728 44.4349 33.9771 44.0274 33.9771 43.5236C33.9771 43.0378 33.8614 42.6253 33.6282 42.2863C33.3624 41.8998 32.9728 41.7075 32.4609 41.7075V41.7074Z" fill="white"/>
<path d="M42.3089 42.6167C42.2991 42.7569 42.2941 42.907 42.2941 43.065C42.2941 43.2379 42.2991 43.4041 42.3089 43.5673C42.128 43.4825 41.9486 43.4401 41.7693 43.4401C41.7481 43.4401 41.7171 43.4434 41.6796 43.4482C41.8541 43.6666 41.9422 43.9275 41.9422 44.2259C41.9422 44.7705 41.7139 45.2171 41.2558 45.5643C40.845 45.8756 40.346 46.0322 39.7609 46.0322C39.0549 46.0322 38.5285 45.809 38.1828 45.3638C37.9431 45.0639 37.8242 44.723 37.8242 44.3415C37.8242 43.9176 37.9612 43.5802 38.2367 43.3276C38.3198 43.2526 38.4373 43.1727 38.5889 43.0896C38.3916 42.8499 38.2938 42.5794 38.2938 42.2777C38.2938 42.0609 38.3492 41.862 38.4616 41.6827C38.5726 41.5017 38.7274 41.3616 38.9246 41.2587C39.1513 41.1413 39.4495 41.0828 39.8196 41.0828C40.0234 41.0828 40.2484 41.1007 40.4945 41.1365V42.0103C40.2679 41.8489 40.0462 41.7673 39.8325 41.7673C39.6303 41.7673 39.4641 41.8375 39.3321 41.9776C39.2196 42.0982 39.1641 42.2481 39.1641 42.4259C39.1641 42.7764 39.3727 43.0504 39.7917 43.2477C39.6091 43.2851 39.451 43.3389 39.3173 43.409C38.9473 43.6031 38.763 43.8688 38.763 44.2062C38.763 44.5046 38.8886 44.7441 39.138 44.9219C39.3338 45.0621 39.5797 45.1322 39.8733 45.1322C40.2467 45.1322 40.5336 45.0214 40.7325 44.7997C40.9004 44.6122 40.9835 44.3969 40.9835 44.1558C40.9835 43.9617 40.9248 43.807 40.809 43.6895C40.6884 43.5689 40.5531 43.5086 40.4014 43.5086C40.3542 43.5086 40.2563 43.5183 40.108 43.5379C40.1309 43.3097 40.1422 43.1564 40.1422 43.0798C40.1422 43.0032 40.1293 42.8466 40.1031 42.6119C40.2334 42.6494 40.3263 42.6754 40.3802 42.6917C40.5841 42.7471 40.8448 42.7749 41.1628 42.7749C41.5197 42.7749 41.8296 42.7406 42.0936 42.6723C42.1328 42.6625 42.2044 42.6446 42.3087 42.6169L42.3089 42.6167Z" fill="white"/>
<path d="M50.4699 39.1968V40.9233C50.2856 40.4064 49.8847 40.1505 49.2652 40.1538H48.1909V45.0331C48.1909 45.3103 48.2088 45.4848 48.2431 45.5581C48.2954 45.6885 48.3931 45.7928 48.5399 45.8694C48.5871 45.8971 48.6785 45.9363 48.8122 45.9835H46.5722C46.7988 45.9004 46.9552 45.8107 47.0449 45.7113C47.1151 45.6347 47.1574 45.545 47.1688 45.444C47.1851 45.3511 47.1932 45.2141 47.1932 45.0331V40.1538H46.1726C45.7569 40.157 45.4521 40.2386 45.258 40.3983C45.1275 40.5026 45.02 40.6788 44.9336 40.9233V39.1968C45.0509 39.2913 45.1537 39.3565 45.2433 39.3925C45.3638 39.4365 45.5546 39.4593 45.8155 39.4593H49.5911C50.002 39.4593 50.2954 39.3713 50.4699 39.1969V39.1968Z" fill="white"/>
<path d="M51.849 43.7428V44.7178C51.8523 44.941 51.8815 45.0878 51.9354 45.158C51.9957 45.2427 52.1114 45.2852 52.2844 45.2884H52.7425C53.1142 45.285 53.4028 45.1857 53.6098 44.99C53.7778 44.8204 53.913 44.5743 54.019 44.2515C53.9293 44.8042 53.869 45.3812 53.8364 45.9828H50.4062C50.6328 45.8997 50.7894 45.81 50.879 45.7106C50.949 45.634 50.9914 45.5443 51.0029 45.4433C51.0191 45.3504 51.0273 45.2134 51.0273 45.0324V42.0767C51.0273 41.8062 51.0093 41.6333 50.9752 41.5567C50.9246 41.4295 50.8252 41.3251 50.6784 41.2452C50.6312 41.2208 50.5399 41.1817 50.4062 41.1311H53.1157C53.2983 41.1311 53.4351 41.0984 53.5232 41.0349C53.5705 41.0005 53.639 40.9239 53.7271 40.8066V42.4238C53.6471 42.2591 53.5542 42.1254 53.4466 42.0244C53.3129 41.9037 53.1776 41.8287 53.0422 41.7994C52.9395 41.7717 52.7781 41.7569 52.5564 41.7569H51.8488V43.0676H52.4748C52.7844 43.0642 53.0193 43.0236 53.1822 42.9437C53.3159 42.8768 53.4283 42.7562 53.5212 42.5817V44.2169C53.4479 44.0571 53.3615 43.943 53.2636 43.8712C53.1543 43.7979 53.0435 43.7587 52.9294 43.7523C52.8528 43.7458 52.7077 43.7425 52.4942 43.7425H51.8486L51.849 43.7428Z" fill="white"/>
<path d="M58.9968 44.4733L58.8777 45.7725C58.7473 45.8116 58.669 45.8345 58.6444 45.8443C58.1195 46.0026 57.637 46.0807 57.1984 46.0807C56.4159 46.0807 55.7866 45.8541 55.3139 45.4025C54.7791 44.8954 54.5117 44.2744 54.5117 43.5375C54.5117 43.143 54.5965 42.7713 54.7677 42.424C54.9372 42.0767 55.1768 41.7866 55.485 41.555C55.9463 41.2077 56.5185 41.0334 57.2032 41.0334C57.562 41.0334 57.9483 41.0644 58.3623 41.1263C58.4258 41.136 58.4797 41.1409 58.5237 41.1409C58.597 41.1409 58.659 41.1148 58.7111 41.0611C58.7193 41.0529 58.7372 41.0317 58.7634 41.0007C58.7732 40.9909 58.7861 40.9763 58.8058 40.9551V42.4109C58.6444 42.1696 58.4749 41.9969 58.2956 41.8924C58.0234 41.731 57.7022 41.6496 57.3338 41.6496C57.0258 41.6496 56.7436 41.7131 56.4845 41.8386C56.2253 41.9642 56.0166 42.1385 55.8586 42.362C55.6451 42.6668 55.5391 43.0483 55.5391 43.5031C55.5391 44.0883 55.7086 44.5514 56.0493 44.8888C56.3606 45.2003 56.7877 45.3567 57.3308 45.3567C57.7644 45.3567 58.1687 45.2311 58.5404 44.9817C58.6285 44.9246 58.7818 44.7551 58.9969 44.4729L58.9968 44.4733Z" fill="white"/>
<path d="M60.7537 43.0388H62.9644V42.077C62.9644 41.8064 62.9465 41.6336 62.9121 41.557C62.8616 41.4264 62.7622 41.3223 62.6154 41.2455C62.5681 41.2178 62.4769 41.1786 62.3431 41.1314H64.4754C64.2489 41.2145 64.0923 41.3042 64.0027 41.4035C63.9326 41.4802 63.8903 41.5697 63.8788 41.6709C63.8626 41.7638 63.8543 41.8992 63.8543 42.0768V45.0373C63.8543 45.3112 63.8722 45.484 63.9065 45.5573C63.9588 45.6877 64.0565 45.792 64.2033 45.8687C64.2505 45.8964 64.3417 45.9355 64.4754 45.9828H62.3431C62.5698 45.8997 62.7262 45.81 62.8158 45.7106C62.8859 45.634 62.9282 45.5442 62.9397 45.4432C62.9559 45.3503 62.9641 45.215 62.9641 45.0372V43.7819H60.7534V45.0372C60.7534 45.311 60.7713 45.4839 60.8056 45.5572C60.8579 45.6875 60.9556 45.7919 61.1024 45.8685C61.1496 45.8962 61.2409 45.9353 61.3746 45.9826H59.2422C59.4688 45.8995 59.6253 45.8098 59.7149 45.7104C59.7849 45.6338 59.8274 45.5441 59.8388 45.4431C59.8551 45.3502 59.8632 45.2148 59.8632 45.037V42.0765C59.8632 41.8059 59.8453 41.6331 59.8111 41.5565C59.7605 41.4293 59.6612 41.3249 59.5144 41.245C59.4671 41.2206 59.3759 41.1814 59.2422 41.1309H61.3746C61.148 41.214 60.9914 41.3037 60.9018 41.403C60.8319 41.4797 60.7894 41.5692 60.7779 41.6704C60.7617 41.7633 60.7534 41.8987 60.7534 42.0763V43.0382L60.7537 43.0388Z" fill="white"/>
<path d="M67.549 41.0367L67.6256 42.3881C67.4626 42.1778 67.3306 42.0295 67.2279 41.9431C67.0046 41.7622 66.7502 41.6709 66.4634 41.6709C66.2531 41.6709 66.0917 41.7232 65.9809 41.8292C65.8716 41.9302 65.8179 42.0493 65.8179 42.183C65.8179 42.3037 65.8587 42.4031 65.9386 42.483C66.0184 42.5661 66.1294 42.6542 66.2728 42.7471L66.8776 43.1335C67.4498 43.5036 67.7351 43.9682 67.7351 44.529C67.7351 44.979 67.5656 45.3523 67.2281 45.6522C66.9053 45.9392 66.5286 46.0826 66.095 46.0826C65.7021 46.0826 65.2995 46.0029 64.8887 45.8413V44.6185C65.311 45.1125 65.7233 45.3586 66.126 45.3586C66.3526 45.3586 66.5434 45.2755 66.6966 45.1092C66.8222 44.9755 66.884 44.8303 66.884 44.6739C66.884 44.3789 66.6785 44.1 66.2662 43.8424L65.7673 43.531C65.2408 43.2032 64.9766 42.7892 64.9766 42.2888C64.9766 41.8861 65.1396 41.5649 65.4641 41.3221C65.7217 41.1314 66.0428 41.0352 66.4276 41.0352C66.615 41.0352 66.8759 41.0693 67.2101 41.1378C67.2509 41.1476 67.2884 41.1524 67.3193 41.1524C67.3584 41.1524 67.4351 41.1133 67.5492 41.0367H67.549Z" fill="white"/>
<path d="M0.256595 48.9863H0.545865C0.599606 48.9863 0.646047 48.9817 0.685523 48.9726C0.724833 48.9633 0.757678 48.9479 0.783553 48.926C0.809594 48.9042 0.828834 48.8749 0.84144 48.8379C0.854046 48.8011 0.860347 48.754 0.860347 48.6971C0.860347 48.6317 0.852053 48.5793 0.835135 48.5398C0.818382 48.5005 0.792675 48.4707 0.758341 48.4504C0.724006 48.4304 0.681542 48.4172 0.631284 48.4114C0.580861 48.4056 0.522312 48.4027 0.455136 48.4027H0.256429V48.9863H0.256595ZM0.256595 48.2015H0.535745C0.582685 48.2015 0.623823 48.1976 0.658987 48.19C0.694316 48.1826 0.724005 48.1683 0.748387 48.1474C0.772604 48.1265 0.790683 48.098 0.80246 48.0618C0.814236 48.0258 0.820043 47.9792 0.820043 47.9221C0.820043 47.8651 0.813737 47.8186 0.801131 47.7825C0.788526 47.7465 0.769285 47.718 0.743244 47.6969C0.717203 47.676 0.684196 47.6612 0.643891 47.6529C0.603585 47.6446 0.554989 47.6403 0.497931 47.6403C0.455967 47.6403 0.412342 47.642 0.36706 47.6453C0.321779 47.6486 0.284792 47.6529 0.256429 47.6579V48.2013L0.256595 48.2015ZM0 47.4821C0.0738105 47.4687 0.157572 47.4574 0.251618 47.4481C0.345498 47.4388 0.430257 47.4343 0.505561 47.4343C0.589489 47.4343 0.666117 47.4423 0.735781 47.4582C0.805445 47.4741 0.864991 47.5002 0.91442 47.5362C0.963848 47.5722 1.00249 47.6204 1.03019 47.6808C1.05789 47.7412 1.07166 47.815 1.07166 47.9022C1.07166 48.0011 1.05358 48.0834 1.01759 48.1487C0.981595 48.2141 0.924869 48.2637 0.847741 48.2972C0.948422 48.334 1.01842 48.3891 1.0579 48.4619C1.09737 48.5348 1.11694 48.6216 1.11694 48.7223C1.11694 48.8128 1.10317 48.8888 1.07548 48.9498C1.04778 49.0111 1.00913 49.0596 0.959701 49.0958C0.910273 49.132 0.851887 49.1575 0.784877 49.1726C0.717867 49.1877 0.644887 49.1953 0.5661 49.1953H0.0605396C0.0202341 49.1953 0.000166028 49.1761 0.000166028 49.1374V47.4823L0 47.4821Z" fill="white"/>
<path d="M2.26658 47.9067C2.30008 47.9067 2.32281 47.9121 2.33458 47.9229C2.34619 47.9339 2.35216 47.9485 2.35216 47.9669V48.1354C2.34039 48.1337 2.32878 48.1329 2.317 48.1329C2.30522 48.1329 2.29428 48.1329 2.28433 48.1329C2.21549 48.1329 2.15313 48.1439 2.0969 48.1656C2.04067 48.1873 1.98825 48.2243 1.93966 48.2762V49.1944H1.74592C1.70561 49.1944 1.68555 49.1752 1.68555 49.1366V47.914H1.83897C1.8607 47.914 1.87679 47.9186 1.88674 47.9277C1.89686 47.937 1.90432 47.9533 1.9093 47.9768L1.91942 48.0875C1.95807 48.0405 2.00749 47.9986 2.06787 47.9617C2.12825 47.9249 2.19443 47.9065 2.26658 47.9065V47.9067Z" fill="white"/>
<path d="M3.13516 49.1941H2.94143C2.90112 49.1941 2.88105 49.1749 2.88105 49.1363V47.9137H3.07478C3.11509 47.9137 3.13516 47.9331 3.13516 47.9715V49.1941ZM3.00943 47.7125C2.95403 47.7125 2.91423 47.702 2.89001 47.6809C2.86563 47.66 2.85352 47.6244 2.85352 47.5741C2.85352 47.5255 2.86563 47.4902 2.89001 47.4685C2.91423 47.4467 2.9542 47.4358 3.00943 47.4358C3.06301 47.4358 3.10248 47.4467 3.12769 47.4685C3.1529 47.4902 3.16551 47.5255 3.16551 47.5741C3.16551 47.6244 3.1529 47.66 3.12769 47.6809C3.10248 47.7018 3.06317 47.7125 3.00943 47.7125Z" fill="white"/>
<path d="M3.81624 49.1947C3.77593 49.1947 3.75586 49.1754 3.75586 49.1368V47.9142H3.90929C3.9277 47.9142 3.94329 47.9185 3.95573 47.9268C3.96834 47.9351 3.9763 47.952 3.97961 47.977L3.98973 48.055C4.09373 47.9425 4.22709 47.8865 4.38963 47.8865C4.52714 47.8865 4.62533 47.9263 4.68388 48.0059C4.7426 48.0855 4.77196 48.1917 4.77196 48.3242V49.1947H4.57823C4.55982 49.1947 4.54505 49.1897 4.5341 49.1796C4.52316 49.1695 4.51785 49.1552 4.51785 49.1368V48.3444C4.51785 48.2572 4.49944 48.1948 4.46262 48.157C4.4258 48.1192 4.37206 48.1004 4.30156 48.1004C4.23273 48.1004 4.17401 48.1142 4.12558 48.1419C4.07698 48.1696 4.03833 48.1976 4.0098 48.2262V49.1947H3.81607H3.81624Z" fill="white"/>
<path d="M5.34961 48.5428C5.34961 48.4171 5.36172 48.3126 5.3861 48.2296C5.41049 48.1467 5.44781 48.0804 5.49806 48.0309C5.54849 47.9815 5.61168 47.9467 5.68798 47.9264C5.76428 47.9064 5.85451 47.8962 5.95834 47.8962C6.02535 47.8962 6.09501 47.8996 6.16717 47.9064C6.23932 47.913 6.30052 47.9206 6.35078 47.9289C6.38263 47.9339 6.40651 47.9415 6.42244 47.9516C6.43836 47.9618 6.44632 47.9818 6.44632 48.012V48.1202H6.35078C6.35576 48.2258 6.35924 48.3303 6.3609 48.4333C6.36256 48.5365 6.36339 48.6383 6.36339 48.739V49.1893C6.36339 49.337 6.32225 49.4492 6.24015 49.5264C6.15805 49.6035 6.03049 49.6422 5.85783 49.6422C5.83096 49.6422 5.80077 49.641 5.76726 49.6383C5.73376 49.6359 5.69975 49.6325 5.66542 49.6282C5.63109 49.6241 5.59841 49.6189 5.56739 49.6131C5.53638 49.6073 5.51083 49.6002 5.4906 49.5917C5.46887 49.5834 5.45493 49.573 5.44913 49.5604C5.44332 49.5478 5.44034 49.5323 5.44034 49.5138V49.4081C5.49906 49.4166 5.55777 49.4232 5.61649 49.4283C5.67521 49.4333 5.73143 49.4358 5.78501 49.4358C5.90742 49.4358 5.99251 49.4186 6.04028 49.3842C6.08805 49.3499 6.11193 49.2908 6.11193 49.2069V49.0508C6.06334 49.0843 6.01424 49.1104 5.96481 49.1288C5.91538 49.1472 5.857 49.1565 5.78999 49.1565C5.70274 49.1565 5.63109 49.1414 5.57486 49.1112C5.51863 49.081 5.47385 49.0387 5.44034 48.9842C5.40684 48.9298 5.38328 48.8651 5.37001 48.7904C5.35658 48.7158 5.34994 48.6332 5.34994 48.5426L5.34961 48.5428ZM5.60355 48.5378C5.60355 48.6166 5.60853 48.6828 5.61865 48.7365C5.62877 48.7903 5.64419 48.8339 5.66525 48.8674C5.68615 48.9009 5.71352 48.9248 5.74703 48.939C5.78053 48.9533 5.82001 48.9604 5.86529 48.9604C5.91886 48.9604 5.96464 48.9525 6.0023 48.9366C6.04011 48.9206 6.07644 48.9009 6.11177 48.8775V48.1027C6.0849 48.0994 6.05769 48.0973 6.02999 48.0964C6.00229 48.0956 5.97675 48.0953 5.9532 48.0953C5.89117 48.0953 5.83825 48.1011 5.79463 48.1129C5.75101 48.1245 5.71501 48.1469 5.68649 48.1795C5.65796 48.2122 5.63706 48.2572 5.62345 48.3141C5.61002 48.3711 5.60339 48.4458 5.60339 48.538L5.60355 48.5378Z" fill="white"/>
<path d="M7.25234 49.1941H7.05861C7.0183 49.1941 6.99824 49.1749 6.99824 49.1363V47.9137H7.19197C7.23227 47.9137 7.25234 47.9331 7.25234 47.9715V49.1941ZM7.12662 47.7125C7.07122 47.7125 7.03141 47.702 7.00719 47.6809C6.98281 47.66 6.9707 47.6244 6.9707 47.5741C6.9707 47.5255 6.98281 47.4902 7.00719 47.4685C7.03141 47.4467 7.07138 47.4358 7.12662 47.4358C7.18019 47.4358 7.21967 47.4467 7.24488 47.4685C7.27009 47.4902 7.28269 47.5255 7.28269 47.5741C7.28269 47.6244 7.27009 47.66 7.24488 47.6809C7.21967 47.7018 7.18036 47.7125 7.12662 47.7125Z" fill="white"/>
<path d="M7.93147 49.1947C7.89117 49.1947 7.87109 49.1754 7.87109 49.1368V47.9142H8.02452C8.04293 47.9142 8.05852 47.9185 8.07096 47.9268C8.08357 47.9351 8.09153 47.952 8.09485 47.977L8.10497 48.055C8.20897 47.9425 8.34232 47.8865 8.50487 47.8865C8.64238 47.8865 8.74057 47.9263 8.79912 48.0059C8.85784 48.0855 8.88719 48.1917 8.88719 48.3242V49.1947H8.69346C8.67505 49.1947 8.66029 49.1897 8.64934 49.1796C8.63839 49.1695 8.63309 49.1552 8.63309 49.1368V48.3444C8.63309 48.2572 8.61467 48.1948 8.57785 48.157C8.54103 48.1192 8.48729 48.1004 8.4168 48.1004C8.34796 48.1004 8.28924 48.1142 8.24081 48.1419C8.19221 48.1696 8.15357 48.1976 8.12504 48.2262V49.1947H7.93131H7.93147Z" fill="white"/>
<path d="M9.4668 48.5428C9.4668 48.4171 9.4789 48.3126 9.50329 48.2296C9.52767 48.1467 9.56499 48.0804 9.61525 48.0309C9.66567 47.9815 9.72886 47.9467 9.80516 47.9264C9.88146 47.9064 9.97169 47.8962 10.0755 47.8962C10.1425 47.8962 10.2122 47.8996 10.2843 47.9064C10.3565 47.913 10.4177 47.9206 10.468 47.9289C10.4998 47.9339 10.5237 47.9415 10.5396 47.9516C10.5555 47.9618 10.5635 47.9818 10.5635 48.012V48.1202H10.468C10.4729 48.2258 10.4764 48.3303 10.4781 48.4333C10.4797 48.5365 10.4806 48.6383 10.4806 48.739V49.1893C10.4806 49.337 10.4394 49.4492 10.3573 49.5264C10.2752 49.6035 10.1477 49.6422 9.97501 49.6422C9.94814 49.6422 9.91795 49.641 9.88445 49.6383C9.85094 49.6359 9.81694 49.6325 9.7826 49.6282C9.74827 49.6241 9.71559 49.6189 9.68458 49.6131C9.65356 49.6073 9.62802 49.6002 9.60778 49.5917C9.58605 49.5834 9.57212 49.573 9.56632 49.5604C9.56051 49.5478 9.55753 49.5323 9.55753 49.5138V49.4081C9.61624 49.4166 9.67496 49.4232 9.73367 49.4283C9.79239 49.4333 9.84862 49.4358 9.9022 49.4358C10.0246 49.4358 10.1097 49.4186 10.1575 49.3842C10.2052 49.3499 10.2291 49.2908 10.2291 49.2069V49.0508C10.1805 49.0843 10.1314 49.1104 10.082 49.1288C10.0326 49.1472 9.97418 49.1565 9.90717 49.1565C9.81992 49.1565 9.74827 49.1414 9.69204 49.1112C9.63581 49.081 9.59103 49.0387 9.55753 48.9842C9.52402 48.9298 9.50047 48.8651 9.4872 48.7904C9.47376 48.7158 9.46713 48.6332 9.46713 48.5426L9.4668 48.5428ZM9.72074 48.5378C9.72074 48.6166 9.72571 48.6828 9.73583 48.7365C9.74595 48.7903 9.76137 48.8339 9.78244 48.8674C9.80334 48.9009 9.83071 48.9248 9.86421 48.939C9.89772 48.9533 9.93719 48.9604 9.98247 48.9604C10.036 48.9604 10.0818 48.9525 10.1195 48.9366C10.1573 48.9206 10.1936 48.9009 10.229 48.8775V48.1027C10.2021 48.0994 10.1749 48.0973 10.1472 48.0964C10.1195 48.0956 10.0939 48.0953 10.0704 48.0953C10.0083 48.0953 9.95544 48.1011 9.91181 48.1129C9.86819 48.1245 9.8322 48.1469 9.80367 48.1795C9.77514 48.2122 9.75424 48.2572 9.74064 48.3141C9.72721 48.3711 9.72057 48.4458 9.72057 48.538L9.72074 48.5378Z" fill="white"/>
<path d="M12.7173 47.4519C12.7642 47.4519 12.7835 47.4728 12.7752 47.5148L12.7475 47.6783C12.7291 47.7856 12.7043 47.9052 12.6733 48.0367C12.6423 48.1684 12.6075 48.3021 12.5685 48.438C12.5299 48.5738 12.4884 48.7075 12.4439 48.8392C12.3995 48.9709 12.3545 49.0895 12.3094 49.1952H12.0682C12.0449 49.1952 12.0276 49.1905 12.0167 49.1814C12.0057 49.1721 11.9969 49.1592 11.9903 49.1424C11.9434 49.0266 11.8967 48.9001 11.8511 48.7626C11.8059 48.6251 11.7627 48.4829 11.7224 48.3363C11.6818 48.1895 11.6453 48.0411 11.6134 47.891C11.5816 47.7408 11.5552 47.5945 11.5352 47.4521H11.7616C11.7967 47.4521 11.8168 47.4715 11.8219 47.51C11.8337 47.5939 11.8488 47.6891 11.8672 47.7956C11.886 47.9021 11.9092 48.0165 11.9367 48.1389C11.9644 48.2613 11.9971 48.3895 12.0352 48.5237C12.0731 48.6579 12.1173 48.7938 12.1678 48.9313C12.218 48.7904 12.263 48.6516 12.3015 48.5149C12.3401 48.3783 12.3736 48.2466 12.4013 48.12C12.429 47.9935 12.4524 47.8739 12.4721 47.7616C12.4914 47.6493 12.507 47.5461 12.5187 47.4522H12.7175L12.7173 47.4519Z" fill="white"/>
<path d="M13.5727 49.1941H13.3789C13.3386 49.1941 13.3186 49.1749 13.3186 49.1363V47.9137H13.5123C13.5526 47.9137 13.5727 47.9331 13.5727 47.9715V49.1941ZM13.4469 47.7125C13.3915 47.7125 13.3517 47.702 13.3275 47.6809C13.3031 47.66 13.291 47.6244 13.291 47.5741C13.291 47.5255 13.3031 47.4902 13.3275 47.4685C13.3517 47.4467 13.3917 47.4358 13.4469 47.4358C13.5005 47.4358 13.54 47.4467 13.5652 47.4685C13.5904 47.4902 13.603 47.5255 13.603 47.5741C13.603 47.6244 13.5904 47.66 13.5652 47.6809C13.54 47.7018 13.5007 47.7125 13.4469 47.7125Z" fill="white"/>
<path d="M14.1518 48.9857C14.2056 48.9923 14.2651 48.9986 14.3305 49.0046C14.3958 49.0104 14.4595 49.0134 14.5215 49.0134C14.6322 49.0134 14.7068 48.9991 14.7455 48.9707C14.7839 48.9422 14.8033 48.8969 14.8033 48.8349C14.8033 48.8064 14.7995 48.7825 14.7919 48.7632C14.7844 48.744 14.7705 48.7273 14.7504 48.713C14.7304 48.6987 14.703 48.6858 14.6687 48.674C14.6343 48.6622 14.5902 48.6498 14.5366 48.6362C14.4779 48.6211 14.4238 48.6055 14.3744 48.5896C14.325 48.5737 14.2825 48.5523 14.2474 48.5254C14.2122 48.4985 14.185 48.4645 14.1656 48.4235C14.1463 48.3824 14.1367 48.3292 14.1367 48.2638C14.1367 48.128 14.1762 48.0311 14.255 47.9732C14.3338 47.9153 14.4446 47.8865 14.587 47.8865C14.6156 47.8865 14.6466 47.8876 14.6801 47.8901C14.7136 47.8926 14.7464 47.8959 14.7781 47.9002C14.81 47.9046 14.8398 47.9095 14.8675 47.9153C14.8952 47.9211 14.9183 47.9274 14.9367 47.9341C14.9551 47.9425 14.9682 47.9517 14.9757 47.9618C14.9833 47.9719 14.9871 47.9878 14.9871 48.0095V48.1177C14.9116 48.1092 14.8458 48.1029 14.7896 48.0988C14.7333 48.0945 14.6828 48.0925 14.6373 48.0925C14.5418 48.0925 14.4751 48.1051 14.4373 48.1303C14.3995 48.1555 14.3807 48.1956 14.3807 48.251C14.3807 48.2812 14.3857 48.306 14.3958 48.3254C14.4059 48.3446 14.4218 48.361 14.4436 48.3745C14.4653 48.3879 14.4938 48.4 14.5292 48.4109C14.5643 48.4219 14.6063 48.4332 14.6549 48.4449C14.7119 48.46 14.7647 48.4756 14.8135 48.4916C14.8621 48.5075 14.904 48.5284 14.9392 48.5544C14.9743 48.5805 15.0017 48.6148 15.021 48.6576C15.0402 48.7002 15.0498 48.7553 15.0498 48.8223C15.0498 48.8961 15.0384 48.9585 15.0158 49.0097C14.9931 49.0608 14.9609 49.1024 14.9189 49.1341C14.877 49.166 14.8271 49.1887 14.7693 49.2021C14.7114 49.2156 14.6473 49.2222 14.5769 49.2222C14.5467 49.2222 14.5136 49.2209 14.4776 49.2184C14.4416 49.2159 14.4059 49.2121 14.3708 49.2071C14.3356 49.2021 14.3029 49.1967 14.2727 49.1907C14.2425 49.1849 14.219 49.1786 14.2022 49.1718C14.1822 49.1635 14.1687 49.1529 14.1619 49.1404C14.1551 49.1278 14.1518 49.1124 14.1518 49.0938V48.9857Z" fill="white"/>
<path d="M15.8715 49.1941H15.6778C15.6374 49.1941 15.6174 49.1749 15.6174 49.1363V47.9137H15.8111C15.8514 47.9137 15.8715 47.9331 15.8715 47.9715V49.1941ZM15.7458 47.7125C15.6904 47.7125 15.6506 47.702 15.6263 47.6809C15.602 47.66 15.5898 47.6244 15.5898 47.5741C15.5898 47.5255 15.602 47.4902 15.6263 47.4685C15.6506 47.4467 15.6905 47.4358 15.7458 47.4358C15.7993 47.4358 15.8388 47.4467 15.864 47.4685C15.8892 47.4902 15.9018 47.5255 15.9018 47.5741C15.9018 47.6244 15.8892 47.66 15.864 47.6809C15.8388 47.7018 15.7995 47.7125 15.7458 47.7125Z" fill="white"/>
<path d="M16.9993 49.2255C16.8098 49.2255 16.6728 49.1717 16.588 49.0646C16.5032 48.9573 16.4609 48.7871 16.4609 48.5539C16.4609 48.3225 16.5032 48.153 16.588 48.0457C16.6728 47.9383 16.8098 47.8848 16.9993 47.8848C17.1889 47.8848 17.3259 47.9385 17.4107 48.0457C17.4954 48.153 17.5377 48.3225 17.5377 48.5539C17.5377 48.7871 17.4954 48.9571 17.4107 49.0646C17.3259 49.1719 17.1889 49.2255 16.9993 49.2255ZM17.2811 48.5539C17.2811 48.4633 17.2757 48.3878 17.2647 48.3275C17.2538 48.2671 17.237 48.2188 17.2145 48.1828C17.1917 48.1468 17.1626 48.1211 17.1264 48.106C17.0902 48.0909 17.0479 48.0833 16.9993 48.0833C16.9507 48.0833 16.9084 48.0909 16.8723 48.106C16.8363 48.1211 16.8069 48.1467 16.7842 48.1828C16.7615 48.2188 16.7447 48.2671 16.7338 48.3275C16.7228 48.3878 16.7175 48.4633 16.7175 48.5539C16.7175 48.6461 16.723 48.7229 16.7338 48.7841C16.7447 48.8453 16.7615 48.8939 16.7842 48.9301C16.8068 48.966 16.8361 48.9913 16.8723 49.0055C16.9083 49.0198 16.9507 49.0269 16.9993 49.0269C17.0479 49.0269 17.0902 49.0198 17.1264 49.0055C17.1624 48.9913 17.1917 48.966 17.2145 48.9301C17.2372 48.8941 17.2538 48.8453 17.2647 48.7841C17.2757 48.7229 17.2811 48.6461 17.2811 48.5539Z" fill="white"/>
<path d="M18.1815 49.1947C18.1412 49.1947 18.1211 49.1754 18.1211 49.1368V47.9142H18.2745C18.2929 47.9142 18.3085 47.9185 18.321 47.9268C18.3336 47.9351 18.3415 47.952 18.3448 47.977L18.355 48.055C18.459 47.9425 18.5923 47.8865 18.7549 47.8865C18.8924 47.8865 18.9906 47.9263 19.0491 48.0059C19.1078 48.0855 19.1372 48.1917 19.1372 48.3242V49.1947H18.9435C18.925 49.1947 18.9103 49.1897 18.8993 49.1796C18.8884 49.1695 18.8831 49.1552 18.8831 49.1368V48.3444C18.8831 48.2572 18.8647 48.1948 18.8278 48.157C18.791 48.1192 18.7373 48.1004 18.6668 48.1004C18.598 48.1004 18.5392 48.1142 18.4908 48.1419C18.4422 48.1696 18.4036 48.1976 18.375 48.2262V49.1947H18.1813H18.1815Z" fill="white"/>
<path d="M20.8891 49.1872C20.8506 49.1973 20.8141 49.2048 20.7798 49.2099C20.7455 49.2149 20.7098 49.2176 20.6728 49.2176C20.5521 49.2176 20.4645 49.1907 20.4099 49.1371C20.3553 49.0834 20.3281 48.9988 20.3281 48.883V48.1157H20.2401C20.1998 48.1157 20.1797 48.0965 20.1797 48.0578V47.9143H20.3331L20.3457 47.5823H20.5217C20.562 47.5823 20.5821 47.6017 20.5821 47.6402V47.9143H20.8286C20.847 47.9143 20.8617 47.9193 20.8725 47.9294C20.8835 47.9396 20.8888 47.9538 20.8888 47.9722V48.1157H20.5819V48.8704C20.5819 48.9157 20.5894 48.9508 20.6045 48.9761C20.6196 49.0013 20.6498 49.0137 20.695 49.0137C20.7236 49.0137 20.7475 49.0134 20.7667 49.0125C20.7859 49.0117 20.804 49.0114 20.8208 49.0114C20.866 49.0114 20.8886 49.0306 20.8886 49.0693V49.1875L20.8891 49.1872Z" fill="white"/>
<path d="M21.9134 49.2255C21.7238 49.2255 21.5868 49.1717 21.5021 49.0646C21.4173 48.9573 21.375 48.7871 21.375 48.5539C21.375 48.3225 21.4173 48.153 21.5021 48.0457C21.5868 47.9383 21.7238 47.8848 21.9134 47.8848C22.103 47.8848 22.24 47.9385 22.3248 48.0457C22.4095 48.153 22.4518 48.3225 22.4518 48.5539C22.4518 48.7871 22.4095 48.9571 22.3248 49.0646C22.24 49.1719 22.103 49.2255 21.9134 49.2255ZM22.1952 48.5539C22.1952 48.4633 22.1897 48.3878 22.1788 48.3275C22.1678 48.2671 22.1511 48.2188 22.1285 48.1828C22.1058 48.1468 22.0766 48.1211 22.0405 48.106C22.0043 48.0909 21.962 48.0833 21.9134 48.0833C21.8648 48.0833 21.8225 48.0909 21.7863 48.106C21.7504 48.1211 21.721 48.1467 21.6983 48.1828C21.6755 48.2188 21.6588 48.2671 21.6478 48.3275C21.6369 48.3878 21.6316 48.4633 21.6316 48.5539C21.6316 48.6461 21.6371 48.7229 21.6478 48.7841C21.6588 48.8453 21.6755 48.8939 21.6983 48.9301C21.7208 48.966 21.7502 48.9913 21.7863 49.0055C21.8223 49.0198 21.8648 49.0269 21.9134 49.0269C21.962 49.0269 22.0043 49.0198 22.0405 49.0055C22.0765 48.9913 22.1058 48.966 22.1285 48.9301C22.1513 48.8941 22.1678 48.8453 22.1788 48.7841C22.1897 48.7229 22.1952 48.6461 22.1952 48.5539Z" fill="white"/>
<path d="M23.6268 49.1952C23.5865 49.1952 23.5664 49.1759 23.5664 49.1373V47.4519H23.7701C23.7885 47.4519 23.8033 47.4569 23.814 47.467C23.825 47.4771 23.8303 47.4914 23.8303 47.5098V48.9739H24.4491C24.4895 48.9739 24.5095 48.9931 24.5095 49.0318V49.1953H23.6266L23.6268 49.1952Z" fill="white"/>
<path d="M25.2973 49.1941H25.1035C25.0632 49.1941 25.0432 49.1749 25.0432 49.1363V47.9137H25.2369C25.2772 47.9137 25.2973 47.9331 25.2973 47.9715V49.1941ZM25.1715 47.7125C25.1161 47.7125 25.0763 47.702 25.0521 47.6809C25.0277 47.66 25.0156 47.6244 25.0156 47.5741C25.0156 47.5255 25.0277 47.4902 25.0521 47.4685C25.0763 47.4467 25.1163 47.4358 25.1715 47.4358C25.2251 47.4358 25.2646 47.4467 25.2898 47.4685C25.315 47.4902 25.3276 47.5255 25.3276 47.5741C25.3276 47.6244 25.315 47.66 25.2898 47.6809C25.2646 47.7018 25.2253 47.7125 25.1715 47.7125Z" fill="white"/>
<path d="M26.4965 47.9138C26.5149 47.9138 26.5297 47.9188 26.5406 47.9289C26.5514 47.9391 26.5569 47.9533 26.5569 47.9717V48.1152H26.2424V49.1943H26.0462C26.0075 49.1943 25.9883 49.1751 25.9883 49.1364V48.1152H25.9002C25.8599 48.1152 25.8398 48.096 25.8398 48.0573V47.9138H25.9883V47.7201C25.9883 47.6062 26.0143 47.5176 26.0662 47.4547C26.1182 47.3919 26.2087 47.3604 26.3379 47.3604C26.3646 47.3604 26.3983 47.3625 26.4385 47.3667C26.4788 47.3708 26.5106 47.3779 26.534 47.388C26.5524 47.3965 26.5647 47.407 26.5705 47.4196C26.5763 47.4322 26.5793 47.4468 26.5793 47.4635V47.5742C26.5373 47.5692 26.5055 47.5657 26.4837 47.564C26.462 47.5624 26.436 47.5615 26.4058 47.5615C26.369 47.5615 26.3394 47.5657 26.3177 47.5742C26.296 47.5824 26.2796 47.5942 26.2686 47.6093C26.2577 47.6244 26.2505 47.6425 26.2472 47.6634C26.2439 47.6843 26.2422 47.7073 26.2422 47.7326V47.9137H26.4962L26.4965 47.9138Z" fill="white"/>
<path d="M27.2571 48.6499C27.2604 48.7169 27.2681 48.774 27.2797 48.8209C27.2915 48.8679 27.3112 48.906 27.3389 48.9354C27.3666 48.9647 27.4039 48.9861 27.4509 48.9996C27.4978 49.013 27.5582 49.0196 27.632 49.0196C27.6973 49.0196 27.7571 49.0163 27.8106 49.0095C27.8642 49.0029 27.9012 48.9994 27.9213 48.9994C27.9599 48.9994 27.9791 49.0178 27.9791 49.0548V49.1604C27.9388 49.1772 27.8839 49.1918 27.8143 49.2044C27.7448 49.217 27.6647 49.2233 27.5741 49.2233C27.4786 49.2233 27.3955 49.2115 27.3251 49.188C27.2546 49.1646 27.1964 49.1264 27.1503 49.0735C27.1042 49.0206 27.0702 48.9519 27.0483 48.8672C27.0266 48.7824 27.0156 48.6798 27.0156 48.559C27.0156 48.4383 27.0266 48.3351 27.0483 48.2497C27.07 48.1641 27.1032 48.0941 27.1477 48.0395C27.1921 47.9849 27.247 47.9456 27.3124 47.9213C27.3777 47.8969 27.454 47.8848 27.5413 47.8848C27.6385 47.8848 27.7182 47.8985 27.7803 47.9262C27.8423 47.9539 27.8909 47.9913 27.9262 48.0382C27.9614 48.0851 27.9858 48.14 27.9992 48.2029C28.0127 48.2658 28.0193 48.3333 28.0193 48.4054C28.0193 48.454 28.0168 48.501 28.0117 48.5462C28.0067 48.5915 28 48.6259 27.9916 48.6494H27.2571V48.6499ZM27.7879 48.4713C27.7896 48.4545 27.7904 48.4419 27.7904 48.4334C27.7904 48.425 27.7904 48.414 27.7904 48.4008C27.7904 48.2935 27.7741 48.2125 27.7413 48.1581C27.7086 48.1035 27.6444 48.0763 27.5489 48.0763C27.4918 48.0763 27.4449 48.0856 27.4081 48.104C27.3712 48.1225 27.3419 48.1485 27.32 48.182C27.2983 48.2155 27.2827 48.257 27.2734 48.3064C27.2641 48.3558 27.2586 48.4109 27.2571 48.4713H27.7879Z" fill="white"/>
<path d="M28.9127 49.0458C28.9127 49.0793 28.9069 49.1133 28.8951 49.1476C28.8833 49.182 28.8649 49.2286 28.8399 49.2873L28.7417 49.5063H28.6285C28.6 49.5063 28.5858 49.4953 28.5858 49.4736C28.5858 49.4635 28.5882 49.4518 28.5932 49.4384L28.6914 49.1893C28.6494 49.1792 28.6201 49.1624 28.6033 49.139C28.5866 49.1155 28.5781 49.0853 28.5781 49.0485C28.5781 48.9914 28.5916 48.9508 28.6184 48.9264C28.6453 48.9022 28.6879 48.8899 28.7466 48.8899C28.8054 48.8899 28.8477 48.9025 28.8737 48.9277C28.8997 48.9529 28.9127 48.9922 28.9127 49.046V49.0458Z" fill="white"/>
<path d="M30.1131 49.1952C30.0728 49.1952 30.0527 49.1759 30.0527 49.1373V47.4821C30.1265 47.4687 30.2095 47.4574 30.3017 47.4481C30.3939 47.4388 30.4803 47.4343 30.5608 47.4343C30.7636 47.4343 30.9129 47.478 31.0086 47.5652C31.1042 47.6524 31.1521 47.7982 31.1521 48.0029C31.1521 48.1069 31.1392 48.1948 31.1131 48.267C31.0871 48.3391 31.0506 48.3978 31.0036 48.4431C30.9567 48.4884 30.8991 48.5216 30.8313 48.5425C30.7635 48.5634 30.6883 48.5738 30.6062 48.5738C30.5626 48.5738 30.5165 48.5708 30.4679 48.565C30.4193 48.5592 30.368 48.5504 30.3145 48.5387V49.1952H30.1133H30.1131ZM30.3143 48.3373C30.3579 48.3456 30.4015 48.3529 30.4452 48.3587C30.4888 48.3645 30.5324 48.3675 30.576 48.3675C30.6298 48.3675 30.6767 48.362 30.7169 48.3512C30.7572 48.3403 30.7903 48.321 30.8162 48.2933C30.8423 48.2656 30.862 48.2283 30.8753 48.1814C30.8887 48.1344 30.8953 48.0749 30.8953 48.0028C30.8953 47.9256 30.8882 47.8636 30.8739 47.8166C30.8597 47.7697 30.8383 47.7332 30.8097 47.7072C30.7812 47.6811 30.7464 47.6636 30.7053 47.6543C30.6641 47.645 30.6177 47.6405 30.5656 47.6405C30.5153 47.6405 30.4679 47.6422 30.4234 47.6455C30.379 47.6488 30.3425 47.6531 30.314 47.6581V48.3373H30.3143Z" fill="white"/>
<path d="M32.1966 49.2255C32.007 49.2255 31.87 49.1717 31.7853 49.0646C31.7005 48.9573 31.6582 48.7871 31.6582 48.5539C31.6582 48.3225 31.7005 48.153 31.7853 48.0457C31.87 47.9383 32.007 47.8848 32.1966 47.8848C32.3862 47.8848 32.5232 47.9385 32.608 48.0457C32.6927 48.153 32.735 48.3225 32.735 48.5539C32.735 48.7871 32.6927 48.9571 32.608 49.0646C32.5232 49.1719 32.3862 49.2255 32.1966 49.2255ZM32.4784 48.5539C32.4784 48.4633 32.4729 48.3878 32.462 48.3275C32.451 48.2671 32.4343 48.2188 32.4117 48.1828C32.389 48.1468 32.3598 48.1211 32.3237 48.106C32.2875 48.0909 32.2452 48.0833 32.1966 48.0833C32.148 48.0833 32.1057 48.0909 32.0695 48.106C32.0336 48.1211 32.0042 48.1467 31.9815 48.1828C31.9587 48.2188 31.942 48.2671 31.9311 48.3275C31.9201 48.3878 31.9148 48.4633 31.9148 48.5539C31.9148 48.6461 31.9203 48.7229 31.9311 48.7841C31.942 48.8453 31.9587 48.8939 31.9815 48.9301C32.004 48.966 32.0334 48.9913 32.0695 49.0055C32.1055 49.0198 32.148 49.0269 32.1966 49.0269C32.2452 49.0269 32.2875 49.0198 32.3237 49.0055C32.3597 48.9913 32.389 48.966 32.4117 48.9301C32.4345 48.8941 32.451 48.8453 32.462 48.7841C32.4729 48.7229 32.4784 48.6461 32.4784 48.5539Z" fill="white"/>
<path d="M34.077 48.0206C34.1039 48.0206 34.1231 48.0248 34.1349 48.0332C34.1467 48.0415 34.1566 48.0601 34.1651 48.0885L34.3912 48.9287C34.4129 48.8549 34.4343 48.774 34.4544 48.6859C34.4744 48.5978 34.4933 48.5086 34.5101 48.418C34.5268 48.3275 34.5411 48.2386 34.5532 48.1513C34.565 48.0641 34.5749 47.9853 34.5834 47.9148H34.767C34.7904 47.9148 34.8055 47.9203 34.8123 47.9312C34.8191 47.9422 34.8216 47.9568 34.8199 47.9752C34.8183 47.9952 34.8156 48.0175 34.8123 48.0419C34.809 48.0661 34.8055 48.0909 34.8022 48.116C34.777 48.2837 34.7405 48.461 34.6935 48.6479C34.6463 48.835 34.5871 49.0173 34.5162 49.1951H34.3213C34.3029 49.1951 34.289 49.1905 34.2799 49.1814C34.2706 49.1721 34.2636 49.1583 34.2585 49.1399L34.0312 48.3147L33.7892 49.1951H33.5985C33.5751 49.1951 33.5592 49.1905 33.5507 49.1814C33.5424 49.1721 33.5348 49.1583 33.5282 49.1399C33.4913 49.0443 33.4568 48.9453 33.4258 48.843C33.3948 48.7406 33.3663 48.6371 33.3411 48.5323C33.3158 48.4275 33.2941 48.3232 33.2752 48.2192C33.2568 48.1152 33.2425 48.0138 33.2324 47.9148H33.4311C33.468 47.9148 33.4882 47.9342 33.4915 47.9727C33.4983 48.0415 33.5071 48.1162 33.5184 48.1966C33.5293 48.277 33.5426 48.3597 33.5587 48.4444C33.5746 48.5292 33.5927 48.6129 33.6119 48.696C33.6312 48.7791 33.6522 48.8566 33.674 48.9287L33.9209 48.0206H34.077Z" fill="white"/>
<path d="M35.5638 48.6499C35.5671 48.7169 35.5747 48.774 35.5863 48.8209C35.5981 48.8679 35.6178 48.906 35.6455 48.9354C35.6732 48.9647 35.7106 48.9861 35.7575 48.9996C35.8044 49.013 35.8648 49.0196 35.9386 49.0196C36.004 49.0196 36.0637 49.0163 36.1173 49.0095C36.1708 49.0029 36.2078 48.9994 36.2279 48.9994C36.2665 48.9994 36.2858 49.0178 36.2858 49.0548V49.1604C36.2455 49.1772 36.1906 49.1918 36.1209 49.2044C36.0514 49.217 35.9713 49.2233 35.8807 49.2233C35.7852 49.2233 35.7021 49.2115 35.6318 49.188C35.5613 49.1646 35.5031 49.1264 35.457 49.0735C35.4108 49.0206 35.3768 48.9519 35.3549 48.8672C35.3332 48.7824 35.3223 48.6798 35.3223 48.559C35.3223 48.4383 35.3332 48.3351 35.3549 48.2497C35.3767 48.1641 35.4098 48.0941 35.4543 48.0395C35.4987 47.9849 35.5537 47.9456 35.619 47.9213C35.6844 47.8969 35.7606 47.8848 35.8479 47.8848C35.9451 47.8848 36.0249 47.8985 36.0869 47.9262C36.1489 47.9539 36.1975 47.9913 36.2329 48.0382C36.268 48.0851 36.2924 48.14 36.3059 48.2029C36.3193 48.2658 36.3259 48.3333 36.3259 48.4054C36.3259 48.454 36.3234 48.501 36.3183 48.5462C36.3133 48.5915 36.3067 48.6259 36.2982 48.6494H35.5638V48.6499ZM36.0945 48.4713C36.0962 48.4545 36.097 48.4419 36.097 48.4334C36.097 48.425 36.097 48.414 36.097 48.4008C36.097 48.2935 36.0808 48.2125 36.0479 48.1581C36.0153 48.1035 35.9511 48.0763 35.8555 48.0763C35.7985 48.0763 35.7515 48.0856 35.7147 48.104C35.6779 48.1225 35.6485 48.1485 35.6266 48.182C35.6049 48.2155 35.5893 48.257 35.58 48.3064C35.5707 48.3558 35.5653 48.4109 35.5638 48.4713H36.0945Z" fill="white"/>
<path d="M37.4892 47.9067C37.5227 47.9067 37.5455 47.9121 37.5572 47.9229C37.5688 47.9339 37.5748 47.9485 37.5748 47.9669V48.1354C37.563 48.1337 37.5514 48.1329 37.5397 48.1329C37.5279 48.1329 37.5169 48.1329 37.507 48.1329C37.4381 48.1329 37.3758 48.1439 37.3195 48.1656C37.2633 48.1873 37.2109 48.2243 37.1623 48.2762V49.1944H36.9686C36.9283 49.1944 36.9082 49.1752 36.9082 49.1366V47.914H37.0616C37.0834 47.914 37.0994 47.9186 37.1094 47.9277C37.1195 47.937 37.127 47.9533 37.132 47.9768L37.1421 48.0875C37.1807 48.0405 37.2301 47.9986 37.2905 47.9617C37.3509 47.9249 37.4171 47.9065 37.4892 47.9065V47.9067Z" fill="white"/>
<path d="M38.2688 48.6499C38.2722 48.7169 38.2798 48.774 38.2914 48.8209C38.3032 48.8679 38.3229 48.906 38.3506 48.9354C38.3783 48.9647 38.4156 48.9861 38.4626 48.9996C38.5095 49.013 38.5699 49.0196 38.6437 49.0196C38.7091 49.0196 38.7688 49.0163 38.8223 49.0095C38.8759 49.0029 38.9129 48.9994 38.933 48.9994C38.9716 48.9994 38.9909 49.0178 38.9909 49.0548V49.1604C38.9506 49.1772 38.8957 49.1918 38.826 49.2044C38.7565 49.217 38.6764 49.2233 38.5858 49.2233C38.4903 49.2233 38.4072 49.2115 38.3369 49.188C38.2664 49.1646 38.2081 49.1264 38.162 49.0735C38.1159 49.0206 38.0819 48.9519 38.06 48.8672C38.0383 48.7824 38.0273 48.6798 38.0273 48.559C38.0273 48.4383 38.0383 48.3351 38.06 48.2497C38.0818 48.1641 38.1149 48.0941 38.1594 48.0395C38.2038 47.9849 38.2587 47.9456 38.3241 47.9213C38.3894 47.8969 38.4657 47.8848 38.553 47.8848C38.6502 47.8848 38.73 47.8985 38.792 47.9262C38.854 47.9539 38.9026 47.9913 38.9379 48.0382C38.9731 48.0851 38.9975 48.14 39.0109 48.2029C39.0244 48.2658 39.031 48.3333 39.031 48.4054C39.031 48.454 39.0285 48.501 39.0234 48.5462C39.0184 48.5915 39.0118 48.6259 39.0033 48.6494H38.2688V48.6499ZM38.7996 48.4713C38.8013 48.4545 38.8021 48.4419 38.8021 48.4334C38.8021 48.425 38.8021 48.414 38.8021 48.4008C38.8021 48.2935 38.7859 48.2125 38.753 48.1581C38.7203 48.1035 38.6561 48.0763 38.5606 48.0763C38.5035 48.0763 38.4566 48.0856 38.4198 48.104C38.383 48.1225 38.3536 48.1485 38.3317 48.182C38.31 48.2155 38.2944 48.257 38.2851 48.3064C38.2758 48.3558 38.2703 48.4109 38.2688 48.4713H38.7996Z" fill="white"/>
<path d="M40.3618 48.1283C40.3299 48.1148 40.2959 48.1039 40.2599 48.0956C40.2239 48.0871 40.1841 48.083 40.1405 48.083C40.0818 48.083 40.0327 48.0914 39.9934 48.1082C39.9539 48.125 39.9229 48.1523 39.9003 48.19C39.8776 48.2278 39.8617 48.2764 39.8526 48.3359C39.8433 48.3955 39.8388 48.468 39.8388 48.5536C39.8388 48.7129 39.8564 48.8286 39.8917 48.9007C39.9269 48.9729 39.9924 49.0089 40.0879 49.0089C40.1549 49.0089 40.2108 48.9959 40.2551 48.9699C40.2996 48.9438 40.3352 48.9175 40.3619 48.8906V48.1284L40.3618 48.1283ZM40.0121 49.2175C39.8612 49.2175 39.7517 49.1618 39.6839 49.0502C39.616 48.9387 39.582 48.7771 39.582 48.5658C39.582 48.3243 39.6235 48.1512 39.7064 48.0465C39.7895 47.9417 39.9148 47.8893 40.0825 47.8893C40.153 47.8893 40.2112 47.8961 40.2573 47.9093C40.3034 47.9228 40.3382 47.9362 40.3616 47.9496V47.3887H40.5553C40.5737 47.3887 40.5885 47.3936 40.5993 47.4038C40.6102 47.4139 40.6155 47.4281 40.6155 47.4466V49.195H40.4621C40.4437 49.195 40.4281 49.1908 40.4157 49.1823C40.4031 49.1741 40.3951 49.1571 40.3918 49.1321L40.3817 49.0541C40.343 49.0961 40.2941 49.1338 40.2346 49.1673C40.175 49.2008 40.1009 49.2177 40.012 49.2177L40.0121 49.2175Z" fill="white"/>
<path d="M41.9169 47.3887C41.9672 47.3887 41.9924 47.4131 41.9924 47.4617V47.9899C42.0309 47.9631 42.0767 47.9389 42.1294 47.917C42.1823 47.8952 42.2455 47.8843 42.3193 47.8843C42.3915 47.8843 42.4557 47.8972 42.5117 47.9233C42.5679 47.9493 42.6152 47.9896 42.6539 48.044C42.6925 48.0986 42.7217 48.1686 42.7419 48.2542C42.762 48.3397 42.7721 48.4419 42.7721 48.561C42.7721 48.6801 42.7617 48.7811 42.7408 48.8642C42.7199 48.9473 42.6867 49.0157 42.6414 49.0692C42.5961 49.123 42.5379 49.162 42.4666 49.1862C42.3953 49.2106 42.3102 49.2227 42.2113 49.2227C42.1158 49.2227 42.0315 49.2142 41.9585 49.1974C41.8856 49.1807 41.8307 49.1648 41.7937 49.1497C41.7736 49.1412 41.7593 49.1308 41.7509 49.1182C41.7426 49.1056 41.7383 49.0875 41.7383 49.0641V47.3887H41.9169ZM41.9924 48.9986C42.0259 49.007 42.0594 49.0137 42.0929 49.0186C42.1264 49.0238 42.1651 49.0263 42.2087 49.0263C42.2608 49.0263 42.306 49.0205 42.3445 49.0087C42.383 48.9971 42.4149 48.9739 42.4401 48.9395C42.4653 48.9052 42.4842 48.8577 42.4966 48.7974C42.5092 48.737 42.5155 48.6582 42.5155 48.5608C42.5155 48.4703 42.5101 48.3948 42.4993 48.3344C42.4883 48.2741 42.4716 48.226 42.4489 48.1898C42.4263 48.1538 42.3981 48.1278 42.3646 48.1119C42.3311 48.0959 42.2908 48.088 42.2438 48.088C42.1901 48.088 42.1428 48.0959 42.1017 48.1119C42.0606 48.1278 42.0242 48.1475 41.9924 48.1711V48.9986Z" fill="white"/>
<path d="M43.5069 47.9727C43.5237 48.07 43.5396 48.1546 43.5552 48.2268C43.5703 48.2989 43.5879 48.3703 43.6081 48.4406C43.6282 48.5111 43.6534 48.5866 43.6839 48.667C43.7141 48.7474 43.7531 48.8432 43.8 48.9538C43.8642 48.8012 43.9166 48.6368 43.9581 48.4608C43.9992 48.2847 44.0319 48.1027 44.0553 47.915H44.2439C44.2656 47.915 44.2801 47.9196 44.2867 47.9287C44.2935 47.938 44.2968 47.9493 44.2968 47.9627C44.2968 47.9778 44.2947 47.9987 44.2905 48.0256C44.2864 48.0525 44.2825 48.0768 44.2792 48.0986C44.2507 48.2663 44.2147 48.4227 44.1711 48.5678C44.1275 48.7128 44.0838 48.839 44.0402 48.9463C43.985 49.0855 43.9321 49.1991 43.8813 49.2872C43.8309 49.3752 43.7811 49.4452 43.7312 49.4973C43.6818 49.5492 43.6319 49.5849 43.5824 49.6041C43.5325 49.6234 43.4817 49.633 43.4298 49.633C43.4093 49.633 43.3867 49.6318 43.3615 49.6292C43.3363 49.6267 43.3179 49.6221 43.3058 49.6154C43.2772 49.602 43.263 49.5794 43.263 49.5476V49.4318C43.283 49.4335 43.3008 49.4343 43.3162 49.4343C43.3313 49.4343 43.3456 49.4343 43.359 49.4343C43.401 49.4343 43.4378 49.4288 43.4688 49.4179C43.4998 49.4069 43.5275 49.391 43.5511 49.3701C43.5745 49.3492 43.5963 49.3223 43.6169 49.2897C43.637 49.257 43.6589 49.2188 43.6823 49.1752C43.627 49.0797 43.5755 48.9795 43.5283 48.8745C43.4809 48.7697 43.4386 48.6632 43.4008 48.555C43.3626 48.4469 43.33 48.3391 43.3023 48.2318C43.2742 48.1245 43.2537 48.0188 43.2402 47.9148H43.4439C43.4691 47.9148 43.4851 47.9211 43.4917 47.9337C43.4985 47.9463 43.5035 47.9592 43.5068 47.9727H43.5069Z" fill="white"/>
<path d="M45.724 47.6733H45.324C45.2837 47.6733 45.2637 47.6541 45.2637 47.6154V47.4519H46.3906C46.409 47.4519 46.4237 47.4569 46.4345 47.467C46.4455 47.4771 46.4508 47.4914 46.4508 47.5098V47.6733H45.9878V49.1953H45.7842C45.7439 49.1953 45.7238 49.1761 45.7238 49.1374V47.6733H45.724Z" fill="white"/>
<path d="M46.9876 48.6499C46.9909 48.7169 46.9985 48.774 47.0102 48.8209C47.0219 48.8679 47.0417 48.906 47.0694 48.9354C47.0971 48.9647 47.1344 48.9861 47.1813 48.9996C47.2283 49.013 47.2886 49.0196 47.3625 49.0196C47.4278 49.0196 47.4875 49.0163 47.5411 49.0095C47.5947 49.0029 47.6317 48.9994 47.6517 48.9994C47.6904 48.9994 47.7096 49.0178 47.7096 49.0548V49.1604C47.6693 49.1772 47.6144 49.1918 47.5447 49.2044C47.4752 49.217 47.3951 49.2233 47.3046 49.2233C47.209 49.2233 47.1259 49.2115 47.0556 49.188C46.9851 49.1646 46.9269 49.1264 46.8808 49.0735C46.8347 49.0206 46.8007 48.9519 46.7788 48.8672C46.757 48.7824 46.7461 48.6798 46.7461 48.559C46.7461 48.4383 46.757 48.3351 46.7788 48.2497C46.8005 48.1641 46.8337 48.0941 46.8781 48.0395C46.9226 47.9849 46.9775 47.9456 47.0428 47.9213C47.1082 47.8969 47.1845 47.8848 47.2717 47.8848C47.3689 47.8848 47.4487 47.8985 47.5107 47.9262C47.5728 47.9539 47.6214 47.9913 47.6567 48.0382C47.6919 48.0851 47.7163 48.14 47.7297 48.2029C47.7431 48.2658 47.7498 48.3333 47.7498 48.4054C47.7498 48.454 47.7473 48.501 47.7421 48.5462C47.7372 48.5915 47.7305 48.6259 47.7221 48.6494H46.9876V48.6499ZM47.5184 48.4713C47.52 48.4545 47.5209 48.4419 47.5209 48.4334C47.5209 48.425 47.5209 48.414 47.5209 48.4008C47.5209 48.2935 47.5046 48.2125 47.4718 48.1581C47.4391 48.1035 47.3749 48.0763 47.2794 48.0763C47.2223 48.0763 47.1754 48.0856 47.1385 48.104C47.1017 48.1225 47.0724 48.1485 47.0505 48.182C47.0287 48.2155 47.0131 48.257 47.0039 48.3064C46.9946 48.3558 46.9891 48.4109 46.9876 48.4713H47.5184Z" fill="white"/>
<path d="M49.1537 49.1593C49.115 49.1761 49.0656 49.1907 49.0052 49.2033C48.9448 49.2159 48.8811 49.2222 48.814 49.2222C48.7201 49.2222 48.6405 49.2074 48.575 49.1782C48.5096 49.1489 48.4567 49.1061 48.4166 49.0499C48.3763 48.9936 48.3469 48.9241 48.3285 48.841C48.3101 48.7579 48.3008 48.6637 48.3008 48.5581C48.3008 48.3234 48.3422 48.1527 48.4252 48.0462C48.5083 47.9397 48.6362 47.8865 48.8088 47.8865C48.8659 47.8865 48.9221 47.8911 48.9774 47.9002C49.0326 47.9095 49.0729 47.92 49.0981 47.9318C49.1165 47.94 49.1296 47.951 49.1371 47.9644C49.1447 47.9779 49.1484 47.9938 49.1484 48.0122V48.1203C49.0948 48.1121 49.0435 48.1056 48.9949 48.1014C48.9463 48.0973 48.9044 48.0951 48.8692 48.0951C48.8121 48.0951 48.7639 48.1023 48.7246 48.1165C48.6851 48.1308 48.6529 48.1555 48.6277 48.1908C48.6025 48.226 48.5846 48.2726 48.5736 48.3305C48.5627 48.3884 48.5574 48.46 48.5574 48.5455C48.5574 48.641 48.5642 48.719 48.5774 48.7795C48.5909 48.8399 48.6101 48.8873 48.6353 48.9216C48.6605 48.956 48.6916 48.9795 48.7284 48.9921C48.7652 49.0047 48.808 49.011 48.8568 49.011C48.9054 49.011 48.952 49.0081 48.9964 49.0023C49.0409 48.9965 49.0732 48.9935 49.0933 48.9935C49.1336 48.9935 49.1537 49.0135 49.1537 49.0538V49.1595V49.1593Z" fill="white"/>
<path d="M50.5276 49.195C50.5092 49.195 50.4944 49.19 50.4835 49.1799C50.4725 49.1697 50.4672 49.1555 50.4672 49.1371V48.3447C50.4672 48.2575 50.4488 48.1951 50.412 48.1573C50.3752 48.1195 50.3214 48.1007 50.2509 48.1007C50.1821 48.1007 50.1234 48.1145 50.075 48.1422C50.0264 48.1699 49.9877 48.1979 49.9592 48.2265V49.195H49.7655C49.7252 49.195 49.7051 49.1757 49.7051 49.1371V47.3887H49.8988C49.9172 47.3887 49.932 47.3936 49.9428 47.4038C49.9537 47.4139 49.9592 47.4281 49.9592 47.4466V48.0427C50.0078 47.9908 50.0652 47.9518 50.1315 47.9257C50.1979 47.8997 50.2687 47.8868 50.344 47.8868C50.4782 47.8868 50.5747 47.9261 50.6333 48.005C50.692 48.0838 50.7213 48.1903 50.7213 48.3245V49.195H50.5276Z" fill="white"/>
<path d="M51.3905 49.1947C51.3502 49.1947 51.3301 49.1754 51.3301 49.1368V47.9142H51.4835C51.5019 47.9142 51.5175 47.9185 51.5299 47.9268C51.5425 47.9351 51.5505 47.952 51.5538 47.977L51.564 48.055C51.6679 47.9425 51.8013 47.8865 51.9639 47.8865C52.1014 47.8865 52.1995 47.9263 52.2581 48.0059C52.3168 48.0855 52.3462 48.1917 52.3462 48.3242V49.1947H52.1524C52.134 49.1947 52.1193 49.1897 52.1083 49.1796C52.0974 49.1695 52.0921 49.1552 52.0921 49.1368V48.3444C52.0921 48.2572 52.0737 48.1948 52.0368 48.157C52 48.1192 51.9463 48.1004 51.8758 48.1004C51.8069 48.1004 51.7482 48.1142 51.6998 48.1419C51.6512 48.1696 51.6125 48.1976 51.584 48.2262V49.1947H51.3903H51.3905Z" fill="white"/>
<path d="M53.4642 49.2255C53.2746 49.2255 53.1376 49.1717 53.0528 49.0646C52.9681 48.9573 52.9258 48.7871 52.9258 48.5539C52.9258 48.3225 52.9681 48.153 53.0528 48.0457C53.1376 47.9383 53.2746 47.8848 53.4642 47.8848C53.6538 47.8848 53.7908 47.9385 53.8755 48.0457C53.9603 48.153 54.0026 48.3225 54.0026 48.5539C54.0026 48.7871 53.9603 48.9571 53.8755 49.0646C53.7908 49.1719 53.6538 49.2255 53.4642 49.2255ZM53.746 48.5539C53.746 48.4633 53.7405 48.3878 53.7296 48.3275C53.7186 48.2671 53.7019 48.2188 53.6793 48.1828C53.6566 48.1468 53.6274 48.1211 53.5912 48.106C53.5551 48.0909 53.5128 48.0833 53.4642 48.0833C53.4156 48.0833 53.3733 48.0909 53.3371 48.106C53.3011 48.1211 53.2718 48.1467 53.2491 48.1828C53.2263 48.2188 53.2096 48.2671 53.1986 48.3275C53.1877 48.3878 53.1824 48.4633 53.1824 48.5539C53.1824 48.6461 53.1878 48.7229 53.1986 48.7841C53.2096 48.8453 53.2263 48.8939 53.2491 48.9301C53.2716 48.966 53.301 48.9913 53.3371 49.0055C53.3731 49.0198 53.4156 49.0269 53.4642 49.0269C53.5128 49.0269 53.5551 49.0198 53.5912 49.0055C53.6272 48.9913 53.6566 48.966 53.6793 48.9301C53.702 48.8941 53.7186 48.8453 53.7296 48.7841C53.7405 48.7229 53.746 48.6461 53.746 48.5539Z" fill="white"/>
<path d="M54.8399 48.8979C54.8399 48.9432 54.8473 48.9725 54.8624 48.986C54.8775 48.9994 54.9044 49.0069 54.9429 49.0085C54.9698 49.0102 54.9898 49.0143 55.0033 49.0211C55.0167 49.0279 55.0235 49.0439 55.0235 49.0689V49.1847C54.9966 49.193 54.9689 49.1994 54.9404 49.2036C54.9119 49.2077 54.8809 49.2099 54.8473 49.2099C54.7954 49.2099 54.7526 49.2019 54.7191 49.186C54.6856 49.1701 54.6588 49.1462 54.6387 49.1143C54.6186 49.0825 54.6047 49.0427 54.5972 48.9949C54.5898 48.9472 54.5859 48.8914 54.5859 48.8276V47.3887H54.7797C54.7981 47.3887 54.8128 47.3936 54.8236 47.4038C54.8346 47.4139 54.8401 47.4281 54.8401 47.4466V48.8981L54.8399 48.8979Z" fill="white"/>
<path d="M56.0111 49.2255C55.8215 49.2255 55.6845 49.1717 55.5997 49.0646C55.515 48.9573 55.4727 48.7871 55.4727 48.5539C55.4727 48.3225 55.515 48.153 55.5997 48.0457C55.6845 47.9383 55.8215 47.8848 56.0111 47.8848C56.2007 47.8848 56.3377 47.9385 56.4224 48.0457C56.5072 48.153 56.5495 48.3225 56.5495 48.5539C56.5495 48.7871 56.5072 48.9571 56.4224 49.0646C56.3377 49.1719 56.2007 49.2255 56.0111 49.2255ZM56.2929 48.5539C56.2929 48.4633 56.2874 48.3878 56.2765 48.3275C56.2655 48.2671 56.2487 48.2188 56.2262 48.1828C56.2035 48.1468 56.1743 48.1211 56.1381 48.106C56.102 48.0909 56.0597 48.0833 56.0111 48.0833C55.9625 48.0833 55.9202 48.0909 55.884 48.106C55.848 48.1211 55.8187 48.1467 55.7959 48.1828C55.7732 48.2188 55.7565 48.2671 55.7455 48.3275C55.7346 48.3878 55.7293 48.4633 55.7293 48.5539C55.7293 48.6461 55.7347 48.7229 55.7455 48.7841C55.7565 48.8453 55.7732 48.8939 55.7959 48.9301C55.8185 48.966 55.8479 48.9913 55.884 49.0055C55.92 49.0198 55.9625 49.0269 56.0111 49.0269C56.0597 49.0269 56.102 49.0198 56.1381 49.0055C56.1741 48.9913 56.2035 48.966 56.2262 48.9301C56.2489 48.8941 56.2655 48.8453 56.2765 48.7841C56.2874 48.7229 56.2929 48.6461 56.2929 48.5539Z" fill="white"/>
<path d="M57.1035 48.5428C57.1035 48.4171 57.1156 48.3126 57.14 48.2296C57.1644 48.1467 57.2017 48.0804 57.252 48.0309C57.3024 47.9815 57.3656 47.9467 57.4419 47.9264C57.5182 47.9064 57.6084 47.8962 57.7122 47.8962C57.7793 47.8962 57.8489 47.8996 57.9211 47.9064C57.9932 47.913 58.0544 47.9206 58.1047 47.9289C58.1365 47.9339 58.1604 47.9415 58.1763 47.9516C58.1923 47.9618 58.2002 47.9818 58.2002 48.012V48.1202H58.1047C58.1097 48.2258 58.1131 48.3303 58.1148 48.4333C58.1165 48.5365 58.1173 48.6383 58.1173 48.739V49.1893C58.1173 49.337 58.0762 49.4492 57.9941 49.5264C57.9119 49.6035 57.7844 49.6422 57.6117 49.6422C57.5849 49.6422 57.5547 49.641 57.5212 49.6383C57.4877 49.6359 57.4537 49.6325 57.4193 49.6282C57.385 49.6241 57.3523 49.6189 57.3213 49.6131C57.2903 49.6073 57.2647 49.6002 57.2445 49.5917C57.2228 49.5834 57.2088 49.573 57.203 49.5604C57.1972 49.5478 57.1942 49.5323 57.1942 49.5138V49.4081C57.253 49.4166 57.3117 49.4232 57.3704 49.4283C57.4291 49.4333 57.4853 49.4358 57.5389 49.4358C57.6613 49.4358 57.7464 49.4186 57.7942 49.3842C57.842 49.3499 57.8658 49.2908 57.8658 49.2069V49.0508C57.8172 49.0843 57.7681 49.1104 57.7187 49.1288C57.6693 49.1472 57.6109 49.1565 57.5439 49.1565C57.4567 49.1565 57.385 49.1414 57.3288 49.1112C57.2725 49.081 57.2278 49.0387 57.1942 48.9842C57.1607 48.9298 57.1372 48.8651 57.1239 48.7904C57.1105 48.7158 57.1038 48.6332 57.1038 48.5426L57.1035 48.5428ZM57.3575 48.5378C57.3575 48.6166 57.3624 48.6828 57.3726 48.7365C57.3827 48.7903 57.3981 48.8339 57.4192 48.8674C57.4401 48.9009 57.4674 48.9248 57.5009 48.939C57.5344 48.9533 57.5739 48.9604 57.6192 48.9604C57.6728 48.9604 57.7185 48.9525 57.7562 48.9366C57.794 48.9206 57.8303 48.9009 57.8657 48.8775V48.1027C57.8388 48.0994 57.8116 48.0973 57.7839 48.0964C57.7562 48.0956 57.7307 48.0953 57.7071 48.0953C57.6451 48.0953 57.5922 48.1011 57.5485 48.1129C57.5049 48.1245 57.4689 48.1469 57.4404 48.1795C57.4119 48.2122 57.391 48.2572 57.3774 48.3141C57.3639 48.3711 57.3573 48.4458 57.3573 48.538L57.3575 48.5378Z" fill="white"/>
<path d="M58.9523 47.9727C58.969 48.07 58.9849 48.1546 59.0005 48.2268C59.0156 48.2989 59.0332 48.3703 59.0534 48.4406C59.0735 48.5111 59.0987 48.5866 59.1292 48.667C59.1594 48.7474 59.1984 48.8432 59.2453 48.9538C59.3095 48.8012 59.362 48.6368 59.4034 48.4608C59.4446 48.2847 59.4772 48.1027 59.5006 47.915H59.6892C59.7109 47.915 59.7254 47.9196 59.732 47.9287C59.7388 47.938 59.7421 47.9493 59.7421 47.9627C59.7421 47.9778 59.74 47.9987 59.7358 48.0256C59.7317 48.0525 59.7279 48.0768 59.7245 48.0986C59.696 48.2663 59.66 48.4227 59.6164 48.5678C59.5728 48.7128 59.5292 48.839 59.4855 48.9463C59.4303 49.0855 59.3774 49.1991 59.3266 49.2872C59.2762 49.3752 59.2264 49.4452 59.1765 49.4973C59.1271 49.5492 59.0772 49.5849 59.0277 49.6041C58.9778 49.6234 58.9271 49.633 58.8751 49.633C58.8546 49.633 58.832 49.6318 58.8068 49.6292C58.7816 49.6267 58.7632 49.6221 58.7511 49.6154C58.7225 49.602 58.7083 49.5794 58.7083 49.5476V49.4318C58.7283 49.4335 58.7461 49.4343 58.7615 49.4343C58.7766 49.4343 58.7909 49.4343 58.8043 49.4343C58.8463 49.4343 58.8831 49.4288 58.9141 49.4179C58.9451 49.4069 58.9728 49.391 58.9964 49.3701C59.0198 49.3492 59.0417 49.3223 59.0622 49.2897C59.0823 49.257 59.1042 49.2188 59.1276 49.1752C59.0724 49.0797 59.0208 48.9795 58.9737 48.8745C58.9262 48.7697 58.8839 48.6632 58.8461 48.555C58.808 48.4469 58.7753 48.3391 58.7476 48.2318C58.7196 48.1245 58.699 48.0188 58.6855 47.9148H58.8892C58.9144 47.9148 58.9304 47.9211 58.937 47.9337C58.9438 47.9463 58.9488 47.9592 58.9521 47.9727H58.9523Z" fill="white"/>
<path d="M60.4544 49.0485C60.4544 49.1072 60.441 49.1486 60.4141 49.173C60.3872 49.1972 60.3444 49.2095 60.2857 49.2095C60.2253 49.2095 60.1822 49.1974 60.1562 49.173C60.1301 49.1486 60.1172 49.1072 60.1172 49.0485C60.1172 48.9914 60.1306 48.9508 60.1575 48.9264C60.1844 48.9022 60.227 48.8899 60.2857 48.8899C60.3444 48.8899 60.3872 48.902 60.4141 48.9264C60.441 48.9508 60.4544 48.9914 60.4544 49.0485Z" fill="white"/>
<path d="M61.3899 49.0485C61.3899 49.1072 61.3765 49.1486 61.3496 49.173C61.3228 49.1972 61.28 49.2095 61.2213 49.2095C61.1609 49.2095 61.1178 49.1974 61.0917 49.173C61.0657 49.1486 61.0527 49.1072 61.0527 49.0485C61.0527 48.9914 61.0662 48.9508 61.093 48.9264C61.1199 48.9022 61.1625 48.8899 61.2213 48.8899C61.28 48.8899 61.3228 48.902 61.3496 48.9264C61.3765 48.9508 61.3899 48.9914 61.3899 49.0485Z" fill="white"/>
<path d="M62.3255 49.0485C62.3255 49.1072 62.3121 49.1486 62.2852 49.173C62.2583 49.1972 62.2155 49.2095 62.1568 49.2095C62.0964 49.2095 62.0533 49.1974 62.0273 49.173C62.0012 49.1486 61.9883 49.1072 61.9883 49.0485C61.9883 48.9914 62.0017 48.9508 62.0286 48.9264C62.0555 48.9022 62.0981 48.8899 62.1568 48.8899C62.2155 48.8899 62.2583 48.902 62.2852 48.9264C62.3121 48.9508 62.3255 48.9914 62.3255 49.0485Z" fill="white"/>
</svg>
