<svg width="119" height="36" viewBox="0 0 119 36" fill="none" xmlns="http://www.w3.org/2000/svg">
<path fill-rule="evenodd" clip-rule="evenodd" d="M0 2.83789L15.5579 11.8048L31.1158 2.83789V8.00313L17.766 16.0231L17.8625 25.8153L15.444 27.1103L13.2432 25.8437V15.7364L0 8.149V2.83789Z" fill="white"/>
<path fill-rule="evenodd" clip-rule="evenodd" d="M0 12.479L10.2075 18.2679V23.5809L4.3225 20.3759V25.2705H0V12.479Z" fill="#CC9933"/>
<path fill-rule="evenodd" clip-rule="evenodd" d="M31.1176 12.479L20.9102 18.2679V23.5809L26.7951 20.3759V25.2705H31.1176V12.479Z" fill="#CC9933"/>
<path d="M17.8802 4.08936H15.9336V6.13103H17.8802V4.08936Z" fill="#CC9933"/>
<path d="M17.8802 6.81641H15.9336V8.85808H17.8802V6.81641Z" fill="#CC9933"/>
<path d="M15.1848 4.08936H13.2383V6.13103H15.1848V4.08936Z" fill="#CC9933"/>
<path d="M15.1848 6.81641H13.2383V8.85808H15.1848V6.81641Z" fill="#CC9933"/>
<path d="M37.2383 14.556H40.8356L41.9979 6.54975H42.0345L45.2262 14.556H46.6652L50.0041 6.54975H50.0412L51.0554 14.556H54.6714L52.5685 0.646484H48.9712L45.9825 8.08066L43.1598 0.646484H39.5996L37.2383 14.556Z" fill="#CC9933"/>
<path d="M62.3649 0.185059C58.3615 0.185059 54.6719 3.13669 54.6719 7.34259C54.6719 11.8439 57.9001 15.0168 62.3649 15.0168C66.8291 15.0168 70.0574 11.8439 70.0574 7.34259C70.0574 3.13669 66.3677 0.185059 62.3649 0.185059ZM62.3649 3.68998C64.5231 3.68998 66.2941 5.44266 66.2941 7.36134C66.2941 9.75922 64.5231 11.5119 62.3649 11.5119C60.2066 11.5119 58.4356 9.75922 58.4356 7.36134C58.4356 5.44266 60.2066 3.68998 62.3649 3.68998Z" fill="#CC9933"/>
<path d="M74.5218 6.01475V0.646484H70.9062V14.556H74.5218V8.85572H79.7424V14.556H83.3584V0.646484H79.7424V6.01475H74.5218Z" fill="#CC9933"/>
<path d="M88.488 7.87809V14.556H92.1036V7.87809L97.2323 0.646484H92.897L90.296 4.42805L87.6947 0.646484H83.3594L88.488 7.87809Z" fill="#CC9933"/>
<path d="M103.539 12.1393L104.443 14.556H108.299L103.06 0.646484H99.1117L93.7617 14.556H97.5986L98.5579 12.1393H103.539ZM102.561 9.37197H99.5543L101.049 4.94475H101.086L102.562 9.37197H102.561Z" fill="#CC9933"/>
<path d="M117.668 1.42096C116.432 0.719974 114.717 0.277344 113.315 0.277344C110.529 0.277344 108.519 2.12194 108.519 4.94462C108.519 7.6379 110.013 8.22823 112.282 8.87388C113.056 9.0952 114.477 9.44592 114.477 10.4606C114.477 11.4382 113.573 11.8626 112.724 11.8626C111.489 11.8626 110.419 11.2169 109.515 10.4235L107.965 13.3381C109.386 14.3341 111.101 14.9244 112.853 14.9244C114.255 14.9244 115.713 14.5371 116.801 13.6148C117.908 12.6742 118.24 11.2535 118.24 9.8698C118.24 7.61915 116.746 6.64153 114.809 6.06949L113.886 5.79285C113.259 5.58982 112.281 5.27614 112.281 4.4645C112.281 3.6899 113.167 3.30214 113.831 3.30214C114.716 3.30214 115.565 3.67115 116.229 4.22444L117.668 1.4205L117.668 1.42096Z" fill="#CC9933"/>
<path d="M37.2383 26.2961H39.6924V23.1656H41.0825C43.2239 23.1656 44.426 22.1889 44.426 19.9602C44.426 17.7937 43.0236 16.8545 40.9947 16.8545H37.2383V26.2961ZM39.6924 18.8326H40.1058C41.0573 18.8326 41.8713 18.8454 41.8713 20.0348C41.8713 21.1866 40.9947 21.1866 40.1058 21.1866H39.6924V18.8326Z" fill="#CC9933"/>
<path d="M49.8367 22.4267C51.1765 22.1889 51.9031 21.0617 51.9031 19.7595C51.9031 17.7434 50.4883 16.854 48.6222 16.854H44.9531V26.2956H47.4073V22.664H47.4324L49.7489 26.2956H52.8043L49.8362 22.4262L49.8367 22.4267ZM47.4073 18.7324H47.645C48.4462 18.7324 49.3479 18.8829 49.3479 19.9094C49.3479 20.9364 48.4462 21.0864 47.645 21.0864H47.4073V18.7324Z" fill="#CC9933"/>
<path d="M55.3608 16.854H52.9062V26.296H55.3608V16.854Z" fill="#CC9933"/>
<path d="M55.8359 26.296H58.2777L59.067 20.8615H59.0921L61.2582 26.296H62.2349L64.5015 20.8615H64.5267L65.2153 26.296H67.6694L66.2419 16.854H63.8001L61.7717 21.9004L59.8557 16.854H57.4391L55.8359 26.296Z" fill="#CC9933"/>
<path d="M73.5125 18.9327V16.854H68.1406V26.296H73.5125V24.2173H70.5947V22.5894H73.3621V20.5107H70.5947V18.9327H73.5125Z" fill="#CC9933"/>
<path d="M84.1336 18.9327V16.854H78.7617V26.296H84.1336V24.2173H81.2163V22.5894H83.9837V20.5107H81.2163V18.9327H84.1336Z" fill="#CC9933"/>
<path d="M91.2466 17.3804C90.4075 16.9044 89.2433 16.604 88.2913 16.604C86.4005 16.604 85.0356 17.8564 85.0356 19.7719C85.0356 21.6001 86.0502 22.0011 87.5903 22.4391C88.1162 22.5896 89.0805 22.8273 89.0805 23.516C89.0805 24.1799 88.4669 24.4675 87.8907 24.4675C87.0516 24.4675 86.3255 24.029 85.7119 23.4908L84.6602 25.4694C85.6245 26.1457 86.7892 26.5463 87.9785 26.5463C88.9301 26.5463 89.9191 26.2833 90.6581 25.6573C91.4094 25.0186 91.6348 24.0542 91.6348 23.1154C91.6348 21.5877 90.6201 20.9242 89.3055 20.536L88.6795 20.3481C88.2538 20.2104 87.5898 19.9973 87.5898 19.4463C87.5898 18.9205 88.1911 18.6576 88.6415 18.6576C89.2428 18.6576 89.8185 18.9081 90.2694 19.2836L91.2461 17.38L91.2466 17.3804Z" fill="#CC9933"/>
<path d="M95.9908 18.9327H98.0192V16.854H91.5078V18.9327H93.5362V26.296H95.9908V18.9327Z" fill="#CC9933"/>
<path d="M103.379 24.6554L103.993 26.2956H106.609L103.053 16.854H100.374L96.7422 26.2956H99.3468L99.9979 24.6554H103.379ZM102.715 22.7769H100.674L101.688 19.7718H101.713L102.715 22.7769Z" fill="#CC9933"/>
<path d="M109.815 18.9327H111.843V16.854H105.332V18.9327H107.361V26.296H109.815V18.9327Z" fill="#CC9933"/>
<path d="M117.54 18.9327V16.854H112.168V26.296H117.54V24.2173H114.622V22.5894H117.389V20.5107H114.622V18.9327H117.54Z" fill="#CC9933"/>
<path d="M0.046875 31.7048H0.555809L1.55813 34.6144L2.60389 31.5498L3.65925 34.6144L4.66706 31.7048H5.17508L3.6437 35.8152L2.60938 32.7556L1.57962 35.8152L0.046875 31.7048Z" fill="white"/>
<path d="M6.01562 35.6599V31.7046H6.48569V33.2259H8.58818V31.7046H9.06374V35.6599H8.58818V33.674H6.48569V35.6599H6.01562Z" fill="white"/>
<path d="M10.4141 35.6599V31.7046H12.4996V32.1362H10.8841V33.2703H12.4996V33.7074H10.8841V35.2228H12.4996V35.6599H10.4141Z" fill="white"/>
<path d="M13.6992 35.6599V31.7046H14.6284C14.8931 31.7046 15.0875 31.7192 15.21 31.7489C15.3335 31.7796 15.4423 31.8299 15.5365 31.9021C15.6536 31.9936 15.7441 32.117 15.8086 32.2707C15.874 32.4248 15.9064 32.5953 15.9064 32.7824C15.9064 33.1056 15.8159 33.353 15.6353 33.5208C15.4537 33.6896 15.189 33.7732 14.8396 33.7732H14.756L16.2663 35.6599H15.6686L14.2251 33.7732H14.1588V35.6599H13.6997H13.6992ZM14.1583 32.1029V33.4248H14.5168C14.8849 33.4248 15.1309 33.3777 15.2553 33.2831C15.3797 33.1889 15.4414 33.0238 15.4414 32.7878C15.4414 32.5341 15.3778 32.3571 15.2498 32.2547C15.1218 32.1532 14.8771 32.1024 14.5168 32.1024H14.1583V32.1029Z" fill="white"/>
<path d="M17.0664 35.6599V31.7046H19.152V32.1362H17.5365V33.2703H19.152V33.7074H17.5365V35.2228H19.152V35.6599H17.0664Z" fill="white"/>
<path d="M22.456 35.2173H22.756C23.2421 35.2173 23.5781 35.1962 23.7656 35.1537C23.9526 35.1112 24.1086 35.0394 24.2329 34.9361C24.3953 34.8016 24.5187 34.627 24.6024 34.4143C24.687 34.2003 24.7295 33.9561 24.7295 33.6804C24.7295 33.4038 24.6879 33.1605 24.6042 32.9502C24.5206 32.7407 24.3966 32.5674 24.2329 32.4303C24.1086 32.326 23.9508 32.2524 23.7588 32.208C23.5672 32.1637 23.2334 32.1417 22.7555 32.1417H22.4556V35.2177L22.456 35.2173ZM21.9805 35.6599V31.7046H22.74C23.3015 31.7046 23.697 31.7334 23.9266 31.7892C24.1561 31.8463 24.3582 31.9415 24.5306 32.0741C24.7574 32.2492 24.9298 32.4723 25.0469 32.7444C25.1639 33.0165 25.222 33.3297 25.222 33.685C25.222 34.038 25.1639 34.3499 25.0478 34.6206C24.9316 34.8917 24.7593 35.1149 24.5306 35.29C24.3573 35.4231 24.1607 35.5177 23.9403 35.5749C23.719 35.6311 23.376 35.6595 22.9096 35.6595H22.74H21.9805V35.6599Z" fill="white"/>
<path d="M26.3984 35.6599V31.7046H27.3276C27.5924 31.7046 27.7867 31.7192 27.9092 31.7489C28.0327 31.7796 28.1415 31.8299 28.2357 31.9021C28.3528 31.9936 28.4433 32.117 28.5078 32.2707C28.5732 32.4248 28.6056 32.5953 28.6056 32.7824C28.6056 33.1056 28.5151 33.353 28.3345 33.5208C28.153 33.6896 27.8882 33.7732 27.5389 33.7732H27.4552L28.9655 35.6599H28.3679L26.9243 33.7732H26.858V35.6599H26.3989H26.3984ZM26.8575 32.1029V33.4248H27.216C27.5841 33.4248 27.8301 33.3777 27.9545 33.2831C28.0789 33.1889 28.1406 33.0238 28.1406 32.7878C28.1406 32.5341 28.0771 32.3571 27.949 32.2547C27.821 32.1532 27.5763 32.1024 27.216 32.1024H26.8575V32.1029Z" fill="white"/>
<path d="M29.7656 35.6599V31.7046H31.8512V32.1362H30.2357V33.2703H31.8512V33.7074H30.2357V35.2228H31.8512V35.6599H29.7656Z" fill="white"/>
<path d="M34.2994 32.5896L33.6706 34.0446H34.929L34.2994 32.5896ZM34.2994 31.5498L36.0982 35.6601H35.5884L35.0749 34.4484H33.5303L33.0167 35.6601H32.5078L34.2994 31.5498Z" fill="white"/>
<path d="M38.7556 35.8152L37.5265 32.9733L37.0294 35.6601H36.5703L37.3724 31.5498L38.7556 34.8201L40.1388 31.5498L40.9404 35.6601H40.4817L39.9792 32.9733L38.7556 35.8152Z" fill="white"/>
<path d="M43.3915 33.4646C43.6489 33.5743 43.8433 33.7197 43.9731 33.9017C44.1039 34.0833 44.1698 34.2991 44.1698 34.5469C44.1698 34.91 44.0536 35.2036 43.8222 35.4258C43.5909 35.648 43.2845 35.7596 42.9022 35.7596C42.5908 35.7596 42.3297 35.6805 42.1185 35.5209C41.9081 35.3613 41.7664 35.1354 41.6914 34.8423L42.1185 34.6311C42.1766 34.8707 42.2717 35.0527 42.4043 35.1761C42.5364 35.2996 42.7024 35.3618 42.9022 35.3618C43.1382 35.3618 43.3289 35.2936 43.4756 35.1578C43.6215 35.0216 43.6942 34.8441 43.6942 34.6269C43.6942 34.45 43.6435 34.2968 43.541 34.166C43.4395 34.0352 43.2868 33.9255 43.081 33.835L42.5995 33.6292C42.3366 33.5195 42.1404 33.3786 42.0124 33.2049C41.8835 33.0325 41.8185 32.8249 41.8185 32.5834C41.8185 32.3022 41.9228 32.0699 42.1322 31.8866C42.3412 31.7032 42.6078 31.6108 42.9324 31.6108C43.1693 31.6108 43.376 31.6616 43.5493 31.7622C43.7235 31.8637 43.8593 32.0119 43.9558 32.2094L43.5666 32.4577C43.4788 32.3045 43.3796 32.1911 43.2694 32.1166C43.1597 32.042 43.0353 32.0041 42.8967 32.0041C42.7198 32.0041 42.5748 32.0585 42.4624 32.1664C42.3499 32.2743 42.2936 32.4115 42.2936 32.5793C42.2936 32.7192 42.3371 32.8409 42.4235 32.9433C42.509 33.0466 42.6439 33.1367 42.8254 33.2163L43.3906 33.465L43.3915 33.4646Z" fill="white"/>
<path d="M46.832 35.6599V31.7046H48.9176V32.1362H47.3021V33.2703H48.9176V33.7074H47.3021V35.6599H46.832Z" fill="white"/>
<path d="M50.043 35.6599V31.7046H50.513V35.6599H50.043Z" fill="white"/>
<path d="M51.875 35.6601V31.5498L54.7686 34.7095V31.7048H55.2167V35.8152L52.3231 32.6884V35.6601H51.875Z" fill="white"/>
<path d="M57.042 35.2173H57.3419C57.828 35.2173 58.1641 35.1962 58.3516 35.1537C58.5386 35.1112 58.6945 35.0394 58.8189 34.9361C58.9812 34.8016 59.1047 34.627 59.1883 34.4143C59.2729 34.2003 59.3155 33.9561 59.3155 33.6804C59.3155 33.4038 59.2739 33.1605 59.1902 32.9502C59.1065 32.7407 58.9826 32.5674 58.8189 32.4303C58.6945 32.326 58.5367 32.2524 58.3447 32.208C58.1531 32.1637 57.8193 32.1417 57.3415 32.1417H57.0415V35.2177L57.042 35.2173ZM56.5664 35.6599V31.7046H57.3259C57.8874 31.7046 58.283 31.7334 58.5125 31.7892C58.7421 31.8463 58.9442 31.9415 59.1166 32.0741C59.3434 32.2492 59.5158 32.4723 59.6328 32.7444C59.7499 33.0165 59.8079 33.3297 59.8079 33.685C59.8079 34.038 59.7499 34.3499 59.6337 34.6206C59.5176 34.8917 59.3452 35.1149 59.1166 35.29C58.9433 35.4231 58.7466 35.5177 58.5262 35.5749C58.3049 35.6311 57.962 35.6595 57.4956 35.6595H57.3259H56.5664V35.6599Z" fill="white"/>
<path d="M63.3046 35.6599V32.1527H62.1875V31.7046H64.8927V32.1527H63.7806V35.6599H63.3046Z" fill="white"/>
<path d="M65.8203 35.6599V31.7046H66.2904V33.2259H68.3924V31.7046H68.868V35.6599H68.3924V33.674H66.2904V35.6599H65.8203Z" fill="white"/>
<path d="M70.2188 35.6599V31.7046H72.3043V32.1362H70.6888V33.2703H72.3043V33.7074H70.6888V35.2228H72.3043V35.6599H70.2188Z" fill="white"/>
<path d="M73.5117 35.6599V31.7046H73.9818V35.6599H73.5117Z" fill="white"/>
<path d="M75.3438 35.6599V31.7046H76.2729C76.5377 31.7046 76.732 31.7192 76.8545 31.7489C76.978 31.7796 77.0868 31.8299 77.181 31.9021C77.2981 31.9936 77.3886 32.117 77.4531 32.2707C77.5185 32.4248 77.551 32.5953 77.551 32.7824C77.551 33.1056 77.4604 33.353 77.2798 33.5208C77.0983 33.6896 76.8335 33.7732 76.4842 33.7732H76.4005L77.9108 35.6599H77.3132L75.8696 33.7732H75.8033V35.6599H75.3442H75.3438ZM75.8028 32.1029V33.4248H76.1613C76.5294 33.4248 76.7754 33.3777 76.8998 33.2831C77.0242 33.1889 77.0859 33.0238 77.0859 32.7878C77.0859 32.5341 77.0224 32.3571 76.8943 32.2547C76.7663 32.1532 76.5217 32.1024 76.1613 32.1024H75.8028V32.1029Z" fill="white"/>
<path d="M80.3398 35.6599V31.7046H80.8099V33.2259H82.9119V31.7046H83.3875V35.6599H82.9119V33.674H80.8099V35.6599H80.3398Z" fill="white"/>
<path d="M86.6668 35.3228C86.8826 35.3228 87.0893 35.2821 87.2836 35.1998C87.4793 35.1179 87.6554 34.9981 87.8122 34.8413C87.9672 34.6863 88.0852 34.5111 88.1661 34.315C88.2471 34.1184 88.2878 33.9103 88.2878 33.6908C88.2878 33.4695 88.2471 33.2582 88.1652 33.0584C88.0829 32.8586 87.965 32.6825 87.8122 32.5294C87.6572 32.3744 87.4821 32.2564 87.2868 32.1754C87.092 32.094 86.8849 32.0538 86.6672 32.0538C86.4478 32.0538 86.2397 32.0945 86.0431 32.1754C85.8465 32.2564 85.6732 32.3744 85.5223 32.5294C85.3673 32.6862 85.2493 32.8632 85.1683 33.0612C85.0869 33.2596 85.0467 33.4695 85.0467 33.6908C85.0467 33.9103 85.0865 34.1179 85.1665 34.3122C85.247 34.507 85.3659 34.6831 85.5223 34.8413C85.6809 35 85.857 35.1198 86.0499 35.2007C86.2434 35.2821 86.45 35.3228 86.6677 35.3228H86.6668ZM88.7803 33.6908C88.7803 33.9739 88.7277 34.2404 88.6234 34.4901C88.5192 34.7407 88.3669 34.9629 88.1671 35.1577C87.9668 35.352 87.7363 35.5016 87.4766 35.6077C87.2155 35.7128 86.9466 35.7654 86.6672 35.7654C86.3879 35.7654 86.1194 35.7128 85.8606 35.6077C85.6023 35.5016 85.3727 35.352 85.1729 35.1577C84.9713 34.9611 84.8181 34.7379 84.712 34.4874C84.6068 34.2377 84.5547 33.972 84.5547 33.6908C84.5547 33.4078 84.6073 33.1412 84.712 32.8897C84.8181 32.6391 84.9713 32.4146 85.1729 32.2184C85.3709 32.0259 85.5995 31.8773 85.8597 31.7731C86.119 31.6688 86.3879 31.6162 86.6672 31.6162C86.9485 31.6162 87.2187 31.6688 87.4793 31.7731C87.7395 31.8773 87.9691 32.0255 88.1671 32.2184C88.3669 32.4132 88.5192 32.6359 88.6234 32.8869C88.7277 33.1384 88.7803 33.4059 88.7803 33.6908Z" fill="white"/>
<path d="M91.7981 35.8152L90.5694 32.9733L90.0724 35.6601H89.6133L90.4153 31.5498L91.7981 34.8201L93.1813 31.5498L93.9833 35.6601H93.5243L93.0217 32.9733L91.7981 35.8152Z" fill="white"/>
<path d="M94.9961 35.6599V31.7046H97.0817V32.1362H95.4666V33.2703H97.0817V33.7074H95.4666V35.2228H97.0817V35.6599H94.9961Z" fill="white"/>
<path d="M98.3989 35.3952C98.3989 35.3065 98.4304 35.231 98.4931 35.1684C98.5567 35.1048 98.6326 35.0737 98.7199 35.0737C98.8104 35.0737 98.8868 35.1053 98.9504 35.167C99.0139 35.2297 99.0459 35.306 99.0459 35.3956C99.0459 35.4844 99.0144 35.5589 98.9517 35.6197C98.8882 35.6796 98.8113 35.7102 98.7194 35.7102C98.6298 35.7102 98.5535 35.6796 98.4917 35.6197C98.43 35.5589 98.3984 35.4844 98.3984 35.3956L98.3989 35.3952Z" fill="white"/>
<path d="M100.438 35.3952C100.438 35.3065 100.47 35.231 100.532 35.1684C100.596 35.1048 100.672 35.0737 100.759 35.0737C100.849 35.0737 100.926 35.1053 100.989 35.167C101.053 35.2297 101.085 35.306 101.085 35.3956C101.085 35.4844 101.053 35.5589 100.991 35.6197C100.927 35.6796 100.85 35.7102 100.758 35.7102C100.669 35.7102 100.593 35.6796 100.531 35.6197C100.469 35.5589 100.438 35.4844 100.438 35.3956L100.438 35.3952Z" fill="white"/>
<path d="M102.473 35.3952C102.473 35.3065 102.505 35.231 102.567 35.1684C102.631 35.1048 102.707 35.0737 102.794 35.0737C102.885 35.0737 102.961 35.1053 103.025 35.167C103.088 35.2297 103.12 35.306 103.12 35.3956C103.12 35.4844 103.089 35.5589 103.026 35.6197C102.962 35.6796 102.886 35.7102 102.794 35.7102C102.704 35.7102 102.628 35.6796 102.566 35.6197C102.504 35.5589 102.473 35.4844 102.473 35.3956L102.473 35.3952Z" fill="white"/>
</svg>
